<svg height="100" viewBox="0 0 132 165" width="80" xmlns="http://www.w3.org/2000/svg"><g fill="#fff"><path d="m127.59 104.79-17.46-17.46v-72.83c0-.16 0-.32 0-.48 0-7.7-6.22-13.94-13.91-13.94-7.7 0-13.93 6.24-13.93 13.94h-.01v48.25c-.04-.02-.08-.05-.12-.07-7.92-4.47-17.07-7.03-26.82-7.03-2.22 0-4.41.14-6.57.4v.03c-27.07 3.27-48.06 26.3-48.06 54.25 0 28.31 21.51 51.59 49.08 54.39v-.01c1.85.19 3.73.3 5.63.3 25.07 0 46.18-16.88 52.63-39.89 2.52 2.5 5.97 4.05 9.8 4.05 7.7 0 13.930183-6.24 13.930183-13.93.019817-3.92-1.600183-7.44-4.190183-9.97zm-45.36 5.06c0 14.8-12 26.8-26.8 26.8-2.42 0-4.76-.33-7-.93v.01c-11.43-3.06-19.84-13.49-19.84-25.88 0-12.88 9.09-23.64 21.21-26.21 1.79-.38 3.64-.59 5.54-.59 7.11 0 13.56 2.77 18.36 7.28.02.01.03.01.05.01l8.41 8.41.09.09v11.02c0-.01-.01-.01-.02-.01z"/><path d="m82.25 95.81v14.04h-.01c0 14.8-12 26.8-26.8 26.8-2.42 0-4.76-.33-7-.93.15 4.96.01 9.94-.15 14.86-.14 4.47-.33 8.93-.57 13.39 2.52.35 5.09.55 7.71.55 25.09 0 46.22-16.91 52.65-39.95.24-.84.45-1.7.64-2.56z"/><path d="m49.8 136.06c-12.11-2.57-21.21-13.33-21.21-26.21s9.09-23.64 21.21-26.21v-28.17c-27.56 2.8-49.08 26.07-49.08 54.38s21.51 51.59 49.08 54.39z"/><path d="m110.13 14.02c.01-.16 0 .16 0 0 0-7.7-6.22-13.94-13.91-13.94s-13.93 6.24-13.93 13.94h-.01v85.09l25.67 25.78c.05-.18.11-.36.16-.54 1.31-4.69 2.02-9.62 2.02-14.73 0-.07 0-.15 0-.22z"/><path d="m127.59 104.79-17.58-17.58-15.69-15.69-.65-.65-.31-.31-.01.01c-3.35-3.24-7.11-6.06-11.19-8.36-7.92-4.47-17.07-7.03-26.82-7.03-2.22 0-4.41.14-6.57.4v28.29c2.1-.53 4.3-.82 6.57-.82 7.11 0 13.56 2.77 18.36 7.28.02.01.03.01.05.01l8.41 8.41 11.11 11.12 14.64 14.64c.03.03.05.05.08.07 2.52 2.54 6.01 4.11 9.87 4.11 7.7 0 13.930046-6.24 13.930046-13.93.009954-3.92-1.610046-7.44-4.200046-9.97z"/></g></svg>