<svg xmlns="http://www.w3.org/2000/svg" xmlns:xlink="http://www.w3.org/1999/xlink" width="184.056" height="160.96" viewBox="0 0 184.056 160.96">
  <defs>
    <clipPath id="clip-path">
      <rect id="Rectangle_2626" data-name="Rectangle 2626" width="156.522" height="97.273" fill="none"/>
    </clipPath>
  </defs>
  <g id="Group_6295" data-name="Group 6295" transform="matrix(0.875, -0.485, 0.485, 0.875, 0, 75.883)">
    <g id="Group_6294" data-name="Group 6294" transform="translate(0 0)" clip-path="url(#clip-path)">
      <path id="Path_4993" data-name="Path 4993" d="M154.429,79.23V90.815a4.366,4.366,0,0,1-4.366,4.366H5.366A4.366,4.366,0,0,1,1,90.815v-13.1a76.724,76.724,0,0,1,75.237-76.7c43-.813,78.192,35.212,78.192,78.217" transform="translate(0.546 0.546)" fill="#a3f7f7"/>
      <path id="Path_4994" data-name="Path 4994" d="M150.608,97.273H5.912A5.918,5.918,0,0,1,0,91.361V78.26C0,35.916,34.431.813,76.754.014A76.846,76.846,0,0,1,132.345,22.4a80.925,80.925,0,0,1,24.177,57.382V91.361a5.919,5.919,0,0,1-5.914,5.912M78.215,3.093c-.469,0-.934,0-1.4.014C36.163,3.875,3.093,37.589,3.093,78.26v13.1A2.823,2.823,0,0,0,5.912,94.18h144.7a2.823,2.823,0,0,0,2.821-2.819V79.777A77.813,77.813,0,0,0,130.18,24.6,73.813,73.813,0,0,0,78.215,3.093" transform="translate(0 0)" fill="#2b2b2b"/>
      <path id="Path_4995" data-name="Path 4995" d="M25.256,46.2A9.716,9.716,0,0,1,27.525,53.2l-.1,4.884L9.8,57.724l.1-4.885a9.72,9.72,0,0,1,2.555-6.906,8.323,8.323,0,0,1,6.452-2.463A8.319,8.319,0,0,1,25.256,46.2M12.224,54.34l.786.851,11.283.232.852-.817.031-1.454c.088-4.3-2.332-6.882-6.32-6.964s-6.512,2.4-6.6,6.7Z" transform="translate(5.357 23.751)" fill="#2b2b2b"/>
      <path id="Path_4996" data-name="Path 4996" d="M17.924,30.161a9.876,9.876,0,0,1,6.987.612,9.928,9.928,0,0,1,5.21,4.695,7.667,7.667,0,0,1-4.591,10.55,10.08,10.08,0,0,1-6.974-.639,10.027,10.027,0,0,1-5.222-4.667,7.669,7.669,0,0,1,4.591-10.551m5.9,3.107c-3.744-1.628-7.055-.843-8.338,2.106s.382,5.867,4.154,7.509c3.744,1.628,7.015.858,8.3-2.091,1.3-2.978-.37-5.895-4.113-7.525" transform="translate(6.865 16.271)" fill="#2b2b2b"/>
      <path id="Path_4997" data-name="Path 4997" d="M38.494,33.117l-9.271-6.552-.4.388,6.3,9.442-2.592,2.524L18.069,28.4l1.905-1.856L31.209,35.03l.421-.408-6.538-9.777,2.194-2.134,9.6,6.8.421-.41L29.124,17.641l1.84-1.789L41.086,30.593Z" transform="translate(9.873 8.661)" fill="#2b2b2b"/>
      <path id="Path_4998" data-name="Path 4998" d="M44.689,9.478l6.442,16.409-2.793,1.1-12.3-9.824-.748.294,4.984,12.695L38,31.042,31.561,14.633,34.9,13.321l11.423,9.206.748-.3-4.658-11.86Z" transform="translate(17.246 5.179)" fill="#2b2b2b"/>
      <path id="Path_4999" data-name="Path 4999" d="M50.525,8.319l-.3,14.374.786.852,9.3.192-.049,2.409-12.705-.261.363-17.618Z" transform="translate(25.991 4.517)" fill="#2b2b2b"/>
      <path id="Path_5000" data-name="Path 5000" d="M74.882,15.953a9.872,9.872,0,0,1-.473,7,9.933,9.933,0,0,1-4.59,5.3A7.669,7.669,0,0,1,59.18,23.87a10.072,10.072,0,0,1,.5-6.985,10.021,10.021,0,0,1,4.562-5.314,7.669,7.669,0,0,1,10.639,4.381m-2.989,5.96c1.554-3.775.7-7.069-2.272-8.293s-5.858.5-7.424,4.3c-1.553,3.775-.719,7.029,2.255,8.253,3,1.236,5.887-.487,7.441-4.262" transform="translate(32.114 5.867)" fill="#2b2b2b"/>
      <path id="Path_5001" data-name="Path 5001" d="M79.721,39.122l-2-1.978L79.959,32.1l-5.525-5.454-5.017,2.307L67.436,27,84.8,19.359l2.355,2.324Zm-2.6-13.7,0,.7,3.3,3.261.744,0,2.739-6.209-.6-.588Z" transform="translate(36.849 10.578)" fill="#2b2b2b"/>
      <path id="Path_5002" data-name="Path 5002" d="M82.974,45.992a9.72,9.72,0,0,1-4.952-5.45L76.1,36.052,92.31,29.124l1.921,4.492a9.719,9.719,0,0,1,.517,7.346,9.19,9.19,0,0,1-11.773,5.031M91.5,33.2l-1.067-.452L80.053,37.186l-.441,1.1.572,1.336c1.689,3.953,4.959,5.312,8.628,3.744s4.945-4.871,3.257-8.824Z" transform="translate(41.584 15.914)" fill="#2b2b2b"/>
      <path id="Path_5003" data-name="Path 5003" d="M85.254,56.217c1.268-.02,2.061-.775,2.436-2.482l.982-4.349c.779-3.478,2.15-4.924,4.531-4.962a4.421,4.421,0,0,1,3.68,1.8,7.813,7.813,0,0,1,1.5,4.834,11.138,11.138,0,0,1-2.575,7.313l-2.069-1.607a8.684,8.684,0,0,0,2.227-5.855c-.039-2.443-.99-3.912-2.569-3.888-1.113.017-1.752.71-2.213,2.85l-1.044,4.35c-.7,2.982-2.279,4.554-4.661,4.593A4.772,4.772,0,0,1,81.49,56.9a8.13,8.13,0,0,1-1.6-5.08,12.305,12.305,0,0,1,2.683-8.273l2.252,1.511a9.927,9.927,0,0,0-2.491,6.724c.043,2.691,1.186,4.469,2.918,4.44" transform="translate(43.654 23.792)" fill="#2b2b2b"/>
    </g>
  </g>
</svg>
