<svg xmlns="http://www.w3.org/2000/svg" xmlns:xlink="http://www.w3.org/1999/xlink" width="296.434" height="253.713" viewBox="0 0 296.434 253.713">
  <defs>
    <clipPath id="clip-path">
      <rect id="Rectangle_2638" data-name="Rectangle 2638" width="271.499" height="126.204" fill="none"/>
    </clipPath>
  </defs>
  <g id="Group_6333" data-name="Group 6333" transform="matrix(0.839, 0.545, -0.545, 0.839, 68.735, 0)">
    <g id="Group_6321" data-name="Group 6321" transform="translate(0 0)" clip-path="url(#clip-path)">
      <path id="Path_5043" data-name="Path 5043" d="M261.592,44.654,23.259,123.732A11.7,11.7,0,0,1,8.482,116.3L1.592,95.452A11.7,11.7,0,0,1,9.027,80.675L247.36,1.6a11.7,11.7,0,0,1,14.778,7.435l6.889,20.845a11.7,11.7,0,0,1-7.435,14.778" transform="translate(0.439 0.441)" fill="#fff"/>
      <path id="Path_5044" data-name="Path 5044" d="M20.04,126.2A13.163,13.163,0,0,1,7.554,117.19L.665,96.345a13.151,13.151,0,0,1,8.351-16.6L247.347.671a13.135,13.135,0,0,1,16.6,8.349l6.891,20.845a13.152,13.152,0,0,1-8.349,16.6L24.152,125.539a13.082,13.082,0,0,1-4.112.665M251.481,2.881a10.3,10.3,0,0,0-3.228.523L9.92,82.483A10.27,10.27,0,0,0,3.4,95.441l6.891,20.845A10.266,10.266,0,0,0,23.249,122.8L261.581,43.727A10.27,10.27,0,0,0,268.1,30.769L261.211,9.924a10.279,10.279,0,0,0-9.73-7.043" transform="translate(0 0)" fill="#2c2c2c"/>
      <path id="Path_5045" data-name="Path 5045" d="M34.433,57.639l6.7,20.259-3.447,1.139L23.472,66.349l-.924.305L27.73,82.327l-2.808.929L18.224,63l4.122-1.363,13.2,11.881.923-.305-4.84-14.641Z" transform="translate(8.014 25.347)" fill="#2c2c2c"/>
      <path id="Path_5046" data-name="Path 5046" d="M40.588,67.934l1.764,5.331,1.24.654,11.766-3.889.917,2.773L40.6,77.984,33.9,57.725l15.32-5.064.917,2.772-11.41,3.772-.619,1.23,1.562,4.727L50.441,61.6l.916,2.772Z" transform="translate(14.907 23.158)" fill="#2c2c2c"/>
      <path id="Path_5047" data-name="Path 5047" d="M67.2,50.121l-6.788,2.245-.654,1.241,5.474,16.563L62.171,71.18,56.7,54.617,55.467,54l-6.826,2.256-.914-2.772L66.28,47.349Z" transform="translate(20.988 20.822)" fill="#2c2c2c"/>
      <path id="Path_5048" data-name="Path 5048" d="M74.257,48.407,78.51,61.274l1.231.618,4.866-1.61.917,2.773L70.987,67.861l-.916-2.773,4.833-1.6.654-1.241L71.307,49.383l-1.278-.644-4.833,1.6-.9-2.737,14.539-4.8.9,2.737-4.869,1.608Z" transform="translate(28.272 18.819)" fill="#2c2c2c"/>
      <path id="Path_5049" data-name="Path 5049" d="M102.277,58.441,100.5,60.922l-3.558-2.53a9.287,9.287,0,0,1-3.591,2.134,8.749,8.749,0,0,1-7.6-.8A12.2,12.2,0,0,1,80.7,52.917a12.127,12.127,0,0,1,0-8.476A9.282,9.282,0,0,1,93.919,40.07,11.956,11.956,0,0,1,99,46.867a12.189,12.189,0,0,1-.259,9ZM83.828,51.883c1.551,4.692,4.884,7.022,8.579,5.8a6.787,6.787,0,0,0,1.363-.649l.049-.921-2.931-2.069,1.784-2.482,2.989,2.128.639-.212a10.218,10.218,0,0,0-.425-5.576c-1.551-4.691-4.93-7.045-8.626-5.822s-4.986,5.078-3.422,9.8" transform="translate(35.151 17.042)" fill="#2c2c2c"/>
      <path id="Path_5050" data-name="Path 5050" d="M111.372,46.235,107.19,33.583l2.986-.988,4.312,13.044a7.739,7.739,0,0,1-.478,6.309,9.24,9.24,0,0,1-11.551,3.818,7.7,7.7,0,0,1-4.109-4.793L94.039,37.929l2.986-.986L101.206,49.6a5.358,5.358,0,1,0,10.166-3.36" transform="translate(41.354 14.333)" fill="#2c2c2c"/>
      <path id="Path_5051" data-name="Path 5051" d="M116.377,42.882l1.762,5.331,1.241.654,11.764-3.889.917,2.773-15.675,5.18-6.7-20.259,15.319-5.062.917,2.77-11.41,3.772-.619,1.23,1.562,4.727,10.771-3.559.916,2.772Z" transform="translate(48.236 12.142)" fill="#2c2c2c"/>
      <path id="Path_5052" data-name="Path 5052" d="M142.986,25.069l-6.79,2.246-.654,1.241,5.474,16.563-3.055,1.009-5.475-16.563-1.23-.619L124.43,31.2l-.914-2.772L142.069,22.3Z" transform="translate(54.316 9.805)" fill="#2c2c2c"/>
      <path id="Path_5053" data-name="Path 5053" d="M158.142,20.06,151.354,22.3l-.654,1.241,5.474,16.563-3.057,1.011-5.474-16.563-1.23-.621-6.826,2.258-.914-2.773,18.553-6.133Z" transform="translate(60.982 7.602)" fill="#2c2c2c"/>
      <path id="Path_5054" data-name="Path 5054" d="M161.851,27.851l1.764,5.333,1.24.652,11.766-3.889.917,2.773L161.861,37.9l-6.7-20.259,15.32-5.062.917,2.77-11.41,3.774-.619,1.23,1.562,4.727L171.7,21.52l.916,2.77Z" transform="translate(68.233 5.532)" fill="#2c2c2c"/>
    </g>
  </g>
</svg>
