<svg xmlns="http://www.w3.org/2000/svg" xmlns:xlink="http://www.w3.org/1999/xlink" width="208.683" height="204.394" viewBox="0 0 208.683 204.394">
  <defs>
    <clipPath id="clip-path">
      <rect id="Rectangle_2624" data-name="Rectangle 2624" width="159.117" height="149.803" fill="none"/>
    </clipPath>
  </defs>
  <g id="Group_6291" data-name="Group 6291" transform="matrix(0.899, 0.438, -0.438, 0.899, 65.669, 0)">
    <g id="Group_6290" data-name="Group 6290" transform="translate(0 0)" clip-path="url(#clip-path)">
      <path id="Path_4977" data-name="Path 4977" d="M138.918,8.113c-.3-.21-.6-.4-.942-.629C118.423-5.266,89.593,1.849,78.7,22.969c-1.805-3.5-7.256-9.318-8.049-10.214C63.429,4.827,51.852.844,41.284,1,15.508,1.4-.464,23.671,1.106,48.135A67.459,67.459,0,0,0,4.729,65.727c6.993,20.244,20.737,34.213,37.416,46.836,4.4,3.338,9.3,6.558,14.03,10.061.015.015.03.015.044.03C64.235,128.536,71.1,135.4,75.672,144.34c2.086,4.074,4.151,3.413,6.183-.356C89.6,129.62,102.69,122.1,115.261,112.563c16.68-12.623,30.425-26.591,37.418-46.836A67.562,67.562,0,0,0,156.3,48.091c.987-15.378-3.819-30.635-17.384-39.978" transform="translate(0.844 0.843)" fill="#9290f3"/>
      <path id="Path_4978" data-name="Path 4978" d="M79.43,149.8h-.039c-2.595-.026-4.04-2.851-4.516-3.778-3.992-7.8-9.969-14.465-18.8-20.967l-.243-.179c-2.145-1.586-4.321-3.111-6.467-4.616-2.619-1.837-5.09-3.57-7.485-5.387-14.439-10.926-30.252-25.14-38.047-47.7A69.179,69.179,0,0,1,.109,49.1c-.874-13.62,3.524-26.733,12.064-35.978A40.576,40.576,0,0,1,42.1,0c.218,0,.439,0,.656,0C54.4,0,65.887,4.7,72.863,12.357l.42.467a90.628,90.628,0,0,1,6.178,7.409A44.319,44.319,0,0,1,139.827,6.782c.361.236.673.441.988.66,12.87,8.87,19.324,23.646,18.171,41.61a69.118,69.118,0,0,1-3.721,18.123c-7.793,22.56-23.606,36.774-38.047,47.7-2.3,1.746-4.625,3.426-6.926,5.093-10.205,7.384-19.842,14.36-25.968,25.732-.548,1.014-2.211,4.1-4.894,4.1M58.254,122.085c9.314,6.854,15.64,13.93,19.9,22.26.743,1.453,1.248,1.741,1.317,1.774a5.963,5.963,0,0,0,1.6-2.167c6.53-12.114,16.5-19.33,27.051-26.968,2.281-1.65,4.581-3.316,6.864-5.047,14-10.594,29.317-24.338,36.789-45.967A65.3,65.3,0,0,0,155.3,48.814c1.07-16.619-4.82-30.235-16.587-38.338l-.013-.007c-.282-.2-.564-.384-.889-.6a39.572,39.572,0,0,0-31.729-4.638,38.974,38.974,0,0,0-24.9,19.422L79.55,27.834,77.91,24.657c-1.5-2.9-5.907-7.758-7.358-9.355l-.435-.481C63.72,7.8,53,3.489,42.157,3.692A36.981,36.981,0,0,0,14.88,15.625C7.024,24.13,2.98,36.243,3.792,48.86A65.215,65.215,0,0,0,7.318,65.968C14.79,87.6,30.1,101.343,44.1,111.935c2.344,1.778,4.785,3.493,7.373,5.307,2.17,1.521,4.37,3.065,6.535,4.665Z" transform="translate(0 -0.001)" fill="#2c2c2c"/>
      <path id="Path_4979" data-name="Path 4979" d="M33.587,48.557H30.231L27.906,42.4H18.647l-2.324,6.161H13l8.335-21.026h3.948ZM19.9,39.114l.59.59h5.534l.627-.627-2.877-7.563h-1Z" transform="translate(10.976 23.237)" fill="#2b2b2b"/>
      <path id="Path_4980" data-name="Path 4980" d="M34.334,40.183h-4.61v8.374h-3.1V27.531H34.85c5.422,0,8.411,2.25,8.411,6.344,0,3.1-1.733,5.165-4.981,5.94v.776l5.792,7.966H40.348Zm.443-9.812H30.72l-1,1v5.938h5.053c3.5,0,5.313-1.18,5.313-3.432,0-2.324-1.809-3.5-5.313-3.5" transform="translate(22.472 23.237)" fill="#2b2b2b"/>
      <path id="Path_4981" data-name="Path 4981" d="M54.343,30.349A11.782,11.782,0,0,1,57,38.28a11.849,11.849,0,0,1-2.657,7.931,8.617,8.617,0,0,1-6.86,3.1,8.617,8.617,0,0,1-6.86-3.1A12.011,12.011,0,0,1,38,38.28a11.943,11.943,0,0,1,2.62-7.931,8.617,8.617,0,0,1,6.86-3.1,8.617,8.617,0,0,1,6.86,3.1m-.59,7.931c0-4.87-2.434-8.116-6.27-8.116S41.25,33.373,41.25,38.28c0,4.87,2.4,8.079,6.233,8.079,3.873,0,6.27-3.209,6.27-8.079" transform="translate(32.077 23.001)" fill="#2b2b2b"/>
      <path id="Path_4982" data-name="Path 4982" d="M54.957,39.151l-1,.959v8.448h-3.1V27.532h3.1v7.745l1,1h8.669l.959-1V27.532h3.1V48.558h-3.1V40.11l-.959-.959Z" transform="translate(42.931 23.238)" fill="#2b2b2b"/>
      <path id="Path_4983" data-name="Path 4983" d="M82.706,48.557H79.35L77.025,42.4H67.766l-2.324,6.161H62.123l8.335-21.026h3.948ZM69.02,39.114l.59.59h5.534l.627-.627-2.877-7.563h-1Z" transform="translate(52.436 23.237)" fill="#2b2b2b"/>
    </g>
  </g>
</svg>
