<svg xmlns="http://www.w3.org/2000/svg" xmlns:xlink="http://www.w3.org/1999/xlink" width="203.886" height="163.707" viewBox="0 0 203.886 163.707">
  <defs>
    <clipPath id="clip-path">
      <rect id="Rectangle_2637" data-name="Rectangle 2637" width="186.336" height="139.128" fill="none"/>
    </clipPath>
  </defs>
  <g id="Group_6332" data-name="Group 6332" transform="translate(0 25.933) rotate(-8)">
    <g id="Group_6319" data-name="Group 6319" transform="translate(0 -0.001)" clip-path="url(#clip-path)">
      <path id="Path_5035" data-name="Path 5035" d="M146.51,105.47v.154c.136,1,.27,2,.424,3a126.243,126.243,0,0,0,3.536,16.447c.517,1.787,1.037,3.594,1.708,5.342.155.4,1.787,4.227,2.171,4.227a4.77,4.77,0,0,1-3.439-.057c-4.823-1.307-8.684-4.189-12.068-7.705a61.575,61.575,0,0,1-8.9-11.894c-.518-.9-1.017-1.805-1.5-2.748-.961.288-1.921.538-2.9.769a133.809,133.809,0,0,1-33.278,4.093c-49.689,0-90.095-25.785-90.095-57.469S42.582,2.176,92.271,2.176s90.093,25.766,90.093,57.449c0,17.792-12.74,33.721-32.7,44.27-1.037.538-2.075,1.075-3.152,1.575" transform="translate(0.898 0.899)" fill="#a3f7f7"/>
      <path id="Path_5036" data-name="Path 5036" d="M186.336,60.525C186.336,27.15,144.546,0,93.169,0S0,27.15,0,60.525c0,33.393,41.79,60.543,93.169,60.543a136.709,136.709,0,0,0,34.834-4.4,64.832,64.832,0,0,0,9.318,13.008,30.182,30.182,0,0,0,13.162,8.608,19.786,19.786,0,0,0,6.609.825c2.632-.1,3.344-1.441,1.941-3.593-.116-.154-.23-.307-.346-.442a22.585,22.585,0,0,1-3.958-8.378c-.923-3.381-1.729-6.781-2.46-10.221-.576-2.748-1.267-5.534-1.575-8.358,21.693-11.087,35.642-28.3,35.642-47.592M150.56,104.793c-1.037.538-2.075,1.077-3.15,1.575v.154c.134,1,.268,2,.422,3a126.8,126.8,0,0,0,3.535,16.447c.518,1.787,1.038,3.593,1.711,5.342.153.4,1.786,4.227,2.171,4.227a4.78,4.78,0,0,1-3.44-.058c-4.823-1.307-8.684-4.189-12.066-7.705a61.517,61.517,0,0,1-8.9-11.894c-.518-.9-1.019-1.805-1.5-2.746-.961.288-1.921.537-2.9.769a133.847,133.847,0,0,1-33.277,4.091c-49.687,0-90.095-25.784-90.095-57.467S43.481,3.074,93.169,3.074s90.093,25.766,90.093,57.45c0,17.792-12.739,33.719-32.7,44.268" transform="translate(0 0.001)" fill="#2c2c2c"/>
      <path id="Path_5037" data-name="Path 5037" d="M30.17,44.792v.678a4.928,4.928,0,0,1,3.173,4.493c0,3.886-2.779,5.955-8.164,5.955H17.513V35.594h7.274c4.991,0,7.664,1.924,7.664,5.527a4.054,4.054,0,0,1-2.282,3.672M21.4,38.2l-.927.927v4.991H24.68c3.173,0,4.813-1,4.813-2.994,0-1.961-1.64-2.924-4.813-2.924Zm-.927,8.416V52.35l.927.963h3.708c3.529,0,5.277-1.1,5.277-3.351s-1.748-3.351-5.277-3.351Z" transform="translate(7.228 14.692)" fill="#2b2b2b"/>
      <path id="Path_5038" data-name="Path 5038" d="M35.83,46.825v5.347l.927.963h11.8v2.782H32.835V35.594H48.2v2.782H36.757l-.927.927v4.741h10.8v2.782Z" transform="translate(13.552 14.692)" fill="#2b2b2b"/>
      <path id="Path_5039" data-name="Path 5039" d="M71.128,35.594V55.918H67.673L58.616,40.194h-.928V55.918H54.872V35.594h4.136l8.379,14.688h.925V35.594Z" transform="translate(22.648 14.692)" fill="#2b2b2b"/>
      <path id="Path_5040" data-name="Path 5040" d="M79.745,39.3V52.209l.927.927h4.885v2.782H70.975V53.136h4.85l.961-.927V39.3l-.961-.963h-4.85V35.594H85.557v2.745H80.672Z" transform="translate(29.294 14.692)" fill="#2b2b2b"/>
      <path id="Path_5041" data-name="Path 5041" d="M88.7,45.9a8.863,8.863,0,0,0,1.675,5.6,5.522,5.522,0,0,0,4.529,2.1c2.174,0,3.85-1.106,5.561-3.922l2.46,1.889c-2.032,3.423-4.528,4.993-7.986,4.993a8.65,8.65,0,0,1-6.739-3A11.319,11.319,0,0,1,85.564,45.9,11.156,11.156,0,0,1,88.2,38.272,8.565,8.565,0,0,1,94.94,35.24c3.458,0,5.955,1.568,7.986,4.991l-2.46,1.89c-1.746-2.817-3.386-3.958-5.561-3.958-3.817,0-6.2,3.067-6.2,7.738" transform="translate(35.316 14.546)" fill="#2b2b2b"/>
      <path id="Path_5042" data-name="Path 5042" d="M104.891,46.825v5.347l.927.963h11.8v2.782H101.9V35.594h15.368v2.782H105.817l-.927.927v4.741h10.8v2.782Z" transform="translate(42.056 14.692)" fill="#2b2b2b"/>
    </g>
  </g>
</svg>
