<svg xmlns="http://www.w3.org/2000/svg" xmlns:xlink="http://www.w3.org/1999/xlink" width="153.275" height="129.221" viewBox="0 0 153.275 129.221">
  <defs>
    <clipPath id="clip-path">
      <rect id="Rectangle_2625" data-name="Rectangle 2625" width="153.275" height="129.221" fill="none"/>
    </clipPath>
  </defs>
  <g id="Group_6293" data-name="Group 6293" transform="translate(0 0)">
    <g id="Group_6292" data-name="Group 6292" transform="translate(0 0)" clip-path="url(#clip-path)">
      <path id="Path_4984" data-name="Path 4984" d="M5.6,86.291,1.572,79.18A4.391,4.391,0,0,1,3.232,73.2L129.926,1.568a4.392,4.392,0,0,1,5.984,1.662l4.782,8.438a77.17,77.17,0,0,1-27.906,104.4c-37.246,22-85.895,7.878-107.183-29.777" transform="translate(0.851 0.848)" fill="#a3f7f7"/>
      <path id="Path_4985" data-name="Path 4985" d="M75.373,129.222A80.369,80.369,0,0,1,54.6,126.463,81.7,81.7,0,0,1,4.843,88.048L.812,80.942a6.237,6.237,0,0,1,2.36-8.5L129.865.809a6.243,6.243,0,0,1,8.5,2.36L143.15,11.6c21.042,37.217,8.223,85.174-28.574,106.905a76.83,76.83,0,0,1-39.2,10.712M132.931,3.7a2.515,2.515,0,0,0-1.246.329L4.991,75.655a2.542,2.542,0,0,0-.962,3.464l4.033,7.11a77.958,77.958,0,0,0,47.489,36.66,73.888,73.888,0,0,0,57.144-7.565c35.074-20.713,47.293-66.425,27.237-101.9L135.15,4.99A2.546,2.546,0,0,0,132.931,3.7" transform="translate(0 0)" fill="#2b2b2b"/>
      <path id="Path_4986" data-name="Path 4986" d="M17.669,46.282a9.2,9.2,0,0,0-3.182,5.159A5.722,5.722,0,0,0,15.98,56.4c1.5,1.685,3.51,2.223,6.873,1.605l.237,3.208c-4.057.786-6.994-.065-9.379-2.744a8.969,8.969,0,0,1-2.324-7.288A11.715,11.715,0,0,1,15.5,43.853a11.572,11.572,0,0,1,7.735-3.219,8.884,8.884,0,0,1,6.992,3.131c2.385,2.681,2.894,5.7,1.644,9.631l-3.162-.6c.976-3.3.729-5.355-.771-7.04-2.631-2.957-6.653-2.691-10.272.529" transform="translate(9.611 34.504)" fill="#2b2b2b"/>
      <path id="Path_4987" data-name="Path 4987" d="M41.031,54.055a11.785,11.785,0,0,1-.856,8.336,11.854,11.854,0,0,1-5.707,6.139,8.636,8.636,0,0,1-7.545-.011,8.639,8.639,0,0,1-4.982-5.666,12.042,12.042,0,0,1,.893-8.325,11.979,11.979,0,0,1,5.673-6.156,8.636,8.636,0,0,1,7.545.013,8.631,8.631,0,0,1,4.978,5.67m-3.82,6.992c2.017-4.442,1.137-8.414-2.363-10s-7.02.346-9.05,4.825c-2.016,4.445-1.156,8.366,2.347,9.954,3.534,1.6,7.051-.333,9.067-4.778" transform="translate(18.308 40.345)" fill="#2b2b2b"/>
      <path id="Path_4988" data-name="Path 4988" d="M50.557,53.373a11.829,11.829,0,0,1,2.561,7.988,11.882,11.882,0,0,1-2.765,7.918,8.643,8.643,0,0,1-6.922,3.02,8.647,8.647,0,0,1-6.84-3.2,12.045,12.045,0,0,1-2.524-7.985A11.992,11.992,0,0,1,36.8,53.2a8.645,8.645,0,0,1,6.922-3.016,8.641,8.641,0,0,1,6.84,3.192m-.693,7.948c.061-4.884-2.337-8.17-6.186-8.22s-6.293,3.138-6.354,8.059c-.063,4.882,2.3,8.131,6.147,8.181,3.885.048,6.33-3.136,6.393-8.02" transform="translate(28.929 42.612)" fill="#2b2b2b"/>
      <path id="Path_4989" data-name="Path 4989" d="M48.7,49.3l6.759,15.814,1.278.54,10.237-4.375,1.134,2.652L54.129,69.911,45.842,50.524Z" transform="translate(38.929 41.867)" fill="#2b2b2b"/>
      <path id="Path_4990" data-name="Path 4990" d="M67.019,37.535a11.81,11.81,0,0,1,8.055,2.337,11.888,11.888,0,0,1,5.024,6.72,9.179,9.179,0,0,1-7.837,11.315,12.051,12.051,0,0,1-8.035-2.371,11.988,11.988,0,0,1-5.045-6.689,9.173,9.173,0,0,1,7.837-11.313m6.2,5.015c-4.016-2.781-8.083-2.63-10.274.536s-.912,6.973,3.133,9.775C70.1,55.642,74.111,55.5,76.3,52.332c2.21-3.194.934-7-3.081-9.782" transform="translate(49.99 31.826)" fill="#2b2b2b"/>
      <path id="Path_4991" data-name="Path 4991" d="M75.248,40.653l9.257,1.8-.588,3.012L63.228,41.437,66.29,25.72l2.831.551L66.838,38l.753,1.165,4.826.941L74.584,29l2.829.551Z" transform="translate(53.692 21.841)" fill="#2b2b2b"/>
      <path id="Path_4992" data-name="Path 4992" d="M77.011,26.045l9.2-2.069.673,2.992L66.321,31.6,62.8,15.976l2.814-.636L68.242,27l1.156.762,4.8-1.078L71.713,15.637,74.526,15Z" transform="translate(53.331 12.738)" fill="#2b2b2b"/>
    </g>
  </g>
</svg>
