<svg xmlns="http://www.w3.org/2000/svg" xmlns:xlink="http://www.w3.org/1999/xlink" width="91.044" height="56.387" viewBox="0 0 91.044 56.387">
  <defs>
    <clipPath id="clip-path">
      <rect id="Rectangle_2628" data-name="Rectangle 2628" width="91.044" height="56.387" fill="none"/>
    </clipPath>
  </defs>
  <g id="Group_6297" data-name="Group 6297" transform="translate(0 0)">
    <g id="Group_6296" data-name="Group 6296" transform="translate(0 0)" clip-path="url(#clip-path)">
      <path id="Path_5004" data-name="Path 5004" d="M89.568,27.956c0,14.887-19.827,26.956-44.285,26.956S1,42.843,1,27.956,20.827,1,45.283,1,89.568,13.069,89.568,27.956" transform="translate(0.238 0.238)" fill="#fff"/>
      <path id="Path_5005" data-name="Path 5005" d="M89.568,27.956c0,14.887-19.827,26.956-44.285,26.956S1,42.843,1,27.956,20.827,1,45.283,1,89.568,13.069,89.568,27.956Z" transform="translate(0.238 0.238)" fill="none" stroke="#2b2b2b" stroke-width="2"/>
      <path id="Path_5006" data-name="Path 5006" d="M41,26.5l6.182-5.7,2.172,2.33L38.63,32.652,27.9,23.131l2.174-2.33,6.183,5.7h.723V9.913h3.295V26.5Z" transform="translate(6.644 2.36)" fill="#2c2c2c"/>
      <rect id="Rectangle_2627" data-name="Rectangle 2627" width="21.892" height="3.292" transform="translate(34.329 38.332)" fill="#2c2c2c"/>
    </g>
  </g>
</svg>
