<?xml version="1.0" encoding="utf-8"?>
<!-- Generator: Adobe Illustrator 18.0.0, SVG Export Plug-In . SVG Version: 6.00 Build 0)  -->
<!DOCTYPE svg PUBLIC "-//W3C//DTD SVG 1.1//EN" "http://www.w3.org/Graphics/SVG/1.1/DTD/svg11.dtd">
<svg version="1.1" id="Vrstva_1" xmlns="http://www.w3.org/2000/svg" xmlns:xlink="http://www.w3.org/1999/xlink" x="0px" y="0px"
	 viewBox="0 0 286.5 94.8" enable-background="new 0 0 286.5 94.8" xml:space="preserve">
<path fill="#3F3F3F" d="M48.3,91.3c13.6,0,19.2-6.4,19.2-23.4c0-16.8-9.1-22.3-20.8-22.3H32.6V90c0,0.9,0.3,1.3,1.3,1.3H48.3z
	 M46.6,44.1c12.6,0,16.8-6.9,16.8-21.1C63.4,7.2,58,2.1,46.2,2.1H33.8c-0.9,0-1.2,0.5-1.2,1.2v40.7H46.6z M0,91.7l12.3-0.1
	c1.1,0,1.3-0.4,1.3-1.2V3.2c0-0.8-0.3-1.2-1.3-1.2L0,1.9V0.5h49.9c18.3,0,31.5,5.9,31.5,22.4c0,13.2-11.8,20.8-26.6,21.6l-0.6,0.1
	l0.6,0.1C74,46,87.1,53.2,87.1,68.1c0,16.6-13.6,25-33.9,25H0V91.7z"/>
<path fill="#3F3F3F" d="M94.3,11.3c0-4.5,3.7-8.1,8.1-8.1c4.4,0,8.1,3.6,8.1,8.1c0,4.4-3.7,8-8.1,8C98.1,19.3,94.3,15.7,94.3,11.3
	 M86.6,91.7l8.5-0.1c0.8,0,0.9-0.4,0.9-1.1V35c0-1.1-0.1-1.6-1.3-1.6L86,33.3v-1.3l19-0.5c0.7,0,3.2-0.1,4.1-0.1
	c1.3,0,1.7,0.4,1.7,1.5v57.8c0,0.7,0.1,1.1,1.1,1.1l8.1,0.1v1.3H86.6V91.7z"/>
<path fill="#3F3F3F" d="M117.2,91.7l8.4-0.1c0.8,0,1.1-0.3,1.1-0.9v-87c0-1.1-0.3-1.6-1.5-1.6l-8.5-0.2V0.5l18.4-0.4
	c0.7,0,3.7-0.1,4.7-0.1c1.3,0,1.7,0.4,1.7,1.5v89.2c0,0.7,0.1,0.9,1.1,0.9l8.1,0.1v1.3h-33.5V91.7z"/>
<path fill="#3F3F3F" d="M188.7,77.7V56.2c-4.9,1.2-11.9,3.1-15.1,4.8c-4.1,2.3-7.9,7.1-7.9,16.3c0,10,3.1,14.3,10.6,14.3
	C183.1,91.6,188.6,85.6,188.7,77.7 M203.1,93.1c-8.4,0-12.9-4.4-13.6-10.4c-0.1,0.6-0.2,0.8-0.4,1.4c-3.2,7.2-10.6,10.8-18.6,10.8
	c-12.3,0-20.2-5.9-20.2-16.7c0-11.4,8.9-16.4,19.5-19.1c6.7-1.6,13.5-3.2,18.8-4.1v-7.5c0-5.9-0.7-9.2-2.8-11.8
	c-2.1-2.7-4.9-4.1-10-4.1c-7.2,0-10.8,2-10.8,4.5c0,2.4,5.1,3.6,5.1,9.1c0,4.3-2.8,7.5-8.5,7.5c-5.3,0-8-3.6-8-8.7
	c0-8.3,10.8-13.9,23.2-13.9c9.2,0,14.7,1.1,19.2,4.1c4.5,2.8,7.3,7.5,7.3,15.4v33.8c0,5,1.5,8,5.9,8.4c0,0,0.8,0.1,1.2,0.1
	c0.4,0-0.4,1.3-0.4,1.3H203.1z"/>
<path fill="#3F3F3F" d="M210.4,91.7l7.8-0.1c0.8,0,1.1-0.3,1.1-0.9v-56c0-0.9-0.4-1.3-1.2-1.3l-8.7-0.1v-1.3l18.6-0.5
	c0.8,0,3.6-0.1,4.4-0.1c1.1,0,1.5,0.4,1.5,1.5v9.6l0.1-0.4c3.2-8,10.8-12,19.8-12c13.6,0,20.4,6.3,20.4,18.4v42.3
	c0,0.7,0.3,0.9,1.1,0.9l8.4,0.1v1.3h-32.9v-1.3l7.5-0.1c0.9,0,1.1-0.3,1.1-0.9V46.3c0-9.9-2.1-13.9-9.9-13.9
	c-5.2,0-10.8,3.2-13.5,8.9c-1.2,2.3-1.9,5.2-1.9,8v41.3c0,0.7,0.1,0.9,1.1,0.9l7.5,0.1v1.3h-32.9L210.4,91.7z"/>
</svg>
