<svg xmlns="http://www.w3.org/2000/svg" xmlns:xlink="http://www.w3.org/1999/xlink" width="68.001" height="68.573" viewBox="0 0 68.001 68.573"><defs><clipPath id="a"><path d="M0,0H68V68.573H0Z" fill="#fff"/></clipPath></defs><g style="mix-blend-mode:difference;isolation:isolate"><g clip-path="url(#a)"><path d="M67.844,37.052A5.814,5.814,0,0,0,67.5,36.03a3.979,3.979,0,0,0-.459-.792,1.854,1.854,0,0,0-.517-.485.7.7,0,0,0-.517-.1.562.562,0,0,0-.118.043.626.626,0,0,0-.109.068.763.763,0,0,0-.1.092.981.981,0,0,0-.088.115.64.64,0,0,0-.086.072.5.5,0,0,0-.068.085.427.427,0,0,0-.046.1.423.423,0,0,0-.02.11.6.6,0,0,1-.041.176c-.021.059-.047.117-.067.176a.514.514,0,0,0-.032.177.313.313,0,0,0,.062.179c0,.009,0,.019,0,.029s0,.019,0,.029v.029c0,.01,0,.019,0,.029a.66.66,0,0,1-.158.135c-.059.037-.122.07-.184.1a1.371,1.371,0,0,0-.18.109.568.568,0,0,0-.146.155.755.755,0,0,1-.079.1c-.029.033-.06.065-.09.1a.945.945,0,0,0-.082.1.364.364,0,0,0-.053.107,2.34,2.34,0,0,1-.189.445c-.076.143-.161.282-.241.423a3.13,3.13,0,0,0-.212.435,1.525,1.525,0,0,0-.1.481.613.613,0,0,1-.034.175.758.758,0,0,1-.078.159.874.874,0,0,1-.106.135.827.827,0,0,1-.121.1,2.586,2.586,0,0,0-.329.276,4.164,4.164,0,0,0-.283.312c-.09.108-.176.219-.262.33s-.173.222-.264.329c-.131.154-.262.325-.391.505s-.256.372-.377.569-.238.4-.347.6-.21.407-.3.607c-.043.1-.091.189-.141.282s-.1.183-.16.273-.112.179-.17.269-.115.178-.171.267a.541.541,0,0,1-.061.08.483.483,0,0,1-.076.066.49.49,0,0,1-.091.051.572.572,0,0,1-.108.033,2.515,2.515,0,0,0-.257.062.366.366,0,0,0-.142.075.239.239,0,0,0-.065.121,1.271,1.271,0,0,0-.027.2c0,.035,0,.07-.006.106s0,.071,0,.106,0,.071,0,.106,0,.071,0,.106a.956.956,0,0,1-.007.169.541.541,0,0,1-.041.149.476.476,0,0,1-.088.131.683.683,0,0,1-.145.115,2.13,2.13,0,0,0-.375.29,2.045,2.045,0,0,0-.289.352,2.249,2.249,0,0,0-.209.408,2.737,2.737,0,0,0-.133.458c-.005.027-.01.056-.015.086s-.01.059-.016.088a.437.437,0,0,1-.025.08.19.19,0,0,1-.042.062q-.122.115-.247.228t-.252.222q-.127.11-.256.218l-.258.215a.116.116,0,0,1-.055.026.1.1,0,0,1-.055-.007.14.14,0,0,1-.05-.037.217.217,0,0,1-.038-.063.267.267,0,0,0-.049-.08.153.153,0,0,0-.063-.043.129.129,0,0,0-.073,0,.2.2,0,0,0-.078.041c-.038.031-.075.064-.111.1s-.071.07-.106.105l-.1.106c-.035.035-.071.07-.108.1a.35.35,0,0,1-.113.07.2.2,0,0,1-.109.009.241.241,0,0,1-.1-.05.485.485,0,0,1-.1-.108,2.92,2.92,0,0,1-.2-.326,1.4,1.4,0,0,1-.117-.314,1.714,1.714,0,0,1-.042-.368,4.319,4.319,0,0,1,.024-.489c.006-.061.012-.122.016-.183a1.221,1.221,0,0,0,0-.176.53.53,0,0,0-.035-.156.316.316,0,0,0-.088-.123.853.853,0,0,1-.2-.238,1.359,1.359,0,0,1-.111-.27c-.029-.093-.051-.188-.077-.282a1.8,1.8,0,0,0-.094-.273,1.569,1.569,0,0,1-.089-.241,1.033,1.033,0,0,1-.038-.264.715.715,0,0,1,.216-.525.258.258,0,0,0,.059-.095.329.329,0,0,0,.019-.109.376.376,0,0,0-.015-.108.3.3,0,0,0-.043-.09,1.468,1.468,0,0,1-.17-.3,1.1,1.1,0,0,1-.076-.309,1.086,1.086,0,0,1,.017-.316,1.42,1.42,0,0,1,.111-.328.135.135,0,0,0,.012-.055.348.348,0,0,0-.006-.064c0-.022-.009-.045-.013-.067a.649.649,0,0,1-.011-.066,2.886,2.886,0,0,1-.009-.313c0-.1.005-.21,0-.315a1.835,1.835,0,0,0-.028-.313,1.116,1.116,0,0,0-.1-.307.234.234,0,0,1-.026-.117.421.421,0,0,1,.024-.12c.013-.04.031-.081.048-.121a1.1,1.1,0,0,0,.044-.121c.024-.085.05-.171.072-.258a1.3,1.3,0,0,0,.041-.26.689.689,0,0,0-.036-.259.711.711,0,0,0-.16-.254.653.653,0,0,1-.1-.139.7.7,0,0,1-.063-.163.634.634,0,0,1-.019-.172.527.527,0,0,1,.032-.168.962.962,0,0,0,.061-.322,1.343,1.343,0,0,0-.033-.307c-.021-.1-.05-.2-.079-.3s-.058-.2-.078-.3c-.016-.076-.028-.133-.033-.177a.138.138,0,0,1,.012-.095.133.133,0,0,1,.086-.045,1.846,1.846,0,0,1,.187-.027c.02,0,.041,0,.062,0a.356.356,0,0,0,.059-.005.082.082,0,0,0,.044-.022.069.069,0,0,0,.016-.052.087.087,0,0,0-.017-.046.292.292,0,0,0-.04-.045l-.05-.045a.573.573,0,0,1-.047-.045L54.4,37.2l-.021-.025-.021-.025-.021-.025v-.011c.047-.033.1-.066.14-.1A.676.676,0,0,0,54.6,36.9a.333.333,0,0,0,.066-.142.368.368,0,0,0-.016-.183,4.5,4.5,0,0,1-.126-.508c-.033-.171-.061-.344-.091-.516s-.063-.343-.107-.512a3,3,0,0,0-.172-.5c-.012-.027-.025-.053-.035-.08a.443.443,0,0,1-.025-.078.23.23,0,0,1,0-.079.215.215,0,0,1,.029-.081,1.216,1.216,0,0,0,.085-.165.58.58,0,0,0,.042-.163.474.474,0,0,0-.015-.171.707.707,0,0,0-.086-.19.2.2,0,0,1-.025-.137.731.731,0,0,1,.044-.158c.02-.055.044-.113.061-.172a.524.524,0,0,0,.024-.18c-.006-.1-.016-.194-.024-.292a2.569,2.569,0,0,1-.01-.294,1.158,1.158,0,0,1,.043-.288.879.879,0,0,1,.136-.275,1.16,1.16,0,0,1-.023-.343c.007-.116.023-.232.032-.348a1.423,1.423,0,0,0-.005-.345.77.77,0,0,0-.135-.333.165.165,0,0,1-.027-.057.11.11,0,0,1,0-.054.13.13,0,0,1,.027-.05.232.232,0,0,1,.053-.045.4.4,0,0,0,.107-.094.17.17,0,0,0,.036-.1.2.2,0,0,0-.03-.1.5.5,0,0,0-.092-.11.279.279,0,0,1-.039-.047.371.371,0,0,1-.032-.059.265.265,0,0,1-.019-.06.113.113,0,0,1,0-.052A3.74,3.74,0,0,0,54.377,29a3.875,3.875,0,0,0,.047-.539,4.34,4.34,0,0,0-.025-.541,5.179,5.179,0,0,0-.089-.544.345.345,0,0,1-.007-.08.635.635,0,0,1,.008-.084c0-.028.01-.057.016-.085s.012-.056.016-.084c.012-.069.023-.139.033-.209s.021-.14.033-.209.025-.138.04-.207a2.061,2.061,0,0,1,.056-.2.445.445,0,0,0,.028-.2.25.25,0,0,0-.06-.134.458.458,0,0,0-.119-.094c-.047-.027-.1-.051-.151-.077l0,0,.009,0,.009,0,0,0c-.006-.051-.01-.1-.011-.151a.827.827,0,0,1,.01-.147.55.55,0,0,1,.041-.139.483.483,0,0,1,.084-.127.905.905,0,0,0,.138-.2.883.883,0,0,0,.076-.21,1.182,1.182,0,0,0,.027-.224,2.055,2.055,0,0,0-.008-.239q-.018-.221-.033-.442t-.024-.443q-.01-.222-.014-.443t0-.443c0-.051,0-.1,0-.15s-.007-.1-.013-.145-.014-.1-.024-.143-.022-.1-.036-.143c-.008-.026-.015-.055-.022-.085a.77.77,0,0,1-.014-.092.352.352,0,0,1,0-.084.112.112,0,0,1,.025-.06.619.619,0,0,0,.149-.254.687.687,0,0,0,.02-.258,1.983,1.983,0,0,0-.048-.261c-.02-.087-.041-.174-.053-.261a1.967,1.967,0,0,0-.049-.218.972.972,0,0,1-.036-.214.311.311,0,0,1,.054-.193.472.472,0,0,1,.223-.155.057.057,0,0,0,.027-.032.289.289,0,0,0,.017-.06c0-.023.008-.048.011-.072s.005-.048.008-.068q.028-.209.057-.419t.057-.419q.028-.209.052-.419t.043-.42a2.193,2.193,0,0,0,.005-.254c0-.085-.008-.171-.012-.256s-.008-.17-.006-.254a1.481,1.481,0,0,1,.024-.249c.016-.084.032-.164.043-.243a1.378,1.378,0,0,0,.017-.232.8.8,0,0,0-.037-.227.814.814,0,0,0-.117-.229.132.132,0,0,1-.016-.1.889.889,0,0,1,.039-.126.527.527,0,0,0,.033-.131.169.169,0,0,0-.034-.122.631.631,0,0,1-.112-.206.415.415,0,0,1-.012-.19.567.567,0,0,1,.067-.182,1.256,1.256,0,0,1,.126-.18c.022-.027.044-.055.065-.085a1.05,1.05,0,0,0,.059-.092.679.679,0,0,0,.045-.1.431.431,0,0,0,.024-.1c.017-.147.038-.3.059-.443s.041-.3.057-.444.029-.3.034-.443a3.379,3.379,0,0,0-.012-.438,2.063,2.063,0,0,1-.007-.306,2.1,2.1,0,0,1,.035-.287,2.522,2.522,0,0,1,.069-.274c.028-.09.06-.179.1-.268.016-.041.032-.08.045-.118a.835.835,0,0,0,.031-.112.554.554,0,0,0,.01-.115.6.6,0,0,0-.016-.128,2.736,2.736,0,0,1-.063-.377,1.673,1.673,0,0,1,0-.332,2.024,2.024,0,0,1,.068-.336c.034-.118.078-.246.134-.391.012-.032.024-.066.033-.1s.018-.069.025-.1a.988.988,0,0,0,.014-.105.8.8,0,0,0,0-.1,5.613,5.613,0,0,1,.019-.786c.023-.26.061-.518.1-.775s.091-.514.136-.771.088-.514.118-.773c.022-.181.036-.364.048-.546s.023-.365.038-.548.033-.364.061-.545a4.1,4.1,0,0,1,.119-.538.27.27,0,0,0,.01-.079.5.5,0,0,0-.009-.085c-.005-.029-.012-.058-.02-.086s-.016-.057-.024-.084a1.2,1.2,0,0,1-.043-.228,1.289,1.289,0,0,1,0-.223,1.765,1.765,0,0,1,.034-.223c.016-.075.037-.151.06-.23.04-.134.076-.27.106-.406a3.042,3.042,0,0,0,.061-.414,2.12,2.12,0,0,0-.009-.419,1.8,1.8,0,0,0-.1-.421.489.489,0,0,1-.023-.1c-.005-.034-.01-.068-.018-.1A.221.221,0,0,0,56.4.651a.2.2,0,0,0-.1-.061,1.007,1.007,0,0,1-.116-.048c-.038-.018-.076-.037-.115-.052a.494.494,0,0,0-.12-.033.333.333,0,0,0-.131.009L55.7.5l-.123.034L55.45.566l-.124.028a1.582,1.582,0,0,1-.2.033A.171.171,0,0,1,55.008.6a.275.275,0,0,1-.079-.117c-.025-.058-.051-.136-.086-.24L54.829.2c0-.015-.01-.031-.016-.045A.192.192,0,0,0,54.8.12.035.035,0,0,0,54.774.1l-.22-.037c-.073-.012-.147-.024-.22-.034s-.147-.019-.22-.024S53.968,0,53.894,0a.117.117,0,0,0-.074.037.707.707,0,0,0-.072.082,1.135,1.135,0,0,1-.075.09.225.225,0,0,1-.084.059.616.616,0,0,0-.186.1A.4.4,0,0,0,53.3.5a.5.5,0,0,0-.048.167,1.04,1.04,0,0,0,0,.2,1.6,1.6,0,0,1,0,.281,1.53,1.53,0,0,1-.152.524,1.635,1.635,0,0,1-.145.238,1.807,1.807,0,0,0-.181.314c-.05.109-.092.221-.131.335s-.077.228-.118.341a2.978,2.978,0,0,1-.14.332.67.67,0,0,0-.062.178.5.5,0,0,0,0,.193.42.42,0,0,0,.089.184.593.593,0,0,0,.206.154.145.145,0,0,1,.074.107.371.371,0,0,1-.007.161.376.376,0,0,1-.069.145.139.139,0,0,1-.112.06.582.582,0,0,0-.223.026.34.34,0,0,0-.142.1.611.611,0,0,0-.095.152c-.027.059-.052.125-.08.2a1.194,1.194,0,0,1-.084.164,1.138,1.138,0,0,0-.081.155.324.324,0,0,0-.024.163.394.394,0,0,0,.087.189.154.154,0,0,1,.033.078.185.185,0,0,1-.01.08.336.336,0,0,1-.039.077.583.583,0,0,1-.055.069,1.233,1.233,0,0,0-.085.1.627.627,0,0,0-.066.11.376.376,0,0,0-.033.118.313.313,0,0,0,.014.126.446.446,0,0,1,.02.181.555.555,0,0,1-.042.157c-.021.05-.046.1-.07.147a1.084,1.084,0,0,0-.064.152,1.129,1.129,0,0,1-.086.2,1.43,1.43,0,0,1-.113.173c-.041.054-.084.105-.128.156L51,7.632a1.1,1.1,0,0,0-.084.109.669.669,0,0,0-.061.112.442.442,0,0,0-.031.114.358.358,0,0,0,0,.117,1.106,1.106,0,0,1,.014.346,1.756,1.756,0,0,1-.072.326c-.033.106-.072.211-.109.317a3.1,3.1,0,0,0-.1.319.381.381,0,0,0-.173.21.893.893,0,0,0-.036.261,1.478,1.478,0,0,1-.023.266.392.392,0,0,1-.131.226.692.692,0,0,1,.068.308.6.6,0,0,1-.069.256,1.294,1.294,0,0,1-.157.23c-.062.075-.13.15-.2.228s-.136.145-.209.219a1.622,1.622,0,0,0-.2.236.6.6,0,0,0-.1.279.641.641,0,0,0,.076.349.054.054,0,0,1,0,.033.184.184,0,0,1-.014.043.237.237,0,0,1-.025.042.121.121,0,0,1-.029.029.577.577,0,0,0-.134.128c-.039.049-.075.1-.114.151a.616.616,0,0,1-.132.131.38.38,0,0,1-.188.067.309.309,0,0,0-.119.03.1.1,0,0,0-.053.06.132.132,0,0,0,.008.084.405.405,0,0,0,.064.1.267.267,0,0,1,.035.056.146.146,0,0,1,.014.056.1.1,0,0,1-.013.052.128.128,0,0,1-.047.044.753.753,0,0,1-.076.036.434.434,0,0,0-.072.038.128.128,0,0,0-.048.056.152.152,0,0,0,0,.092.734.734,0,0,1,.017.193.557.557,0,0,1-.036.171.616.616,0,0,1-.087.154.936.936,0,0,1-.136.142.569.569,0,0,0-.11.128.814.814,0,0,0-.074.15,1.616,1.616,0,0,0-.051.164c-.015.056-.028.113-.041.169-.042.172-.079.345-.116.518s-.072.347-.11.52-.078.345-.125.516-.1.34-.161.508a.658.658,0,0,0-.036.14.5.5,0,0,0,0,.14.419.419,0,0,0,.044.134.46.46,0,0,0,.1.122c.012.059.028.12.045.181s.034.122.049.182a1.143,1.143,0,0,1,.03.178.528.528,0,0,1-.012.168.7.7,0,0,1-.077.179c-.033.058-.072.114-.109.173a1.152,1.152,0,0,0-.1.183.574.574,0,0,0-.044.21.045.045,0,0,1-.022.035.141.141,0,0,1-.055.021.217.217,0,0,1-.07,0,.175.175,0,0,1-.068-.024c-.017-.011-.034-.024-.051-.036a.224.224,0,0,0-.052-.03.06.06,0,0,0-.05,0,.115.115,0,0,0-.046.056c-.021.044-.042.088-.062.133s-.04.089-.058.135-.036.091-.052.137-.03.092-.043.139a.224.224,0,0,0-.007.08.177.177,0,0,0,.024.073.174.174,0,0,0,.056.057.246.246,0,0,0,.09.034.244.244,0,0,1,.086.031.126.126,0,0,1,.048.052.144.144,0,0,1,.012.072.3.3,0,0,1-.021.089c-.017.045-.033.091-.049.135a1.1,1.1,0,0,1-.056.129.543.543,0,0,1-.081.117.49.49,0,0,1-.124.1.854.854,0,0,0-.278.242,1.056,1.056,0,0,0-.151.306,2.59,2.59,0,0,0-.08.341c-.021.116-.039.233-.063.347a.067.067,0,0,0,.008.049.131.131,0,0,0,.04.041.256.256,0,0,0,.059.03.312.312,0,0,0,.067.016,2.8,2.8,0,0,0-.18.378c-.051.129-.094.261-.133.394s-.076.267-.113.4-.075.267-.119.4a.067.067,0,0,0,0,.02c0,.007,0,.014,0,.022s0,.015,0,.022a.066.066,0,0,1,0,.02.375.375,0,0,0-.018.148.661.661,0,0,0,.028.141c.014.046.03.092.044.138a.663.663,0,0,1,.028.14.161.161,0,0,1-.045.138.318.318,0,0,1-.123.062.827.827,0,0,0-.138.052.179.179,0,0,0-.092.107c-.02.066-.039.133-.058.2s-.038.136-.06.2a1.692,1.692,0,0,1-.075.193.934.934,0,0,1-.1.171A.611.611,0,0,0,45,25.61a.828.828,0,0,0-.013.242c.006.081.019.161.028.241a1.2,1.2,0,0,1,.01.24.031.031,0,0,0,.02.033.093.093,0,0,0,.053,0,.2.2,0,0,0,.064-.025.174.174,0,0,0,.054-.05.247.247,0,0,1,.051-.059c.014-.01.024-.011.032,0a.062.062,0,0,1,.017.037.381.381,0,0,1,.006.065c0,.021,0,.042,0,.063s0,.042,0,.063,0,.042,0,.063a.46.46,0,0,0,0,.062c.024.164.043.287.049.387a.6.6,0,0,1-.029.251.707.707,0,0,1-.149.224c-.074.082-.175.178-.31.306a.163.163,0,0,0-.039.053.147.147,0,0,0-.012.053.4.4,0,0,0,0,.055c0,.019,0,.038,0,.058a.648.648,0,0,1-.005.079c0,.026-.008.053-.013.079s-.011.053-.016.079-.011.053-.016.079a.853.853,0,0,0-.118-.042.316.316,0,0,0-.111-.011.185.185,0,0,0-.1.04.291.291,0,0,0-.08.111.88.88,0,0,0-.05.142.818.818,0,0,0-.021.293.866.866,0,0,0,.03.149.221.221,0,0,0,.024.055.144.144,0,0,0,.035.039.175.175,0,0,0,.05.026.344.344,0,0,0,.068.015.5.5,0,0,1,.115.026.1.1,0,0,1,.059.045.06.06,0,0,1-.018.064.428.428,0,0,1-.116.085,1.457,1.457,0,0,0-.221.147.733.733,0,0,0-.143.152.4.4,0,0,0-.066.156.335.335,0,0,0,.011.158.23.23,0,0,0,.062.1.61.61,0,0,0,.093.071c.032.021.063.039.086.058a.094.094,0,0,1,.042.056.081.081,0,0,1-.047.091.448.448,0,0,1-.122.03.318.318,0,0,0-.119.036.1.1,0,0,0-.038.108.3.3,0,0,1-.02.174.678.678,0,0,1-.087.14.947.947,0,0,0-.091.135.282.282,0,0,0-.032.16.352.352,0,0,1,0,.082c0,.028-.009.057-.011.084a.185.185,0,0,0,.008.077.119.119,0,0,0,.052.062.088.088,0,0,0,.05.011.333.333,0,0,0,.062-.01l.067-.016a.3.3,0,0,1,.065-.008.24.24,0,0,1,.124.03.149.149,0,0,1,.062.074.218.218,0,0,1,.013.1.332.332,0,0,1-.023.1,2.292,2.292,0,0,0-.111.372,3.017,3.017,0,0,0-.054.379c-.01.127-.014.254-.014.38s0,.252.008.377a3.347,3.347,0,0,1-.009.412,2.612,2.612,0,0,1-.063.388,2.389,2.389,0,0,1-.123.371,2.589,2.589,0,0,1-.189.362,2.154,2.154,0,0,0-.139.258,1.709,1.709,0,0,0-.1.275,1.466,1.466,0,0,0-.045.292,1.419,1.419,0,0,0,.018.309,1.657,1.657,0,0,1-.049.4c-.038.195-.093.435-.153.674s-.124.477-.18.668a2.957,2.957,0,0,1-.13.384l-.02.038c-.007.013-.014.026-.022.038a.29.29,0,0,1-.025.035.164.164,0,0,1-.029.028.836.836,0,0,0-.219.222.713.713,0,0,0-.1.253,1.065,1.065,0,0,0-.015.278,2.324,2.324,0,0,0,.043.3.68.68,0,0,1,.009.221.635.635,0,0,1-.064.206.816.816,0,0,1-.137.191,1.274,1.274,0,0,1-.209.176.6.6,0,0,0-.16.158.732.732,0,0,0-.089.184,1.821,1.821,0,0,0-.051.2c-.014.067-.028.134-.046.2a.278.278,0,0,0-.006.132.267.267,0,0,0,.051.108.43.43,0,0,0,.091.086.779.779,0,0,0,.115.068.233.233,0,0,1,.09.073.236.236,0,0,1,.039.092.592.592,0,0,1,.01.1c0,.035,0,.069,0,.1a.655.655,0,0,1,0,.166.154.154,0,0,1-.049.1.2.2,0,0,1-.11.038.956.956,0,0,1-.185-.006l-.066-.009-.07-.011-.057-.007c-.015,0-.024,0-.026,0a.193.193,0,0,0-.01.094.158.158,0,0,0,.032.074.2.2,0,0,0,.062.051.247.247,0,0,0,.078.026.429.429,0,0,1,.14.044.205.205,0,0,1,.081.076.214.214,0,0,1,.027.105.444.444,0,0,1-.021.132c-.022.075-.046.149-.071.224s-.05.148-.075.222-.05.148-.074.223-.046.149-.067.224-.042.175-.063.261a1.322,1.322,0,0,1-.082.246.578.578,0,0,1-.151.2.632.632,0,0,1-.269.127.132.132,0,0,0-.059.036.365.365,0,0,0-.053.068.72.72,0,0,0-.045.083c-.013.029-.024.057-.033.083-.032.094-.062.188-.095.281a2.565,2.565,0,0,1-.11.271,1.278,1.278,0,0,1-.153.246,1,1,0,0,1-.224.206.158.158,0,0,0-.069.1.269.269,0,0,0-.007.061.608.608,0,0,0,0,.067,1.406,1.406,0,0,1,0,.3,2.6,2.6,0,0,1-.051.288c-.022.1-.046.19-.069.286s-.043.191-.058.287a.472.472,0,0,0-.006.064.137.137,0,0,0,.009.053.078.078,0,0,0,.033.038.158.158,0,0,0,.066.02.241.241,0,0,0,.117-.116c.028-.051.05-.111.077-.165a.3.3,0,0,1,.106-.132.257.257,0,0,1,.2-.017.233.233,0,0,0,0,.023c0,.008,0,.015,0,.022a.1.1,0,0,1,0,.019.029.029,0,0,1,0,.014c-.095.127-.185.255-.267.387a2.732,2.732,0,0,0-.21.406,1.833,1.833,0,0,0-.12.438,1.666,1.666,0,0,0,0,.482.258.258,0,0,1,0,.061.382.382,0,0,1-.011.064.49.49,0,0,1-.021.063.51.51,0,0,1-.028.057.365.365,0,0,1-.049.068.3.3,0,0,1-.062.052.275.275,0,0,1-.076.032.311.311,0,0,1-.089.009.123.123,0,0,1-.073-.021.086.086,0,0,1-.03-.048.25.25,0,0,1-.007-.059c0-.02,0-.04,0-.056-.023-.176-.044-.352-.064-.529s-.04-.353-.06-.529-.043-.352-.067-.528-.053-.35-.086-.525a2.97,2.97,0,0,1-.045-.44c-.005-.147,0-.3-.006-.442s-.005-.294-.021-.44a2.062,2.062,0,0,0-.089-.434.8.8,0,0,0,.039-.32,1.612,1.612,0,0,0-.059-.309c-.028-.1-.06-.2-.084-.307a1.163,1.163,0,0,1-.035-.313c0-.105.009-.211.013-.317s.008-.212.009-.318,0-.212,0-.317-.012-.21-.024-.314c-.019-.16-.029-.321-.035-.482s-.011-.323-.021-.484a4.406,4.406,0,0,0-.051-.481,2.466,2.466,0,0,0-.127-.472.447.447,0,0,1-.025-.1.69.69,0,0,1-.006-.107,1.023,1.023,0,0,1,.008-.109c0-.036.011-.072.018-.106a5.4,5.4,0,0,0,.084-.568c.018-.19.028-.38.031-.57s0-.38-.006-.57-.016-.38-.026-.57c-.005-.091-.008-.182-.008-.272s0-.18,0-.269.007-.179.012-.268.011-.18.018-.27c.01-.147.031-.293.053-.44s.048-.293.068-.44a3.71,3.71,0,0,0,.037-.439,2.006,2.006,0,0,0-.038-.439,4.156,4.156,0,0,1-.076-.609c-.011-.2-.011-.406-.008-.609s.011-.406.013-.609,0-.406-.013-.608c-.007-.1-.014-.2-.02-.3s-.012-.2-.016-.3-.007-.2-.008-.3,0-.2,0-.3c.012-.289.025-.577.038-.866s.024-.577.032-.865.012-.577.011-.866-.01-.579-.027-.869-.024-.593-.028-.89-.007-.594-.016-.89-.024-.593-.054-.888a6.923,6.923,0,0,0-.144-.883.411.411,0,0,1-.01-.08.694.694,0,0,1,0-.084c0-.028.006-.056.01-.085s.008-.056.012-.084c.017-.123.043-.246.067-.369A3.489,3.489,0,0,0,39,22.924a1.325,1.325,0,0,0-.014-.368,1.024,1.024,0,0,0-.148-.366.148.148,0,0,1-.019-.054.3.3,0,0,1,0-.068A.335.335,0,0,1,38.824,22a.2.2,0,0,1,.024-.056,1.421,1.421,0,0,0,.157-.328,2.328,2.328,0,0,0,.084-.346c.02-.117.035-.236.05-.354s.032-.236.057-.351q.061-.292.105-.586t.074-.59q.03-.3.046-.594t.023-.6c0-.177.018-.353.035-.529s.038-.352.055-.528.032-.353.037-.53a3.815,3.815,0,0,0-.018-.533.2.2,0,0,1,0-.041.29.29,0,0,1,.007-.043.375.375,0,0,1,.013-.042.42.42,0,0,1,.017-.039,1.515,1.515,0,0,0,.137-.45A3.3,3.3,0,0,0,39.758,15c0-.156,0-.312.007-.467a2.149,2.149,0,0,1,.066-.46.4.4,0,0,0,.013-.111.386.386,0,0,0-.018-.111.261.261,0,0,0-.051-.093.181.181,0,0,0-.086-.055.486.486,0,0,1-.188-.1.428.428,0,0,1-.106-.143.871.871,0,0,1-.056-.171c-.014-.06-.026-.122-.04-.183-.008-.033-.012-.068-.017-.1a.79.79,0,0,0-.019-.1.27.27,0,0,0-.043-.091.233.233,0,0,0-.087-.07c-.094-.045-.188-.093-.283-.136a2.341,2.341,0,0,0-.29-.112,1.2,1.2,0,0,0-.3-.054.912.912,0,0,0-.311.04l-.163.049c-.054.015-.108.03-.162.043s-.108.024-.164.033-.111.016-.168.02a.229.229,0,0,0-.11.042.4.4,0,0,0-.1.094.416.416,0,0,0-.062.119.241.241,0,0,0-.01.118.491.491,0,0,0,.036.1c.016.035.034.07.05.1a.581.581,0,0,1,.039.1.162.162,0,0,1,0,.088q-.047.16-.1.319t-.108.316q-.057.157-.121.311t-.136.3a1.66,1.66,0,0,1-.114.2c-.042.064-.089.126-.136.187s-.1.122-.146.182-.1.122-.142.184l-.064.084a.607.607,0,0,0-.056.088.278.278,0,0,0-.03.1.254.254,0,0,0,.014.111.656.656,0,0,1,.039.248.694.694,0,0,1-.049.224,1.082,1.082,0,0,1-.107.2,2.266,2.266,0,0,1-.137.184,2.225,2.225,0,0,0-.357.621,3.38,3.38,0,0,0-.171.667c-.037.227-.059.458-.083.689s-.05.461-.094.686a.964.964,0,0,1,.041.286,1.063,1.063,0,0,1-.039.271,1.486,1.486,0,0,1-.1.255,2.454,2.454,0,0,1-.135.24,3.083,3.083,0,0,0-.174.319c-.052.108-.1.219-.14.33s-.082.224-.121.337-.077.226-.116.339l-.036.1-.036.1c-.012.033-.023.066-.034.1s-.021.067-.03.1a.555.555,0,0,1-.1.214.336.336,0,0,1-.153.106.5.5,0,0,1-.194.021,1.168,1.168,0,0,1-.226-.041c-.008.038-.014.076-.019.114s-.01.075-.016.111a.8.8,0,0,1-.023.1.368.368,0,0,1-.04.091,1.849,1.849,0,0,0-.164.328,2.21,2.21,0,0,0-.1.343,3.14,3.14,0,0,0-.051.353c-.011.119-.017.238-.02.358a1.969,1.969,0,0,1-.02.235,1.482,1.482,0,0,1-.049.22,1.331,1.331,0,0,1-.084.209,1.443,1.443,0,0,1-.124.2,1.491,1.491,0,0,0-.142.239,1.847,1.847,0,0,0-.1.259,2.456,2.456,0,0,0-.065.27c-.017.091-.029.183-.038.274a2.2,2.2,0,0,1-.094.431c-.044.141-.1.28-.143.419a3.082,3.082,0,0,0-.119.424,1.459,1.459,0,0,0-.02.445.376.376,0,0,0-.132.16.4.4,0,0,0-.025.175,1.388,1.388,0,0,0,.028.183,1.24,1.24,0,0,1,.026.183l0,0h-.009a.183.183,0,0,1,.052.068.161.161,0,0,1,.012.072.3.3,0,0,1-.015.075c-.008.025-.018.05-.029.075a2.548,2.548,0,0,1-.119.247c-.044.08-.091.159-.138.237s-.1.155-.143.233-.093.156-.134.236c-.074.142-.142.288-.207.435s-.125.3-.184.447-.116.3-.175.452-.118.3-.181.449c-.016.038-.035.076-.055.113s-.042.073-.065.109-.047.071-.071.105l-.074.1a.19.19,0,0,0-.043.129.291.291,0,0,0,.039.115c.02.037.042.073.058.11a.191.191,0,0,1,.015.117c0,.014,0,.028-.007.043s0,.03-.005.044a.286.286,0,0,1-.008.042.128.128,0,0,1-.016.036,1.766,1.766,0,0,0-.229.473,1.922,1.922,0,0,0-.082.488,2.718,2.718,0,0,0,.027.5,4.711,4.711,0,0,0,.1.494,1.3,1.3,0,0,1,.039.247,1.092,1.092,0,0,1-.011.227,1.138,1.138,0,0,1-.055.214,1.458,1.458,0,0,1-.094.205c-.029.054-.058.11-.089.165a1.582,1.582,0,0,1-.1.16.8.8,0,0,1-.127.14.607.607,0,0,1-.169.1.3.3,0,0,0-.082.05.291.291,0,0,0-.06.07.188.188,0,0,0-.027.076.1.1,0,0,0,.015.068.827.827,0,0,1,.131.306.515.515,0,0,1-.02.263.734.734,0,0,1-.139.232,1.7,1.7,0,0,1-.225.214.134.134,0,0,0-.034.045.356.356,0,0,0-.022.06c-.006.021-.012.044-.018.066a.525.525,0,0,1-.02.063q-.065.158-.118.319t-.092.326q-.04.164-.066.332t-.042.338c-.006.071-.016.142-.028.211s-.028.138-.046.207-.038.136-.059.2-.045.135-.069.2c-.047.132-.091.265-.134.4s-.084.268-.126.4-.084.268-.129.4-.091.265-.142.4a2.293,2.293,0,0,0-.111.4c-.026.137-.045.275-.068.413a3.391,3.391,0,0,1-.086.407,1.557,1.557,0,0,1-.166.385,3.223,3.223,0,0,1-.091.548,4.3,4.3,0,0,1-.17.519c-.067.17-.142.336-.222.5s-.164.329-.249.493a1.686,1.686,0,0,0-.123.316,2.209,2.209,0,0,0-.065.332,3.288,3.288,0,0,0-.022.339c0,.113,0,.226,0,.338,0,.051.008.1.015.151s.015.1.023.151.015.1.019.156a1.143,1.143,0,0,1,0,.166,1.361,1.361,0,0,1-.022.179.4.4,0,0,1-.048.131.293.293,0,0,1-.093.094.618.618,0,0,1-.155.068.085.085,0,0,0-.053.045.2.2,0,0,0-.017.077.8.8,0,0,0,0,.093c0,.032,0,.063,0,.092,0,.077,0,.155.005.234s0,.157,0,.235a1.886,1.886,0,0,1-.016.23,1.057,1.057,0,0,1-.052.216c-.033.09-.062.179-.085.268a2.355,2.355,0,0,0-.056.266,1.944,1.944,0,0,0-.021.268,1.811,1.811,0,0,0,.018.273.465.465,0,0,1,0,.133.388.388,0,0,1-.034.112.533.533,0,0,1-.064.1,1.139,1.139,0,0,1-.087.1c-.05.05-.1.1-.144.155s-.092.107-.136.162l-.133.166c-.044.055-.089.11-.134.165a.6.6,0,0,1,.008.281,1.026,1.026,0,0,1-.093.253c-.04.082-.087.162-.129.243a1.156,1.156,0,0,0-.1.253,1.077,1.077,0,0,1-.093.239c-.04.078-.086.154-.133.231s-.094.154-.135.234a1.186,1.186,0,0,0-.1.249c-.043.168-.093.334-.147.5s-.109.33-.162.5-.1.332-.143.5a3.739,3.739,0,0,0-.089.512c-.006.057-.015.114-.026.169s-.024.11-.037.164-.026.108-.037.162-.021.109-.027.164a.726.726,0,0,1-.048.179c-.022.058-.048.115-.07.173a.725.725,0,0,0-.047.181.472.472,0,0,0,.022.2.172.172,0,0,1-.01.161.3.3,0,0,1-.122.088,1.367,1.367,0,0,0-.153.077.233.233,0,0,0-.1.128c-.018.058-.038.138-.058.23s-.037.194-.051.3a2.416,2.416,0,0,0-.021.306.894.894,0,0,0,.031.253c.007.023.014.044.018.065a.192.192,0,0,1,0,.056.09.09,0,0,1-.017.047.122.122,0,0,1-.048.036.512.512,0,0,0-.21.173.8.8,0,0,0-.1.229c-.025.082-.044.167-.068.248a.842.842,0,0,1-.1.231.576.576,0,0,1,.019.265.8.8,0,0,1-.081.233c-.037.074-.082.146-.126.218a1.67,1.67,0,0,0-.117.221.077.077,0,0,1-.022.028.175.175,0,0,1-.036.023.216.216,0,0,1-.041.016.134.134,0,0,1-.039,0,.1.1,0,0,1-.035-.01.2.2,0,0,1-.037-.022.168.168,0,0,1-.03-.028.064.064,0,0,1-.015-.029,3.523,3.523,0,0,0-.086-.391c-.034-.13-.071-.259-.1-.389a2.067,2.067,0,0,1-.054-.4,1.285,1.285,0,0,1,.053-.41.351.351,0,0,0,.014-.1.653.653,0,0,0-.008-.1c-.005-.036-.013-.072-.021-.107s-.017-.071-.024-.1c-.024-.109-.054-.219-.08-.328A2.336,2.336,0,0,1,21.926,57a1.067,1.067,0,0,1,.016-.326.913.913,0,0,1,.143-.326.162.162,0,0,0,.028-.076.251.251,0,0,0-.006-.081.645.645,0,0,0-.026-.083c-.01-.028-.022-.056-.032-.083s-.031-.081-.048-.122-.033-.084-.047-.126a.687.687,0,0,1-.03-.123.317.317,0,0,1,0-.115,1.986,1.986,0,0,0,.05-.424c0-.141-.006-.282-.017-.423s-.024-.281-.031-.422a2.814,2.814,0,0,1,.006-.423q.015-.148.023-.3t.009-.3q0-.15,0-.3t-.018-.3c-.014-.163-.026-.325-.034-.487s-.013-.324-.014-.486,0-.324.014-.486.026-.324.05-.486c.007-.049.012-.1.015-.147s0-.1.005-.149,0-.1,0-.149,0-.1,0-.149q0-.107-.006-.213t-.009-.213q-.005-.107-.01-.213t-.009-.213c0-.064,0-.129,0-.194s0-.13,0-.194a.926.926,0,0,0-.025-.188.56.56,0,0,0-.075-.174A.283.283,0,0,1,21.8,48.3a.533.533,0,0,1,.081-.183,1.1,1.1,0,0,0,.1-.179.27.27,0,0,0,0-.2.7.7,0,0,1-.032-.12,1.155,1.155,0,0,1-.015-.127c0-.043,0-.086,0-.13s0-.086,0-.129c0-.14-.016-.281-.031-.421s-.033-.28-.045-.421a3.178,3.178,0,0,1-.012-.422,1.841,1.841,0,0,1,.067-.424.538.538,0,0,0,.019-.122,1.184,1.184,0,0,0,0-.127c0-.043-.006-.087-.009-.13a1.24,1.24,0,0,1,0-.129.251.251,0,0,0-.028-.13.4.4,0,0,0-.075-.1c-.029-.029-.061-.057-.089-.086a.346.346,0,0,1-.07-.1.142.142,0,0,1,0-.125.308.308,0,0,1,.079-.092.725.725,0,0,0,.092-.089.151.151,0,0,0,.036-.114c0-.021-.005-.042-.009-.063s-.008-.042-.014-.063-.012-.041-.019-.061a.517.517,0,0,0-.025-.058c-.016-.032-.034-.063-.049-.095a.453.453,0,0,1-.035-.094.219.219,0,0,1,0-.1.243.243,0,0,1,.051-.1.686.686,0,0,0,.155-.347.962.962,0,0,0-.025-.344c-.026-.115-.064-.229-.095-.343a1.274,1.274,0,0,1-.054-.344.576.576,0,0,1-.182-.209.414.414,0,0,1-.036-.216.944.944,0,0,1,.055-.228c.027-.078.061-.16.091-.244s.076-.194.118-.293.082-.2.114-.3a1.227,1.227,0,0,0,.059-.307.766.766,0,0,0-.047-.309,1.387,1.387,0,0,1-.083-.362,2.042,2.042,0,0,1,0-.354c.009-.117.025-.233.04-.35s.029-.234.036-.352.01-.226.012-.339,0-.227,0-.34,0-.227,0-.34,0-.227-.005-.34a.777.777,0,0,0-.006-.081c0-.027-.007-.053-.01-.08s-.006-.054-.007-.082a.5.5,0,0,1,0-.086c.045-.3.078-.607.1-.911s.034-.608.038-.913,0-.609-.009-.914-.024-.61-.042-.915c0-.078-.012-.156-.02-.234s-.014-.157-.017-.235a1.553,1.553,0,0,1,.007-.234.984.984,0,0,1,.053-.23.705.705,0,0,0,.042-.251,1.388,1.388,0,0,0-.028-.246c-.015-.082-.034-.164-.047-.247a1.127,1.127,0,0,1-.015-.254c.019-.29.039-.58.06-.869s.045-.579.073-.867.061-.577.1-.864.088-.574.144-.86c.005-.027.01-.055.012-.084s0-.057.005-.085,0-.057,0-.086,0-.057-.007-.085a3.749,3.749,0,0,1-.021-.578,4.865,4.865,0,0,1,.057-.568c.029-.188.068-.375.111-.561s.093-.371.143-.557c.017-.062.033-.123.048-.185s.028-.123.038-.186.018-.125.023-.189a1.512,1.512,0,0,0,0-.194c0-.049,0-.1,0-.148s0-.1.008-.15.011-.1.02-.148a1.312,1.312,0,0,1,.035-.143,1.6,1.6,0,0,0,.058-.275,2.1,2.1,0,0,0,.015-.274c0-.091-.006-.182-.014-.274s-.018-.183-.027-.275a1.337,1.337,0,0,0-.078-.343.889.889,0,0,0-.158-.266.946.946,0,0,0-.245-.2A1.552,1.552,0,0,0,22,21.945a3.713,3.713,0,0,0-.732-.156.959.959,0,0,0-.533.084.8.8,0,0,0-.351.409,2.76,2.76,0,0,0-.185.819,1.8,1.8,0,0,1-.058.289c-.026.1-.056.19-.081.285a1.653,1.653,0,0,0-.054.289.907.907,0,0,0,.023.3.811.811,0,0,0-.191.2,1.692,1.692,0,0,0-.133.237c-.04.083-.077.167-.12.249a1.3,1.3,0,0,1-.151.235,1.87,1.87,0,0,0-.186.273,2.651,2.651,0,0,0-.147.308c-.043.107-.081.216-.114.327s-.062.221-.087.33-.046.194-.07.29-.049.192-.076.287-.055.19-.086.284-.063.188-.1.28l-.238.615-.239.614-.24.614-.241.613c-.008.02-.016.04-.025.059s-.019.039-.03.058a.459.459,0,0,1-.036.053.3.3,0,0,1-.043.044,1.568,1.568,0,0,0-.31.352,2.6,2.6,0,0,0-.211.406c-.06.141-.113.285-.168.429a4.366,4.366,0,0,1-.183.421c-.025.049-.047.1-.068.149a1.246,1.246,0,0,1-.071.142.5.5,0,0,1-.1.122.473.473,0,0,1-.156.089.186.186,0,0,0-.079.055.273.273,0,0,0-.051.092.337.337,0,0,0-.017.111.324.324,0,0,0,.022.115.422.422,0,0,1,.032.15.319.319,0,0,1-.025.126.573.573,0,0,1-.067.116c-.028.039-.061.079-.1.122-.078.1-.16.193-.239.291a2.865,2.865,0,0,0-.218.306,1.437,1.437,0,0,0-.153.34,1.151,1.151,0,0,0-.044.393.184.184,0,0,1-.007.057.306.306,0,0,1-.023.059.34.34,0,0,1-.035.055.241.241,0,0,1-.041.042,1.119,1.119,0,0,0-.29.345,2.671,2.671,0,0,0-.176.409c-.051.141-.1.283-.16.418a1.329,1.329,0,0,1-.242.372.143.143,0,0,0-.028.048.291.291,0,0,0-.015.063.431.431,0,0,0,0,.068.406.406,0,0,0,.006.064,1.441,1.441,0,0,1,.026.233,1.116,1.116,0,0,1-.016.223,1.07,1.07,0,0,1-.063.217,1.282,1.282,0,0,1-.114.215c-.042.064-.077.133-.112.2a1.342,1.342,0,0,1-.115.188.472.472,0,0,1-.159.137.5.5,0,0,1-.245.049.063.063,0,0,0-.032.01.18.18,0,0,0-.034.027.343.343,0,0,0-.056.073c-.062.11-.117.224-.168.34s-.1.232-.153.348-.106.23-.168.34a2.1,2.1,0,0,1-.215.316.615.615,0,0,1-.029.356,1.448,1.448,0,0,1-.173.3,2.758,2.758,0,0,0-.193.3.727.727,0,0,0-.089.346.15.15,0,0,1-.053.1,1.078,1.078,0,0,1-.121.1,1.414,1.414,0,0,0-.13.1.266.266,0,0,0-.079.116,1.8,1.8,0,0,1-.162.4,3.86,3.86,0,0,1-.225.356c-.08.115-.163.229-.239.346a2.555,2.555,0,0,0-.2.366c-.037.084-.073.169-.108.255s-.071.171-.108.256-.076.168-.119.249a2.335,2.335,0,0,1-.14.234c-.1.147-.193.3-.278.454s-.164.313-.239.472-.147.321-.217.482-.14.323-.212.483c-.047.1-.092.208-.139.31s-.1.2-.149.3a2.579,2.579,0,0,1-.178.282,1.946,1.946,0,0,1-.225.258,1.9,1.9,0,0,0-.16.172,1.535,1.535,0,0,0-.134.192,1.273,1.273,0,0,0-.1.211,1.133,1.133,0,0,0-.057.231.523.523,0,0,0,0,.127c0,.043.012.088.019.131a.879.879,0,0,1,.012.126A.287.287,0,0,1,8.39,48a.146.146,0,0,1-.076.074.718.718,0,0,1-.118.04.668.668,0,0,0-.125.045.236.236,0,0,0-.1.09c-.083.14-.17.278-.257.417s-.174.276-.257.417-.161.283-.231.431a3.323,3.323,0,0,0-.179.459c-.018.06-.032.121-.047.183a1.718,1.718,0,0,1-.051.181.645.645,0,0,1-.084.164.5.5,0,0,1-.146.133,3.467,3.467,0,0,1-.217.486c-.083.156-.176.307-.271.456s-.194.3-.29.445-.189.3-.274.454c-.04.073-.086.145-.129.217a1.454,1.454,0,0,0-.112.22.606.606,0,0,0-.044.237.594.594,0,0,0,.075.266.131.131,0,0,1,.013.053.279.279,0,0,1,0,.065.338.338,0,0,1-.019.065.218.218,0,0,1-.029.053,1.277,1.277,0,0,0-.12.193c-.036.068-.07.137-.111.2a.7.7,0,0,1-.146.173.533.533,0,0,1-.226.108.311.311,0,0,0-.09.038.548.548,0,0,0-.086.065.816.816,0,0,0-.077.081A.935.935,0,0,0,4.5,54.6q-.163.248-.324.5t-.321.5q-.159.25-.317.5t-.312.5a.079.079,0,0,0-.014.058.062.062,0,0,0,.031.039.137.137,0,0,0,.06.016.216.216,0,0,0,.075-.009l.038-.009.043-.007.052-.007.065-.009c-.017.037-.033.073-.048.108l-.044.1c-.015.033-.029.065-.045.1a.793.793,0,0,1-.053.087l-.231.33q-.116.165-.233.328t-.237.325q-.12.161-.244.32c-.057.073-.114.146-.169.22s-.108.149-.157.226a2.225,2.225,0,0,0-.133.239,1.667,1.667,0,0,0-.1.26,3.2,3.2,0,0,1-.121.348,3.064,3.064,0,0,1-.159.328,2.865,2.865,0,0,1-.2.3,2.636,2.636,0,0,1-.23.271,2.567,2.567,0,0,0-.319.405c-.092.143-.173.291-.25.442s-.152.3-.232.451a4.033,4.033,0,0,1-.263.433.6.6,0,0,0-.109.241.381.381,0,0,0,.024.218.52.52,0,0,0,.144.189,1.049,1.049,0,0,0,.253.156l.136.06.138.057.139.054.139.053a1.885,1.885,0,0,0,.323.1.594.594,0,0,0,.25,0,.582.582,0,0,0,.223-.115,1.775,1.775,0,0,0,.241-.243c.055-.065.108-.131.158-.2s.1-.138.149-.207.1-.14.148-.208.1-.137.155-.2q.207-.254.412-.511t.4-.517q.2-.261.387-.529t.365-.545q.164-.259.334-.512t.349-.5q.178-.248.365-.49t.384-.476c.027-.032.054-.066.08-.1s.051-.071.073-.108a.955.955,0,0,0,.06-.113.647.647,0,0,0,.039-.117.951.951,0,0,1,.045-.146.8.8,0,0,1,.065-.127.841.841,0,0,1,.086-.113,1.106,1.106,0,0,1,.108-.1c.032-.027.065-.056.1-.086s.065-.061.094-.094a.747.747,0,0,0,.078-.1.419.419,0,0,0,.05-.109,3.244,3.244,0,0,1,.208-.539,5.067,5.067,0,0,1,.281-.5c.1-.161.21-.317.318-.473s.217-.311.321-.469q.215-.329.419-.663t.4-.672q.2-.337.4-.676t.4-.674c.026-.043.05-.085.072-.128s.044-.086.064-.129.039-.088.056-.133.034-.092.05-.14c.051-.154.1-.308.159-.461s.117-.3.184-.451a4.317,4.317,0,0,1,.224-.431,3.281,3.281,0,0,1,.281-.4c.051-.062.1-.122.139-.183a1.574,1.574,0,0,0,.112-.189,1.312,1.312,0,0,0,.082-.207,1.457,1.457,0,0,0,.049-.237,1.6,1.6,0,0,1,.057-.263,1.9,1.9,0,0,1,.1-.261,1.871,1.871,0,0,1,.138-.243,1.543,1.543,0,0,1,.168-.209,1.343,1.343,0,0,0,.15-.186,1.863,1.863,0,0,0,.113-.2c.034-.067.064-.134.095-.2s.061-.135.094-.2.067-.141.1-.21a2.23,2.23,0,0,1,.11-.2,1.1,1.1,0,0,1,.139-.182.863.863,0,0,1,.189-.149.585.585,0,0,0,.133-.107.852.852,0,0,0,.1-.135c.03-.048.057-.1.082-.151s.05-.1.075-.154l.208-.415.208-.415q.1-.208.205-.416t.2-.419c.113-.244.241-.479.376-.709s.279-.456.425-.68.293-.447.437-.672.284-.453.413-.687c.062-.111.128-.22.2-.327s.138-.214.207-.321.139-.213.205-.321.131-.218.19-.33.122-.219.186-.328.127-.218.184-.33a2.268,2.268,0,0,0,.146-.348,1.523,1.523,0,0,0,.07-.383,2.107,2.107,0,0,1,.047-.353,1.769,1.769,0,0,1,.107-.329,1.7,1.7,0,0,1,.173-.3,1.884,1.884,0,0,1,.245-.279,1.909,1.909,0,0,0,.159-.169,1.991,1.991,0,0,0,.142-.192,1.815,1.815,0,0,0,.116-.207,1.475,1.475,0,0,0,.083-.215,3.213,3.213,0,0,1,.223-.546c.089-.175.188-.344.288-.513s.2-.338.289-.512a3.254,3.254,0,0,0,.226-.543.745.745,0,0,1,.067-.154.954.954,0,0,1,.1-.139,1.278,1.278,0,0,1,.12-.125,1.708,1.708,0,0,1,.135-.11A.161.161,0,0,1,19,34.213a.133.133,0,0,1,.112.026.146.146,0,0,1,.038.047.241.241,0,0,1,.021.057.48.48,0,0,1,.01.063c0,.022,0,.044,0,.065s0,.044.006.065a7,7,0,0,1,.051.723c.005.241,0,.482-.009.723s-.025.482-.04.722-.03.481-.04.722c-.006.149-.013.3-.017.445s0,.293,0,.439a3.131,3.131,0,0,0,.052.435,2.4,2.4,0,0,0,.127.434,1.09,1.09,0,0,1,.068.259,1.266,1.266,0,0,1,.007.266,1.738,1.738,0,0,1-.043.271,2.663,2.663,0,0,1-.083.277c-.037.1-.07.211-.1.32a3,3,0,0,0-.064.333,2.479,2.479,0,0,0-.022.337,2.022,2.022,0,0,0,.029.333c.014.08.023.158.029.236s.008.154.008.23,0,.152-.011.228-.015.152-.025.229c-.007.05-.014.1-.019.149a1.413,1.413,0,0,0-.009.148.8.8,0,0,0,.012.147.614.614,0,0,0,.045.144.5.5,0,0,1,.035.1.45.45,0,0,1,.01.1.482.482,0,0,1-.013.1.6.6,0,0,1-.035.1,1.437,1.437,0,0,0-.091.289,1.9,1.9,0,0,0-.036.3c0,.1,0,.2,0,.3s.012.2.02.3.011.184.013.275,0,.182,0,.272-.007.181-.013.272-.012.181-.019.273c-.015.212-.03.424-.038.636s-.01.423,0,.633a4.694,4.694,0,0,0,.07.629,3.638,3.638,0,0,0,.171.623,2.3,2.3,0,0,1,.122.483,2.941,2.941,0,0,1,.027.491,4.148,4.148,0,0,1-.043.487c-.023.16-.053.318-.087.471q-.056.256-.091.508c-.024.169-.041.337-.053.5s-.018.336-.02.5,0,.337.006.506c.01.274.028.549.046.823s.036.548.045.822.01.548-.007.822a5.36,5.36,0,0,1-.11.821c0,.014-.006.028-.008.043a.412.412,0,0,0,0,.044.254.254,0,0,0,0,.043.152.152,0,0,0,.01.039,1.962,1.962,0,0,1,.123.434,3.317,3.317,0,0,1,.041.443c.005.148,0,.3,0,.446s0,.3.014.445.026.282.042.424.033.283.047.424.026.282.032.423a3.941,3.941,0,0,1,0,.421c-.011.172-.013.344-.009.514s.014.34.026.51.027.339.04.508.025.339.033.509c0,.084.008.167.012.25s.008.167.012.25.006.167.006.251,0,.168,0,.254-.012.179-.021.27-.017.184-.021.277a1.885,1.885,0,0,0,.006.277,1.144,1.144,0,0,0,.06.272,3.329,3.329,0,0,1,.139.516,5.151,5.151,0,0,1,.069.526c.015.176.023.353.03.529s.013.351.022.525q.017.311.056.614t.1.6q.06.3.141.588t.184.58a1.169,1.169,0,0,0,.23.385,1.263,1.263,0,0,0,.35.274,1.157,1.157,0,0,0,.417.13.972.972,0,0,0,.431-.049l.241-.084q.12-.041.241-.08t.243-.073q.122-.034.246-.064a.207.207,0,0,0,.074-.034.2.2,0,0,0,.053-.059.214.214,0,0,0,.028-.079.266.266,0,0,0,0-.094.777.777,0,0,0-.025-.087c-.01-.03-.021-.061-.03-.09a.4.4,0,0,1-.018-.082.1.1,0,0,1,.012-.064.956.956,0,0,0,.12-.285,1.241,1.241,0,0,0,.032-.29,2.812,2.812,0,0,0-.017-.293c-.01-.1-.022-.2-.029-.294a2.327,2.327,0,0,1,0-.339,2.2,2.2,0,0,1,.048-.327,2.327,2.327,0,0,1,.1-.319,2.741,2.741,0,0,1,.144-.315c.069-.13.137-.262.2-.4s.129-.268.189-.4.115-.274.166-.413.1-.279.134-.421c.061-.225.137-.445.218-.664s.166-.436.248-.654.158-.438.221-.662a4.238,4.238,0,0,0,.137-.688c0-.027.007-.056.013-.085a.755.755,0,0,1,.023-.085.557.557,0,0,1,.033-.08.377.377,0,0,1,.045-.069,1.125,1.125,0,0,0,.15-.237,1.954,1.954,0,0,0,.1-.257c.028-.088.052-.176.078-.265s.053-.176.088-.26q.068-.167.134-.335t.13-.337q.064-.169.127-.338l.125-.339c.039-.106.081-.212.123-.319s.084-.212.124-.319.078-.214.11-.321a3.029,3.029,0,0,0,.081-.327c.043-.231.1-.457.164-.681s.137-.445.211-.666.149-.441.22-.663.137-.444.193-.671c.008-.034.018-.068.028-.1s.022-.068.034-.1.026-.066.041-.1.031-.063.048-.093c.068-.118.129-.237.187-.359s.109-.245.158-.369.093-.251.136-.379.082-.257.12-.387.082-.256.129-.382.1-.251.148-.376.1-.25.15-.376.094-.253.134-.381c.057-.183.122-.363.189-.541s.138-.357.206-.535.134-.358.193-.54a5.435,5.435,0,0,0,.151-.556c.031-.145.064-.289.1-.433s.075-.287.114-.43.08-.286.121-.428.082-.285.123-.428.077-.3.111-.448.068-.3.107-.45a4.274,4.274,0,0,1,.137-.441,2.545,2.545,0,0,1,.2-.42.451.451,0,0,0,.029-.056.579.579,0,0,0,.022-.061c.006-.021.011-.042.016-.063s.008-.042.01-.063a3.133,3.133,0,0,1,.082-.414c.036-.136.079-.269.124-.4s.093-.265.14-.4.091-.265.129-.4q.087-.306.174-.612t.175-.613q.089-.306.181-.612t.192-.609c.044-.135.093-.268.143-.4s.1-.266.152-.4.1-.266.142-.4.081-.269.111-.405c.046-.208.085-.416.126-.625s.081-.417.128-.623.1-.411.169-.612a4.114,4.114,0,0,1,.249-.591.251.251,0,0,0,.024-.076.64.64,0,0,0,.007-.085c0-.029,0-.059,0-.088a.524.524,0,0,1,.01-.086c.009-.041.018-.083.027-.124s.019-.083.03-.124.022-.082.034-.122.025-.08.04-.12c.088-.239.177-.479.263-.719s.166-.481.238-.725a7.609,7.609,0,0,0,.181-.74,5.434,5.434,0,0,0,.091-.764.474.474,0,0,1,.016-.1.9.9,0,0,1,.034-.1c.013-.033.028-.066.042-.1s.029-.066.041-.1c.07-.185.142-.37.215-.554s.145-.369.217-.553.143-.37.211-.555.135-.372.2-.56q.152-.454.3-.91t.289-.913q.143-.457.284-.915t.284-.915q.035-.111.068-.224t.065-.225q.032-.112.063-.225l.062-.225a.609.609,0,0,1,.029-.084.249.249,0,0,1,.042-.068.127.127,0,0,1,.061-.038.157.157,0,0,1,.086,0,.069.069,0,0,1,.033.031.271.271,0,0,1,.028.059.355.355,0,0,1,.016.069.174.174,0,0,1,0,.061,2.27,2.27,0,0,0-.048.249c-.011.083-.019.166-.023.25s-.007.167-.009.251,0,.169,0,.254,0,.2.01.291.018.191.03.285.026.189.038.283.024.189.033.284.017.168.024.253a2.5,2.5,0,0,1,.01.252,1.29,1.29,0,0,1-.027.25.976.976,0,0,1-.088.245.739.739,0,0,0-.08.267,1.176,1.176,0,0,0,.006.268c.011.089.028.179.043.268a1.962,1.962,0,0,1,.03.268.127.127,0,0,1-.006.039.257.257,0,0,1-.016.04c-.006.013-.014.026-.021.039l-.021.038a1.676,1.676,0,0,0-.136.346,1.74,1.74,0,0,0-.057.354,2.022,2.022,0,0,0,.012.357,2.511,2.511,0,0,0,.07.354,2.634,2.634,0,0,1,.071.359,2.786,2.786,0,0,1,.021.355,3.364,3.364,0,0,1-.02.355c-.013.119-.031.238-.054.359-.019.1-.039.207-.054.311a2.165,2.165,0,0,0-.025.315,1.244,1.244,0,0,0,.038.312,1.024,1.024,0,0,0,.134.3.3.3,0,0,1,.037.078.265.265,0,0,1,.011.079.326.326,0,0,1-.011.08.512.512,0,0,1-.03.082.694.694,0,0,0-.064.286.823.823,0,0,0,.012.146,1.1,1.1,0,0,0,.037.149.273.273,0,0,1,0,.172.549.549,0,0,1-.08.146c-.033.047-.07.092-.1.141a.353.353,0,0,0-.055.157c0,.028-.005.057-.009.086s-.006.059-.008.088a.454.454,0,0,0,0,.083.206.206,0,0,0,.022.072.767.767,0,0,1,.081.227,1.064,1.064,0,0,1,.017.228c0,.076-.009.152-.017.229s-.016.153-.019.23q-.008.2-.014.405t-.008.405q0,.2,0,.405t.006.405c.006.255.012.511.018.767s.012.511.02.767.018.511.031.766.029.51.049.764c.017.211.027.422.037.634s.019.423.034.635.035.422.066.632a4.907,4.907,0,0,0,.133.627,1.33,1.33,0,0,1,.041.244c.008.083.012.167.02.251a1.216,1.216,0,0,0,.047.245.693.693,0,0,0,.121.228,1.273,1.273,0,0,0-.059.361,1.592,1.592,0,0,0,.034.348,2.888,2.888,0,0,0,.094.34c.038.113.08.225.12.338a.574.574,0,0,1,.028.106.428.428,0,0,1,0,.108.292.292,0,0,1-.028.1.242.242,0,0,1-.067.083.577.577,0,0,0-.22.367,1.014,1.014,0,0,0-.013.206c0,.07.008.141.015.211q.019.212.042.423t.047.423q.024.211.048.422t.047.422a.669.669,0,0,0,.041.162c.019.052.043.1.064.155a.939.939,0,0,1,.053.16.486.486,0,0,1,.007.175,4.219,4.219,0,0,0-.037.771,6.441,6.441,0,0,0,.079.76c.04.252.091.5.143.752s.107.5.155.749a4.181,4.181,0,0,0,.1.409c.04.135.086.269.133.4s.1.267.146.4.1.267.139.4a1.012,1.012,0,0,0,.077.18.953.953,0,0,0,.106.154,1.042,1.042,0,0,0,.133.131,1.294,1.294,0,0,0,.159.112,3.12,3.12,0,0,0,.506.248,2.217,2.217,0,0,0,.517.129,1.884,1.884,0,0,0,.53-.01,2.072,2.072,0,0,0,.545-.17c.019-.009.039-.02.058-.032l.059-.035a.316.316,0,0,1,.058-.025.11.11,0,0,1,.053,0,.606.606,0,0,0,.314-.008.448.448,0,0,0,.2-.142.907.907,0,0,0,.131-.221c.036-.081.065-.167.1-.248.02-.054.04-.106.061-.158s.042-.1.066-.152.049-.1.077-.146a1.438,1.438,0,0,1,.1-.141,1.451,1.451,0,0,0,.094-.139c.029-.048.056-.1.081-.149s.05-.1.074-.154.048-.1.073-.154c.08-.164.154-.33.224-.5s.137-.336.2-.506.126-.34.186-.512.12-.344.179-.516c.067-.193.126-.389.183-.586s.112-.395.171-.591.121-.391.194-.583a4.7,4.7,0,0,1,.252-.562,7.1,7.1,0,0,1,.139-.71c.057-.234.123-.466.192-.7s.14-.461.207-.692.132-.463.186-.7c.022-.1.042-.194.062-.291s.038-.195.057-.292.039-.195.06-.291.045-.193.073-.288q.14-.491.272-.984t.255-.988q.123-.5.238-.992t.222-1c.019-.091.039-.181.057-.271s.035-.181.05-.272.026-.182.035-.274.013-.184.012-.278c0-.035,0-.071,0-.107s0-.073.01-.108a.726.726,0,0,1,.022-.1.467.467,0,0,1,.039-.094,2.267,2.267,0,0,0,.162-.372c.043-.127.077-.256.107-.387s.057-.262.086-.392.06-.261.1-.389c.114-.38.213-.765.305-1.151s.177-.774.264-1.162.175-.775.273-1.16.206-.767.332-1.145c.022-.066.044-.133.062-.2a1.661,1.661,0,0,0,.043-.209,1.049,1.049,0,0,0,.008-.213.809.809,0,0,0-.044-.214.32.32,0,0,1-.02-.113.268.268,0,0,1,.019-.095.463.463,0,0,1,.046-.085c.018-.028.039-.056.06-.085s.033-.045.048-.069.031-.049.044-.074a.513.513,0,0,0,.034-.076.3.3,0,0,0,.016-.077,3.356,3.356,0,0,1,.04-.34c.019-.112.042-.223.068-.333s.054-.22.083-.33.058-.219.086-.329a.791.791,0,0,1-.049-.368,1.089,1.089,0,0,1,.1-.329c.047-.106.105-.209.161-.312a2.19,2.19,0,0,0,.146-.316c0-.013.008-.027.012-.041s.006-.028.009-.042,0-.028.007-.042l.006-.042c.017-.1.032-.21.047-.316s.029-.211.044-.317.032-.21.052-.315.042-.208.069-.31a4.035,4.035,0,0,0,.081-.4c.022-.135.04-.27.06-.4s.044-.266.075-.394a2.008,2.008,0,0,1,.126-.369,2.8,2.8,0,0,0,.175-.522c.044-.179.078-.36.118-.539a3.4,3.4,0,0,1,.154-.524,1.7,1.7,0,0,1,.284-.478.149.149,0,0,0,.027-.049.32.32,0,0,0,.013-.062c0-.022,0-.044.005-.067s0-.044,0-.065c0-.156.015-.312.03-.466s.037-.307.065-.459.064-.3.107-.451a4.32,4.32,0,0,1,.155-.443,1.161,1.161,0,0,0,.052-.159c.014-.055.024-.111.033-.167s.016-.114.022-.171.012-.114.019-.17a.459.459,0,0,0,0-.1c0-.034-.009-.068-.013-.1a.5.5,0,0,1,0-.1.3.3,0,0,1,.03-.106,1.116,1.116,0,0,0,.08-.219,2.256,2.256,0,0,0,.045-.228c.012-.077.022-.153.034-.229a1.992,1.992,0,0,1,.046-.223c.021-.074.039-.148.054-.222s.029-.147.042-.22.023-.147.034-.221.02-.148.031-.223.011-.128.017-.2a1,1,0,0,1,.035-.2.414.414,0,0,1,.1-.176.442.442,0,0,1,.215-.113.088.088,0,0,0,.042-.027.27.27,0,0,0,.037-.052.613.613,0,0,0,.031-.064c.009-.022.017-.044.024-.063.02-.06.037-.121.055-.181a1.633,1.633,0,0,1,.061-.177.668.668,0,0,1,.093-.159.523.523,0,0,1,.151-.128.391.391,0,0,1,.152.166.475.475,0,0,1,.039.194c0,.068-.006.137-.01.206a.858.858,0,0,0,0,.2,1.644,1.644,0,0,1,.022.187,1.385,1.385,0,0,1,0,.187,1.281,1.281,0,0,1-.028.188,1.313,1.313,0,0,1-.059.189,1.152,1.152,0,0,0-.049.16,1.535,1.535,0,0,0-.029.169c-.007.057-.011.115-.013.172s0,.115,0,.171c.006.192,0,.383-.009.575s-.025.383-.037.574-.022.383-.023.574a4.391,4.391,0,0,0,.032.575c0,.021,0,.042.006.063s0,.043,0,.064,0,.043,0,.064,0,.042-.006.063c-.059.437-.105.874-.141,1.313s-.062.877-.082,1.316-.034.878-.046,1.318-.021.879-.032,1.319c0,.121,0,.242,0,.363s.008.241.014.361.012.24.017.36.008.24.009.36c0,.232.008.463.016.695s.018.463.024.7.009.464,0,.7-.019.464-.045.7c-.013.112-.02.225-.025.338s0,.227,0,.341.007.228.013.342.014.228.022.341c.026.367.061.733.1,1.1s.069.733.094,1.1.042.734.042,1.1a9.61,9.61,0,0,1-.061,1.106c-.007.063-.011.126-.013.19s0,.128,0,.192.006.129.011.193.01.128.016.192q.028.318.056.635t.058.635q.03.317.063.635t.069.634c.013.115.025.228.032.341a3.236,3.236,0,0,1,0,.337,2.176,2.176,0,0,1-.039.333,1.793,1.793,0,0,1-.1.33.456.456,0,0,0-.032.121.378.378,0,0,0,0,.116.458.458,0,0,0,.04.115.736.736,0,0,0,.073.117,1.812,1.812,0,0,1,.176.284,1.538,1.538,0,0,1,.161.626,1.8,1.8,0,0,1-.02.347,2.681,2.681,0,0,0-.028.272,2,2,0,0,0,0,.276,1.572,1.572,0,0,0,.048.273,1.344,1.344,0,0,0,.1.264.689.689,0,0,1,.054.142.95.95,0,0,1,.025.144c.005.048.007.1.009.146s0,.1,0,.148.005.113.01.169.01.113.02.169a.991.991,0,0,0,.043.164.75.75,0,0,0,.077.156.622.622,0,0,1,.072.156.989.989,0,0,1,.034.164c.007.056.012.112.017.168s.01.112.02.168c.022.133.037.267.049.4s.022.269.035.4.027.268.05.4a2.748,2.748,0,0,0,.095.4q.129.4.28.782t.323.763q.172.376.365.743t.408.723a1.469,1.469,0,0,0,.264.33,1.067,1.067,0,0,0,.317.2,1.139,1.139,0,0,0,.37.081,1.7,1.7,0,0,0,.425-.034.334.334,0,0,0,.041-.011l.04-.015.04-.015a.345.345,0,0,1,.041-.011c.038-.008.152-.046.3-.1s.338-.127.524-.2.371-.15.516-.213a1.6,1.6,0,0,0,.278-.141,4.8,4.8,0,0,1,.534-.416c.186-.127.378-.245.571-.364s.385-.237.572-.364a4.913,4.913,0,0,0,.537-.416,1.081,1.081,0,0,0,.127-.139c.038-.049.074-.1.11-.149a1.506,1.506,0,0,1,.118-.144.771.771,0,0,1,.149-.124,3.748,3.748,0,0,0,.39-.287c.125-.1.245-.211.366-.319s.243-.215.37-.316a3.315,3.315,0,0,1,.4-.278.4.4,0,0,0,.051-.035.433.433,0,0,0,.047-.045.355.355,0,0,0,.039-.051.235.235,0,0,0,.025-.054,2.9,2.9,0,0,1,.188-.452c.074-.145.155-.287.237-.428s.163-.283.235-.429a2.8,2.8,0,0,0,.183-.455c.022-.074.043-.148.069-.221a1.112,1.112,0,0,1,.095-.206.6.6,0,0,1,.375-.28.159.159,0,0,0,.051-.026.3.3,0,0,0,.049-.045.32.32,0,0,0,.039-.055.193.193,0,0,0,.021-.056.772.772,0,0,1,.091-.251.849.849,0,0,1,.155-.192,1.418,1.418,0,0,1,.2-.151c.07-.046.143-.088.216-.13.033-.019.065-.038.094-.058a.647.647,0,0,0,.082-.064.4.4,0,0,0,.064-.076.344.344,0,0,0,.042-.1,2.212,2.212,0,0,1,.1-.285,1.074,1.074,0,0,1,.14-.243.734.734,0,0,1,.207-.183.844.844,0,0,1,.3-.1.054.054,0,0,0,.029-.017.234.234,0,0,0,.026-.034l.026-.04a.169.169,0,0,1,.03-.033A2.287,2.287,0,0,0,65,43.395a5.7,5.7,0,0,0,.311-.48c.1-.164.194-.33.3-.488a2.753,2.753,0,0,1,.36-.443.054.054,0,0,0,.011-.016.1.1,0,0,0,.007-.021.168.168,0,0,0,0-.022.2.2,0,0,0,0-.022.733.733,0,0,1,.042-.265.709.709,0,0,1,.121-.209,1.137,1.137,0,0,1,.178-.17c.066-.052.139-.1.213-.149s.133-.086.2-.133a1.839,1.839,0,0,0,.186-.151,1.028,1.028,0,0,0,.152-.176.707.707,0,0,0,.1-.209q.016-.061.034-.119t.037-.115q.019-.057.041-.111t.047-.107a.773.773,0,0,0,.384-.354,2,2,0,0,0,.223-.663,4.047,4.047,0,0,0,.045-.889,5.8,5.8,0,0,0-.151-1.031m-13.5.088.013.024.013.024.013.024.013.024-.016.007-.016.007-.016.007-.016.007,0-.03,0-.031,0-.031,0-.031M47.555,17.665l.021-.009a.053.053,0,0,0,.013-.01.026.026,0,0,0,.006-.01.019.019,0,0,0,0-.009l0,0,0,.006,0,.007.007.01a.019.019,0,0,1,0,.017.015.015,0,0,1-.011.009.042.042,0,0,1-.022,0,.08.08,0,0,1-.028-.016M44.421,30.8l-.041-.027.045-.019Zm1.86-8.781v.02l0-.005V22.03l0-.005,0-.005h.005m.011.147.008.1.008.1.008.1.008.105a.238.238,0,0,1-.073-.1.224.224,0,0,1-.01-.1.634.634,0,0,1,.024-.1c.01-.035.021-.069.028-.1" transform="translate(0 0)" fill="#fff"/></g></g></svg>