<svg width="11" height="8" viewBox="0 0 11 8" fill="none" xmlns="http://www.w3.org/2000/svg">
<g clip-path="url(#clip0_384_111)">
<path d="M10.64 5.10902L8.10804 2.57701L8.10804 4.67701L3.70204 4.67701C3.45394 4.68151 3.20757 4.63491 2.97824 4.54012C2.74892 4.44533 2.54156 4.30437 2.36904 4.12601C2.19198 3.9533 2.05205 3.74625 1.95782 3.51755C1.86359 3.28886 1.81704 3.04333 1.82104 2.79601C1.81704 2.5487 1.86359 2.30317 1.95782 2.07448C2.05205 1.84578 2.19198 1.63873 2.36904 1.46601C2.54156 1.28766 2.74892 1.1467 2.97825 1.05191C3.20757 0.957122 3.45394 0.910523 3.70204 0.915015L3.84304 0.915015L3.84304 0.0480148L3.70204 0.0480148C3.33956 0.0413175 2.97959 0.109235 2.64447 0.247547C2.30936 0.385859 2.00627 0.59161 1.75404 0.852015C1.49548 1.10418 1.29116 1.4065 1.15359 1.74044C1.01603 2.07438 0.94812 2.4329 0.954037 2.79401C0.947572 3.1558 1.01521 3.51508 1.15279 3.84975C1.29037 4.18441 1.49499 4.48738 1.75404 4.74001C2.00661 4.9997 2.30986 5.20471 2.64495 5.34232C2.98005 5.47994 3.33985 5.54723 3.70204 5.54001L8.10804 5.54002L8.10804 7.64001L10.64 5.10902Z" fill="black"/>
</g>
<defs>
<clipPath id="clip0_384_111">
<rect width="7.594" height="9.686" fill="white" transform="matrix(4.37114e-08 -1 -1 -4.37114e-08 10.64 7.64001)"/>
</clipPath>
</defs>
</svg>
