<svg fill="none" height="117" viewBox="0 0 155 117" width="155" xmlns="http://www.w3.org/2000/svg"><g fill="#fff"><path d="m94.095 10.4798c1.9258 3.6723 2.4632 8.7779 1.2092 12.9429-1.254 4.9264-5.3742 9.8975-10.211 11.9129-5.419 2.6423-13.1221 2.0153-17.9589-1.4779-6.7178-4.6129-9.4497-12.5399-7.4344-20.3773 1.2092-4.6577 4.9264-9.36015 9.4497-11.50985 2.5528-1.253985 5.3295-1.9257647 8.3749-1.97055 6.9417 0 13.5699 4.07546 16.5705 10.4798zm-16.1675-9.584094c.0896.716564.0896 1.701844.0448 2.552764 0-.08957.0448-.13436.0896-.22393.1344-.08957.2239.04479.3135.13436 0 .13435.0448.35828-.0448.40306.0896 0 .1792-.04478.2687-.04478 2.1049.17914 4.0307.76135 5.7773 1.74662v-.04478c.3583-.17914.8062-.40307 1.1644-.08957.4479-.17914.5375.35828.8957.44785.4479.26871.8958.71657.9853 1.25399.0896.17914.3583.26871.3583.44785.3135-.62699.8957-1.07485 1.3883-1.61227l.3135-.13435c-2.7766-2.64234-6.0908-4.12025-9.7631-4.61289-.627-.08957-1.254-.04478-1.7915-.223924zm-1.03.08957c-3.7172.134354-6.9865 1.388344-9.8976 3.493254-.5822.40307-1.0748.98527-1.6122 1.29877h.0895c.7166.53742 1.4332 1.29877 2.0154 1.97055l.0448-.13435c2.6871-2.46319 5.822-3.80675 9.4049-3.94111l-.0896-.22392-.0448-2.19448zm3.135 1.388344-1.3436.58221c-.0896-.04479-.3135-.08957-.4031.04478-.0448.04479 0 .08957 0 .13436.4927.62699 1.3436.26871 1.9258.13436.4478.17914.8509-.04479 1.2092-.3135-.2687-.44785-.8509-.53742-1.3883-.58221zm-2.1497 2.28405.0895.17914c0 .85092.0448 1.74663-.0448 2.55276.3583-.13435.7166.04479 1.0749.04479 1.7914.31349 3.4932.85092 4.9264 1.97055-.1792-.17914-.4031-.40307-.4031-.67178.0448-.04479.0448-.04479.0896-.04479 0-.26871-.2687-.44785-.3135-.67178.0448-.04478.0895-.08957.2239-.08957.3135.3135.5822.627.8061.9405.1792-.08957.3583.04478.4927.13435.2687.17914.0895.49264.3135.67178.0448.53738.7165.85088.6717 1.38838 0 .1343.1792.0447.224.0895l.5374.6718c-.0896.1344 0 .2687.0896.3583.2687.0896.403-.2239.627-.1791.3582.2239-.0448.4478 0 .6717.1343 0 .3135-.0895.403.0448.0448.2239-.1791.3135-.2687.4479 0 .2239.1792.1343.3135.2239.1792 0 .2687.1791.2239.3135.4479.4926-.1343.9853.0896 1.4779.1344.3135-.0448.6718-.2239.8957 0 .4031-.3583.6718-.4926.9853l-.4479.0896c-.2687.2687.2239.5374-.0448.7165h1.0301l-.0896-.0895c-.1343-.4031-.0896-.9405.1344-1.2988.1343-.3135.1791-.7166.4926-1.0301.0448 0 .1791-.1343.2239 0 0 .3135 0 .6718-.1343.9405.3135.4031.2687.9853.2687 1.4779.8957-.0448 1.7914-.0895 2.6871-.0448l-.0896-.1791c-.1343-1.7018-.4926-3.3141-1.2092-4.7472-.1791 0-.3135.1791-.5374.0895-.0896-.0448-.1344-.0895-.0896-.1791-.3583-.3583-.5822-.8061-1.03-1.1196-.4479.0447-.6718-.4927-1.1197-.5375-.3582-.1343-.1343-.7613-.6717-.5822-.2688-.0895-.5375-.3135-.5823-.62697 0-.49264-.0895-.98527-.5374-1.29877-.3135-.13436-.4478.3135-.8061.26871-.1792-.08957-.0896-.3135-.1344-.49264-.0447-.13435-.2239-.22392-.1791-.40307.4478-.5822-.5374-.5822-.3135-1.11963-.0448-.40306-.4479-.58221-.6718-.8957-1.4331-.627-2.8662-1.07485-4.4785-1.29878-.4031.04479-.7614.13436-1.1196-.04478zm8.33 0c-.1791.17914-.3583-.17914-.5374.04478 0 .08958 0 .17915.0448.26872.403.13435.4478.71656.9405.5822.1343-.17914-.0896-.35828-.0448-.53742-.0448-.22392-.2239-.26871-.4031-.35828zm-16.481 2.50797c-.5822.40307-1.0748.89571-1.7018 1.25399.6718.44786 1.254 1.16442 1.8362 1.70187l.0448.1791c1.5675-1.4779 3.4484-2.37361 5.5086-2.77667.4926-.04479.9852-.22393 1.4331-.08957-.0448-.85092-.0896-1.79141 0-2.64233-2.5976.13435-5.016.94049-7.1209 2.37361zm20.4221-.85092c-.4926.67178-1.2092 1.29878-1.8362 1.97056l-.3135.04478c.1792.04479.2687.26871.3583.40307.6718.35828.8509 1.07485 1.4331 1.47787.3135.6718 1.0749 1.2092 1.1197 2.0154.8061 1.7466 1.3435 3.6276 1.3883 5.6877l-.0896.0896c.0896 0 .1344-.0448.224-.0896l2.6423-.0448c-.1791-.2687-.0896-.627-.1344-.9405-.3134-4.0306-2.0601-7.52389-4.792-10.61408zm-25.3037.04479c-2.5975 2.91104-4.2546 6.22519-4.7024 10.03189-.0896.5374-.0448 1.1196-.1344 1.7019.9405-.0896 1.9258-.0896 2.8215 0l-.0448-.3583c.1792-2.9111 1.1196-5.5534 2.7767-7.88224.4031-.44785.7166-1.07485 1.254-1.38834-.5822-.58221-1.2092-1.2092-1.8362-1.8362zm12.0921 1.92577-.1344.08957c-2.3288.17914-4.3442 1.11963-6.1356 2.59755.7166.4926 1.3436 1.254 1.9706 1.8362.0448-.0448.0896-.1344.1343-.2239.851-.627 1.7914-1.2092 2.8215-1.4332.4479-.0448.8957-.2687 1.3884-.1343-.1344-.8957-.1344-1.83622-.0448-2.73192zm.9852.04478.0896.22393v2.50801l.2239-.0448c1.5227.2239 2.9111.7165 4.1203 1.7018l.0448.1792c.403-.5822 1.03-1.0749 1.5227-1.6123l.4478-.2687-.2239-.0896c-1.0301-.8509-2.1049-1.47791-3.3141-1.92576-.8957-.40307-1.9258-.53742-2.9111-.67178zm-10.5693.67178v.17914l-.9853 1.25402c-1.6122 2.2392-2.4184 4.8368-2.6423 7.6135l2.508-.0448.2239.0896c-.0896-.0448-.0896-.1792-.0896-.2688.224-2.5975 1.1197-4.9711 2.9111-6.8969-.6718-.5822-1.3436-1.25398-1.9258-1.92576zm17.6006 2.55276-.0448.0896c-.8509.8957-1.7914 1.7914-2.5975 2.6871.0448.0896.1344.2239.2687.2687.0448-.2239.1344-.4031.1791-.627.224-.3135.5375-.0896.851-.0448.4478-.0895.8509.0896 1.2987.0896.3135.1791.3583.5822.6718.7613.0896.1344 0 .2688-.0895.3583.0895.6718.403-.1791.7613 0 .1344.0448.3135.0448.4479.1792.0447.2687.403.2239.403.4926-.0448.1344-.1791.1791-.2687.2687.0896.2687-.2687.4479-.1343.7614.5374.0895.5374-.5375.8061-.8062-.1344-.4926-.2239-.9852-.4926-1.3883-.3135-.0448-.4927-.4031-.8062-.4927-.5822-.2239.0896-.5822 0-.9404-.3583-.627-.8509-1.1197-1.254-1.6571zm-14.9583.0896c-1.2539 1.5227-2.1496 3.1797-2.4631 5.1055-.0896.4478-.0448.9405-.224 1.3883.3135-.1343.8062-.0895 1.1644-.0447-.2239-.0896-.0447-.3583-.1343-.5375-.0448-.2239-.0448-.4926.1343-.6718-.0447-.3582.3583-.5822.4031-.8957.0896-.403.5374-.1343.7614-.3135.1343-.0895 0-.1791 0-.3134.1791-.2688.4478-.224.6717-.3583.1792-.224.3583-.4927.627-.627.5375 0 .5822-.7614 1.0749-.7614-.7166-.627-1.3884-1.3435-2.0154-1.9705zm7.927.3135c.1792.5374 0 1.2987.1344 1.881l.6718.2239c.1791-.3135.627-.4031.8061-.6718.1344-.0896.2687 0 .3583.0896.0448.2687-.0448.4926-.0896.7165-.2687.4927-.8509.5822-1.1644.9405.2239.1344.3135-.0895.4926-.1343.2688.0448.4479.2687.627.403.1792.0896.3135-.0448.4479-.0895.0896-.7614 1.0748-.6718 1.3435-1.3884l-.1791.0448c-.0896-.0896-.2687-.0448-.2687-.2239.1344-.1344.3583-.3583.5374-.4479-.8061-.5374-1.7018-.9405-2.5975-1.2092-.3583 0-.7614 0-1.1197-.1343zm-4.9263 1.9257h.2239c.2239.224.5822.1792.7613.4479.0896.1791-.1791.1343-.1343.2687.0448.0448.0896.0448.1343.0896.1792.0448.1344-.0896.1792-.1792.2239-.2239.2687.224.4926.224.1344-.0896.3583-.0896.4927.0447.1343-.1343.4478 0 .4926-.2687.2687-.3135.1343-.7613.5374-.9852.1344.0895 0 .2239.0448.3582.2687.1344.627-.2239.8509.0448-.2239-.5822-.1343-1.3435-.1343-2.0153-1.5227.3135-2.8663.8061-3.9411 1.9705zm4.4337 1.5227c-.1344-.1791-.4478-.0447-.6718 0 .1792.1792.0896.5375.224.7614-.2688.4478-.7166.5822-1.1645.6718-.1343.1343-.0895.4478-.3582.4478-.0896.2239-.4031.3135-.2688.627-.1343.3135-.0895.7166-.1343 1.0749-.5374.3582-.4031-.4479-.6718-.627l-.0896.1791c-.0895.0448-.1791-.0448-.2687-.0896s-.2239-.0448-.3135 0c-.1343.224-.3135.3583-.2687.627-.0448.1792-.3135.0896-.3135.2687.3135 0 .627-.0447.9405-.1343.2239.0448.4031-.0896.5822-.0896.0896.0448.1344.0896.1344.2239h.0895c.1344-.0895.224-.2687.1344-.4478 0-.1792.2239-.1792.3583-.2687.1343.0448.0448.1791.0448.2687.403.1343-.0896.4478-.1344.6718-.0896.1791 0 .5822-.3583.4926-.0448 0-.0895-.0896-.0895-.1344h-.0448c0 .1344.0895.3583.2687.4031.2687-.2239.2687-.5822.627-.627.1791-.2239-.0896-.4926.1791-.6718.4927 0 .9853-.2239 1.3884.1792-.0448.1791-.0896.2239.0447.3583-.0895.2239-.1343.4478-.3134.627.0447.1343 0 .2687-.0896.3582-.1344.5823-.7614.3135-1.1644.4927.5822.4478 1.2987.627 2.0153.5374.4031 0 .2239-.4926.4031-.7166.1343-.627.7165-.1791 1.0748-.3582.1344-.2688.2687-.5375.3135-.851-.2239-.1343-.3135-.403-.2687-.6717-.1344-.224-.1344-.5823-.4926-.627-.0448-.0896 0-.1792.0447-.224 0-.2239.1792-.2687.2688-.403-.224-.1344-.1344-.4479-.1344-.627-.3583.0895-.4031-.3583-.6718-.4479-.0448-.2239-.3135-.2687-.4926-.2687-.4479.2239-.4927-.3135-.8509-.4478-.0448-.0896-.0896-.2688 0-.3135.1791-.1344.403 0 .5822-.0448zm-7.9718 2.2841c-.7613.2239.1344.8061-.0448 1.254-.0895.2687-.3582 0-.5822.1343l-.0895.4927c-.0896.2687-.4479.0895-.627.2687-.1344.1791 0 .3583.0895.5374-.2687.5822.5822.7614.5822 1.2988.2688.3135-.0447.8061.3135 1.1196.0896.5822-.0895 1.3883.4479 1.881l.0896.5822c.0895.4031-.4479.3135-.4031.627.0896-.0448.1344.0896.1344.1343.7165-.8061 1.5227-1.7018 2.3736-2.4184l-.3583-.3582c-.6718-.9853-1.1644-2.0154-1.4331-3.135l-.2688-.1344c0 .3135-.1343.5375-.1343.8062l-.0896.0895c-.1791 0-.3135-.1791-.4926-.2687-.0448-.0895-.1344-.2687 0-.3583.0896 0 .1343 0 .2239.0448.0896-.0895.0448-.2687.0896-.3583.0448-.2239-.1792-.403-.0448-.6269.1791 0 .3135.1791.3583.3135.1791.0447.3135-.0896.4478-.1344 0-.1344.224-.3583 0-.4479.1344-.3582.0448-.7165 0-1.0748 0-.3583-.3135-.3135-.5822-.2687zm17.1976.3135c-.0896.0448-.1792 0-.2687 0 .0895-.0448.1791 0 .2687 0zm-.5822.8957.2687.2687c.2687.1791.0895.627.403.7613.3583.1792.4927.5823.627.8958.0448-.0896.0448-.1792.0896-.2688.1344-.4926.0896-1.0748.2687-1.5674-.5374.0447-1.1644.0895-1.657-.0896zm6.3147.1343-.1344-.0895.0896.2687c-.1344 3.0454-1.1644 5.7773-2.911 8.1509-.3583.4031-.6718.8957-1.0749 1.1644.7166.5374 1.4779 1.3884 2.0601 2.0154l.0896-.1344c2.8215-3.2245 4.389-6.9417 4.5681-11.2411l.0896-.2239-.1344.0448zm-3.6724-.0895c.0448.5374-.0896 1.1196-.1344 1.657l.3135.3135c.0896.1344.0448.3135-.0447.4031-.1344.0896-.3135.0896-.4031-.0448-.4031 1.254-.8509 2.4184-1.6123 3.4933-.3135.403-.5822.9404-.9853 1.1196l.851.7166c.0447-.0448 0-.1344.0447-.1792 0-.0896.0448-.2239.1792-.2239.403 0 .4031.4031.627.627-.0448.3583.2687.627.1343.9405 2.3289-2.4632 3.4933-5.419 3.6724-8.7779l.1344-.1344c-.8062.0896-1.7019.0448-2.5528.0448zm-21.4522.0448.1344.2239c0 .627.2687 1.1644.1344 1.7914.0895-.1791.1343-.4031.3582-.5374.0448-.1792-.2239-.224-.1791-.3583.1791-.3583 0-.8957.4479-1.0301-.3583.0448-.627.0896-.8958-.0895zm-4.4337.0447-.2687.0896h-2.5528c.1344 2.9558.9405 5.5982 2.2393 8.0614.6718 1.2092 1.6123 2.3288 2.4632 3.4484l1.8362-1.881.2239-.0895c-.3135-.2239-.5822-.5822-.8509-.8957-.3135-.0896-.627-.3135-.7614-.5822-.0895-.0896 0-.2687-.0895-.3583l-.0896.1343c-.3135.1792-.4479-.1791-.6718-.3135-.2687-.1343-.1343-.7165-.5374-.5822-.1344 0-.1791-.1791-.2687-.2687-.3583.0448-.4479-.3583-.627-.5374-.0448.0896 0 .1791-.0896.2687-.3583.0896-.4926-.3583-.7613-.5374-.0448.0448-.0896.0896-.224.0896-.2239-.1792-.3582-.4479-.3582-.7614-.3135-.3583-.1792-.8957-.0896-1.2988.0448-.0895.2239-.1791.1791-.3135.0896-.1791.2687-.2239.4927-.2239.0895.0448.1343.0896.1791.1792.1344-.0896.4031 0 .2687-.2688.1344-.1343.4031-.1791.5822-.2239.1344.1792.224.4031.4031.5822l-.1344-.2239c-.2239-.8957-.403-1.8362-.4478-2.7767 0-.0448-.1344-.0896-.0448-.1343v.0447c-.0448-.3582-.0448-.4926 0-.627zm3.5828 0-.2239.0896c-.8509 0-1.7466.0448-2.5528-.0448l.0896.1344.2239 1.7018c.0896.6718.3583 1.2988.3583 1.9258.0896-.1344.0448-.4031.2687-.4479-.0895-.2239.1792-.3582.0448-.5374.0896-.4478.1344-.8957.5374-1.2092.4479 0 .4927-.627.9853-.6718.2239 0 .4031.3135.4926.4031-.3134-.3583-.3134-.9405-.2239-1.3436zm4.7473 1.1197c.2687.4926.403 1.03.6717 1.4779.1792.4031.5375.7613.7166 1.1644.1792-.3135.5374-.5822.7614-.8957 0-.1344 0-.2687-.0896-.3583-.0896-.1791 0-.4478-.1344-.627-.2239.0896.0896.3135 0 .4479-.0895.0448-.2239 0-.2239-.0896-.2239-.0448-.3583-.2239-.4478-.4031.1791-.0895-.0448-.1791-.0896-.2687-.0896-.0448-.0896-.0448-.1792.0448-.0447 0-.0895 0-.1343 0-.0448-.5374-.6718-.2239-.8509-.4926zm2.8662.7165c-.0448.224-.2239.4479-.3583.5822h.0448c.224-.1343.3583-.4478.6718-.4478zm7.2552.7614c0 .1343.0448.3135.1344.4478.3583-.0447.1791.4479.5374.4031.1792-.0448 0-.2239.0448-.3135-.0448-.2687-.3135-.3135-.4926-.4478 0-.0448 0-.0896.0447-.1344-.1343-.1344-.1791-.0448-.2687.0448zm5.1951 0c-.2687 0-.5822.1343-.8061-.0448-.0896-.0896-.1344.0448-.1344.0896-.0895.1343-.1791.3135-.403.2687-.1792-.0896-.1792-.2687-.224-.3583 0 .0896-.0447.1791-.0447.2687-.1792.2239-.2688.4031-.4031.627-.1791.2239-.4926.1344-.7166.3135-.0448.4479-.5374.3583-.8061.4926 0 .0448.0448.0448.0896.0896.1343.0448.3135.0448.403-.0896.4031.0896.3135-.403.5375-.5374.1791-.0448.3582-.1791.5822-.0448.2239.2687.2687.627.2239.9405-.2239.224-.0896.5822-.2687.8509.0448.3135-.3135.4479-.2687.7614-.1344.1344-.3135.1344-.4927.1344-.7165-.2688-1.4779-.4479-2.284-.5375-.0896.0448-.1344.0896-.0896.1792.3135.1791.7166.1791 1.0749.3135.3135.0895.5374.4478.9404.3583.3135-.1792.8958.0895 1.1197-.224-.0448-.3583.2687-.5822.403-.8957l.0896-.0448c.1792.1792.1792.4927.2687.6718.2687-.2687.4479-.5822.6718-.8509.627-.8957 1.1196-1.8362 1.3436-2.8215-.3135 0-.5822.0448-.8062.0896zm-11.5546 0c-.403.627-1.1644 1.254-1.7018 1.8362.9853.8061 2.1049 1.2988 3.3141 1.5227.0448-.2687-.0448-.5822.0896-.7614.0895-.2239.3582-.1791.5374-.1343.0896 0 .1791-.1344.0896-.2239-.2687-.0448-.1344-.3583-.224-.5375 0-.0895.1792-.0895.1344-.1791-.1792-.1344.0896-.3135-.0448-.4479.0448-.0447.0896-.1343.1791-.1343-.5822.3135-1.2092-.0448-1.7018-.3135-.2687-.1792-.627-.3135-.6718-.627zm5.3295 1.6123c-.0448.0895-.1344.2239 0 .2687.2239-.224.6718-.224.7165-.5375-.3135-.0895-.4926.0896-.7165.2688zm1.03.7165c-.2687 0-.4478.224-.627.4031-.2687.1343-.403-.2687-.5822-.1791 0 .0447.0448.0447.0896.0895s.0896.2239 0 .2687c-.3135.2687-.4478-.1343-.7613-.0895v.0895c0 .0448 0 .1792-.0896.1344-.1792-.3135-.5822-.1792-.7614-.4479-.1343-.0448-.2239 0-.3135.0896-.0447.1344-.3582 0-.2687.2239-.2239.0896-.2687.3135-.403.4927-.2688-.0448-.4031.2687-.6718.2687.0448.0448 0 .1343.0896.1343.1791.0896.3134.0896.5374.0448.2687-.4478.7165-.0895 1.1196-.2239.2239.0448.0896.3135.2687.4031.3583-.1344.6718.3135.9853.0448 0-.4479.4478-.4031.7166-.4927.403-.2687.8957-.5822.8509-1.1196zm-8.8674.224c-.5375.6717-1.1645 1.3435-1.8362 1.8809.2687 0 .4478.3135.6717.4479 1.3884 1.1644 3.0902 1.7018 4.7025 2.1049l-.4479-.2239c-.3135-.3583-.8061-.8062-.8061-1.3436.3135-.0896.3135-.4926.4031-.7166.2687-.3135.627-.4478.9852-.5374-.9404.4031-1.7466-.3135-2.5079-.6718-.4031-.2687-.9405-.4926-1.1644-.9404zm12.7638 2.5975-.0448-.1791c-.0896.2239-.2687.3582-.4031.5374 0 .1343-.0448.3583.1344.4478.3582.1344.8509.3583.9404.8062-.1343.403-.9404.7613-.4478 1.2092.1344.2239-.2239.3135-.1344.4926l.1344-.1791c.5374-.4479 1.1644-.851 1.6571-1.3884h.0447c-.0895-.0448-.2687.0896-.3582 0-.2688-.1343-.3135-.3583-.3135-.627zm-14.7792.3135-.0448-.0448.0448.0896zm.3135.4031c-.1343-.0896-.1791-.1344-.2239-.2688zm.0448.0895c.0448.224.3583.3583.2687.627-.1343.2687-.4926.2687-.7166.2687-.5374-.0895-.8957.3135-1.3883.3583-.4479.1344-.627-.403-1.0301-.3583 2.5528 2.2393 5.4638 3.6276 8.9123 3.8068l.2687.1791-.0895-.3135v-2.4184l-.224.0896c-2.284-.1344-4.2546-.9405-6.0012-2.2393zm16.9736 1.7019-.0448-.224c-.2687.4927-.8061.8062-1.254 1.2092-.5822.5823-1.5674.7166-1.8809 1.5675-.3135.3135-.4479.7614-.8957.9405-.1792.4479-.627.4031-.8958.7166-.7613.6718-1.2539-.4479-1.9705-.5822l-1.3883.2687c-.4927 0-.9853.1791-1.4332 0 .0448.9405.0448 1.9705 0 2.8663l.1792-.0896c4.4337-.1792 8.2405-1.881 11.5546-4.8368zm-20.3773 0-.0448.0895-1.881 1.881c2.8663 2.4632 6.0908 4.0755 9.808 4.5681.5822.0896 1.254.0448 1.8362.224l-.1343-.224v-2.508l.0895-.1343-.2687.0896c-3.6276-.224-6.8073-1.478-9.4049-3.9859zm10.4798.627.1343.2239c0 .7613.0896 1.5227 0 2.284.6718-.2239 1.4779-.1791 2.1945-.3135-.1343-.0447-.3135-.0895-.4031-.2239-.4478-.0448-.627-.4926-.7613-.8061-.0448-.2687.0896-.4479.2239-.6718-.1791-.3583-.7613-.0896-1.0748-.2239-.1344-.1344-.1792-.2687-.3135-.2687z"/><path d="m94.7674 3.49413c1.3436 1.2092 1.9706 2.77668 2.3736 4.38895l.224.49264c-1.9706-1.38834-3.7172-3.31411-4.9712-5.28466l-1.5227-1.5227c1.2988.53742 2.7319.89571 3.8963 1.92577z"/><path d="m60.5941 5.86648c-.8957 1.11963-2.0601 1.83619-3.0902 2.82147.5374-1.11963.5822-2.50798 1.3436-3.53804 1.1196-1.92577 3.1797-2.59754 5.0159-3.35889-1.3435 1.2092-2.284 2.68711-3.2693 4.07546z"/><path d="m99.5127 7.92743c.4478 1.92577-.1792 3.80677.2239 5.77727-1.0301-2.0601-3.2693-3.0454-4.8368-4.70242-.8957-.98528-1.2988-2.19448-1.4779-3.44847.8957 2.10491 3.2693 2.59755 4.6129 4.38896.4478.40303.627.98523.8957 1.43313l.0448-.0448c-.7614-1.65704-1.0301-3.53802-1.5675-5.32943-.2687-.76135-.8062-1.5227-1.5227-2.01534 1.7018.35828 3.2693 2.23926 3.6276 3.9411z"/><path d="m58.8908 4.29883c-1.8362 1.25399-1.7018 3.49325-2.284 5.37423-.1792.67174-.4927 1.34354-.6718 2.01534l.0448.0448c.3135-.8062.8509-1.5675 1.4779-2.19449 1.2988-1.20921 3.2245-1.92577 3.8515-3.71718-.0447 2.46319-2.0601 4.38897-4.0306 5.77727-.8062.7166-1.6123 1.5227-2.0154 2.4184-.0448-.627.0896-1.254.0448-1.8809-.2239-2.14974-.3583-4.56815 1.1644-6.18042.6718-.85092 1.4779-1.38834 2.4184-1.65705z"/><path d="m100.678 8.32875c1.612 2.19445 1.971 5.73255.806 8.24045-.448 1.0749-.761 2.1945-.94 3.4037-.09-.2239-.09-.4926-.179-.7165-.6273-2.4632-3.0009-4.2546-3.9414-6.5835-.3135-.7613-.5822-1.5675-.7166-2.3736 1.0301 1.881 3.5829 2.8663 4.2546 4.9712.2684.5374.2684 1.2092.4474 1.7466.045 0 .09-.0448.09-.0448-.313-2.1497-.224-4.4337.09-6.5386 0-1.16446-.135-2.28409-.7617-3.17979.3587.26871.5817.71656.8507 1.07484z"/><path d="m54.9982 7.6582c-1.3883 2.10491-.2239 4.792-.3135 7.2104l-.1791 2.4632c.0448 0 .0448.0896.0896.0448.0895-.2687.0895-.5822.1791-.8509.3135-2.0153 2.0601-3.4037 3.5828-4.792.3135-.3583.627-.7166.7614-1.1645-.1344.9853-.4479 2.0154-.8509 2.9111-1.1645 2.284-3.3589 4.165-3.762 6.8074-.1791-2.508-1.9258-4.389-1.7466-7.0761-.0448-2.1497.8509-3.94113 2.1049-5.5534z"/><path d="m102.202 22.6609c-.985 1.3883-2.15 2.6423-3.0455 4.0306.0896-1.1196.2239-2.4632-.2239-3.4932-.7614-2.2393-1.3884-4.5233-1.6123-7.0313l.0448-.9405c.5822 2.508 3.0449 4.2546 2.8659 7.0761.045.6718-.134 1.254-.2684 1.881l.0444.0447.09-.1343c.358-1.3884.537-2.8663 1.12-4.165.806-1.881 1.836-3.762 1.433-6.0013 1.299 2.6872.895 6.2252-.448 8.7332z"/><path d="m54.323 21.7664c.2687.9405.3135 1.9258.7166 2.8215.0448 0 .0448 0 .0895-.0448-.9405-2.6424.4031-5.1055 1.7914-7.1657.3135-.5374.5375-1.1644.6718-1.8362.1344 1.2092-.1343 2.5528-.3135 3.8068-.3135 1.5675-.8061 3.0902-1.254 4.6129-.2687.9405-.2239 2.0601-.0447 3.0454l-.1344-.0896c-.9853-1.8362-3.0006-3.2693-3.5828-5.3295-.4927-1.6122-.8062-3.4932-.4927-5.2398.1344-.6718.2688-1.3884.5822-2.0154-.6269 2.8663 1.2988 4.9264 1.9706 7.4344z"/><path d="m98.3931 27.0055c-.0448 1.254-.4479 2.3289-1.1197 3.3142h.0896c.8957-1.1645 1.5675-2.3737 2.5975-3.4933 1.6125-1.5227 3.2245-3.135 3.4485-5.2847.537 3.5829-1.478 6.7178-4.4337 8.7332-1.2092.8061-2.4632 1.5227-3.6276 2.4632v-.0896c1.7914-3.0006.9404-7.1209 2.0153-10.3902l.4031-1.1196c-.1792 2.0601.7165 3.8067.627 5.8668z"/><path d="m58.9383 31.0801c.1792.6718.5822 1.2988.8509 1.9258-2.7319-1.881-6.449-3.6276-7.703-7.0761-.5375-1.1644-.5822-2.6423-.4479-3.9859.2239 3.0454 3.4933 4.6577 5.016 7.1657.3583.5374.6717 1.0748 1.1644 1.5227-.0896-.3135-.3583-.5822-.4927-.9405-.5374-1.0748-.7165-2.3288-.5822-3.5828.1344-1.5675.8062-3.0006.5375-4.6129 1.2987 2.8663.8957 6.4491 1.657 9.584z"/><path d="m94.3158 33.3205c-.4478.8061-1.1196 1.6123-1.8809 2.2393.2239 0 .4478-.224.6717-.3583 1.9706-1.9706 4.5681-2.508 6.673-4.1203.8514-.6718 1.6574-1.5675 2.0154-2.5527-.403 3.2693-3.6724 6.3147-6.7178 7.3-1.5675.403-3.2693.5822-4.792 1.0748 2.5975-2.2393 2.4632-5.6877 4.2098-8.3301.5374-.7613 1.03-1.5227 1.657-2.2392-1.0748 2.1945-.627 4.9264-1.8362 6.9865z"/><path d="m61.4905 30.5877c.9405 2.2393 1.254 4.8368 3.4037 6.5387-2.2841-.7614-4.9712-.5374-7.0313-1.9706-2.1945-1.3435-4.2098-3.6724-4.6129-6.2251 1.5227 3.4484 5.3294 3.7619 7.927 5.8668.4478.4031.9853.7614 1.4779 1.0301l.0448-.0448c-.5822-.5374-1.254-1.1196-1.7018-1.8362-1.478-2.1049-.9853-5.0159-2.105-7.2552 1.0749 1.2092 2.0154 2.508 2.5976 3.8963z"/><path d="m88.7657 37.3059c-.5822.3583-1.254.4478-1.8362.7165.8061 0 1.5675-.2687 2.4184-.3582 3.0454-.4927 6.4939 0 8.6435-2.5528-.8061 1.7914-2.7766 3.3141-4.5681 3.9411-3.0901 1.1644-6.2251-.2687-9.1809-.7613l-.5822-.0896c1.4331-.3135 2.7766-.7614 3.9411-1.7466 1.657-1.6123 3.1349-3.2246 4.9711-4.5234-1.3883 1.7467-1.5675 4.2546-3.8067 5.3743z"/><path d="m67.492 36.4555c1.1644 1.0301 2.5976 1.5227 4.0755 1.7914-.3583.1344-.8062.0896-1.2092.1792-2.6871.6717-5.643 1.7466-8.5092.7613-1.8362-.5822-3.762-2.0601-4.6577-3.8515 2.4632 2.7767 6.4491 1.8362 9.7184 2.5975.4479.0448.8957.2687 1.3884.1792-.4031-.2688-.9405-.224-1.3436-.4479-2.5528-.8957-2.911-3.6724-4.2994-5.5534 1.7018 1.2092 3.2246 2.8215 4.8368 4.3442z"/><path d="m87.4658 40.2165c1.9706.7166 4.5681.5374 6.27-.6718-.8509 1.0749-2.0601 1.881-3.3141 2.3289-2.7767 1.03-5.643-.0448-7.7927-1.7019-.8509-.5374-1.657-1.3435-2.7767-1.2987-.403 0-.8061 0-1.1644.0895 2.1049.9853 4.0307 2.3289 5.8221 4.0307-.3135.3583-.6718.6718-1.0748.9405-1.7019-1.8362-3.6276-3.6276-5.7326-4.6577-.403.0448-.8061.3135-1.1644.4927-1.7466 1.0748-3.4484 2.5079-4.7024 4.2098l-1.1197-.8957c1.7467-1.7914 3.7172-3.1798 5.8669-4.165-2.1049-.6718-3.4485 1.0748-5.0607 1.9705-1.8362 1.2988-4.5233 1.881-6.7626 1.0301-1.2092-.4479-2.3736-1.1197-3.2245-2.2393 1.7466 1.2092 4.3889 1.3436 6.4043.5374 2.6871-1.1644 5.5085-2.6423 8.7331-1.9257.4926 0 .9853.5374 1.4779.0895 2.4184-.627 5.1503-.1791 7.2104.8957z"/><path d="m55.9359 41.3809h-54.951525v1.0748h54.951525z"/><path d="m153.881 41.3809h-54.9513v1.0748h54.9513z"/><path d="m.628906 91.093v-14.3313h4.388954c1.25399 0 2.37362.2687 3.3589.8509s1.79144 1.3884 2.32884 2.4184c.5374 1.0301.8509 2.2393.8509 3.5829v.6717c0 1.3436-.2687 2.508-.8061 3.5381-.5374 1.03-1.29879 1.8362-2.32885 2.4184-.98528.5822-2.10491.8509-3.3589.8509zm2.955824-11.9129v9.5393h1.43313c1.16442 0 2.01534-.3583 2.64234-1.1196.62699-.7614.94049-1.8362.94049-3.2246v-.7613c0-1.4779-.3135-2.5528-.89571-3.3141-.58221-.7614-1.47791-1.1197-2.64233-1.1197z"/><path d="m22.4386 84.9126h-5.6429v3.8068h6.6282v2.3736h-9.5841v-14.3313h9.5841v2.4184h-6.6282v3.4037h5.6429z"/><path d="m30.3633 91.093v-14.3313h4.3889c1.254 0 2.3737.2687 3.3589.8509.9853.5822 1.7467 1.3884 2.3289 2.4184.5374 1.0301.8509 2.2393.8509 3.5829v.6717c0 1.3436-.2687 2.508-.8061 3.5381-.5375 1.03-1.2988 1.8362-2.3289 2.4184-.9853.5822-2.1049.8509-3.3589.8509zm2.9558-11.9129v9.5393h1.4331c1.1645 0 2.0154-.3583 2.6424-1.1196.627-.7614.9405-1.8362.9405-3.2246v-.7613c0-1.4779-.3135-2.5528-.8957-3.3141-.5823-.7614-1.478-1.1197-2.6424-1.1197z"/><path d="m52.1769 84.9126h-5.6429v3.8068h6.6282v2.3736h-9.5841v-14.3313h9.5841v2.4184h-6.6282v3.4037h5.6429z"/><path d="m62.4309 87.3305c0-.5374-.1791-.9853-.5822-1.2988s-1.1196-.627-2.1049-.9405c-1.0301-.3135-1.8362-.6717-2.4184-.9852-1.6123-.8957-2.4184-2.0602-2.4184-3.5381 0-.7613.2239-1.4779.6718-2.0601.4478-.627 1.0748-1.0748 1.8809-1.4331.8062-.3583 1.7467-.4927 2.7319-.4927 1.0301 0 1.9258.1792 2.7319.5375.8062.3582 1.4332.8957 1.881 1.5674.4479.6718.6718 1.4332.6718 2.2841h-2.9558c0-.6718-.224-1.1644-.627-1.5227-.4031-.3583-.9853-.5374-1.7467-.5374-.7165 0-1.2987.1343-1.7018.4478s-.5822.7166-.5822 1.2092c0 .4479.2239.8509.7166 1.1644.4478.3135 1.1644.627 2.0601.8957 1.657.4927 2.911 1.1197 3.6724 1.881.7613.7614 1.1644 1.6571 1.1644 2.7767 0 1.254-.4479 2.1945-1.3883 2.9111-.9405.7165-2.1945 1.0748-3.8068 1.0748-1.1196 0-2.1049-.2239-3.0006-.627s-1.6123-.9405-2.0601-1.657c-.4927-.7166-.7166-1.5227-.7166-2.4185h2.9558c0 1.5675.9405 2.3737 2.8215 2.3737.7166 0 1.254-.1344 1.6571-.4479.3135-.2239.4926-.627.4926-1.1644z"/><path d="m75.5536 88.1372h-5.1951l-.9852 2.9558h-3.135l5.3294-14.3313h2.7319l5.3743 14.3313h-3.135zm-4.3442-2.3736h3.5829l-1.7914-5.3743z"/><path d="m86.437 85.8531h-2.3288v5.2399h-2.9559v-14.3313h5.3295c1.7018 0 3.0006.3583 3.8963 1.1197.8957.7613 1.3884 1.8361 1.3884 3.1797 0 .9853-.224 1.7914-.627 2.4632-.4031.6718-1.0749 1.1644-1.9258 1.5675l3.0902 5.8669v.1343h-3.1798zm-2.3288-2.3736h2.3736c.7613 0 1.2988-.1791 1.7018-.5822.4031-.3583.627-.8957.627-1.5675s-.1791-1.2092-.5822-1.6123c-.403-.403-.9853-.5822-1.7466-.5822h-2.3736z"/><path d="m99.3784 85.8531h-2.3288v5.2399h-2.9558v-14.3313h5.3294c1.7018 0 3.0008.3583 3.8968 1.1197.895.7613 1.388 1.8361 1.388 3.1797 0 .9853-.224 1.7914-.627 2.4632s-1.075 1.1644-1.926 1.5675l3.09 5.8669v.1343h-3.179zm-2.3288-2.3736h2.3736c.7618 0 1.2988-.1791 1.7018-.5822.403-.3583.627-.8957.627-1.5675s-.179-1.2092-.582-1.6123c-.403-.403-.985-.5822-1.7468-.5822h-2.3736z"/><path d="m118.814 84.2421c0 1.4332-.268 2.6424-.761 3.7172-.493 1.0749-1.209 1.881-2.15 2.4632-.94.5822-1.97.8509-3.179.8509-1.165 0-2.24-.2687-3.18-.8509-.941-.5822-1.657-1.3883-2.15-2.4632-.492-1.0748-.761-2.284-.761-3.6724v-.7165c0-1.3884.269-2.6424.761-3.7172.493-1.0749 1.209-1.881 2.15-2.4632.94-.5822 1.97-.8509 3.18-.8509 1.209 0 2.239.2687 3.179.8509.941.5822 1.657 1.3883 2.15 2.4632.493 1.0748.761 2.3288.761 3.7172zm-3-.627c0-1.5227-.269-2.6423-.806-3.4036-.538-.7614-1.299-1.1645-2.284-1.1645-.986 0-1.747.4031-2.284 1.1645-.538.7613-.807 1.8809-.807 3.4036v.7166c0 1.4779.269 2.5975.807 3.4037.537.8061 1.298 1.2092 2.328 1.2092.986 0 1.747-.4031 2.284-1.1644.538-.7614.807-1.9258.807-3.4037v-.7614z"/><path d="m124.011 88.7194h6.269v2.3736h-9.225v-14.3313h2.956z"/><path d="m135.026 88.7194h6.27v2.3736h-9.226v-14.3313h2.956z"/><path d="m154.197 84.2421c0 1.4332-.268 2.6424-.761 3.7172-.493 1.0749-1.209 1.881-2.15 2.4632-.94.5822-1.97.8509-3.18.8509-1.164 0-2.239-.2687-3.179-.8509-.941-.5822-1.657-1.3883-2.15-2.4632-.493-1.0748-.761-2.284-.761-3.6724v-.7165c0-1.3884.268-2.6424.761-3.7172.493-1.0749 1.209-1.881 2.15-2.4632.94-.5822 1.97-.8509 3.179-.8509 1.21 0 2.24.2687 3.18.8509.941.5822 1.657 1.3883 2.15 2.4632.493 1.0748.761 2.3288.761 3.7172zm-2.956-.627c0-1.5227-.268-2.6423-.806-3.4036-.537-.7614-1.299-1.1645-2.284-1.1645s-1.746.4031-2.284 1.1645c-.537.7613-.806 1.8809-.806 3.4036v.7166c0 1.4779.269 2.5975.806 3.4037.538.8061 1.299 1.2092 2.329 1.2092.985 0 1.747-.4031 2.284-1.1644.537-.7614.806-1.9258.806-3.4037v-.7614z"/><path d="m10.8836 111.515c0-.716-.2687-1.299-.7613-1.702-.53743-.403-1.47792-.806-2.82148-1.254s-2.41841-.851-3.22454-1.298c-2.14969-1.165-3.22454-2.732-3.22454-4.703 0-1.03.26871-1.926.85092-2.7318.58221-.8061 1.38834-1.4331 2.50798-1.881 1.07484-.4478 2.28404-.6718 3.6276-.6718s2.55276.224 3.62766.7166c1.0748.4926 1.8809 1.1644 2.4631 2.06.5822.896.8957 1.926.8957 3.046h-3.8963c0-.851-.2687-1.523-.8061-2.016-.53743-.492-1.29878-.716-2.28406-.716-.94049 0-1.70184.179-2.23926.627-.53743.403-.80614.94-.80614 1.612 0 .627.3135 1.12.9405 1.567.62699.403 1.52269.807 2.7319 1.165 2.23926.672 3.85156 1.478 4.83676 2.508 1.0301.985 1.5227 2.239 1.5227 3.717 0 1.657-.6269 2.911-1.8809 3.851-1.254.941-2.9111 1.389-5.01599 1.389-1.47791 0-2.77668-.269-3.98589-.806-1.2092-.538-2.1049-1.254-2.7319-2.195-.626992-.94-.940489-2.015-.940489-3.224h3.896319c0 2.105 1.25399 3.135 3.76196 3.135.94049 0 1.65706-.18 2.19449-.583.4926-.403.7613-.94.7613-1.612z"/><path d="m33.0055 107.44c0 1.881-.3135 3.493-.9853 4.926-.6717 1.389-1.6122 2.508-2.8214 3.27-1.2092.761-2.6424 1.164-4.2099 1.164-1.5674 0-2.9558-.358-4.2098-1.12-1.254-.761-2.1944-1.836-2.8662-3.224s-1.0301-3.001-1.0301-4.837v-.94c0-1.881.3135-3.494 1.0301-4.927.6718-1.433 1.6122-2.5077 2.8662-3.2691 1.2092-.7613 2.6424-1.1196 4.2098-1.1196 1.5675 0 3.0007.3583 4.2099 1.1196 1.2092.7614 2.1944 1.8361 2.8662 3.2691s.9853 3.046.9853 4.927v.761zm-3.9411-.851c0-1.971-.3583-3.493-1.0748-4.523-.7166-1.03-1.7467-1.568-3.0454-1.568-1.2988 0-2.3289.493-3.0454 1.523-.7166 1.03-1.0749 2.508-1.0749 4.478v.941c0 1.926.3583 3.448 1.0749 4.523.7165 1.075 1.7466 1.613 3.0901 1.613 1.2988 0 2.3289-.493 3.0007-1.523.7165-1.03 1.0748-2.508 1.0748-4.479z"/><path d="m45.6805 111.515c0-.716-.2687-1.299-.7613-1.702-.5375-.403-1.4779-.806-2.8215-1.254s-2.4184-.851-3.2245-1.298c-2.1497-1.165-3.2246-2.732-3.2246-4.703 0-1.03.2687-1.926.8509-2.7318.5822-.8061 1.3884-1.4331 2.508-1.881 1.0749-.4478 2.2841-.6718 3.6276-.6718 1.3436 0 2.5528.224 3.6276.7166 1.0749.4926 1.881 1.1644 2.4632 2.06.5822.896.8957 1.926.8957 3.046h-3.8963c0-.851-.2687-1.523-.8061-2.016-.5375-.492-1.2988-.716-2.2841-.716-.9405 0-1.7018.179-2.2392.627-.5375.403-.8062.94-.8062 1.612 0 .627.3135 1.12.9405 1.567.627.403 1.5227.807 2.7319 1.165 2.2393.672 3.8515 1.478 4.8368 2.508 1.0301.985 1.5227 2.239 1.5227 3.717 0 1.657-.627 2.911-1.881 3.851-1.2539.941-2.911 1.389-5.0159 1.389-1.4779 0-2.7767-.269-3.9859-.806-1.2092-.538-2.1049-1.254-2.7319-2.195-.627-.94-.9405-2.015-.9405-3.224h3.8963c0 2.105 1.254 3.135 3.762 3.135.9405 0 1.657-.18 2.1945-.583.4926-.403.7613-.94.7613-1.612z"/><path d="m66.5056 100.678h-5.8221v15.809h-3.8963v-15.809h-5.7325v-3.135h15.4509z"/><path d="m80.1216 108.291h-7.4792v5.061h8.7779v3.135h-12.6742v-18.944h12.6742v3.135h-8.7779v4.523h7.4792z"/><path d="m99.154 116.487h-3.9411l-7.5687-12.45v12.45h-3.9411v-18.944h3.9411l7.6135 12.495v-12.495h3.8963z"/><path d="m106.678 97.543h-3.897v18.944h3.897z"/><path d="m110.305 116.487v-18.944h6.628c2.284 0 4.031.4478 5.24 1.3435s1.791 2.1495 1.791 3.8515c0 .941-.224 1.747-.716 2.463-.493.717-1.12 1.209-1.971 1.568.985.224 1.747.716 2.284 1.478.582.716.851 1.657.851 2.687 0 1.836-.582 3.18-1.747 4.12-1.164.941-2.821 1.433-4.971 1.433zm3.896-11.017h2.911c1.971-.045 2.956-.806 2.956-2.374 0-.851-.269-1.478-.761-1.836-.493-.358-1.299-.582-2.374-.582h-2.732zm0 2.777v5.105h3.359c.94 0 1.657-.224 2.15-.672.537-.447.761-1.03.761-1.836 0-1.746-.896-2.597-2.687-2.642h-3.583z"/><path d="m131.221 113.352h8.285v3.135h-12.182v-18.944h3.897z"/><path d="m153.166 108.291h-7.479v5.061h8.778v3.135h-12.719v-18.944h12.674v3.135h-8.733v4.523h7.479z"/></g><path d="m120.652 56.5641c.268-.4479.582-.851.94-1.2092l-3.09-3.4037c-.762.7613-1.433 1.6122-1.971 2.5527z" fill="#27a73b"/><path d="m128.266 54.1451c.492.2239.895.4926 1.298.8061l3.135-3.4037c-.806-.7165-1.746-1.2987-2.776-1.7018z" fill="#e2a111"/><path d="m135.429 55.1758-4.12 2.0601c.179.4479.358.9405.403 1.4779l4.613-.4478c-.18-1.1197-.493-2.1497-.896-3.0902z" fill="#e21b31"/><path d="m130.995 56.609 4.12-2.0601c-.492-.9405-1.164-1.7915-1.925-2.5528l-3.135 3.4037c.358.3583.671.7613.94 1.2092z" fill="#009840"/><path d="m119.845 59.5644c0-.0896 0-.1792 0-.2688l-4.613-.403c0 .2239-.044.4478-.044.6718 0 .8957.089 1.7466.313 2.5527l4.434-1.254c-.045-.4478-.09-.8509-.09-1.2987z" fill="#1d7935"/><path d="m130.413 63.3262c-.314.403-.717.7613-1.12 1.0748l2.418 3.9411c.896-.627 1.702-1.3435 2.374-2.1945z" fill="#f9b208"/><path d="m131.759 59.5644c0 .4478-.044.8509-.134 1.2539l4.434 1.254c.224-.8061.313-1.657.313-2.5527 0-.224 0-.4479 0-.627l-4.613.4478z" fill="#e94738"/><path d="m121.278 63.416-3.673 2.7767c.672.8509 1.478 1.5675 2.419 2.1497l2.418-3.9411c-.448-.2239-.851-.5822-1.164-.9853z" fill="#f49728"/><path d="m119.935 58.624c.09-.5374.224-1.0301.448-1.4779l-4.12-2.0602c-.448.9853-.761 2.0154-.896 3.135z" fill="#007ebf"/><path d="m131.133 68.6559-2.419-3.9411c-.447.2688-.895.4479-1.433.5823l.851 4.5233c1.12-.224 2.105-.627 3.001-1.1645z" fill="#a81738"/><path d="m131.443 61.4453c-.179.4927-.358.8957-.627 1.3436l3.673 2.7767c.582-.851 1.075-1.7915 1.388-2.8215z" fill="#00a5d2"/><path d="m126.651 65.4316c-.269.0448-.582.0448-.851.0448-.224 0-.448 0-.672-.0448l-.851 4.5234c.493.0895 1.03.1343 1.568.1343.582 0 1.164-.0448 1.702-.1343z" fill="#ed6c2f"/><path d="m126.207 53.609c.493.0448.985.1343 1.478.2687l1.657-4.2994c-.985-.3583-2.015-.5374-3.135-.5822z" fill="#e62e3a"/><path d="m124.459 65.3421c-.538-.1343-.985-.3135-1.478-.5374l-2.419 3.9411c.941.5374 1.971.9405 3.046 1.1644z" fill="#e82d85"/><path d="m124.009 53.8777c.492-.1344.985-.2239 1.522-.2687v-4.6129c-1.119.0448-2.194.2239-3.179.5822z" fill="#1c3762"/><path d="m120.877 62.8786c-.314-.4479-.538-.8957-.717-1.3884l-4.433 1.254c.313 1.0749.85 2.0601 1.477 2.9111z" fill="#e28d16"/><path d="m122.129 54.8615c.403-.3135.806-.5822 1.299-.7613l-1.657-4.2994c-.985.403-1.926.9853-2.732 1.657z" fill="#00568a"/><path d="m18.0485 60.7742c0 2.1049-.3583 3.9411-1.0749 5.5086-.7165 1.5674-1.7914 2.8214-3.1349 3.6724-1.3884.8509-2.9559 1.2987-4.7025 1.2987-1.74663 0-3.31411-.403-4.70246-1.254-1.38834-.8509-2.46319-2.0153-3.22454-3.5828-.761348-1.5675-1.1644147-3.3589-1.2092-5.419v-1.0301c0-2.1049.358282-3.9411 1.07485-5.5086.76135-1.6122 1.79141-2.8214 3.17975-3.6723 1.38834-.851 2.95583-1.2988 4.70246-1.2988 1.79144 0 3.35894.403 4.70244 1.254 1.3884.8509 2.4632 2.0601 3.2246 3.6276.7613 1.5675 1.1644 3.4037 1.1644 5.5086zm-4.4338-.9405c0-2.2393-.403-3.8963-1.2092-5.0608-.8061-1.1644-1.9257-1.7018-3.40366-1.7018-1.47791 0-2.59755.5822-3.40368 1.7466-.80614 1.1644-1.16442 2.8215-1.16442 5.016v1.03c0 2.1497.40307 3.8516 1.20921 5.016.80613 1.2092 1.97055 1.7914 3.44846 1.7914 1.47789 0 2.59759-.5822 3.35889-1.7466.7614-1.1644 1.1644-2.8215 1.1644-5.0608z" fill="#fff"/><path d="m20.7359 70.8492-.1343-21.2282 7.4343-.0448c2.5528 0 4.5233.4478 5.8669 1.4331s2.0153 2.4184 2.0153 4.3442c0 1.03-.2687 1.9705-.7613 2.7319-.5374.8061-1.254 1.3883-2.2393 1.7466 1.0749.2687 1.9706.8061 2.5976 1.6123.627.8061.9405 1.8362.9405 3.0454 0 2.0601-.627 3.5828-1.9258 4.6576-1.2988 1.0749-3.135 1.6123-5.5534 1.6571zm4.2994-12.3608h3.2245c2.1945-.0447 3.3142-.9404 3.2694-2.6423 0-.9405-.2687-1.657-.8509-2.0601-.5823-.4031-1.4332-.627-2.6424-.627h-3.0454zm0 3.0902.0448 5.7325 3.762-.0447c1.03 0 1.8362-.2688 2.4184-.7614s.8509-1.1644.8509-2.0601c0-1.9258-1.0301-2.9111-3.0454-2.9558z" fill="#fff"/><path d="m47.652 49.4432 4.389-.0448.0895 14.6896c0 1.3436-.2687 2.5528-.8509 3.5828-.5822 1.0301-1.4331 1.8362-2.508 2.4184-1.0748.5822-2.3288.851-3.6724.851-2.2392 0-3.9859-.5375-5.2398-1.6571-1.254-1.1196-1.881-2.7319-1.9258-4.8368l4.3889-.0448c0 1.0301.224 1.7914.6718 2.2841.4479.4926 1.1197.7165 2.0602.7165.8509 0 1.4779-.3135 1.9705-.8957s.7166-1.3883.7166-2.4632z" fill="#fff"/><path d="m68.0292 61.3558-8.3749.0448.0448 5.6878 9.8528-.0448v3.4932l-14.197.0896-.1791-21.2282 14.1969-.0896.0448 3.538-9.8528.0896.0448 5.0607 8.4197-.0895z" fill="#fff"/><path d="m87.6895 52.7119-6.4939.0448.1343 17.6901-4.3889.0448-.0896-17.6902-6.4491.0448v-3.538l17.2872-.1344z" fill="#fff"/><path d="m94.2913 49.1595-4.389.03.1451 21.2282 4.3889-.03z" fill="#fff"/><path d="m105.693 65.0292 4.702-15.9883 4.882-.0448-7.255 21.273-4.568.0448-7.5243-21.1835 4.8813-.0447z" fill="#fff"/><path d="m149.762 64.4006c0-.8061-.313-1.4779-.895-1.881-.583-.4478-1.657-.8957-3.18-1.3883-1.523-.4927-2.732-.9405-3.628-1.4332-2.418-1.2987-3.627-3.0454-3.672-5.2398 0-1.1645.313-2.1945.94-3.0902s1.568-1.6123 2.777-2.1049c1.209-.4927 2.553-.7614 4.076-.8062 1.522 0 2.866.2687 4.075.8062 1.209.5374 2.105 1.2987 2.777 2.3288.671.9853.985 2.1497 1.03 3.4037l-4.389.0448c0-.9853-.314-1.7467-.941-2.2841s-1.478-.8061-2.597-.8061c-1.075 0-1.881.2239-2.508.7165-.582.4479-.896 1.0749-.896 1.7915 0 .6717.358 1.2539 1.075 1.7466.716.4478 1.702.8957 3.09 1.2988 2.508.7165 4.299 1.657 5.464 2.7319 1.164 1.1196 1.702 2.4632 1.747 4.1202 0 1.8362-.672 3.2693-2.061 4.3442-1.388 1.0748-3.269 1.5675-5.598 1.6122-1.612 0-3.135-.2687-4.478-.8509-1.344-.5822-2.374-1.3883-3.09-2.4184-.717-1.03-1.075-2.2392-1.075-3.6276l4.389-.0448c0 2.3289 1.433 3.4933 4.209 3.4933 1.031 0 1.837-.2239 2.419-.6718.672-.4031.94-1.0301.94-1.7914z" fill="#fff"/></svg>