<svg id="Group_6316" data-name="Group 6316" xmlns="http://www.w3.org/2000/svg" xmlns:xlink="http://www.w3.org/1999/xlink" width="693.725" height="376.816" viewBox="0 0 693.725 376.816">
  <defs>
    <clipPath id="clip-path">
      <rect id="Rectangle_2610" data-name="Rectangle 2610" width="693.725" height="376.816" fill="none"/>
    </clipPath>
  </defs>
  <g id="Group_6268" data-name="Group 6268" clip-path="url(#clip-path)">
    <path id="Path_4623" data-name="Path 4623" d="M687.8,142.1c0,15.869-153.685,28.734-343.262,28.734S1.278,157.965,1.278,142.1,154.96,113.362,344.54,113.362,687.8,126.228,687.8,142.1" transform="translate(2.322 205.986)" fill="#2c2c2c"/>
    <path id="Path_4624" data-name="Path 4624" d="M166.118,117.464l192.022.186c.8,0,1.6-.042,2.4,0,1.4.076,2.113-.459,2.124-1.947q.076-12,.231-24c.025-1.648-.837-1.871-2.172-1.687a44.5,44.5,0,0,1-4.758.524,44.948,44.948,0,0,1-27.433-8.085,6.189,6.189,0,0,0-3.7-1.482c-13.488.093-26.976.1-40.462.132a3.948,3.948,0,0,0-2.614.589c-3.668,2.842-7.674,5.155-10.257,9.37-4.854,7.922-12.612,12.378-20.846,16.043a14.94,14.94,0,0,1-4.288,1.138c-3.623.417-7.158.231-9.589-3.073a3.85,3.85,0,0,0-2.947-1.428,9.977,9.977,0,0,1-7.288-4.609,5.461,5.461,0,0,0-2.755-2.361,9.49,9.49,0,0,1-6.183-6.817,3.006,3.006,0,0,0-.662-1.527c-2.082-1.766-3.031-3.907-2.147-6.609a7.1,7.1,0,0,0-1.313-.313c-11.657.028-23.317.1-34.974.079a3.868,3.868,0,0,0-3.364,1.882c-7.485,9.967-10.719,21.525-12.978,34h3.952" transform="translate(294.666 147.131)" fill="#a3f7f7"/>
    <path id="Path_4625" data-name="Path 4625" d="M212.021,82.372c1.166-1.214,2.78-1.983,4.088-3.076,2.62-2.189,5.245-4.395,6.837-7.586-9.978,4.955-20.8,7.076-31.354,10.091a90.423,90.423,0,0,1,13.161,2.276c2.631.589,5.147.5,7.268-1.7" transform="translate(348.135 130.3)" fill="#a3f7f7"/>
    <path id="Path_4626" data-name="Path 4626" d="M192.964,79.826c-1.9-1.82-3.533-1.476-5.268.059-.744.654-1.879.758-2.623,2,3.992,0,7.634,0,11.274-.011.045,0,.118-.161.124-.251.014-.211-.1-.234-.189-.22-.068.028-.09.034-.087.028s.02,0,.087-.028l.023-.008c-1.107-.5-2.49-.755-3.341-1.569" transform="translate(336.29 142.809)" fill="#a3f7f7"/>
    <path id="Path_4627" data-name="Path 4627" d="M169.191,83.367h32.255c-11.054-7.513-26.32-7.3-32.255,0" transform="translate(307.431 141.387)" fill="#a3f7f7"/>
    <path id="Path_4628" data-name="Path 4628" d="M229.618,64.583c-1.642.6-2.262,1.659-3.226,2.228a3.451,3.451,0,0,0-1.685,3.414c.107,13.725-5.327,24.954-15.44,34.061a8.7,8.7,0,0,0-2.572,2.806h34.548C235.816,100.881,232,94.54,230,87.176c-2.011-7.412-1.789-14.866-.386-22.593" transform="translate(375.58 117.351)" fill="#a3f7f7"/>
    <path id="Path_4629" data-name="Path 4629" d="M146.54,48.261c1.318.806,1.837.107,2.555-.62a103.181,103.181,0,0,1,25.452-18.4c.606-.324,1.628-.355,1.53-1.49H122.541c7.741,8.017,15.136,15.1,24,20.514" transform="translate(222.665 50.418)" fill="#a3f7f7"/>
    <path id="Path_4631" data-name="Path 4631" d="M111.316,30.109c1.256,1,2.254,2.217,4.161,2.558-2.045-3.811-2.045-3.811-4.161-2.558" transform="translate(202.268 53.352)" fill="#a3f7f7"/>
    <path id="Path_4632" data-name="Path 4632" d="M111.546,20.812" transform="translate(196.229 4.342)" fill="#9489c1"/>
    <path id="Path_4633" data-name="Path 4633" d="M164.744,101.294c-8.919,3.327-15.392,3.347-26.156.189-.476,6.634-.237,13.24-.141,19.846a2.176,2.176,0,0,0,1.347,2.166,19.591,19.591,0,0,0,3.166,1.276,31.552,31.552,0,0,0,20.117-1.389,2.683,2.683,0,0,0,1.842-3.166,134.276,134.276,0,0,1,.265-17.133c.034-.614.287-1.344-.439-1.789" transform="translate(251.302 184.058)" fill="#fff"/>
    <path id="Path_4634" data-name="Path 4634" d="M226.242,41.774c8.809,6.707,16.494,14.449,21.979,24.176a48.968,48.968,0,0,1,6.42,29.641,83.994,83.994,0,0,1-2.02,9.632c.964.29,1.411-.332,1.952-.656,9.322-5.589,19.294-8.046,30.157-6.383,2.186.335,2.327.163,2.285-2.456q-.321-19.188-.69-38.382a18.594,18.594,0,0,0-.493-4.068c-3.11-12.485-10.986-20.449-23.162-24.328-4.561-1.451-9.274-1.04-13.916-1.1-14.054-.169-28.111-.121-42.166-.149-.828,0-1.656.076-2.744.13a8.016,8.016,0,0,0,3.2,2.059,129.368,129.368,0,0,1,19.2,11.882" transform="translate(370.398 50.338)" fill="#a3f7f7"/>
    <path id="Path_4635" data-name="Path 4635" d="M172.789,40.985c2.254,4.612,1.811,6.747-2.149,10.415,4.62,4.417,9.586,4.082,13.381-.9a15.7,15.7,0,0,0,2.5-4.837,31.3,31.3,0,0,0-2.569-25.43,15.462,15.462,0,0,0-4.412-5.158c-4.237-3.082-8.519-2.727-11.787,1.31-4.781,5.907-5.057,12.792-4.262,19.976,5.124-.882,7.113.166,9.294,4.626" transform="translate(296.46 23.663)" fill="#fff"/>
    <path id="Path_4636" data-name="Path 4636" d="M150.5,124.439c6.423,6.488,17.846,6.485,23.48,2.561,1.31-.91,2.7-1.718,4.1-2.5,1.969-1.093,3.127-2.482,2.6-4.95a28.659,28.659,0,0,1-.214-4.1c-.29-4.431-.242-8.871-.18-13.928-10.434,4.989-20.531,4.042-30.579.256a5.864,5.864,0,0,0-.414,1.217c-.344,6.279-.285,12.564-.161,18.849a3.609,3.609,0,0,0,1.375,2.592" transform="translate(270.785 184.477)" fill="#fff"/>
    <path id="Path_4638" data-name="Path 4638" d="M183.7,40.309c2.141,4.183,1.158,7.378-3.164,9.744,5.409,6.612,11.564,4.234,14.6-.5a14.42,14.42,0,0,0,1.468-2.7c3.752-10.074,2.842-19.711-3.054-28.726-2.141-3.265-5.13-5.767-9.294-5.423-4.378.363-6.626,3.637-8.288,7.307-2.186,4.826-2.386,9.9-1.854,15.057,4.676.059,7.834,1.8,9.589,5.237" transform="translate(315.92 23.033)" fill="#fff"/>
    <path id="Path_4639" data-name="Path 4639" d="M138.019,95.523c-7.243,9.181-16.274,16.285-26.193,22.339-5.6,3.417-5.648,3.49-4.843,9.992.028.225.059.451.1.676,1.349,7.885,3.324,15.626,5.361,23.348.952,3.6,1.068,3.578,4.952,3.569q34.958-.076,69.917-.158c2.854-.006,5.71-.023,8.567,0,3.983.025,3.155-.234,4.017-3.245.783-2.738,1.434-5.521,2.048-8.308a135.989,135.989,0,0,0,2.842-15.133c.33-3.169-.49-5.158-3.51-6.851-10.643-5.967-20.136-13.449-27.72-23.111C162.9,85.057,158.111,70.023,162.838,52.83c.442-1.6-.1-2.321-1.366-2.964a90.122,90.122,0,0,1-14.764-9.9c-.676-.53-1.256-1.3-2.231-1.344-.059.127-.163.248-.135.31q.638,1.4,1.3,2.789a46.421,46.421,0,0,1,4.676,24.92c-1.031,10.95-5.589,20.381-12.3,28.886" transform="translate(193.718 70.171)" fill="#a3f7f7"/>
    <path id="Path_4640" data-name="Path 4640" d="M86.946,94.528c.685-.02,1.369.008,2.054,0q19.345-.156,38.692-.33a4.175,4.175,0,0,0,2.735-.552A88.942,88.942,0,0,1,116.28,73.338c-.51-1.023-1.107-1.155-2.192-.837-3.6,1.059-7.223,2.093-10.885,2.921-5.33,1.206-10.7,2.237-16.057,3.313-.921.183-1.814.231-1.817,1.524-.008,4.223-.051,8.448-.085,12.671-.011,1.163.594,1.625,1.7,1.6" transform="translate(154.894 131.462)" fill="#a3f7f7"/>
    <path id="Path_4641" data-name="Path 4641" d="M85.071,112.3c-.039,4.654-.69,4.35,4.434,4.361q70.424.148,140.842.27c.687,0,1.372-.02,2.057-.006.9.017,1.521-.254,1.634-1.285.073-.676.313-1.332.434-2.006a143.581,143.581,0,0,1,8.741-29.838c.3-.713.808-1.394.513-2.279a10.53,10.53,0,0,0-3.707-.208q-42.493.211-84.982.451c-22.162.1-44.321.11-66.48.172-3,.008-3.062.039-3.11,2.952Q85.2,98.59,85.071,112.3" transform="translate(154.495 147.63)" fill="#a3f7f7"/>
    <path id="Path_4642" data-name="Path 4642" d="M133.773,70.359c-5.231,8.961-7.578,18.567-6.071,28.931,1.352,9.288,5.459,17.37,11.234,24.649,8.161,10.285,18.455,17.981,29.962,24.086a3.923,3.923,0,0,1,2.4,4.3,99.662,99.662,0,0,1-2.713,17.919c-.938,4.093-2.245,8.107-2.842,12.28,3.3.569,3.333.586,4.643-1.918a91.964,91.964,0,0,1,17.99-24.458c11.885-11.282,25.88-17.731,42.371-18.339a67.139,67.139,0,0,1,22.26,3.141,11.08,11.08,0,0,0,5,.454,55.055,55.055,0,0,1,10.919-.758,73.122,73.122,0,0,1,28.295,7.31c4.9,2.389,9.153,7.961,8.3,14.463-.144,1.079-.6,2.223.251,3.58,4.023-.955,8.133-1.842,12.192-2.921a115.374,115.374,0,0,0,23.125-8.339c1.31-.668,2.682-1.22,3.15-2.9.887-3.209,1.668-6.417,1.273-9.784-1.361-11.55-5.04-22.227-11.927-31.695-1.747-2.4-3.445-4.851-5.383-7.088-1.659-1.918-1.639-3.651-.752-5.944,2.538-6.578,10.333-8.71,15.528-8.291a3.991,3.991,0,0,1,2.887,1.662c4.076,5.35,8.555,10.384,12.091,16.153,5.364,8.761,9.415,17.981,10.75,28.261a4.8,4.8,0,0,0,.766,2.566c7.285-5.558,12.285-12.744,16.2-20.418,7.465-14.635,5.868-29.188-2.42-43.115-5.406-9.085-12.815-16.333-21.331-22.469C339.99,35.89,314.952,28.258,288.675,23.9c-1.442-.239-2.3.048-2.713,1.7a19.887,19.887,0,0,1-4.214,8.153,11.827,11.827,0,0,1-10.913,4.468,13.246,13.246,0,0,1-7.485-3.84c-2.876-2.685-4.809-6.023-6.693-9.561a66.512,66.512,0,0,1-2.837,6.688c-5.307,9.646-15.393,10.595-22.39,2.1a26.179,26.179,0,0,1-4.654-8.333c-.518-1.544-1.065-2.082-2.907-1.823a195.965,195.965,0,0,0-30.052,6.538c-15.376,4.719-29.917,11.158-42.7,21.142a68.091,68.091,0,0,0-17.342,19.224m83.616-15.376a21.961,21.961,0,0,1,6.6-5.876,3.318,3.318,0,0,1,.916-.445c.8-.2,1.625-.254,2.1.614a1.627,1.627,0,0,1-.5,2.116c-2.482,2.462-2.507,2.5-.392,5.282a32.939,32.939,0,0,0,22.153,13C263.025,71.8,275.7,67.21,286.274,56.736a27.277,27.277,0,0,0,1.806-2.059,7.034,7.034,0,0,0,.561-.983c-1.065-1.037-2.288-1.014-3.324-1.456a1.615,1.615,0,0,1-1.155-1.862c.175-.983.941-1.231,1.789-1.217a6.225,6.225,0,0,1,2.025.259,15.308,15.308,0,0,1,8.155,6.958c.549.958.814,1.986-.327,2.7-1,.628-1.724-.051-2.333-.775-.51-.608-.955-1.271-1.434-1.913-1.341.437-1.91,1.648-2.766,2.518-10.051,10.223-22.2,15.491-36.557,14.866-12.254-.532-22.472-5.44-29.957-15.449-.521-.693-.84-1.642-1.862-1.887-1.1.538-1.025,1.682-1.414,2.583a1.689,1.689,0,0,1-2.226,1.056c-.9-.29-1.028-1.1-1.048-1.947a5.174,5.174,0,0,1,1.18-3.144M187,146.552a1.781,1.781,0,0,1,.056,3.558,1.664,1.664,0,0,1-1.673-1.842A1.517,1.517,0,0,1,187,146.552m-9.894-3.885c1.225.563,2.687,1.1,2.192,2.935-.335,1.239-1.69,1.47-3.834.406-14.085-7.009-26.587-15.939-35.487-29.266a36.634,36.634,0,0,1-5.276-14.336,8.784,8.784,0,0,1,.079-3.057,1.64,1.64,0,0,1,1.651-1.33,1.725,1.725,0,0,1,1.5,1.724c.732,11.209,7.231,19.238,14.93,26.444a91.216,91.216,0,0,0,24.244,16.48" transform="translate(231.226 42.506)" fill="#fff"/>
    <path id="Path_4643" data-name="Path 4643" d="M148,123.642a102.057,102.057,0,0,0-16.266-5.147c-8.736-1.713-17.4-3.814-25.489-7.555-2.944-1.361-4.862-.918-6.93,1.116a12.543,12.543,0,0,1-4.426,3.135,20.509,20.509,0,0,1-17.508-1.051c-.673-.363-1.183-1.1-2.592-.958,0,7.784.028,15.426-.025,23.066-.011,1.682.713,2.231,2.268,2.124.907-.065,1.825-.008,2.738-.008l68.491-.02c5.916,0,5.851,0,5.659-6.014-.138-4.212-1.885-7.167-5.921-8.688" transform="translate(135.853 200.165)" fill="#2c2c2c"/>
    <path id="Path_4644" data-name="Path 4644" d="M178.89,135.109c7.119,1.409,11.713,7.555,11.6,14.88-.062,4.113-.146,8.229-.172,12.342-.008,1.116-.3,2.287.361,3.344a7.81,7.81,0,0,0,3.4-.155,217.158,217.158,0,0,0,25.568-6.223c2.524-.792,2.544-.763,3.64,1.49a85.2,85.2,0,0,0,10.789,16.635,41.5,41.5,0,0,0,6.2,6.378,4.219,4.219,0,0,0,2.707,1.3,94.643,94.643,0,0,0,9.812-.189,3.052,3.052,0,0,0-.169-2.13c-1.476-6.1-3.04-12.181-4.434-18.3a66.048,66.048,0,0,1-1.69-13.922,3.25,3.25,0,0,1,2.048-3.451,95.891,95.891,0,0,0,16.376-10.578c7.5-5.921,14.08-12.694,18.911-21.024a46.145,46.145,0,0,0,6.634-21.722c.372-10.584-3.02-19.99-9.034-28.542-6.634-9.429-15.4-16.5-25.193-22.362-19.015-11.375-39.907-17.162-61.609-20.489-1.811-.279-2.924.07-3.679,1.983a21.6,21.6,0,0,1-6.195,8.513c-6.643,5.654-14.821,4.693-19.95-2.38-.865-1.194-1.47-2.572-2.251-3.828-.389-.625-.251-1.676-1.476-1.783a27.65,27.65,0,0,1-6.113,8.933c-6.265,5.7-14.009,4.857-18.905-2.048a21.874,21.874,0,0,1-3.442-7.415c-.366-1.479-.992-1.89-2.645-1.648a202.95,202.95,0,0,0-31.655,7.189C81.876,35.089,66.365,42.171,52.739,52.935,43.848,59.961,36.369,68.184,31.6,78.624a43.7,43.7,0,0,0-3.178,27.427,4.491,4.491,0,0,0,2.941,3.735c14.477,6.13,23.469,16.981,27,32.278a4.813,4.813,0,0,0,2.707,3.6c6.62,3.321,13.136,6.879,19.886,9.922,10.023,4.519,20.686,7.074,31.407,9.333,2.1.442,2.395.189,2.431-1.989.065-3.885.079-7.772.023-11.654a13.315,13.315,0,0,1,6.733-12.246c3.538-2.217,7.412-2.617,11.44-2.955,8.107-.682,15.561,8.093,14.874,14.657-.389,3.733-.1,7.536-.118,11.308-.025,7.44-.028,7.381,7.536,6.952,1.84-.1,2.324-.834,2.31-2.53-.039-4.913.073-9.826.059-14.742a12.9,12.9,0,0,1,.3-3.383c2.648-10.141,10.336-15.33,20.945-13.229m61.933,6.4a93.175,93.175,0,0,0,29.633-22.2c4.89-5.606,8.479-11.846,9.288-19.424.124-1.161-.161-2.859,1.69-2.8,2.048.068,1.524,1.862,1.718,3.259a35.932,35.932,0,0,1-5.133,14.956c-5.617,8.837-13.266,15.592-21.751,21.505a86.782,86.782,0,0,1-13.854,8.1c-2.228,1.006-3.35.916-3.913-.259-.552-1.147.11-2.048,2.321-3.135m-9.9,3.826a1.661,1.661,0,0,1,1.406,1.98,1.685,1.685,0,0,1-1.654,1.783A1.945,1.945,0,0,1,229,147.239a1.835,1.835,0,0,1,1.918-1.9m-98.234-87.2c-.482-.617-.744-1.434-1.744-1.825-1.116,1.516-2.085,2.927-3.158,4.251-.78.963-1.865,1.555-2.944.575-.938-.851-.524-1.924.228-2.73,3.716-3.972,4.682-8.727,4.113-13.956-.1-.947-.017-1.918,1.178-2.113,1.344-.22,1.865.786,2.048,1.814a13.121,13.121,0,0,1,.206,3.735,8.7,8.7,0,0,0,1.535,5.812c5.84,9.3,14.418,14.694,24.858,17.37a36.755,36.755,0,0,0,10.5,1.175,8.788,8.788,0,0,1,1.7.056A1.511,1.511,0,0,1,172.6,73.6a1.656,1.656,0,0,1-1.087,1.91,7.218,7.218,0,0,1-3.04.324c-14.671-.338-26.68-6.071-35.782-17.688" transform="translate(49.971 40.535)" fill="#fff"/>
    <path id="Path_4645" data-name="Path 4645" d="M183.64,152.38c7.133-6.234,15.68-9.189,24.675-11.167,6.913-1.521,13.8-3.017,20.232-6.152,2.634-1.285,3.6-2.854,3.4-5.831a162.748,162.748,0,0,1,1.2-30.106c.532-4.519.513-3.89-3.375-3.893q-35.149-.025-70.294-.008v-.113q-35.322,0-70.638,0c-3.82,0-3.451-.192-3.507,3.547q-.228,15.259-.476,30.517c-.065,4.189-.07,4.192,3.7,5.834.628.27,1.276.49,1.916.735a105.662,105.662,0,0,0,18.694,5.44,119.811,119.811,0,0,1,21.641,6.3c5.392,2.1,8.172,5.986,8.46,11.711.062,1.254.062,2.513.017,3.766-.1,2.642-.118,2.7,2.507,2.707,9.488.025,18.976-.037,28.461.039a4.154,4.154,0,0,0,3.879-2.132,58.345,58.345,0,0,1,9.5-11.2" transform="translate(154.169 172.819)" fill="#a3f7f7"/>
    <path id="Path_4646" data-name="Path 4646" d="M79.935,82.261c0-1.814,0-3.411,0-5.009.006-.907-.254-1.572-1.324-1.575-2.395-.006-4.792-.025-7.186-.023-.845,0-1.223.507-1.225,1.3-.011,3.423-.008,6.845-.02,10.268-.006.986.459,1.456,1.445,1.434.456-.011.916.037,1.369.008,2.144-.132,4.792.865,6.3-.425,1.6-1.366.318-4.093.637-5.983" transform="translate(127.52 137.47)" fill="#a3f7f7"/>
    <path id="Path_4647" data-name="Path 4647" d="M219.021,116.882c-.265-1.871-.008-3.837-.775-5.786a12.54,12.54,0,0,0-4.065,2.144c-7.736,5.679-21.162,4.764-27.728-1.6-1.634-1.58-3.037-1.361-4.874-.282a41.336,41.336,0,0,1-15.052,5.358,116.055,116.055,0,0,0-19.542,4.933,35.368,35.368,0,0,0-13.266,8.26,19.947,19.947,0,0,0-5.262,7.778h3.913l72.348-.042c4.916,0,9.829.028,14.745-.028,2.214-.025,2.333-.211,2.045-2.4-.811-6.113-1.62-12.226-2.487-18.333" transform="translate(233.416 200.793)" fill="#2c2c2c"/>
    <path id="Path_4648" data-name="Path 4648" d="M256.366,53.843c-.7.051-1.958.1-3.206.237-11.9,1.352-21.914,6.017-28.638,16.423-.865,1.341-1.84,2.617-2.825,3.873a22.372,22.372,0,0,0-3.034,5.344,39.96,39.96,0,0,0-2.6,20.525c2.927,23.742,25.658,39.845,49.183,35.078a41.171,41.171,0,0,0-8.879-81.481" transform="translate(391.97 97.836)" fill="#a3f7f7"/>
    <path id="Path_4649" data-name="Path 4649" d="M76.519,29.091a21.088,21.088,0,0,0,3.84,13.9c3.952,5.575,9.925,6.167,14.984,1.583A22.907,22.907,0,0,0,101.9,33.19c.67-2.482,1.493-4.981.859-7.648-3.885.983-5.919.313-7.437-2.369s-1.256-5.583-.713-8.561a120.311,120.311,0,0,0-19.041-.07,54.276,54.276,0,0,1,.949,14.55" transform="translate(137.316 25.799)" fill="#fff"/>
    <path id="Path_4650" data-name="Path 4650" d="M363.987,99.884c-.034-4.648.575-4.268-4.172-4.271q-48.172-.013-96.344-.006v-.347q-36,0-72-.006c-8.457,0-16.914-.065-25.37-.079-3.1,0-3.1.025-3.561,3.133-.065.454-.121.907-.166,1.363a212.293,212.293,0,0,0-.566,33.216,277.032,277.032,0,0,0,3.333,28.92c.58,3.645.513,3.654,4.144,3.671.572,0,1.144,0,1.713,0q69.431-.068,138.859-.13,25.713-.021,51.428-.045c3.054-.006,3.059-.053,3.107-3.014.014-.8,0-1.6-.006-2.4q-.194-30.006-.4-60.006" transform="translate(293.318 172.943)" fill="#a3f7f7"/>
    <path id="Path_4651" data-name="Path 4651" d="M166.131,119.023a148.144,148.144,0,0,1,20.179-5.237c-4.178-.778-8.3-1.535-12.02-3.64-.8-.451-1.53-.039-2.245.363-6.75,3.8-14.175,5.513-21.663,7.088-9.006,1.9-17.581,4.786-24.68,11.029a52.965,52.965,0,0,0-8.062,9.479c.569.327.752.524.935.524,7.989.031,15.976.006,23.962.093,1.659.02,2.04-1.054,2.628-2.169,4.595-8.7,11.725-14.37,20.967-17.531" transform="translate(213.756 199.787)" fill="#2c2c2c"/>
    <path id="Path_4652" data-name="Path 4652" d="M78.056,81.516a46.213,46.213,0,0,1-5.482,0c-1.856-.132-2.335.687-2.31,2.395.073,4.913.025,9.826.025,14.739H70.1V112.7c0,3.3,0,3.3,3.423,3.333,1.256.011,2.516.031,3.769,0,2.606-.065,2.659-.076,2.673-2.69.042-7.657.034-15.311.045-22.968,0-2.285-.045-4.572.025-6.854.045-1.454-.479-2.076-1.98-2.006" transform="translate(127.378 148.089)" fill="#a3f7f7"/>
    <path id="Path_4653" data-name="Path 4653" d="M37.328,104.094q19.176,0,38.349-.065c8.558-.023,17.116-.037,25.678-.09,2.634-.017,2.671-.07,2.716-2.651q.1-5.65.087-11.3c0-2.524-.056-2.561-2.569-3.11-3.448-.755-6.93-1.375-10.35-2.245-8.722-2.225-17.35-4.668-25.359-9-5.389-2.913-11.006-5.4-17.1-8.353.285,14.7-4.952,26.627-15.468,36.312,1.538.817,2.806.5,4.017.5" transform="translate(60.528 122.258)" fill="#a3f7f7"/>
    <path id="Path_4654" data-name="Path 4654" d="M23.731,115.77q42.826.042,85.656.079c5.6.006,11.192.025,16.787,0,2.845-.014,2.887-.051,2.921-2.78q.182-14.219.3-28.438c.023-3.037-.037-3.071-3.014-3.057q-35.8.169-71.607.344a7.838,7.838,0,0,0-3.916.952,44.121,44.121,0,0,1-23.351,5.462c-2.611-.093-5.172-.707-7.665-.718a2.528,2.528,0,0,0-.49,1.78c.054,7.423.056,14.849.183,22.272.07,4.09.163,4.1,4.2,4.1" transform="translate(35.16 148.223)" fill="#a3f7f7"/>
    <path id="Path_4655" data-name="Path 4655" d="M90.569,94.674a41.251,41.251,0,0,0-41.157-41.2c-23.215-.017-41.49,19.3-41.1,41.169-.456,21.012,16.9,41.135,41.073,41.194A41.136,41.136,0,0,0,90.569,94.674" transform="translate(15.091 97.166)" fill="#a3f7f7"/>
    <path id="Path_4656" data-name="Path 4656" d="M21.344,76.561A93.127,93.127,0,0,1,38.86,73.7c1.656-.121,2.245-1.02,2.778-2.462A62.555,62.555,0,0,1,54.656,50.5,106.432,106.432,0,0,1,81.4,29.913c1.051-.592,2.347-.885,3.285-2.417-6.482.521-12.539.313-18.573.625-5.231.27-10.547-.093-15.683,1.039-20.156,4.434-33.982,25.424-30.65,46.251.163,1.014.561,1.423,1.569,1.149" transform="translate(35.031 49.962)" fill="#a3f7f7"/>
    <path id="Path_4657" data-name="Path 4657" d="M96.141,144.706a165.714,165.714,0,0,0,29.889-9.688,3.745,3.745,0,0,0,2.654-4.085c-.085-6.972.008-13.944.028-20.917.014-4.228-.039-8.46.054-12.688.037-1.654-.572-2.3-2.189-2.152-.794.07-1.6.006-2.4.006q-25.032,0-50.059,0V95.03q-25.717,0-51.431.006c-3.158,0-3.189.031-3.175,3.211q.139,32.06.3,64.122c0,.572.034,1.144.023,1.716-.025,1.268.524,1.91,1.848,1.837.8-.045,1.6,0,2.4,0l43.2-.008c4.355,0,4.3-.006,4.507-4.288.248-5.062,2.282-8.9,7.237-11.02a96.653,96.653,0,0,1,17.111-5.9" transform="translate(35.455 172.673)" fill="#a3f7f7"/>
    <path id="Path_4658" data-name="Path 4658" d="M70.431,44.237c3.445,4.195,7.933,4.809,11.987,1.3,6.09-5.279,8.062-12.387,8.564-20.218-6.406.963-10.327-1.358-8.936-10.572-4.682.73-9.034,1.53-13.347,2.58a2.607,2.607,0,0,0-2.082,2.327,35.911,35.911,0,0,0-.848,11.561c.482,4.713,1.563,9.254,4.662,13.026" transform="translate(119.225 26.787)" fill="#fff"/>
    <path id="Path_4659" data-name="Path 4659" d="M78.521,95.13c-2.051.017-4.113.07-6.164-.039C70.687,95,70.1,95.733,70.2,97.3c.048.794-.017,1.6-.02,2.4-.07,15.412-.175,30.824-.18,46.236,0,5.592.192,11.184.375,16.776.1,3.028.169,3.028,3.037,3.054,1.031.011,2.056.008,3.082,0,3.183-.039,3.2-.042,3.234-3.223.113-10.727-.352-21.458.406-33.875V99.189c0-.8-.034-1.6,0-2.4.051-1.147-.459-1.671-1.611-1.662" transform="translate(127.189 172.773)" fill="#a3f7f7"/>
    <path id="Path_4660" data-name="Path 4660" d="M121.805,114.621c-.034-1.217.189-2.5-.524-3.614-.949-.177-1.507.518-2.186.885-7.989,4.313-15.894,4.581-23.57-.665-1.989-1.358-3.707-1.18-5.736-.239A126.361,126.361,0,0,1,63.3,119.993a85.919,85.919,0,0,0-17.824,5.888c-4.682,2.149-6.338,4.735-6.124,9.874.1,2.38.138,2.476,2.592,2.493,5.938.034,11.877.008,17.818.008q29.638-.008,59.279-.02c3.378,0,3.361-.028,3.273-3.409-.175-6.736-.313-13.471-.51-20.207" transform="translate(71.473 200.321)" fill="#2c2c2c"/>
    <path id="Path_4661" data-name="Path 4661" d="M664.028,150.683c-1.507-.558-2.834-.963-2.857-3.116-.135-11.885-.854-23.782-.544-35.653.527-20.294-15.592-37.349-35.994-37.366q-28.633-.025-57.268.025a13.411,13.411,0,0,1-4.983-.918,196.6,196.6,0,0,0-41.309-10.739c-2.625-.4-2.595-.377-2.578-3.268a35.789,35.789,0,0,0-4.479-18.421,20.466,20.466,0,0,0-6.358-7.074c-5.161-3.431-10.86-2.876-15.311,1.462a21.328,21.328,0,0,0-4.955,8.51c-.3.837-.169,1.851-1.268,2.665-.637-1.307-1.161-2.442-1.738-3.55a21.705,21.705,0,0,0-6.547-7.809c-5.2-3.724-10.958-3.282-15.573,1.141a18.139,18.139,0,0,0-4.521,7.186A31.912,31.912,0,0,0,456.1,59.616c.293,1.828.535,2.4-2.107,2.772a185.925,185.925,0,0,0-44.25,11.519,10.371,10.371,0,0,1-4.02.639c-8.229-.017-16.46-.082-24.689.045a6.048,6.048,0,0,1-4.964-2.237C364.008,59.571,349.754,51.308,331.6,51.415a2.048,2.048,0,0,1-2.361-1.8c-1.462-5.178-.051-9.7,2.9-13.905a22.954,22.954,0,0,1,7.868-6.493,110.083,110.083,0,0,0,9.674-6.485,25.88,25.88,0,0,0,7.234-8.589c1.814-3.192.017-6.8-3.535-7.722-2.772-.718-5.175.146-7.454,1.609a44.437,44.437,0,0,1-7.386,4.3c-4.172,1.668-5.848,1.1-8.127-2.82-1.034-1.778-1.98-3.62-3.18-5.276-3.333-4.595-7.7-5.462-12.542-2.561-.91.547-1.631,1.031-2.806.563-3.549-1.414-6.491-.285-8.848,2.53-.625.747-1.141,1.355-2.228,1.2-3.152-.451-4.874,1.4-6.11,3.935a2.5,2.5,0,0,1-1.887,1.685c-3.9.839-5.423,2.547-5.958,6.383a19.767,19.767,0,0,0,1.918,10.987,4.9,4.9,0,0,0,2.178,2.578c1.569.727,2.02,1.927,2.3,3.49a29.578,29.578,0,0,0,1.425,4.572c1.448,4.068,3.507,7.73,7.392,9.964,1.947,1.121,2.1,2.775,1.865,4.637-.152.1-.242.217-.344.225a51.077,51.077,0,0,0-25.714,10.288,4.557,4.557,0,0,1-4.482.648,147.287,147.287,0,0,0-16.612-4.04c-3.7-.67-7.42-1.24-11.127-1.887-1.056-.186-2.611-.031-2.262-1.794a41.993,41.993,0,0,0-.132-15.494c.955-.468,1.53.132,2.195.161a1.874,1.874,0,0,0,2.073-1.414c.327-1.073-.3-1.749-1.2-2.161a6.128,6.128,0,0,0-1.637-.448,166.034,166.034,0,0,0-19.066-1.949,131.524,131.524,0,0,0-32.32,2.969c-5.586,1.194-11.127,2.5-16.3,5.014a17.587,17.587,0,0,0-2.13,1.085c-.685.454-1.256,1.107-.817,2.011a1.642,1.642,0,0,0,2.316.8c.741-.3,1.442-.7,2.2-.955,1.031-.346,1.941-1.223,3.38-.786a46.207,46.207,0,0,0-.628,10.5c.166,1.935-.645,2.411-2.451,2.685a198.279,198.279,0,0,0-48.037,13.2,12.647,12.647,0,0,1-4.671.932c-11.423.313-22.846.7-34.272.89a33.59,33.59,0,0,0-9.108,1.279A45.481,45.481,0,0,0,59.362,92.426a37.9,37.9,0,0,0-8.333,25.128c.1,2.854-.031,5.716.051,8.572a2.207,2.207,0,0,1-1.713,2.541c-.766.223-1.516.513-2.259.8-16.48,6.4-29.379,16.976-37.749,32.7C1.579,176.791-.3,192.516,1.3,208.754a53.607,53.607,0,0,1-.059,11.6c-.425,3.628-.944,7.254-1.183,10.9a25.452,25.452,0,0,0,5.364,17.294,6.757,6.757,0,0,0,5.792,3.1,5.188,5.188,0,0,1,2.947.651,4.176,4.176,0,0,0,2.955.676,12.646,12.646,0,0,1,7.589.27,2.5,2.5,0,0,0,2.256-.6,3.972,3.972,0,0,1,4.093-.755,3.656,3.656,0,0,0,4.445-1.735,4.308,4.308,0,0,0-.355-4.845,13.131,13.131,0,0,0-2.961-2.828,56.068,56.068,0,0,1-6.944-6.614c-1.344-1.482-2.671-3.068-2.718-5.578,1.947.49,3.031,1.851,4.324,2.848,1.744,1.341,3.535,2.527,5.82,2.651,2.792.149,4.271-1.6,3.645-4.321a8.99,8.99,0,0,0-3.048-4.454c-2.428-2.273-4.744-4.662-6.093-7.764-.392-.9-1.18-1.837-.69-3.057.259.146.389.18.454.262.487.634.963,1.276,1.44,1.918a44.761,44.761,0,0,0,19.542,15.105c2.989,1.214,2.989,1.217,3.037,4.369.169,11.2.037,22.393.259,33.594.313,15.542.279,31.092.383,46.639.045,6.747.042,13.491.1,20.235.023,2.764.6,3.428,3.327,3.7,1.586.158,3.2.076,4.8.076q298-.042,596.006-.093c.687,0,1.375.042,2.059,0,2.606-.18,3.378-.98,3.459-3.614.039-1.256.009-2.516,0-3.772-.1-31.551-.84-63.1-.062-94.648.1-3.885.039-3.885,3.6-5.257a44.753,44.753,0,0,0,25.255-59.313c-5.09-11.964-13.9-20.187-26.111-24.708m-369.99-121.8a2.533,2.533,0,0,1-2.24-1.834,17.877,17.877,0,0,1-1.6-6.916,7.044,7.044,0,0,1,.817-3.941c.369-.58.792-1.206,1.566-1.107.924.118.783.966.834,1.6a61.11,61.11,0,0,0,.91,6.741,20.221,20.221,0,0,0,1.051,3.935c.611,1.468-.423,1.544-1.338,1.524M576.987,78.045c14.054.025,28.112-.023,42.163.146,4.643.056,9.358-.355,13.919,1.1,12.175,3.879,20.049,11.843,23.159,24.328a18.435,18.435,0,0,1,.493,4.071q.389,19.188.693,38.38c.042,2.62-.1,2.792-2.285,2.459-10.863-1.665-20.838.792-30.16,6.381-.538.324-.986.947-1.949.656a84.591,84.591,0,0,0,2.02-9.632,48.991,48.991,0,0,0-6.423-29.641c-5.482-9.727-13.167-17.469-21.976-24.176a129.637,129.637,0,0,0-19.2-11.882,8.054,8.054,0,0,1-3.2-2.059c1.09-.054,1.918-.13,2.747-.127m-85.1-35c1.662-3.671,3.907-6.947,8.285-7.307,4.166-.344,7.155,2.158,9.293,5.423,5.9,9.015,6.809,18.652,3.057,28.726a14.582,14.582,0,0,1-1.468,2.7c-3.031,4.733-9.186,7.11-14.6.5,4.324-2.366,5.3-5.561,3.166-9.744-1.755-3.44-4.913-5.178-9.592-5.237-.532-5.161-.33-10.232,1.856-15.057m-27.666-3c3.268-4.04,7.55-4.392,11.787-1.313a15.462,15.462,0,0,1,4.411,5.158,31.3,31.3,0,0,1,2.569,25.43,15.741,15.741,0,0,1-2.5,4.84c-3.795,4.983-8.761,5.316-13.381.9,3.961-3.668,4.4-5.8,2.149-10.415-2.18-4.459-4.172-5.507-9.294-4.623-.794-7.186-.518-14.071,4.262-19.976M425.043,72.5A195.892,195.892,0,0,1,455.1,65.963c1.842-.262,2.389.276,2.907,1.823a26.181,26.181,0,0,0,4.654,8.333c6.995,8.493,17.083,7.544,22.39-2.1a66.5,66.5,0,0,0,2.837-6.688c1.885,3.538,3.817,6.876,6.693,9.558a13.25,13.25,0,0,0,7.485,3.842,11.823,11.823,0,0,0,10.913-4.471,19.859,19.859,0,0,0,4.214-8.15c.414-1.651,1.268-1.938,2.713-1.7,26.275,4.355,51.316,11.987,73.241,27.782,8.516,6.136,15.925,13.384,21.331,22.466,8.288,13.93,9.885,28.483,2.42,43.115-3.916,7.677-8.916,14.863-16.2,20.418a4.782,4.782,0,0,1-.766-2.566c-1.335-10.277-5.386-19.5-10.75-28.258-3.535-5.772-8.017-10.8-12.091-16.153a4,4,0,0,0-2.887-1.662c-5.195-.42-12.99,1.713-15.528,8.291-.887,2.29-.907,4.026.752,5.941,1.938,2.24,3.637,4.69,5.383,7.091,6.885,9.465,10.567,20.145,11.927,31.695.394,3.366-.386,6.572-1.273,9.784-.468,1.679-1.84,2.231-3.149,2.9a115.375,115.375,0,0,1-23.125,8.339c-4.06,1.076-8.17,1.963-12.192,2.921-.854-1.361-.394-2.5-.253-3.58.859-6.5-3.392-12.074-8.293-14.463a73.174,73.174,0,0,0-28.295-7.313,55.267,55.267,0,0,0-10.919.761,11.08,11.08,0,0,1-5-.454,67.219,67.219,0,0,0-22.263-3.144c-16.488.611-30.483,7.06-42.369,18.339a92.023,92.023,0,0,0-17.99,24.461c-1.31,2.5-1.338,2.487-4.643,1.918.6-4.175,1.9-8.186,2.84-12.28a99.416,99.416,0,0,0,2.716-17.919,3.923,3.923,0,0,0-2.4-4.3c-11.508-6.107-21.8-13.8-29.962-24.089-5.775-7.279-9.882-15.359-11.234-24.646-1.507-10.364.839-19.97,6.071-28.931a68.053,68.053,0,0,1,17.342-19.224c12.781-9.984,27.326-16.423,42.7-21.142m-8.82,231.774a2.691,2.691,0,0,1-1.842,3.169,31.581,31.581,0,0,1-20.119,1.386,19.542,19.542,0,0,1-3.166-1.276,2.17,2.17,0,0,1-1.344-2.164c-.1-6.609-.335-13.215.138-19.849,10.767,3.161,17.238,3.138,26.156-.189.727.445.473,1.175.439,1.792a134.223,134.223,0,0,0-.262,17.131M243.052,229.561c22.159-.062,44.318-.076,66.48-.172q42.493-.182,84.982-.451a10.6,10.6,0,0,1,3.707.211c.3.882-.217,1.563-.513,2.279a143.506,143.506,0,0,0-8.741,29.836c-.121.673-.361,1.33-.434,2.006-.113,1.034-.732,1.3-1.634,1.285-.685-.014-1.369.006-2.056.006q-70.42-.131-140.842-.27c-5.124-.011-4.473.293-4.434-4.361q.118-13.708.375-27.413c.048-2.916.113-2.947,3.11-2.955m-2.913-5.166c.037-4.223.076-8.448.085-12.671,0-1.293.9-1.341,1.817-1.524,5.358-1.076,10.727-2.107,16.057-3.313,3.662-.828,7.282-1.862,10.885-2.921,1.085-.318,1.682-.186,2.192.837a88.944,88.944,0,0,0,14.147,20.311,4.174,4.174,0,0,1-2.735.552q-19.345.182-38.692.332c-.685,0-1.369-.025-2.054-.006-1.107.031-1.713-.434-1.7-1.6m99.225-112.505q-.668-1.386-1.3-2.789c-.028-.062.073-.183.132-.31.978.048,1.558.814,2.231,1.344a90.264,90.264,0,0,0,14.767,9.9A2.179,2.179,0,0,1,356.554,123c-4.727,17.193.062,32.227,10.722,45.808,7.581,9.663,17.077,17.145,27.72,23.111,3.017,1.693,3.84,3.682,3.51,6.851a135.993,135.993,0,0,1-2.842,15.133c-.614,2.786-1.265,5.569-2.048,8.308-.862,3.011-.034,3.271-4.02,3.245-2.854-.02-5.71,0-8.567,0q-34.954.076-69.914.158c-3.888.008-4,.034-4.952-3.569-2.037-7.722-4.011-15.463-5.361-23.348-.039-.225-.07-.451-.1-.676-.808-6.5-.758-6.575,4.843-9.992,9.919-6.054,18.948-13.159,26.193-22.339,6.71-8.5,11.271-17.936,12.3-28.886a46.448,46.448,0,0,0-4.676-24.92M415.22,281.437c-4.834,2.358-9.837,3.62-15.229,2.676-1.8-.313-3.651-.124-5.423-.7-3.383-1.09-4.569-2.53-4.234-5.854,2.051-20.331,6.893-39.8,17.246-57.612,5.986-10.3,13.561-19.21,23.522-25.914,13.787-9.279,28.914-11.863,45.118-8.891.78.144,1.527.451,2.89.865-2.214.887-3.8,1.49-5.358,2.152-13.725,5.829-24.548,15.209-33.267,27.173-10.254,14.071-16.6,29.855-20.46,46.721a133.039,133.039,0,0,0-2.724,16.2,3.458,3.458,0,0,1-2.082,3.18m4.845,6.04a6.1,6.1,0,0,1,.417-1.217c10.048,3.786,20.145,4.733,30.579-.256-.065,5.057-.11,9.5.18,13.928a29.083,29.083,0,0,0,.211,4.1c.532,2.468-.628,3.857-2.594,4.952a46.983,46.983,0,0,0-4.1,2.5c-5.634,3.921-17.057,3.924-23.48-2.564a3.609,3.609,0,0,1-1.375-2.592c-.127-6.285-.183-12.57.158-18.849m29.03-4.716a28.868,28.868,0,0,1-18.615,2.758,51.831,51.831,0,0,1-6.941-1.814c-2.242-.746-3.04-1.944-2.775-4.1,2.941-23.869,10.02-46.177,25.159-65.325,9.206-11.646,20.553-20.441,34.929-24.8,15.339-4.654,30.25-3.009,44.653,3.7,2.64,1.228,5.234,2.8,6.595,5.7a9.245,9.245,0,0,1,1.118,4.634,17.957,17.957,0,0,1-5.107,11.215,37.372,37.372,0,0,1-10.178,7.369,5.244,5.244,0,0,1-5.693-.211,42.535,42.535,0,0,0-16.914-6.13,28.463,28.463,0,0,0-22.872,6.865c-5.445,4.575-9.175,10.426-12.1,16.835-4.558,9.978-6.812,20.553-8.1,31.374-.324,2.718-.614,5.457-.684,8.189a4,4,0,0,1-2.473,3.747m101.778-65.212a24.723,24.723,0,0,0,6.471.442,5.8,5.8,0,0,0,3.257-.935c6.434-4.769,12.854-9.527,16.57-17a30.615,30.615,0,0,0,3.028-18.274,70.4,70.4,0,0,0-16.463-36.309c-2.454-2.916-2.18-5.262.783-7.738,2.209-1.848,4.885-2.366,7.586-2.834a2.508,2.508,0,0,1,2.38,1.037c10.282,11.508,18.325,24.28,21.3,39.639A56.323,56.323,0,0,1,595.8,195.7c-1.482,8.826-6.023,15.936-12.288,22.066-3.349,3.279-6.772,6.606-10.77,8.986-4.485,2.665-7.615,6.338-10.465,10.516-4.412,6.465-11.04,10.158-17.846,13.451-2.716,1.313-5.772,2.079-9.1.42,2.8-.775,5.33-1.425,7.823-2.18,1.4-.42,3.076-.8,2.738-2.826-.208-1.256-1.5-1.454-3.775-.7a33.285,33.285,0,0,1-11.716,2.13,5.85,5.85,0,0,1-4.823-2c2.907-.445,5.589-.614,8.122-1.487.645-.22,1.33-.335,1.955-.6.9-.38,1.611-1.025,1.33-2.1a1.862,1.862,0,0,0-2.414-1.349c-1.116.223-2.209.555-3.3.876a20.547,20.547,0,0,1-9.5.3c-1.608-.287-3.366-.625-4.279-2.333.656-.716,1.372-.425,1.961-.259a20.971,20.971,0,0,0,10.5-.065c.332-.076.687-.065,1.014-.155a1.8,1.8,0,0,0,1.547-1.949c-.076-1.189-.972-1.552-1.913-1.521-1.479.051-2.95.318-4.426.465a20.323,20.323,0,0,1-11.513-2.434c-.707-.363-1.527-.839-1.442-1.747.107-1.147,1.248-1.335,2.073-1.431a48.436,48.436,0,0,1,9.919.1,40.308,40.308,0,0,0,11.215-.921,6.8,6.8,0,0,0,3.823-2.127c1.907-2.071,1.316-4.507-1.346-5.35a22.556,22.556,0,0,0-3.7-.676,11.024,11.024,0,0,1-4.175-1.434c-1.138-.673-1.014-1.437.037-2.048a12.042,12.042,0,0,1,5.921-1.42,57.618,57.618,0,0,1,13.9,1.654M539.725,212.1c10.558-3.014,21.376-5.135,31.357-10.091-1.592,3.192-4.22,5.4-6.837,7.586-1.31,1.093-2.924,1.862-4.09,3.076-2.118,2.206-4.637,2.3-7.268,1.7a90.425,90.425,0,0,0-13.161-2.276m-6.964,12.333c-.006.09-.079.251-.124.251-3.64.011-7.282.011-11.274.011.744-1.242,1.879-1.347,2.623-2,1.735-1.535,3.366-1.879,5.268-.059.851.814,2.234,1.073,3.341,1.569l-.023.008c.09-.014.2.008.189.22m-23.883.321H476.623c5.936-7.3,21.2-7.513,32.255,0M469.811,230.6a3.868,3.868,0,0,1,3.364-1.882c11.657.02,23.317-.051,34.974-.079a7.149,7.149,0,0,1,1.313.313c-.885,2.7.065,4.842,2.147,6.609a2.98,2.98,0,0,1,.659,1.527,9.5,9.5,0,0,0,6.186,6.817,5.461,5.461,0,0,1,2.755,2.361,9.972,9.972,0,0,0,7.288,4.609,3.85,3.85,0,0,1,2.947,1.428c2.431,3.3,5.967,3.49,9.589,3.073a14.941,14.941,0,0,0,4.288-1.138c8.234-3.665,15.992-8.122,20.846-16.043,2.58-4.214,6.589-6.527,10.257-9.372a3.978,3.978,0,0,1,2.614-.589c13.485-.028,26.973-.037,40.462-.13a6.2,6.2,0,0,1,3.7,1.482,42.833,42.833,0,0,0,32.19,7.561c1.335-.183,2.194.037,2.172,1.687q-.165,12-.234,24c-.008,1.487-.724,2.023-2.121,1.947-.8-.045-1.6,0-2.4,0L460.786,264.6c-1.132,0-2.262,0-3.952,0,2.259-12.471,5.493-24.03,12.978-34m112.463-6.155a8.733,8.733,0,0,1,2.575-2.806c10.113-9.11,15.547-20.336,15.44-34.061a3.451,3.451,0,0,1,1.685-3.414c.963-.569,1.583-1.625,3.226-2.228-1.4,7.724-1.625,15.181.386,22.59,2,7.364,5.809,13.708,11.24,19.919ZM398.74,78.163c.1,1.135-.924,1.169-1.53,1.49a103.326,103.326,0,0,0-25.452,18.4c-.718.73-1.237,1.425-2.555.623-8.863-5.412-16.257-12.5-24-20.517Zm-26.252-4.651c-.366,1.361-1.192,1.009-1.783,1.011-8.784.028-17.567.02-26.351.023-1.132,0-2.262.121-3.031-1.059-3.541-5.443-7.4-10.7-9.879-16.764a10.2,10.2,0,0,1-.251-1.628c17.012-.324,29.861,7.547,41.3,18.418m-67.2-65.629c1.087-2.561,2.414-3.026,5.595-2.273-.606,2.172-1.569,4.24-1.78,6.53a25.508,25.508,0,0,0,.285,8.479,4.279,4.279,0,0,1,.169,2.679c-.338.854-.749,1.747-1.783,1.856-.941.1-1.431-.687-1.733-1.409-2.163-5.189-3.04-10.482-.752-15.863m-6.538,2.045a1.206,1.206,0,0,1,1.521-.4c.47.248.406.758.389,1.194-.051,1.254-.124,2.5-.189,3.758a25,25,0,0,0,1.8,10.04c.642,1.431.408,2.451-.817,3.217-1.014.631-2.394-.082-2.814-1.659a37.43,37.43,0,0,1-1.724-11.1,7.668,7.668,0,0,1,1.831-5.045m5.093,36.619a15.182,15.182,0,0,1-5.71-7.5,39.065,39.065,0,0,1-1.533-4.538c-.482-1.814.293-3.214,2.037-3.079,2.662.2,5.014.1,6.719-2.268a7.746,7.746,0,0,0,7.158-2.89c.2-.225,1.048.141,1.6.208a6.6,6.6,0,0,0,6.73-3.172c2.2-3.358,2.13-7.15,1.8-10.939a1.7,1.7,0,0,0-3.392.034c-.082,1.254-.054,2.513-.085,3.772a8.894,8.894,0,0,1-1.665,5.482c-1.366,1.727-3.037,1.547-4.028-.406a7.881,7.881,0,0,1-.639-2.29,18.046,18.046,0,0,1,1.445-11.342c2.3-4.595,7.462-5.586,10.454-.586.82,1.372,1.637,2.747,2.417,4.141,3.273,5.874,6.922,7.079,13.113,4.341a42.7,42.7,0,0,0,7.043-4.214,10.466,10.466,0,0,1,3.366-1.637,2.831,2.831,0,0,1,3.118.839c.769.963.206,2-.344,2.859a21.578,21.578,0,0,1-5.595,6.414,100.035,100.035,0,0,1-9.443,6.206,26.915,26.915,0,0,0-8.122,6.214c-4.254,5.107-6.02,10.7-4.55,17.488,2.555,11.789,8.736,21.579,16.449,30.4,7.074,8.088,14.928,15.457,24.238,21.063a11.159,11.159,0,0,1,1.378,1.194,64.393,64.393,0,0,0-8.657,13.618c-.549,1.225-1.217,1.524-2.375.82-1.659-1.006-3.392-1.893-5.014-2.955-10.989-7.2-20.748-15.784-28.43-26.492a116.88,116.88,0,0,1-12.48-22.407c-1.49-3.5-2.059-7.243-3.2-10.829-.451-1.428-.293-2.524,1.651-2.341a4.174,4.174,0,0,0,1.358-.124c.935-.231,1.763-.668,1.766-1.783.006-1.3-.887-1.8-2.025-1.823-2.293-.045-4.493-.141-6.558-1.485m13.9,39.473c-1.907-.341-2.9-1.555-4.161-2.558,2.116-1.251,2.116-1.251,4.161,2.558m-22.9-26.125a45.947,45.947,0,0,1,8.353-1.763c1.025-.068,2.02-.141,2.316,1.33,1.4,6.924,4.828,13.023,7.95,19.243.042.085.006.211.006.313-2.042,2.121-3.944,2.149-6.564.518a127.441,127.441,0,0,0-23.531-10.989c-.958-.355-1.916-.7-3.426-1.254,4.91-3.231,9.541-6.034,14.9-7.4M231.927,40.412c-.544,2.978-.809,5.874.713,8.561s3.55,3.355,7.437,2.369c.631,2.671-.189,5.166-.859,7.651a22.9,22.9,0,0,1-6.558,11.384c-5.059,4.586-11.032,3.995-14.984-1.58a21.1,21.1,0,0,1-3.84-13.905,54.276,54.276,0,0,0-.949-14.55,120.988,120.988,0,0,1,19.041.07m-46.084,6.026a2.607,2.607,0,0,1,2.082-2.327c4.313-1.054,8.665-1.851,13.347-2.58-1.392,9.215,2.53,11.536,8.936,10.572-.5,7.831-2.473,14.939-8.564,20.218-4.054,3.513-8.541,2.9-11.987-1.3-3.1-3.772-4.181-8.313-4.662-13.026a35.753,35.753,0,0,1,.848-11.561M85.457,79.121c5.133-1.13,10.451-.766,15.683-1.037,6.034-.313,12.091-.107,18.573-.625-.938,1.53-2.234,1.825-3.285,2.414a106.443,106.443,0,0,0-26.74,20.593A62.579,62.579,0,0,0,76.668,121.2c-.53,1.442-1.118,2.341-2.778,2.465a93.136,93.136,0,0,0-17.514,2.857c-1.009.273-1.406-.135-1.569-1.149C51.475,104.548,65.3,83.558,85.457,79.121M30.637,229.58a13.589,13.589,0,0,1,1.2,1.22,5.007,5.007,0,0,1,.423.963c-2.118-.2-3.1-1.589-4.344-2.5a17.452,17.452,0,0,0-4.31-2.749c-3.127-1.11-4.893.135-4.938,3.426a10.7,10.7,0,0,0,2.454,6.623,51.776,51.776,0,0,0,8.175,8.262c1.017.87,2.307,1.507,2.823,2.918-.724.766-1.468.392-2.141.051-4.769-2.434-8.913-5.552-11.347-10.513a13.386,13.386,0,0,0-.62-1.22,1.8,1.8,0,0,0-2.6-.856c-1.014.547-.921,1.533-.606,2.414a18.982,18.982,0,0,0,5.175,7.567c1.476,1.361,3.031,2.637,5.116,4.443a9.5,9.5,0,0,1-5.048-2.538,31.911,31.911,0,0,1-6.913-8.877c-.268-.5-.462-1.045-.73-1.547a1.439,1.439,0,0,0-1.7-.811,1.624,1.624,0,0,0-1.24,1.811,6.189,6.189,0,0,0,1.076,2.856,42.32,42.32,0,0,0,6.6,8.73c-1.9.093-2.766-.958-3.589-1.964a26.524,26.524,0,0,1-4.719-7.9c-.265-.755-.592-1.487-.825-2.251-.3-.961-.8-1.732-1.9-1.592-1.138.144-1.33,1.093-1.363,2.073-1.259-2.795-1.409-3.614-1.054-7.606q.6-6.655,1.313-13.294a56.013,56.013,0,0,0-.27-10.6c-1.394-16.993,1.558-33.022,11-47.487,8.434-12.925,20.336-21.39,34.763-26.52a97.521,97.521,0,0,1,20.305-4.6,30.784,30.784,0,0,1,3.668-.02c-.008,3.414-.91,6.719-.876,10.1.034,3.335.637,6.586,1,10.094-2.516.355-4.938-.394-7.364-.566-23.886-1.679-44.8,16.39-47.265,39.7a51.209,51.209,0,0,0,.6,13.978,75.649,75.649,0,0,1,.794,8.865c.392,7.916,3.279,14.632,9.282,19.914M23.4,191.809c-.392-21.869,17.886-41.185,41.1-41.169A41.181,41.181,0,0,1,64.478,233C40.3,232.944,22.946,212.822,23.4,191.809m85.906-2.268c6.091,2.955,11.711,5.44,17.1,8.353,8.006,4.33,16.638,6.772,25.359,9,3.417.87,6.9,1.49,10.347,2.245,2.518.549,2.569.586,2.572,3.11q.008,5.65-.087,11.3c-.045,2.58-.082,2.634-2.716,2.651-8.558.054-17.119.068-25.678.09q-19.176.046-38.349.065c-1.211,0-2.479.318-4.02-.5,10.519-9.685,15.756-21.61,15.471-36.312m-54.8,48.076a2.535,2.535,0,0,1,.49-1.783c2.493.014,5.054.628,7.665.721a44.121,44.121,0,0,0,23.351-5.462,7.834,7.834,0,0,1,3.916-.955q35.8-.148,71.607-.341c2.978-.014,3.037.02,3.014,3.057q-.11,14.219-.3,28.438c-.034,2.73-.076,2.766-2.921,2.778-5.595.025-11.189.008-16.787,0q-42.831-.038-85.656-.079c-4.034-.006-4.127-.014-4.2-4.1-.127-7.423-.13-14.849-.183-22.272M107.25,334.3c-.208,4.285-.152,4.288-4.507,4.29l-43.2.008c-.8,0-1.6-.042-2.4,0-1.324.073-1.873-.569-1.848-1.837.011-.569-.02-1.141-.023-1.713q-.152-32.064-.3-64.125c-.014-3.178.017-3.209,3.175-3.209q25.713-.017,51.431-.006v.149h50.059c.8,0,1.6.065,2.4-.006,1.617-.144,2.225.5,2.189,2.155-.093,4.226-.039,8.457-.054,12.685-.02,6.972-.113,13.947-.028,20.92a3.744,3.744,0,0,1-2.654,4.082A165.269,165.269,0,0,1,131.6,317.38a96.886,96.886,0,0,0-17.111,5.9c-4.955,2.116-6.989,5.955-7.237,11.017m83.267,4.262q-29.643.021-59.279.02c-5.941,0-11.88.025-17.818-.008-2.454-.017-2.49-.113-2.592-2.49-.214-5.138,1.442-7.727,6.124-9.877a85.919,85.919,0,0,1,17.824-5.888,126.36,126.36,0,0,0,26.489-9.006c2.028-.938,3.747-1.118,5.736.242,7.677,5.243,15.581,4.978,23.57.662.679-.366,1.237-1.059,2.186-.885.713,1.113.49,2.4.524,3.614.2,6.736.335,13.471.51,20.207.087,3.383.1,3.406-3.273,3.409m3.209-74.258q-.106,19.362-.037,38.729a4.5,4.5,0,0,1-2.555,4.552c-4.088,2.434-8.113,4.614-13.068,4.341a20.721,20.721,0,0,1-5.04-.884c-4.316-1.335-5.321-2.888-5.319-7.372q.021-27.758.006-55.513h.668q0-29.131.008-58.263a7.856,7.856,0,0,1,3.209-6.164,16.784,16.784,0,0,1,13.9-3.33c4.609.808,8.832,5.975,8.764,11.246-.3,24.218-.4,48.437-.532,72.658m13.6,7.662v29.475c-.761,12.415-.3,23.145-.408,33.872-.031,3.183-.048,3.186-3.231,3.223q-1.538.017-3.082.006c-2.868-.025-2.941-.028-3.04-3.057-.18-5.589-.372-11.181-.372-16.773.006-15.412.11-30.824.177-46.239,0-.8.073-1.6.023-2.394-.1-1.572.487-2.3,2.164-2.211,2.048.107,4.107.054,6.161.039,1.152-.011,1.662.513,1.611,1.662-.037.8,0,1.6,0,2.4m.07-33.5c-.011,7.657-.006,15.311-.045,22.968-.014,2.614-.068,2.626-2.673,2.69-1.256.031-2.513.011-3.769,0-3.426-.034-3.426-.037-3.423-3.333V246.736h.189c0-4.913.045-9.826-.028-14.739-.025-1.707.454-2.53,2.313-2.395a46.167,46.167,0,0,0,5.479,0c1.5-.07,2.025.552,1.983,2.006-.073,2.282-.023,4.569-.025,6.854m-.572-12.75c-1.513,1.29-4.161.293-6.3.425-.456.028-.913-.02-1.369-.008-.986.023-1.451-.448-1.448-1.434.014-3.423.008-6.845.023-10.268,0-.8.38-1.3,1.225-1.3,2.395,0,4.789.02,7.186.023,1.07,0,1.327.668,1.324,1.575-.006,1.6,0,3.195,0,5.009-.321,1.89.963,4.617-.637,5.983m.8-33.455c.017,4.913-.1,9.826-.056,14.742.014,1.7-.47,2.423-2.31,2.527-7.564.431-7.561.487-7.536-6.952a112.878,112.878,0,0,1,.118-11.308c.685-6.564-6.767-15.336-14.874-14.657-4.031.338-7.9.741-11.44,2.955a13.313,13.313,0,0,0-6.733,12.246q.08,5.823-.023,11.654c-.037,2.18-.338,2.434-2.434,1.992-10.719-2.262-21.384-4.814-31.407-9.336-6.747-3.042-13.263-6.6-19.886-9.922a4.821,4.821,0,0,1-2.707-3.6c-3.53-15.294-12.522-26.145-27-32.275a4.5,4.5,0,0,1-2.938-3.738,43.684,43.684,0,0,1,3.178-27.427c4.772-10.437,12.249-18.66,21.142-25.686,13.623-10.764,29.137-17.846,45.58-23.029a203.344,203.344,0,0,1,31.655-7.189c1.656-.239,2.279.172,2.648,1.648a21.88,21.88,0,0,0,3.44,7.417c4.9,6.9,12.64,7.744,18.908,2.048a27.667,27.667,0,0,0,6.11-8.936c1.228.11,1.087,1.161,1.476,1.783.783,1.256,1.389,2.637,2.254,3.828,5.13,7.074,13.305,8.034,19.95,2.38a21.555,21.555,0,0,0,6.192-8.513c.755-1.91,1.868-2.262,3.679-1.983,21.705,3.327,42.6,9.113,61.612,20.489,9.792,5.859,18.556,12.936,25.19,22.365,6.017,8.55,9.409,17.959,9.037,28.542a46.116,46.116,0,0,1-6.637,21.72c-4.831,8.333-11.409,15.105-18.911,21.027a95.763,95.763,0,0,1-16.376,10.575,3.25,3.25,0,0,0-2.045,3.454,65.836,65.836,0,0,0,1.69,13.919c1.392,6.119,2.955,12.2,4.431,18.3a3.055,3.055,0,0,1,.172,2.13,93.923,93.923,0,0,1-9.815.189,4.218,4.218,0,0,1-2.707-1.3,41.613,41.613,0,0,1-6.2-6.375,85.131,85.131,0,0,1-10.787-16.638c-1.1-2.251-1.116-2.282-3.64-1.49a217.21,217.21,0,0,1-25.57,6.226,7.886,7.886,0,0,1-3.395.155c-.668-1.059-.372-2.228-.363-3.347.028-4.113.11-8.226.175-12.342.113-7.322-4.482-13.471-11.6-14.88-10.612-2.1-18.3,3.088-20.945,13.229a12.932,12.932,0,0,0-.3,3.386m3.116,55.167h.642c0-18.626.073-37.256-.048-55.882-.034-4.907,2.293-8.293,6.012-10.857,6.079-4.2,15.252-1.735,18.562,4.795a11.775,11.775,0,0,1,.978,5.671q-.439,32.22-.831,64.446c-.2,15.883-.5,31.765-.532,47.651-.008,4.161-1.91,6.682-5.338,8.333a15.529,15.529,0,0,1-15.384-.637,7.74,7.74,0,0,1-4.119-7.293c.124-18.742.059-37.484.059-56.226m73.382,91.084q-34.244.008-68.491.022c-.913,0-1.828-.059-2.738.006-1.555.11-2.276-.442-2.265-2.121.054-7.643.023-15.285.023-23.066,1.411-.149,1.921.592,2.595.955a20.493,20.493,0,0,0,17.505,1.051,12.529,12.529,0,0,0,4.428-3.135c2.068-2.034,3.983-2.476,6.93-1.116,8.091,3.741,16.75,5.845,25.486,7.555a102.061,102.061,0,0,1,16.266,5.147c4.037,1.521,5.786,4.479,5.922,8.688.194,6.014.256,6.012-5.66,6.014m40.312.022c-9.485-.076-18.973-.014-28.461-.039-2.623-.006-2.6-.065-2.5-2.71.045-1.254.042-2.513-.02-3.764-.285-5.727-3.068-9.615-8.46-11.713a120.03,120.03,0,0,0-21.641-6.3,105.9,105.9,0,0,1-18.694-5.44c-.637-.248-1.287-.465-1.913-.738-3.778-1.64-3.772-1.645-3.707-5.831q.241-15.259.476-30.517c.056-3.738-.313-3.549,3.507-3.549q35.318,0,70.638,0v.113q35.149,0,70.294.008c3.888,0,3.907-.628,3.375,3.893a162.72,162.72,0,0,0-1.2,30.1c.2,2.98-.769,4.55-3.4,5.831-6.44,3.138-13.322,4.634-20.235,6.155-8.995,1.978-17.542,4.93-24.675,11.167a58.361,58.361,0,0,0-9.5,11.2,4.151,4.151,0,0,1-3.879,2.132m31.867-.022c-7.986-.087-15.973-.062-23.959-.093-.186,0-.369-.2-.938-.524a52.865,52.865,0,0,1,8.065-9.479c7.1-6.24,15.671-9.133,24.68-11.029,7.485-1.575,14.914-3.285,21.66-7.088.716-.4,1.445-.814,2.245-.363,3.718,2.1,7.846,2.862,12.02,3.64a148.255,148.255,0,0,0-20.179,5.237c-9.243,3.161-16.373,8.829-20.967,17.531-.589,1.116-.969,2.189-2.628,2.169m96.586-.1c-4.913.056-9.829.028-14.744.031l-72.348.039h-3.91a19.887,19.887,0,0,1,5.262-7.778,35.314,35.314,0,0,1,13.263-8.257,115.793,115.793,0,0,1,19.542-4.935A41.331,41.331,0,0,0,415,312.154c1.837-1.079,3.24-1.3,4.871.285,6.567,6.361,19.993,7.274,27.728,1.594a12.527,12.527,0,0,1,4.068-2.144c.763,1.949.507,3.916.772,5.786.868,6.107,1.679,12.22,2.487,18.336.29,2.189.169,2.378-2.045,2.4m201.724-.163q-25.713.047-51.428.048-69.427.059-138.856.127c-.572,0-1.144,0-1.716,0-3.628-.014-3.561-.025-4.141-3.671a276.273,276.273,0,0,1-3.333-28.92,212.3,212.3,0,0,1,.563-33.216c.048-.456.1-.91.169-1.363.454-3.107.456-3.135,3.558-3.133,8.457.014,16.914.076,25.37.079q36,.021,72,.006v.346q48.172,0,96.344.006c4.744,0,4.135-.378,4.169,4.271q.22,30,.4,60.006c.006.8.017,1.6.006,2.4-.051,2.961-.053,3.009-3.11,3.014m2.614-105.088c-23.528,4.764-46.259-11.336-49.186-35.081a40,40,0,0,1,2.6-20.525,22.437,22.437,0,0,1,3.031-5.341c.986-1.256,1.961-2.535,2.828-3.876,6.727-10.4,16.733-15.068,28.638-16.423,1.248-.141,2.507-.186,3.206-.234a41.171,41.171,0,0,1,8.88,81.481" transform="translate(-0.001 -0.001)" fill="#2c2c2c"/>
    <path id="Path_4662" data-name="Path 4662" d="M189.11,79.591c-.07.028-.093.034-.087.028" transform="translate(343.465 144.622)" fill="none" stroke="#000" stroke-linecap="round" stroke-linejoin="round" stroke-width="0"/>
    <path id="Path_4663" data-name="Path 4663" d="M80.479,8.6c4.843-2.3,9.995-2.127,15.114-1.69a10.838,10.838,0,0,1,8.834,5.1,7.243,7.243,0,0,0,.78,1.121,1.828,1.828,0,0,0,2.465.408c.958-.58.932-1.434.462-2.375A12.654,12.654,0,0,0,103.415,5.9,18.035,18.035,0,0,0,92.744,3.324a38.138,38.138,0,0,0-9.995.865,9.672,9.672,0,0,0-3.764,1.552,1.75,1.75,0,0,0-.592,2.411c.493.845,1.279.834,2.085.451" transform="translate(141.962 5.972)" fill="#2c2c2c"/>
    <path id="Path_4664" data-name="Path 4664" d="M65.842,15.925c.242-.239.425-.541.676-.769,5.834-5.319,12.26-9.082,20.593-7.829a10.229,10.229,0,0,0,1.02.09c1.147.062,2.476.254,2.7-1.313.239-1.7-1.1-1.941-2.38-2.259a28.361,28.361,0,0,0-4.454-.51c-7.967.569-14.5,4.13-20.066,9.713a5.452,5.452,0,0,0-.628.808c-.617.935-.941,1.893.172,2.685.986.7,1.7.039,2.372-.617" transform="translate(113.991 6.062)" fill="#2c2c2c"/>
    <path id="Path_4665" data-name="Path 4665" d="M163.308,13.006c.645-.465,1.206-1.039,1.806-1.563,3.234-2.828,6.857-4.324,11.282-3.758,2.958.377,5.871.747,8.567,2.118.887.451,1.882.569,2.44-.366a1.85,1.85,0,0,0-.87-2.623,11.338,11.338,0,0,0-2.161-1.006,41.082,41.082,0,0,0-10.406-1.972,18.99,18.99,0,0,0-12.15,5.609,5.012,5.012,0,0,0-.966,1.383,1.672,1.672,0,0,0,.549,2.135,1.519,1.519,0,0,0,1.91.042" transform="translate(291.952 6.97)" fill="#2c2c2c"/>
    <path id="Path_4666" data-name="Path 4666" d="M179.592,8.989a8.708,8.708,0,0,1,3.961-.952c1.011.138,2.037.208,3.034.425,4.527.983,8.744,2.558,11.64,6.485a1.586,1.586,0,0,0,2.372.476,1.812,1.812,0,0,0,.5-2.178,4.641,4.641,0,0,0-1.361-1.935c-4.7-4.651-10.533-6.595-16.984-6.865a7.78,7.78,0,0,0-4.555,1.245c-.963.625-1.527,1.465-.947,2.583a1.68,1.68,0,0,0,2.344.716" transform="translate(321.645 8.065)" fill="#2c2c2c"/>
    <path id="Path_4667" data-name="Path 4667" d="M106.436,96.675a87.087,87.087,0,0,0,13.851-8.1c8.488-5.913,16.136-12.668,21.753-21.505a35.932,35.932,0,0,0,5.133-14.956c-.194-1.4.327-3.195-1.718-3.259-1.854-.062-1.566,1.637-1.69,2.8-.809,7.575-4.4,13.818-9.291,19.424a93.145,93.145,0,0,1-29.633,22.2c-2.209,1.087-2.873,1.989-2.321,3.135.566,1.175,1.687,1.265,3.916.259" transform="translate(185.95 88.77)" fill="#2c2c2c"/>
    <path id="Path_4668" data-name="Path 4668" d="M109.072,62.6a1.655,1.655,0,0,0,1.087-1.907,1.511,1.511,0,0,0-1.392-1.293,8.789,8.789,0,0,0-1.7-.056,36.754,36.754,0,0,1-10.5-1.175C86.13,55.494,77.552,50.1,71.712,40.8a8.7,8.7,0,0,1-1.535-5.812,13.121,13.121,0,0,0-.206-3.735c-.183-1.028-.7-2.031-2.048-1.814-1.194.194-1.282,1.169-1.178,2.113.569,5.228-.4,9.984-4.113,13.956-.752.806-1.166,1.879-.228,2.73,1.079.98,2.164.392,2.944-.572,1.073-1.327,2.042-2.738,3.158-4.254,1,.392,1.262,1.211,1.744,1.825,9.1,11.618,21.111,17.35,35.782,17.688a7.173,7.173,0,0,0,3.04-.324" transform="translate(112.408 53.439)" fill="#2c2c2c"/>
    <path id="Path_4669" data-name="Path 4669" d="M100.705,69.753a1.681,1.681,0,0,0,1.651-1.783,1.654,1.654,0,0,0-1.406-1.978,1.832,1.832,0,0,0-1.918,1.9,1.945,1.945,0,0,0,1.673,1.862" transform="translate(179.939 119.883)" fill="#2c2c2c"/>
    <path id="Path_4670" data-name="Path 4670" d="M159.878,43.855A1.691,1.691,0,0,0,162.1,42.8c.389-.9.321-2.045,1.414-2.583,1.025.245,1.344,1.192,1.862,1.885,7.485,10.012,17.705,14.916,29.957,15.452,14.361.625,26.506-4.645,36.557-14.868.856-.87,1.425-2.082,2.766-2.518.479.642.927,1.3,1.434,1.913.608.724,1.332,1.406,2.333.778,1.141-.716.876-1.741.327-2.7A15.3,15.3,0,0,0,230.6,33.2a6.215,6.215,0,0,0-2.025-.259c-.848-.014-1.614.234-1.789,1.217a1.621,1.621,0,0,0,1.155,1.862c1.037.442,2.259.42,3.324,1.456a6.983,6.983,0,0,1-.561.98,26.737,26.737,0,0,1-1.806,2.059c-10.567,10.474-23.249,15.071-38.008,12.944a32.939,32.939,0,0,1-22.153-13c-2.116-2.78-2.09-2.82.392-5.282a1.627,1.627,0,0,0,.5-2.116c-.479-.868-1.3-.814-2.1-.617a3.328,3.328,0,0,0-.915.448,22.023,22.023,0,0,0-6.6,5.874,5.174,5.174,0,0,0-1.18,3.144c.02.854.146,1.659,1.048,1.949" transform="translate(288.604 58.726)" fill="#2c2c2c"/>
    <path id="Path_4671" data-name="Path 4671" d="M133.194,51.608a1.728,1.728,0,0,0-1.5-1.724,1.642,1.642,0,0,0-1.651,1.33,8.853,8.853,0,0,0-.079,3.057,36.654,36.654,0,0,0,5.279,14.336c8.9,13.325,21.4,22.258,35.487,29.264,2.138,1.068,3.5.834,3.831-.406.493-1.837-.969-2.369-2.189-2.933a91.349,91.349,0,0,1-24.244-16.48c-7.7-7.209-14.2-15.235-14.93-26.444" transform="translate(235.965 90.642)" fill="#2c2c2c"/>
    <path id="Path_4672" data-name="Path 4672" d="M149.562,70.67a1.631,1.631,0,0,0,1.662-1.592,1.614,1.614,0,0,0-1.718-1.966,1.517,1.517,0,0,0-1.62,1.716,1.669,1.669,0,0,0,1.676,1.842" transform="translate(268.718 121.947)" fill="#2c2c2c"/>
  </g>
</svg>
