<svg xmlns="http://www.w3.org/2000/svg" xmlns:xlink="http://www.w3.org/1999/xlink" width="223.102" height="223.47" viewBox="0 0 223.102 223.47">
  <defs>
    <clipPath id="clip-path">
      <rect id="Rectangle_2623" data-name="Rectangle 2623" width="162.954" height="163.96" fill="none"/>
    </clipPath>
  </defs>
  <g id="Group_6289" data-name="Group 6289" transform="translate(0 81.478) rotate(-30)">
    <g id="Group_6288" data-name="Group 6288" transform="translate(0 0)" clip-path="url(#clip-path)">
      <path id="Path_4971" data-name="Path 4971" d="M150.454,49.73l-6.424,10.94a6.206,6.206,0,0,0,2.035,8.389l10.719,6.784a6.207,6.207,0,0,1-.039,10.516l-10.773,6.7a6.206,6.206,0,0,0-2.1,8.374l6.341,10.987a6.208,6.208,0,0,1-4.924,9.294l-12.652.929a6.207,6.207,0,0,0-5.75,6.439l.509,12.675a6.207,6.207,0,0,1-8.678,5.941l-11.635-5.057A6.206,6.206,0,0,0,99,145.673l-5.442,11.46a6.206,6.206,0,0,1-10.443,1.228l-7.952-9.887A6.206,6.206,0,0,0,66.6,147.4l-10.146,7.618a6.207,6.207,0,0,1-9.818-3.766l-2.446-12.449a6.207,6.207,0,0,0-7.086-4.931l-12.523,2.031a6.205,6.205,0,0,1-6.942-7.9l3.619-12.16a6.209,6.209,0,0,0-3.983-7.659L5.243,104.17A6.208,6.208,0,0,1,2.765,93.949l8.855-9.084a6.21,6.21,0,0,0,.034-8.633L2.868,67.081a6.207,6.207,0,0,1,2.555-10.2L17.486,52.95a6.208,6.208,0,0,0,4.04-7.629L18,33.136a6.208,6.208,0,0,1,7-7.845l12.506,2.127a6.21,6.21,0,0,0,7.124-4.877l2.54-12.429A6.208,6.208,0,0,1,57.023,6.42l10.086,7.7a6.207,6.207,0,0,0,8.573-1.008l8.025-9.825A6.206,6.206,0,0,1,94.142,4.59l5.354,11.5a6.211,6.211,0,0,0,8.061,3.092l11.672-4.971a6.209,6.209,0,0,1,8.633,6.007l-.606,12.673a6.207,6.207,0,0,0,5.7,6.482L145.6,40.4a6.208,6.208,0,0,1,4.851,9.33" transform="translate(1.14 1.142)" fill="#f0dcf8"/>
      <path id="Path_4972" data-name="Path 4972" d="M89.078,163.959a8.3,8.3,0,0,1-6.489-3.116l-7.948-9.887a4.051,4.051,0,0,0-5.615-.7l-10.144,7.618a8.347,8.347,0,0,1-13.2-5.068l-2.446-12.444a4.049,4.049,0,0,0-4.642-3.234l-12.523,2.033a8.348,8.348,0,0,1-9.337-10.623l3.619-12.157a4.054,4.054,0,0,0-2.611-5.02L5.7,107.339A8.347,8.347,0,0,1,2.375,93.6l8.855-9.084a4.057,4.057,0,0,0,.019-5.658L2.464,69.7A8.348,8.348,0,0,1,5.9,55.985l12.065-3.929a4.047,4.047,0,0,0,2.645-5L17.085,34.871A8.35,8.35,0,0,1,26.5,24.319l12.508,2.129a4.05,4.05,0,0,0,4.667-3.2l2.54-12.431A8.346,8.346,0,0,1,59.462,5.859l10.086,7.7a4.051,4.051,0,0,0,5.618-.661L83.19,3.066A8.348,8.348,0,0,1,97.222,4.827l5.354,11.5a4.053,4.053,0,0,0,5.282,2.024l11.674-4.969a8.346,8.346,0,0,1,11.607,8.076l-.6,12.673a4.049,4.049,0,0,0,3.732,4.246l12.648,1.025a8.35,8.35,0,0,1,6.525,12.547v0l-6.424,10.938a4.056,4.056,0,0,0,1.333,5.5l10.719,6.782a8.349,8.349,0,0,1-.054,14.143l-10.773,6.7a4.05,4.05,0,0,0-1.374,5.485l6.341,10.989a8.346,8.346,0,0,1-6.619,12.5l-12.654.929a4.05,4.05,0,0,0-3.766,4.218l.507,12.677A8.348,8.348,0,0,1,119.01,150.8l-11.637-5.061a4.046,4.046,0,0,0-5.294,1.986l-5.442,11.46a8.31,8.31,0,0,1-6.568,4.712,8.6,8.6,0,0,1-.991.058m-17.6-18.813a8.322,8.322,0,0,1,6.5,3.127l7.95,9.887a4.069,4.069,0,0,0,6.844-.8l5.442-11.46a8.311,8.311,0,0,1,10.867-4.077l11.637,5.061a4.068,4.068,0,0,0,5.686-3.895l-.507-12.677a8.31,8.31,0,0,1,7.73-8.656l12.652-.929a4.072,4.072,0,0,0,3.227-6.093l-6.341-10.987a8.314,8.314,0,0,1,2.818-11.259l10.775-6.7a4.069,4.069,0,0,0,.024-6.893l-10.717-6.782a8.312,8.312,0,0,1-2.737-11.28l6.424-10.942a4.067,4.067,0,0,0-3.18-6.112l-12.645-1.025a8.31,8.31,0,0,1-7.663-8.718l.6-12.673a4.066,4.066,0,0,0-5.656-3.933l-11.674,4.969A8.308,8.308,0,0,1,98.7,18.134l-5.354-11.5A4.07,4.07,0,0,0,86.5,5.775L78.478,15.6a8.312,8.312,0,0,1-11.526,1.355l-10.086-7.7a4.068,4.068,0,0,0-6.454,2.418l-2.54,12.429a8.291,8.291,0,0,1-9.579,6.557L25.784,28.541A4.063,4.063,0,0,0,21.2,33.679l3.525,12.187a8.314,8.314,0,0,1-5.434,10.259L7.226,60.055A4.067,4.067,0,0,0,5.55,66.738l8.789,9.153A8.318,8.318,0,0,1,14.295,87.5L5.439,96.585a4.065,4.065,0,0,0,1.622,6.7L19.095,107.3a8.314,8.314,0,0,1,5.354,10.3L20.83,129.76a4.073,4.073,0,0,0,4.552,5.177L37.9,132.9a8.334,8.334,0,0,1,9.53,6.634l2.446,12.444a4.065,4.065,0,0,0,6.433,2.472l10.144-7.621a8.34,8.34,0,0,1,5.02-1.684" transform="translate(0.001 0.002)" fill="#2c2c2c"/>
      <path id="Path_4973" data-name="Path 4973" d="M36.307,35.976H28.132l-1.156,1.115V57.04H23.293V37.091l-1.115-1.115H13.961V32.638H36.307Z" transform="translate(15.915 37.208)" fill="#2b2b2b"/>
      <path id="Path_4974" data-name="Path 4974" d="M37.912,37.089v15.5L39.027,53.7h5.864v3.338H27.381V53.7H33.2l1.156-1.115v-15.5L33.2,35.934H27.381v-3.3h17.51v3.3H39.027Z" transform="translate(31.215 37.209)" fill="#2b2b2b"/>
      <path id="Path_4975" data-name="Path 4975" d="M49.374,47.321H43.3v9.718H39.7v-24.4h9.675c6.294,0,9.761,2.611,9.761,7.362s-3.467,7.321-9.761,7.321M43.3,37.089v6.893h5.992c4.066,0,6.123-1.37,6.123-3.983,0-2.7-2.057-4.066-6.123-4.066H44.452Z" transform="translate(45.258 37.209)" fill="#2b2b2b"/>
      <path id="Path_4976" data-name="Path 4976" d="M68.454,50.638c0-1.755-1.027-2.87-3.381-3.426l-5.994-1.455c-4.8-1.156-6.765-3.082-6.765-6.379a6.112,6.112,0,0,1,2.568-5.05A10.808,10.808,0,0,1,61.6,32.358a15.405,15.405,0,0,1,10.06,3.724l-2.271,2.827a12,12,0,0,0-8.046-3.21c-3.381,0-5.436,1.282-5.436,3.467,0,1.539.942,2.437,3.895,3.124L65.8,43.831c4.109,1.027,6.251,3.253,6.251,6.551a6.6,6.6,0,0,1-2.744,5.478,11.241,11.241,0,0,1-7.06,2.1c-4.5,0-8.778-1.457-11.389-3.9L53,50.98a13.747,13.747,0,0,0,9.249,3.6c3.724,0,6.206-1.541,6.206-3.938" transform="translate(57.98 36.89)" fill="#2b2b2b"/>
    </g>
  </g>
</svg>
