<svg id="Group_6327" data-name="Group 6327" xmlns="http://www.w3.org/2000/svg" xmlns:xlink="http://www.w3.org/1999/xlink" width="511.1" height="470.172" viewBox="0 0 511.1 470.172">
  <defs>
    <clipPath id="clip-path">
      <rect id="Rectangle_2642" data-name="Rectangle 2642" width="511.099" height="470.172" fill="none"/>
    </clipPath>
  </defs>
  <g id="Group_6326" data-name="Group 6326" clip-path="url(#clip-path)">
    <path id="Path_5064" data-name="Path 5064" d="M95.824,194.417c0,8.648,58.7,15.658,131.109,15.658s131.111-7.011,131.111-15.658-58.7-15.658-131.111-15.658S95.824,185.77,95.824,194.417" transform="translate(137.271 256.078)" fill="#2c2c2c"/>
    <path id="Path_5065" data-name="Path 5065" d="M264.038,196.069c0,8.648-58.7,15.658-131.109,15.658S1.818,204.717,1.818,196.069s58.7-15.658,131.111-15.658,131.109,7.011,131.109,15.658" transform="translate(2.604 258.445)" fill="#2c2c2c"/>
    <path id="Path_5066" data-name="Path 5066" d="M52.165,76.524c3.86,5.4,9.246,6.123,14,1.523,5.695-5.51,7.624-12.637,8.168-20.377-7.58.839-10.839-2.206-9.446-10.737-2.26-.119-12.985,1.817-14.615,2.5-1.241.521-1.3,1.6-1.542,2.61a38.143,38.143,0,0,0-.615,13.16,23.53,23.53,0,0,0,4.05,11.326" transform="translate(68.505 67.224)" fill="#fff"/>
    <path id="Path_5067" data-name="Path 5067" d="M31.126,165.763a39.8,39.8,0,0,1-1.45-7.358c-.2-1.479-.764-1.686-2.116-1.46-6.349,1.061-12.705,2.075-19.078,2.963-1.61.224-1.91.963-1.871,2.347.112,3.936.1,7.879.224,11.815.139,4.651.316,9.3.564,13.946a12.967,12.967,0,0,0,2.233,7.071c6.419,8.932,15.084,14.78,25.349,18.385,6.607,2.318,13.5,2.839,20.428,2.912,7.157.073,14.315-.019,21.474-.037,1.63,0,3.26,0,5.235,0a14.388,14.388,0,0,0-5.726-8.5c-7.684-5.4-16.524-8.035-25.456-10.027Q42.92,196.028,35,193.931a23.111,23.111,0,0,1-6.2-2.729c-.893-.55-1.649-1.209-1.138-2.284a1.9,1.9,0,0,1,2.715-.9c1.172.47,2.109,1.564,3.814,1.406A26.612,26.612,0,0,1,39.715,175c-4.768-1.314-7.079-4.726-8.589-9.239" transform="translate(9.466 224.717)" fill="#fff"/>
    <path id="Path_5068" data-name="Path 5068" d="M70.3,218.277c-10.363.192-20.757.567-30.854-2.537a55.881,55.881,0,0,1-27.755-18.653A18.447,18.447,0,0,1,7.576,186.25c-.216-3.576-.426-7.142-.4-10.725.041-5.013.012-10.027-.015-15.04-.007-1.027.231-2.257-1.464-2.274-1.532-.015-1.713.966-1.713,2.136,0,.477.012.956-.015,1.43a226.166,226.166,0,0,0,.178,22.9c.508,10.779-.861,7.709,5.673,15.87,10.251,12.8,23.914,19.307,40.254,20.19,3.573.195,7.183-.053,10.732.314,8.361.861,16.69-.151,25.033-.126a3.553,3.553,0,0,0,.358-.017c.611-.063,1.2-.185,1.258-.951.068-.793-.168-1.423-1.068-1.54a13.6,13.6,0,0,0-1.776-.134q-7.159-.018-14.318-.007" transform="translate(5.375 226.641)" fill="#fff"/>
    <path id="Path_5069" data-name="Path 5069" d="M60.876,62.148a22.737,22.737,0,0,0,4.118,14.2c3.936,5.527,10.017,6.244,15.208,1.88a20.467,20.467,0,0,0,5.461-7.453,27.926,27.926,0,0,0,2.87-12.759c-5.665,1.226-8.888-1.267-9.12-6.906a41.065,41.065,0,0,1,.324-4.612,132.181,132.181,0,0,0-19.9-.024c1.374,5.412,1.19,10.538,1.039,15.678" transform="translate(85.718 66.047)" fill="#fff"/>
    <path id="Path_5070" data-name="Path 5070" d="M141.363,131.777q8.721-19.437-.241-38.818a60.462,60.462,0,0,0-11.71-16.624,88.965,88.965,0,0,0-10.229-8.978,80.479,80.479,0,0,0-15.14,15.065C98.11,90.239,94.259,98.913,93.308,108.8a46.1,46.1,0,0,0,4.252,23.812C102.136,142.7,109.251,150.8,117.6,157.9c.426.36.873.691,1.3,1.044,1.148-.912,2.3-1.824,3.41-2.785,7.947-6.872,14.7-14.7,19.047-24.384" transform="translate(133.377 96.49)" fill="#a18cff"/>
    <path id="Path_5071" data-name="Path 5071" d="M148,73.033c2.041,4.646,1.579,6.685-2.311,10.246,2.909,3.97,7.354,4.763,11.314,1.995a12.85,12.85,0,0,0,4.619-6c4.2-10.864,3.065-21.214-3.267-30.978a13.6,13.6,0,0,0-4.157-4.053c-4.065-2.591-8.246-2.07-11.5,1.494-3.075,3.371-4.4,7.543-5,11.934a37.558,37.558,0,0,0,.083,9.733c6.222-.542,7.942.438,10.219,5.626" transform="translate(196.859 61.06)" fill="#fff"/>
    <path id="Path_5072" data-name="Path 5072" d="M160.913,71.215c2.746,4.493,1.637,8.181-3.08,10.878,4.634,5.85,11.092,5.716,15.383-.348a22.706,22.706,0,0,0,3.673-10.2A33.592,33.592,0,0,0,173.2,50.348a16.8,16.8,0,0,0-6.035-6.7c-3.892-2.33-7.794-1.9-10.937,1.36-3.549,3.685-4.9,8.334-5.405,13.262a36.443,36.443,0,0,0,.134,8.02c4.554-.547,7.765,1.335,9.959,4.928" transform="translate(215.823 60.415)" fill="#fff"/>
    <path id="Path_5073" data-name="Path 5073" d="M123.973,167.925a10.111,10.111,0,0,0-5.943,2.087c2.442.27,4.2.489,5.965.647,1.163.1,1.345-.757,1.384-1.622.046-.968-.615-1.141-1.406-1.112" transform="translate(169.082 240.553)" fill="#fff"/>
    <path id="Path_5074" data-name="Path 5074" d="M129.573,171.54a56.7,56.7,0,0,0-10.8-1.489c-2.177-.131-3.795,1.374-5.147,3.491,3.982.443,7.616.825,11.246,1.263,3.075.37,3.072.4,4.7-3.265" transform="translate(162.769 243.593)" fill="#fff"/>
    <path id="Path_5075" data-name="Path 5075" d="M112.783,176.03c-2.678-.3-3.048.236-3.571,3.311,3.32.3,6.648.53,9.959.915a5.133,5.133,0,0,0,5.429-2.727c-3.963-1.17-7.932-1.058-11.817-1.5" transform="translate(156.45 252.062)" fill="#fff"/>
    <path id="Path_5076" data-name="Path 5076" d="M128.55,174.636c-4.25-.564-8.139-1.082-12.031-1.6-3.617-.479-4.155-.119-5.42,3.629,3.839.99,7.847.564,11.7,1.35,2.831.577,4.544-.472,5.755-3.381" transform="translate(159.153 247.642)" fill="#fff"/>
    <path id="Path_5077" data-name="Path 5077" d="M152.927,174.005a1.973,1.973,0,0,0-1.9.058c-.448,3.014-.112,6.162-.114,9.292,0,3.773.2,7.548.195,11.321,0,1.781.484,2.8,2.481,2.564a17.758,17.758,0,0,1,2.189-.01l88.748.027a6.289,6.289,0,0,0,1.092-.01c1.241-.221,3.084.722,3.6-.8a5.445,5.445,0,0,0-.759-5.541,21.762,21.762,0,0,0-8.178-5.989,151.294,151.294,0,0,0-18.619-6.286c-10.333-2.673-20.8-5.052-30.341-10.129-.535-.285-1.1-.516-1.661-.747-5.228-2.16-6.772-1.81-10.457,2.437-3.133,3.61-7.495,4.325-11.839,4.887a32.275,32.275,0,0,1-14.432-1.078" transform="translate(216.015 238.457)" fill="#fff"/>
    <path id="Path_5078" data-name="Path 5078" d="M242.817,180.81q-43.858-.062-87.712-.095-1.277,0-2.559.032c-1.014.027-1.562.491-1.515,1.576.039.956.637,1.226,1.44,1.258.73.029,1.462.024,2.192.022q43.855-.117,87.712-.241c.851,0,1.705,0,2.554-.058,1.185-.083,1.657-.842,1.737-2.1a8.743,8.743,0,0,0-3.848-.389" transform="translate(216.352 258.88)" fill="#fff"/>
    <path id="Path_5079" data-name="Path 5079" d="M328.4,87.149c-14.89-11.409-31.757-18.85-49.585-24.267A206.566,206.566,0,0,0,249.3,56.249c-3.218-.482-3.26-.394-4.284,2.622a21.531,21.531,0,0,1-5.206,8.7c-4.619,4.522-10.579,5.116-16.018,1.63-3.668-2.352-6.745-6.346-9.438-12.258-1.134.241-.917,1.27-1.16,2.014a25.513,25.513,0,0,1-4.337,8.387c-4.79,5.879-12.116,6.831-18.188,2.294-3.931-2.936-6.4-6.947-8.188-11.44-1.185-2.973-1.219-3.038-4.177-2.6-20.827,3.118-40.971,8.5-59.687,18.414a120,120,0,0,0-13.5,8.266,96.815,96.815,0,0,1,11.229,9.767c6.655,7.152,12,15.5,14.549,25.009,3.264,12.18,1.759,23.929-3.783,35.179-5.228,10.613-13.038,19.027-22.124,26.322a104.925,104.925,0,0,0,15.575,9.891,3.968,3.968,0,0,1,2.493,4.267c-.277,7.845-1.946,15.447-3.8,23.021-.871,3.549-1.73,7.1-2.666,10.63a36.985,36.985,0,0,1-4.337,9.268,29.457,29.457,0,0,0,12.97-4.551,52.3,52.3,0,0,0,13.053-12.666,80.177,80.177,0,0,0,9.553-15.524c.771-1.773,1.764-2.068,3.413-1.525a201.13,201.13,0,0,0,31.56,7.439,227.915,227.915,0,0,0,23.941,2.581,247.734,247.734,0,0,0,29.962-.053c21.353-1.477,42.217-5.332,62.18-13.323a36.257,36.257,0,0,1,3.632-1.7c4.216-1.163,5.39-4.32,6.05-8.181a33.228,33.228,0,0,0-.577-11.968,73.667,73.667,0,0,0-15.534-33.053c-.307-.379-.623-.749-.932-1.129-3.427-4.216-3.291-7.842.591-11.747,3.459-3.479,7.9-4.68,12.618-4.933a5.074,5.074,0,0,1,4.522,1.958c4.067,5.463,8.645,10.518,12.292,16.322,6.1,9.713,10.647,19.959,12.08,31.436a12.524,12.524,0,0,0,.27,1.435,3.353,3.353,0,0,0,.321.649c.233-.039.533,0,.684-.126,9.713-8.378,17.137-18.278,20.375-30.92,2.744-10.723,1.352-21.044-3.265-30.981-5.318-11.448-13.717-20.351-23.6-27.928m-72.361,6.188a1.889,1.889,0,0,1-2.355-.236c-.837-.662-.951-1.987-2.08-2.326-.182.041-.341.027-.413.1-.513.516-1.012,1.044-1.511,1.574-9.4,10-20.82,15.875-34.627,16.617-15.378.829-28.164-4.272-37.524-16.9-.472-.637-.764-1.6-2.031-1.355a8.276,8.276,0,0,0-.747,1.537c-.372,1.391-.847,2.671-2.63,2.311-1.138-.231-1.533-2.107-.915-3.836a3.719,3.719,0,0,1,.341-.645,21.722,21.722,0,0,1,8.212-7.585c.91-.516,1.944-.664,2.608.324.8,1.192.119,2.048-.927,2.7-.309.192-.594.428-.912.6-1.08.586-1.219,1.284-.564,2.364a29.766,29.766,0,0,0,3.454,4.695,36.026,36.026,0,0,0,24.34,11.893c15.089,1.26,27.952-3.87,38.468-14.79.723-.749,1.657-1.416,1.82-2.583-.71-1.061-1.875-1.148-2.885-1.45-1.211-.36-2.094-.941-1.693-2.291.382-1.294,1.557-1.5,2.69-1.211a15.767,15.767,0,0,1,10.214,8.2,1.626,1.626,0,0,1-.333,2.3" transform="translate(150.397 79.365)" fill="#fff"/>
    <path id="Path_5080" data-name="Path 5080" d="M120.173,179.99c-2.9-1.092-5.442-.754-7.886-1.109-2.861-.414-4.315,1.039-5.646,3.753a57.056,57.056,0,0,1,6.994.058c2.676.343,4.481-.844,6.539-2.7" transform="translate(152.767 256.153)" fill="#fff"/>
    <path id="Path_5081" data-name="Path 5081" d="M83.349,212.691c10.8-1.024,21.625-1.919,32.387-3.286,11.7-1.486,21.234-6.852,27.714-17.035.893-1.406,2-2.678,2.987-4.028,7.614-10.377,17.286-17.9,30.049-21.467a10.582,10.582,0,0,0-4.848-3.191c-6.03-2.243-11.749-1.153-17.217,1.824a68.53,68.53,0,0,0-20.387,17.252,50.231,50.231,0,0,1-11.5,10.153c-3.048,2.017-6.551,2.831-10.029,3.658-1.1.263-2.255,0-2.561-1.316-.316-1.367.606-1.871,1.788-2.153a28.738,28.738,0,0,0,6.551-2.233c-1.975-.606-3.174-1.009-4.4-1.338a14.058,14.058,0,0,1-9.39-7.139c-1.158-2.214-3.05-3.984-3.953-6.366a1.612,1.612,0,0,0-1.644-1.1c-7.772-.253-14.678,1.525-19.618,8.13a4.794,4.794,0,0,0-1.1,3.272c.353,8,1.087,15.967,2.043,23.912.309,2.578.421,2.7,3.126,2.45" transform="translate(111.988 232.769)" fill="#fff"/>
    <path id="Path_5082" data-name="Path 5082" d="M148.134,191.246c3.226-4.731,6.074-9.764,10.363-13.654a44.514,44.514,0,0,1,18.453-9.835c.693-.19,1.528-.2,1.367-1.221-.156-.983-.939-.937-1.659-.764a38.386,38.386,0,0,0-4.831,1.262,51.074,51.074,0,0,0-19.263,13.3c-4.235,4.573-7.568,9.84-11.486,14.654a35.746,35.746,0,0,1-8.314,7.264c-6.794,4.466-14.44,6.108-22.3,7.018-7.585.878-15.194,1.508-22.79,2.274-2.659.268-5.308.611-8.244.951,1.248,1.715,2.754,1.262,4.082,1.17,10.114-.708,20.246-1.292,30.336-2.272,5.551-.54,11.153-1.287,16.33-3.649,7.767-3.544,13.262-9.616,17.957-16.5" transform="translate(113.786 237.335)" fill="#fff"/>
    <path id="Path_5083" data-name="Path 5083" d="M103.823,184.767a28.547,28.547,0,0,0,8.458-2.741c-6.106-.362-6.106-.362-8.458,2.741" transform="translate(148.73 260.527)" fill="#fff"/>
    <path id="Path_5084" data-name="Path 5084" d="M186.989,203.4a155.086,155.086,0,0,0,15.855-4.349c1.817-.623,2.895-.333,3.6,1.588a27.317,27.317,0,0,0,2.274,4.461c5.155,8.679,10.852,16.911,19.373,22.713a26.791,26.791,0,0,0,13.223,4.67c-3.226-4.675-4.6-9.475-5.712-14.367-.375-1.63-.778-3.252-1.172-4.875-1.778-7.315-3.4-14.639-3.761-22.211-.119-2.532.64-3.814,2.9-4.982a99.033,99.033,0,0,0,13.136-8.21c-8.519-7.091-15.831-15.235-20.869-25.34a56.279,56.279,0,0,1-3.88-10.007,50.671,50.671,0,0,1,.822-29.735,46.77,46.77,0,0,1,3.031-6.568,80.872,80.872,0,0,1,7.48-11.649,76.076,76.076,0,0,1,10.268-10.3q1.678-1.456,3.415-2.841a125.542,125.542,0,0,0-19.56-10.99c-16.188-7.39-33.27-11.669-50.8-14.315-2.717-.411-2.766-.37-4.036,2.262a25.31,25.31,0,0,1-7.191,9.256c-6.354,4.945-13.882,4.2-19.161-1.858a21.738,21.738,0,0,1-3.106-4.8c-.416-.851-.805-1.717-1.224-2.615-1.031.727-1.253,1.844-1.747,2.771a25.48,25.48,0,0,1-5.142,6.848c-6.388,5.918-14.308,5.2-19.565-1.764a23.4,23.4,0,0,1-3.839-8.037c-.418-1.54-.919-2.034-2.7-1.776a212.021,212.021,0,0,0-31.059,6.874c-17.485,5.3-34.014,12.62-48.6,23.827-9.689,7.441-17.928,16.179-23.1,27.417C-.282,128.45.173,142.284,7.266,155.884a64.382,64.382,0,0,0,14.44,18.127c.555.5.968,1.416,2.143,1.051.109-.533.263-1.1.336-1.688,1.423-11.37,5.887-21.535,11.949-31.161,3.583-5.69,8.093-10.628,12.078-15.987a5.115,5.115,0,0,1,4.838-1.822c4.072.416,7.993,1.382,11.2,4.2a12.982,12.982,0,0,1,3.9,7.105c.525,2.3-1.674,3.517-2.756,5.167a10.025,10.025,0,0,1-.679.832,72.618,72.618,0,0,0-15.4,32.72,32.087,32.087,0,0,0-.392,12.45c.645,3.26,1.832,5.84,5.3,6.925,1.693.53,3.245,1.5,4.9,2.167,19.01,7.638,38.911,11.3,59.23,12.715a235.693,235.693,0,0,0,37.566-.428,234.748,234.748,0,0,0,31.08-4.863M150,111.9c-15.5-.012-28.21-5.926-37.972-18.035-.523-.647-.983-1.348-1.479-2.019a5.183,5.183,0,0,0-.569-.479c-1.1,1.523-2.063,2.873-3.053,4.2A3.08,3.08,0,0,1,104.971,97a1.639,1.639,0,0,1-1.944-2.153,4.6,4.6,0,0,1,.946-1.5c3.646-3.984,4.675-8.711,3.987-13.921-.156-1.168-.095-2.245,1.27-2.523s1.873.705,2.138,1.846a9.182,9.182,0,0,1,.263,3.9A7.818,7.818,0,0,0,113,88.408c5.425,9.042,13.554,14.554,23.372,17.777a40.473,40.473,0,0,0,13.724,1.985c1.44-.036,3.031-.3,3.391,1.644.243,1.311-.966,2.087-3.479,2.085" transform="translate(2.318 80.079)" fill="#fff"/>
    <path id="Path_5085" data-name="Path 5085" d="M181.615,175.219a39.315,39.315,0,0,1-6.775-1.357,12.369,12.369,0,0,1-6.308-4.1c-2.977-3.583-4.938-4.089-9.285-2.333-3.714,1.5-7.3,3.308-11,4.85a115.982,115.982,0,0,1-16.816,5.057c-2.807,6.454-7.247,11.805-12.389,16.663-1.216,1.148-2.469,2.226-3.736,3.264q39.166,0,78.332-.024c3.34,0,3.376-.039,3.415-3.435q.1-8.768.109-17.534a3.175,3.175,0,0,0-.569-2.593,36.523,36.523,0,0,1-14.975,1.542" transform="translate(165.174 238.443)" fill="#fff"/>
    <path id="Path_5086" data-name="Path 5086" d="M201.188,180.8c-.846-.083-1.7-.085-2.554-.085q-41.56.036-83.12.088c-1.343.9-2.71,1.766-4.106,2.561q43.61.12,87.221.238c.854,0,1.708.007,2.554-.061a1.117,1.117,0,0,0,1.136-1.165c.012-.786-.209-1.486-1.131-1.576" transform="translate(159.596 258.88)" fill="#fff"/>
    <path id="Path_5087" data-name="Path 5087" d="M481.928,105.873c-15.3-11.912-32.664-19.679-51.078-25.315a225.5,225.5,0,0,0-30.575-6.933c-3.223-.516-3.143-.613-3.145-3.78a37.916,37.916,0,0,0-4.914-19.616,21.043,21.043,0,0,0-7.507-7.83c-5.111-2.973-10.411-2.406-14.838,1.508a21.739,21.739,0,0,0-5.877,9.531c-.35,1-.282,2.192-1.365,3.094-.506-1.082-.937-2.065-1.413-3.026a26.845,26.845,0,0,0-4.743-6.9c-7.339-7.512-16.967-6.383-22.3,2.7-3.452,5.884-4.347,12.362-3.812,19.052.35,4.383.44,4.252-4.048,4.948-24.269,3.763-47.473,10.6-68.41,23.917-1.948,1.238-3.839,2.566-5.69,3.948-2.934-2.158-5.933-4.223-9.054-6.093a134.923,134.923,0,0,0-25.14-11.494,197.164,197.164,0,0,0-31.2-8.081q-3.167-.547-6.349-1.007c-3.2-.46-3.247-.45-2.746-3.5a36.241,36.241,0,0,0-.068-12.476c-.144-.791-.486-1.618.139-2.389a16.437,16.437,0,0,0,2.1.372,1.694,1.694,0,0,0,1.844-1.37,1.8,1.8,0,0,0-1.121-2.326,7.227,7.227,0,0,0-1.71-.487A177.467,177.467,0,0,0,157.9,50.253a143.348,143.348,0,0,0-35.525,3.693,65.754,65.754,0,0,0-15.539,5.281c-1.114.564-2.318,1.17-1.72,2.642.628,1.537,1.856.988,3.036.545,1.542-.581,2.912-1.666,5.082-1.693-.338,3.809-.971,7.346-.647,10.922.19,2.063.207,2.651-2.639,3.065A208.62,208.62,0,0,0,78.556,81.7c-18.04,5.561-35.07,13.167-50.057,24.863-9.82,7.667-18.154,16.634-23.479,28.049C-.8,147.082-1.7,159.875,3.05,172.908,7.088,183.986,14.2,192.879,23.1,200.384a7.879,7.879,0,0,1,3.182,6.595,42.491,42.491,0,0,0,7.429,23.936c5.8,8.417,13.632,14.663,21.813,20.516a16.765,16.765,0,0,1,4.663,4.361c4.2,6.57,9.416,12.036,16.51,15.493,1.756.854,1.856,1.914,1.318,3.741-2.591,8.833-7.037,16.721-12.2,24.213-5.96,8.655-14.07,14.868-23.391,19.565a7.906,7.906,0,0,1-2.357.822c-4.13.608-8.283,1.073-12.408,1.71-6.018.932-12.092,1.316-18.135,2-3.075.348-3.59,1.007-3.71,4.14-.411,10.985-.832,21.966.146,32.951a11.142,11.142,0,0,0,1.725,5.354,59.853,59.853,0,0,0,21.45,20.175,54.4,54.4,0,0,0,21.3,6.916c14.3,1.238,28.655.881,42.993.637a10.575,10.575,0,0,0,1.075-.032c2.092-.253,2.724-.985,2.445-3.058-.289-2.126-.623-4.255-1.07-6.354-1.25-5.853-4.1-10.569-9.385-13.768a68.34,68.34,0,0,0-14.941-6.772c-7.062-2.228-14.274-3.773-21.484-5.359-2.634-.581-2.668-.613-2.411-3.267a21.137,21.137,0,0,1,4.556-11.119,9.982,9.982,0,0,1,3.267-3.243,139.025,139.025,0,0,0,17.777-10.693,43.425,43.425,0,0,0,8.322-7.319,125.093,125.093,0,0,0,23.459-40.743c1.574-4.517,2.883-9.107,4.028-13.739.521-2.107,1.294-3.549,3.539-4.379a8.677,8.677,0,0,0,5.369-5.889,9.171,9.171,0,0,1,2.063-3.639c2.525-2.878,1.708-6.29-1.771-7.911a10.127,10.127,0,0,0-4.515-.99c-1.2.027-1.661-.486-1.669-1.71-.012-2.508-.119-5.016-.275-7.519-.092-1.489.187-2.082,1.961-1.941,6.069.477,12.143,1.241,18.237.983,2.739-.117,3.885.9,4.9,3.381Q160.46,296.325,184.26,354.12a29.72,29.72,0,0,1,2.459,10.7c.253,9.195,1.374,18.334,2.209,27.49a4.079,4.079,0,0,0,1.669,3,8.656,8.656,0,0,0,6.741,1.713,163.029,163.029,0,0,1,18.208-1.306,182.032,182.032,0,0,0,30.246-2.788,77.566,77.566,0,0,0,19.112-5.663,2.863,2.863,0,0,0,1.856.759c1.1.034,2.194.058,3.291.066,62.9.487,125.806.409,188.711.143,4.967-.019,7.268-2.209,9.047-6.05,1.372-2.96,1.484-6.145,1.377-9.312-.07-2.063-1.357-3.6-2.812-4.96a38.309,38.309,0,0,0-11.336-7.2c-8.212-3.508-16.85-5.6-25.425-7.838a103.2,103.2,0,0,1-18.541-6.524c-.878-.421-1.781-.791-2.654-1.216-4.593-2.231-9.193-3.153-14.3.423-.355-27.188-.705-53.83-1.061-80.877,2.98,1.632,5.926,2.367,7.723,5.378,1.557,2.6,4.471,3.644,7.434,4.2.815.151,1.72-.015,2.3.825,3.464,4.984,8.368,4.04,13.231,3.172a10.124,10.124,0,0,0,2.43-.766c8.981-4.113,17.161-9.236,22.53-17.911a21.368,21.368,0,0,1,6.135-6.128c7.271-5.145,14.177-10.752,19.779-17.787a44.465,44.465,0,0,0,9.694-28.13,6.069,6.069,0,0,1,2.464-5.237A70.144,70.144,0,0,0,504.213,181.8c8.908-16.154,9.139-32.523.89-48.986-5.466-10.905-13.649-19.528-23.175-26.945M366.643,60.649c.5-4.931,1.856-9.579,5.405-13.265,3.143-3.262,7.045-3.69,10.937-1.36a16.779,16.779,0,0,1,6.033,6.7,33.577,33.577,0,0,1,3.695,21.195,22.68,22.68,0,0,1-3.676,10.2c-4.289,6.062-10.747,6.2-15.381.348,4.717-2.7,5.826-6.388,3.08-10.881-2.2-3.593-5.405-5.476-9.959-4.928a36.419,36.419,0,0,1-.134-8.018m-32.088.054c.6-4.393,1.927-8.565,5-11.936,3.252-3.564,7.431-4.084,11.5-1.494a13.607,13.607,0,0,1,4.16,4.053c6.332,9.764,7.47,20.115,3.264,30.978a12.849,12.849,0,0,1-4.617,6c-3.96,2.768-8.4,1.975-11.316-1.995,3.892-3.561,4.352-5.6,2.313-10.246-2.277-5.189-4-6.169-10.219-5.626a37.543,37.543,0,0,1-.085-9.73M257.347,259.317c.825,1.557,2.42,1.559,3.853,1.552a29.05,29.05,0,0,0,15.9-4.666,48.494,48.494,0,0,0,10.781-9.248,99.7,99.7,0,0,0,11.9-17.495c1.384-2.576,1.37-2.637,4.065-1.837a199.438,199.438,0,0,0,29.548,6.517c2.124.292,2.51,1.331,2.486,3.177-.126,9.263-.168,18.531-.248,27.8q-.328,37.853-.684,75.71a10.166,10.166,0,0,1-.411,4.22c-5.072-3.262-9.908-1.946-14.576.506-6.906,3.625-14.281,5.811-21.73,7.765a5.509,5.509,0,0,0,.251-3.323c-2.474-7.568-6.991-13.338-14.873-15.714-6.777-2.043-13.223-.744-19.314,2.649a76.912,76.912,0,0,0-22.81,19.893c-4.25,5.361-6.047,5.986-12.574,4.371-2.394-.594-5.3-.8-6.7-3.036-2.771-4.444-6.376-8.358-8.322-13.335Q192.646,290.446,171.348,236.1c-.365-.934-1.036-1.841-.749-3.014a17.056,17.056,0,0,1,1.781-.46,218.822,218.822,0,0,0,31.749-7.047c1.941-.591,2.231.542,2.836,1.7a96.705,96.705,0,0,0,11.81,17.483,47.517,47.517,0,0,0,10.555,9.085,28.451,28.451,0,0,0,15.933,4.6c1.289-.007,2.7-.08,3.459-1.445.812-1.46-.158-2.513-.956-3.532a28.789,28.789,0,0,1-5.354-11.61c-.669-2.907-1.464-5.785-2.121-8.7-1.367-6.05-2.992-12.053-3.145-18.324a4.118,4.118,0,0,1,2.44-4.267,99.746,99.746,0,0,0,12.579-8.161c.148.117.292.238.44.353a91.579,91.579,0,0,0,13.729,9.025c2.372,1.228,2.951,2.819,2.851,5.252-.238,5.894-1.749,11.55-2.985,17.259-.72,3.33-1.7,6.6-2.462,9.925a28.946,28.946,0,0,1-5.332,11.5c-.808,1.044-1.844,2.109-1.058,3.6m18.273,114.969c-3.311-.387-6.638-.618-9.959-.915.523-3.077.893-3.615,3.571-3.311,3.885.438,7.852.326,11.817,1.5a5.136,5.136,0,0,1-5.429,2.727m-5.369-8.008c1.265-3.749,1.8-4.111,5.42-3.629l12.031,1.6c-1.211,2.909-2.924,3.958-5.755,3.381-3.848-.783-7.857-.358-11.7-1.348m17.383-5.913c-3.627-.438-7.261-.817-11.243-1.263,1.353-2.114,2.97-3.622,5.147-3.491a56.7,56.7,0,0,1,10.8,1.489c-1.632,3.666-1.63,3.637-4.707,3.265m5.442-7.186c-1.764-.158-3.522-.377-5.965-.647a10.128,10.128,0,0,1,5.943-2.087c.791-.029,1.452.143,1.406,1.112-.039.866-.221,1.727-1.384,1.622M250.984,196.358c-8.356-7.1-15.471-15.2-20.044-25.289a46.1,46.1,0,0,1-4.255-23.812,51.117,51.117,0,0,1,10.737-26.381,80.394,80.394,0,0,1,15.138-15.065,89.194,89.194,0,0,1,10.231,8.978A60.454,60.454,0,0,1,274.5,131.414q8.987,19.35.241,38.818c-4.342,9.679-11.1,17.512-19.047,24.384-1.112.961-2.262,1.873-3.41,2.788-.428-.355-.876-.686-1.3-1.046M165.456,54.51a41.024,41.024,0,0,0-.324,4.612c.234,5.639,3.454,8.132,9.122,6.906a27.967,27.967,0,0,1-2.873,12.759,20.481,20.481,0,0,1-5.461,7.453c-5.191,4.362-11.272,3.644-15.206-1.88a22.759,22.759,0,0,1-4.121-14.2c.151-5.14.336-10.268-1.039-15.678a132.183,132.183,0,0,1,19.9.024m-48.22,6.721c.241-1.01.3-2.092,1.542-2.61,1.63-.681,12.355-2.615,14.615-2.5-1.394,8.533,1.866,11.576,9.446,10.74-.545,7.738-2.474,14.865-8.168,20.377-4.753,4.6-10.139,3.873-14-1.525a23.521,23.521,0,0,1-4.05-11.326,38.129,38.129,0,0,1,.615-13.158m-24.4,327.336c-.063.764-.649.885-1.26.951a3.511,3.511,0,0,1-.358.015c-8.344-.022-16.67.988-25.031.126-3.551-.365-7.159-.119-10.732-.311-16.339-.885-30.005-7.39-40.256-20.192-6.534-8.161-5.164-5.091-5.673-15.867a226.879,226.879,0,0,1-.178-22.9c.027-.477.017-.956.017-1.433,0-1.17.178-2.15,1.71-2.136,1.7.019,1.46,1.248,1.464,2.274.027,5.013.058,10.027.017,15.04-.032,3.586.178,7.149.394,10.725A18.46,18.46,0,0,0,17.062,365.7a55.888,55.888,0,0,0,27.758,18.65c10.1,3.1,20.489,2.732,30.852,2.537q7.159,0,14.318.007a13.573,13.573,0,0,1,1.776.134c.9.119,1.136.749,1.07,1.542M43.664,356.112c-1.7.158-2.642-.939-3.814-1.408a1.9,1.9,0,0,0-2.715.9c-.508,1.073.246,1.734,1.138,2.282a23.073,23.073,0,0,0,6.2,2.732Q52.4,362.712,60.4,364.5c8.932,1.992,17.772,4.627,25.456,10.029a14.367,14.367,0,0,1,5.726,8.5c-1.975,0-3.605,0-5.232,0-7.159.019-14.318.112-21.477.036-6.925-.073-13.822-.591-20.426-2.912-10.268-3.6-18.93-9.45-25.349-18.385a12.941,12.941,0,0,1-2.235-7.069c-.248-4.646-.426-9.3-.564-13.946-.119-3.938-.112-7.879-.224-11.817-.039-1.384.26-2.121,1.871-2.347,6.373-.885,12.729-1.9,19.078-2.96,1.355-.226,1.919-.022,2.119,1.457a39.774,39.774,0,0,0,1.447,7.361c1.511,4.51,3.822,7.925,8.589,9.239a26.65,26.65,0,0,0-5.517,14.425m55.15-69.006a120.465,120.465,0,0,1-20.18,32.817,41.681,41.681,0,0,1-7.784,6.845,141.954,141.954,0,0,1-16.191,9.866c-4.449,2.3-7.011,1.335-9.5-2.982-1.6-2.763-1.931-5.867-2.425-8.927-.212-1.311.676-1.936,1.632-2.5,2.158-1.277,4.274-2.627,6.48-3.812,7.56-4.062,13.328-10.141,18.183-16.979,4.97-7,9.373-14.413,11.878-22.771a8.809,8.809,0,0,1,1.771-3.977,23.908,23.908,0,0,0,9.433,1.384,7.977,7.977,0,0,0,5.176-2.119c2.515-2.369,2.518-2.367,6.814-2.746a104,104,0,0,1-5.288,15.9m15.1-37.8c1.231.148,3-.219,3.218,1.467.2,1.55-1.481,2.034-2.637,2.508-4.026,1.649-8.164,2.644-12.559,1.659a14.4,14.4,0,0,0-2.831-.333,1.8,1.8,0,0,0-2.026,1.615,1.747,1.747,0,0,0,1.574,2.046c3.033.538,6.03,1.525,9.185.851,1.727-.37,3.471-.662,5.921-1.121-2.423,3.031-5.174,3.35-7.877,3.654a21.338,21.338,0,0,1-8.487-.919,17.626,17.626,0,0,0-2.788-.606,1.78,1.78,0,0,0-2.209,1.333,1.853,1.853,0,0,0,1.413,2.2,27.648,27.648,0,0,0,6.942,1.637c1.146.085,2.291.163,4.021.285a8.953,8.953,0,0,1-7.932,2.384,54.289,54.289,0,0,1-9.75-2.214c-2.442-.815-3.68-.572-4.07.654-.375,1.18.574,2.282,2.909,3.014,2.454.769,4.965,1.362,7.451,2.345a7.431,7.431,0,0,1-5.281.557,14.145,14.145,0,0,1-3.734-1.192c-8.032-3.914-15.337-8.682-20.251-16.5a27.1,27.1,0,0,0-7.847-7.585c-8.842-6.171-17.132-13.116-22.073-23.058-3.021-6.084-3.941-12.676-4.135-19.451-.4-13.912,4.223-26.218,11.443-37.8a114.3,114.3,0,0,1,10.854-14.668,4.386,4.386,0,0,1,4.967-1.674c3.457.864,6.6,1.936,8.368,5.422.866,1.71.866,3.014-.457,4.512C63.5,162.3,62,164.465,60.407,166.55c-7.356,9.63-11.413,20.606-13.162,32.5-1.462,9.951,1.435,18.619,7.886,26.218,3.437,4.05,7.721,7.113,11.9,10.282,2.659,2.017,5.826,2.009,8.923,1.343a66.744,66.744,0,0,1,17.016-1.934,12.567,12.567,0,0,1,4.894.9c.642.3,1.45.54,1.511,1.338.08,1.017-.822,1.335-1.579,1.669a16.669,16.669,0,0,1-5.162,1.34c-3.007.289-4.459,1.272-4.746,2.992-.3,1.764,1.114,3.807,3.629,4.763a26.826,26.826,0,0,0,9.494,1.5c3.464.015,6.928-.126,10.392-.19a18.312,18.312,0,0,1,2.506.039m-57.25-29c7.718,3.875,15.948,5.831,24.067,8.1,1.214.341,1.9.885,1.9,2.165-.007,1.34-1.151,1.306-2,1.62-.109.041-.241.019-.35.058-5.726,2.029-10.71,1.438-15.318-3.1-2.873-2.836-6.093-5.305-8.3-8.84m50.555,22.438c.718-.075,1.036.435,1.046,1.114.01.793-.275,1.4-1.17,1.46a36.995,36.995,0,0,1-4.6.238c-2.785-.156-5.624-.073-8.324-1.576a6.808,6.808,0,0,0,2.379-.5c3.444-2.294,7.13-.372,10.672-.735m13.445-12.012c-20.317-1.411-40.217-5.077-59.23-12.712-1.657-.667-3.206-1.64-4.9-2.17-3.464-1.085-4.651-3.666-5.3-6.925a32.088,32.088,0,0,1,.392-12.45,72.6,72.6,0,0,1,15.4-32.718c.226-.277.484-.535.681-.832,1.08-1.649,3.281-2.87,2.754-5.169a12.975,12.975,0,0,0-3.9-7.1c-3.206-2.822-7.127-3.79-11.2-4.206a5.115,5.115,0,0,0-4.836,1.824c-3.984,5.359-8.494,10.3-12.08,15.987-6.062,9.623-10.526,19.789-11.949,31.161-.073.581-.226,1.153-.333,1.686-1.177.365-1.591-.552-2.145-1.051a64.391,64.391,0,0,1-14.44-18.127c-7.093-13.6-7.548-27.434-1.124-41.385,5.174-11.241,13.413-19.976,23.1-27.419,14.59-11.2,31.122-18.524,48.6-23.827a212.48,212.48,0,0,1,31.059-6.874c1.776-.258,2.277.238,2.7,1.776a23.377,23.377,0,0,0,3.839,8.037c5.257,6.967,13.177,7.684,19.567,1.764a25.461,25.461,0,0,0,5.14-6.845c.494-.929.715-2.043,1.747-2.773.421.9.808,1.764,1.224,2.617a21.94,21.94,0,0,0,3.106,4.8c5.279,6.059,12.81,6.8,19.161,1.856a25.31,25.31,0,0,0,7.191-9.256c1.27-2.632,1.318-2.673,4.036-2.262,17.531,2.647,34.613,6.925,50.8,14.315a125.358,125.358,0,0,1,19.56,10.993c-1.155.927-2.3,1.868-3.415,2.839a76.074,76.074,0,0,0-10.268,10.3,80.648,80.648,0,0,0-7.478,11.649A46.638,46.638,0,0,0,225.1,134.8a50.652,50.652,0,0,0-.82,29.735,56.083,56.083,0,0,0,3.877,10.007c5.04,10.107,12.35,18.251,20.869,25.342a98.609,98.609,0,0,1-13.136,8.207c-2.265,1.168-3.024,2.452-2.9,4.984.358,7.57,1.98,14.9,3.758,22.209.4,1.625.8,3.247,1.173,4.877,1.117,4.889,2.486,9.689,5.712,14.367a26.838,26.838,0,0,1-13.223-4.67c-8.519-5.8-14.218-14.033-19.373-22.715a27.194,27.194,0,0,1-2.274-4.459c-.7-1.922-1.778-2.211-3.593-1.591a155.777,155.777,0,0,1-15.858,4.352,235.478,235.478,0,0,1-31.08,4.863,235.691,235.691,0,0,1-37.566.426m67.9,123.531q-22.48-54.871-44.834-109.437a4.766,4.766,0,0,1,3.342-.92c6.273.131,12.289-1.562,18.4-2.54,3.461-.555,3.447-.647,4.76,2.707q8.874,22.666,17.743,45.335,10.3,26.341,20.586,52.684c.421,1.08,1.117,2.1.951,3.345-13.355,2.019-14.32,3.4-20.949,8.825m3.646,30.713c-.956-7.947-1.688-15.914-2.043-23.912a4.8,4.8,0,0,1,1.107-3.272c4.938-6.6,11.846-8.385,19.618-8.13a1.607,1.607,0,0,1,1.642,1.1c.9,2.379,2.8,4.15,3.955,6.363a14.069,14.069,0,0,0,9.39,7.142c1.221.328,2.42.732,4.4,1.335a28.759,28.759,0,0,1-6.551,2.236c-1.182.28-2.1.783-1.788,2.153.306,1.321,1.46,1.579,2.561,1.316,3.479-.827,6.979-1.644,10.029-3.659a50.339,50.339,0,0,0,11.5-10.153,68.544,68.544,0,0,1,20.387-17.254c5.468-2.975,11.185-4.065,17.215-1.822a10.57,10.57,0,0,1,4.85,3.192c-12.764,3.566-22.435,11.09-30.049,21.467-.99,1.348-2.094,2.62-2.99,4.028-6.478,10.183-16.011,15.546-27.711,17.035-10.762,1.367-21.584,2.262-32.387,3.286-2.7.255-2.817.129-3.128-2.45m51.752,2.073c-5.174,2.362-10.779,3.109-16.33,3.646-10.09.98-20.219,1.564-30.336,2.272-1.326.095-2.834.547-4.082-1.168,2.936-.341,5.588-.684,8.244-.951,7.6-.766,15.208-1.4,22.79-2.274,7.862-.91,15.5-2.554,22.3-7.018a35.853,35.853,0,0,0,8.314-7.264c3.919-4.814,7.251-10.083,11.484-14.654a51.082,51.082,0,0,1,19.266-13.3,38.457,38.457,0,0,1,4.829-1.265c.722-.173,1.5-.219,1.659.766.161,1.017-.674,1.031-1.365,1.221a44.537,44.537,0,0,0-18.453,9.832c-4.291,3.892-7.137,8.923-10.363,13.656-4.695,6.886-10.19,12.958-17.959,16.5m8.592.212c2.352-3.106,2.352-3.106,8.458-2.741a28.64,28.64,0,0,1-8.458,2.741m6.855-6.507c1.328-2.715,2.788-4.167,5.643-3.753,2.447.353,4.987.017,7.889,1.109-2.058,1.858-3.865,3.046-6.539,2.7a57.586,57.586,0,0,0-6.994-.056m101.371,3.634c-.846.068-1.7.061-2.554.058q-43.607-.113-87.221-.238c1.4-.8,2.763-1.659,4.109-2.561q41.56-.055,83.12-.088c.851,0,1.708,0,2.552.085.924.09,1.146.791,1.134,1.576a1.123,1.123,0,0,1-1.138,1.168m1.554-27.709q-.026,8.764-.109,17.531c-.039,3.4-.073,3.435-3.415,3.437q-39.166.026-78.332.024c1.27-1.041,2.52-2.116,3.736-3.267,5.142-4.855,9.582-10.207,12.389-16.663a115.589,115.589,0,0,0,16.816-5.057c3.7-1.542,7.29-3.35,11-4.85,4.349-1.756,6.31-1.25,9.287,2.335a12.368,12.368,0,0,0,6.305,4.1,39.309,39.309,0,0,0,6.775,1.355,36.477,36.477,0,0,0,14.975-1.542,3.172,3.172,0,0,1,.569,2.6m.414-9.9c-.017,2.2-1.309,3.157-3.211,3.824-5.483,1.924-11.01,1.7-16.561.508-4.07-.871-4.2-1.066-4.169-5.31q.358-46.062.742-92.125a5.018,5.018,0,0,1,.382-2.637c2.61.1,5.028,1.408,7.733,1.52a67.02,67.02,0,0,0,12.751-.472c1.732-.26,2.209.331,2.16,1.858-.019.608.015,1.219.017,1.829q.2,43.687.4,87.374c0,1.209-.234,2.42-.243,3.629m4.4-94.9a100.5,100.5,0,0,0,19.48.345c.786.778.3,1.841.837,2.484,1.909,2.26,1.7,4.955,1.72,7.626q.142,15.544.321,31.088.321,26.7.676,53.4c.039,3.165.024,3.223-2.953,4.011a30.692,30.692,0,0,1-15.524.387c-4.542-1.129-4.848-1.438-4.865-6.137q-.153-44.99-.268-89.977c0-1.061-.309-2.2.577-3.223M461.281,384.15c-.849.058-1.7.056-2.554.058q-43.855.124-87.712.241c-.73,0-1.462.007-2.192-.022-.8-.032-1.4-.3-1.44-1.258-.046-1.085.5-1.55,1.515-1.576.854-.019,1.708-.032,2.559-.032q43.855.04,87.712.095a8.743,8.743,0,0,1,3.848.389c-.08,1.265-.552,2.021-1.737,2.1m-66.068-33.53c3.685-4.245,5.23-4.6,10.457-2.435.562.231,1.126.462,1.661.747,9.543,5.077,20.008,7.456,30.341,10.127a151.718,151.718,0,0,1,18.619,6.288,21.782,21.782,0,0,1,8.178,5.989,5.444,5.444,0,0,1,.757,5.541c-.511,1.52-2.357.577-3.6.8a6.289,6.289,0,0,1-1.092.01l-88.748-.029a18.778,18.778,0,0,0-2.189.01c-2,.241-2.481-.783-2.481-2.564,0-3.773-.2-7.546-.195-11.319,0-3.133-.336-6.281.114-9.292a1.967,1.967,0,0,1,1.9-.058,32.266,32.266,0,0,0,14.43,1.078c4.345-.562,8.708-1.277,11.842-4.889M476.2,225.726c-5.043,10.136-13.5,17.222-22.518,23.513a27.538,27.538,0,0,0-8,7.745c-5.018,7.969-12.469,12.834-20.667,16.819a14.144,14.144,0,0,1-3.8,1.214c-1.8.3-3.671.487-5.376-.591,2.537-.985,5.1-1.588,7.614-2.374,2.372-.742,3.345-1.883,2.951-3.085-.4-1.243-1.659-1.481-4.16-.649a55.013,55.013,0,0,1-9.947,2.255,9.083,9.083,0,0,1-8.074-2.435c1.768-.124,2.939-.2,4.111-.287a28.166,28.166,0,0,0,7.079-1.676,1.88,1.88,0,0,0,1.428-2.248,1.825,1.825,0,0,0-2.265-1.348,17.792,17.792,0,0,0-2.841.625,21.7,21.7,0,0,1-8.657.929c-2.756-.314-5.566-.632-8.01-3.722,2.5.47,4.276.776,6.042,1.141,3.216.664,6.276-.311,9.368-.873a1.774,1.774,0,0,0,1.588-2.1,1.836,1.836,0,0,0-2.075-1.635,14.771,14.771,0,0,0-2.887.345c-4.486,1-8.708-.01-12.812-1.7-1.173-.484-2.9-.971-2.676-2.564.236-1.708,2.038-1.335,3.3-1.484a19.046,19.046,0,0,1,2.557-.039c3.532.063,7.066.207,10.6.192a27.279,27.279,0,0,0,9.684-1.528c2.564-.98,4-3.072,3.688-4.87-.3-1.749-1.778-2.744-4.853-3.038a16.842,16.842,0,0,1-5.6-1.52c-.64-.3-1.382-.662-1.277-1.562.078-.676.7-.949,1.233-1.211a12.45,12.45,0,0,1,4.962-1.051,65.339,65.339,0,0,1,17.366,1.885c3.174.7,6.424.859,9.141-1.112,4.43-3.213,8.864-6.461,12.452-10.684,6.582-7.75,9.528-16.592,8.032-26.743-1.788-12.131-5.928-23.323-13.43-33.143-1.627-2.128-3.155-4.344-4.926-6.346-1.357-1.535-1.331-2.868-.45-4.6,1.8-3.552,5.016-4.641,8.543-5.522,2.214-.552,3.588.032,5.062,1.722a116.421,116.421,0,0,1,11.07,14.963c7.356,11.812,12.08,24.362,11.664,38.556-.2,6.911-1.141,13.634-4.228,19.84m-66.318,18.932a26.313,26.313,0,0,0,5.371,1.513,3,3,0,0,1-2.272,1.129c-6.2.822-12.4-.063-18.592.1-1.121.032-1.464-.579-1.474-1.579-.032-2.557-.034-5.113-.151-7.665-.063-1.423.581-1.919,1.895-2.06,3.381-.367,6.75-.839,10.132-1.221.749-.085,1.6-.387,2.311.26-3,4.5-2.124,7.344,2.78,9.521m9.825-12.214c11.915-3.014,23.155-5.442,33.511-10.759a1.508,1.508,0,0,1-.421,1.562c-3.69,4.809-8.7,8.1-13.464,11.679a3.529,3.529,0,0,1-2.783.637c-5.352-.963-10.693-1.975-16.843-3.119m85.961-65.053c-3.238,12.642-10.662,22.542-20.375,30.917-.151.131-.45.09-.681.129a3.437,3.437,0,0,1-.324-.649,12.025,12.025,0,0,1-.268-1.435c-1.435-11.477-5.982-21.723-12.082-31.436-3.646-5.8-8.224-10.859-12.292-16.322a5.076,5.076,0,0,0-4.522-1.961c-4.717.255-9.158,1.457-12.618,4.936-3.882,3.9-4.019,7.531-.589,11.747.307.377.623.749.932,1.129A73.65,73.65,0,0,1,458.382,197.5a33.222,33.222,0,0,1,.577,11.968c-.657,3.858-1.832,7.018-6.05,8.181a37.049,37.049,0,0,0-3.632,1.7c-19.964,7.993-40.828,11.849-62.178,13.325a247.73,247.73,0,0,1-29.961.054,228.551,228.551,0,0,1-23.943-2.581,201.192,201.192,0,0,1-31.56-7.439c-1.649-.542-2.642-.248-3.413,1.525a80.06,80.06,0,0,1-9.553,15.524,52.259,52.259,0,0,1-13.053,12.666,29.458,29.458,0,0,1-12.968,4.551,37.2,37.2,0,0,0,4.337-9.268c.934-3.532,1.793-7.084,2.664-10.63,1.858-7.575,3.527-15.177,3.8-23.021a3.966,3.966,0,0,0-2.493-4.267,105.454,105.454,0,0,1-15.575-9.891c9.085-7.3,16.9-15.709,22.124-26.325,5.541-11.248,7.047-23,3.783-35.177-2.547-9.511-7.894-17.86-14.549-25.011a97.025,97.025,0,0,0-11.229-9.764,119.992,119.992,0,0,1,13.5-8.266c18.718-9.915,38.862-15.3,59.687-18.414,2.958-.443,2.992-.379,4.177,2.593,1.788,4.5,4.259,8.507,8.188,11.443,6.072,4.537,13.4,3.583,18.188-2.294a25.514,25.514,0,0,0,4.337-8.387c.243-.744.027-1.773,1.16-2.017,2.693,5.913,5.77,9.908,9.438,12.258,5.439,3.486,11.4,2.895,16.018-1.627a21.547,21.547,0,0,0,5.206-8.7c1.024-3.016,1.065-3.1,4.284-2.622a206.234,206.234,0,0,1,29.516,6.634c17.828,5.417,34.7,12.856,49.585,24.267,9.888,7.577,18.285,16.48,23.6,27.928,4.617,9.937,6.011,20.258,3.264,30.981" transform="translate(0 58.034)" fill="#2c2c2c"/>
    <path id="Path_5088" data-name="Path 5088" d="M137.823,40.416c.465-.389.866-.854,1.321-1.255a15.277,15.277,0,0,1,13.505-3.846c2.613.487,5.305.783,7.66,2.2.954.574,1.917.647,2.544-.372A1.907,1.907,0,0,0,162,34.349c-2.968-1.837-6.361-2.3-9.718-2.827a27.6,27.6,0,0,0-2.914-.151,18.334,18.334,0,0,0-13.221,5.164,7.917,7.917,0,0,0-1.014,1.046c-.7.927-1.175,1.99-.238,2.958.917.951,1.99.659,2.924-.124" transform="translate(192.498 44.929)" fill="#2c2c2c"/>
    <path id="Path_5089" data-name="Path 5089" d="M157.2,36.887c5.714-2.289,10.681-.126,15.6,2.408a12.162,12.162,0,0,1,4.332,3.834c.6.839,1.391,1.435,2.464.681a1.933,1.933,0,0,0,.542-2.608,7.039,7.039,0,0,0-1.533-2.009,25.959,25.959,0,0,0-18.546-7.174,8.255,8.255,0,0,0-4.442,1.457,2.235,2.235,0,0,0-1.058,1.81,1.821,1.821,0,0,0,2.637,1.6" transform="translate(221.419 45.868)" fill="#2c2c2c"/>
    <path id="Path_5090" data-name="Path 5090" d="M207.335,67.068c-1.136-.287-2.309-.08-2.693,1.214-.4,1.348.484,1.931,1.693,2.291,1.009.3,2.177.389,2.885,1.45-.163,1.168-1.1,1.832-1.82,2.583-10.513,10.917-23.377,16.047-38.466,14.79A36.036,36.036,0,0,1,144.6,77.5a29.89,29.89,0,0,1-3.457-4.695c-.652-1.082-.513-1.781.564-2.364.319-.173.6-.411.912-.6,1.046-.652,1.725-1.508.927-2.7-.662-.99-1.7-.842-2.605-.326a21.729,21.729,0,0,0-8.215,7.585,3.647,3.647,0,0,0-.338.647c-.62,1.727-.224,3.6.912,3.834,1.783.36,2.26-.92,2.63-2.311a8.109,8.109,0,0,1,.749-1.535c1.265-.246,1.559.715,2.029,1.352,9.363,12.63,22.146,17.733,37.527,16.9,13.8-.744,25.223-6.616,34.625-16.617.5-.53,1-1.061,1.513-1.576.071-.071.229-.058.414-.1,1.126.338,1.241,1.664,2.077,2.328a1.9,1.9,0,0,0,2.357.234,1.625,1.625,0,0,0,.333-2.3,15.769,15.769,0,0,0-10.214-8.2" transform="translate(189.226 95.14)" fill="#2c2c2c"/>
    <path id="Path_5091" data-name="Path 5091" d="M65.519,38.423c5.06-2.394,10.436-2.08,15.794-1.768A13.946,13.946,0,0,1,88.5,39.591c1.216.856,1.739,2.248,2.61,3.369a1.987,1.987,0,0,0,2.831.628c.966-.632.788-1.674.341-2.578a12.718,12.718,0,0,0-4.666-5.279,19.143,19.143,0,0,0-11.5-2.8,39.737,39.737,0,0,0-10.419.932,9.567,9.567,0,0,0-3.914,1.664,1.754,1.754,0,0,0-.5,2.525,1.619,1.619,0,0,0,2.235.372" transform="translate(90.16 47.117)" fill="#2c2c2c"/>
    <path id="Path_5092" data-name="Path 5092" d="M46.9,46.579a11.171,11.171,0,0,0,1.019-.99c6.193-5.858,13.1-9.876,22.336-8.487.212.015.686.058,1.16.078,1.18.049,2.206-.224,2.3-1.622a1.787,1.787,0,0,0-1.693-1.941,30.909,30.909,0,0,0-3.87-.584c-8.983-.452-15.962,3.819-22.26,9.606A6.569,6.569,0,0,0,44.5,44.687a1.535,1.535,0,0,0,.448,1.924,1.432,1.432,0,0,0,1.946-.032" transform="translate(63.512 47.273)" fill="#2c2c2c"/>
    <path id="Path_5093" data-name="Path 5093" d="M90.437,95.827a40.533,40.533,0,0,1-13.724-1.985C66.9,90.619,58.766,85.1,53.339,76.065a7.827,7.827,0,0,1-1.362-5.753,9.182,9.182,0,0,0-.263-3.9c-.265-1.141-.761-2.124-2.138-1.846S48.15,65.916,48.3,67.086c.688,5.21-.338,9.937-3.984,13.921a4.608,4.608,0,0,0-.949,1.5,1.641,1.641,0,0,0,1.946,2.153,3.087,3.087,0,0,0,1.961-1.44c.99-1.326,1.948-2.673,3.05-4.2a5.247,5.247,0,0,1,.572.482c.5.671.954,1.37,1.479,2.019C62.137,93.63,74.854,99.544,90.35,99.556c2.513,0,3.719-.774,3.479-2.087-.36-1.944-1.951-1.678-3.391-1.642" transform="translate(61.976 92.422)" fill="#2c2c2c"/>
    <path id="Path_5094" data-name="Path 5094" d="M126.17,26.344a4.631,4.631,0,0,0-1.834-.384,7.589,7.589,0,0,0-3.44,1.017,9.421,9.421,0,0,0-4.313,5.038,21.831,21.831,0,0,0-1.878,9.253,2.236,2.236,0,0,1-1.194,2.308,2.036,2.036,0,0,1-.842.182,2.392,2.392,0,0,1-1.88-1.121c-.659-.713-1.248-1.384-1.839-2.055a33.286,33.286,0,0,0-3.009-3.136,10.237,10.237,0,0,0-4.493-2.578,8.472,8.472,0,0,0-1.807-.216c-2.221,0-3.724,1.119-4.6,3.425a11.97,11.97,0,0,0-.6,7.139c1.584,6.794,5.378,11.024,11.6,12.929,1.975.6,4.04,1.068,6.04,1.52l1.545.345a14.49,14.49,0,0,1,6.1,2.642,21.313,21.313,0,0,1,2.167-4.629l1.506-2.416c1.027-1.642,2.056-3.284,3.055-4.945a28.238,28.238,0,0,0,4.4-12.566c.221-2.751.2-5.945-1.642-8.774a7.027,7.027,0,0,0-3.041-2.977" transform="translate(134.875 37.189)" fill="#a18cff"/>
    <path id="Path_5095" data-name="Path 5095" d="M137.5,6.675c-.18-.012-.362-.019-.54-.019a9.885,9.885,0,0,0-5.751,2.128,21.772,21.772,0,0,0-6.361,6.972,2.3,2.3,0,0,1-1.961,1.382l-.251-.017a2.106,2.106,0,0,1-1.854-2.2c-.2-.949-.36-1.822-.521-2.7a32.753,32.753,0,0,0-.971-4.245,10.242,10.242,0,0,0-2.527-4.52,5.715,5.715,0,0,0-3.875-1.849,5.31,5.31,0,0,0-3.269,1.306,11.934,11.934,0,0,0-4.177,5.819c-2.136,6.643-1.056,12.221,3.3,17.052,1.394,1.547,2.946,3.021,4.444,4.447l1.1,1.051a14.505,14.505,0,0,1,3.877,5.4,21.29,21.29,0,0,1,4.24-2.853l2.6-1.335c1.7-.868,3.406-1.742,5.094-2.637a28.63,28.63,0,0,0,10.229-8.519c1.6-2.25,3.223-5,3.1-8.373a6.988,6.988,0,0,0-1.08-4.113c-.995-1.37-2.4-2-4.848-2.172" transform="translate(149.528 2.301)" fill="#9290f3"/>
    <path id="Path_5096" data-name="Path 5096" d="M126.853,24.342a8.454,8.454,0,0,0-1.012.061,12.131,12.131,0,0,0-8.918,5.437,19.346,19.346,0,0,0-2.836,6.317c-.27,1.075-.489,2.182-.669,3.367a28.083,28.083,0,0,0-3.23-3.226,13.242,13.242,0,0,0-5.286-2.861,11.549,11.549,0,0,0-2.909-.394,9.025,9.025,0,0,0-4.327,1.08,8.762,8.762,0,0,0-3.987,4.819,16.9,16.9,0,0,0-.109,11.837,19.868,19.868,0,0,0,13.5,13.4c2.321.727,4.7,1.253,7,1.761l1.031.226a14.5,14.5,0,0,1,3.218,1.085,4.963,4.963,0,0,1,2.561,2.52c.192.44.4.876.606,1.316a1.927,1.927,0,0,0,1.759,1.121l.024,0a2.014,2.014,0,0,0,1.822-1.207,2.326,2.326,0,0,0,.158-1.6A4.962,4.962,0,0,1,125.5,67a25.623,25.623,0,0,1,3.5-7.047l.815-1.284c.99-1.562,1.98-3.121,2.9-4.724a30.972,30.972,0,0,0,4.449-16.466,15.708,15.708,0,0,0-4.043-10.207,8.234,8.234,0,0,0-6.276-2.931m6.288,16.072a28.258,28.258,0,0,1-4.4,12.566c-1,1.661-2.031,3.3-3.055,4.945l-1.508,2.416a21.472,21.472,0,0,0-2.165,4.629,14.565,14.565,0,0,0-6.1-2.642l-1.545-.345c-2-.45-4.067-.917-6.04-1.52-6.218-1.9-10.012-6.135-11.6-12.929a11.988,11.988,0,0,1,.594-7.139c.876-2.306,2.379-3.425,4.6-3.425a8.493,8.493,0,0,1,1.81.216,10.261,10.261,0,0,1,4.493,2.578,33.284,33.284,0,0,1,3.009,3.136c.591.671,1.18,1.343,1.837,2.055a2.4,2.4,0,0,0,1.883,1.121,2.044,2.044,0,0,0,.842-.182,2.235,2.235,0,0,0,1.194-2.308,21.81,21.81,0,0,1,1.875-9.251,9.438,9.438,0,0,1,4.313-5.04,7.628,7.628,0,0,1,3.44-1.017,4.642,4.642,0,0,1,1.837.384A7.04,7.04,0,0,1,131.5,31.64c1.839,2.829,1.863,6.023,1.642,8.774" transform="translate(132.587 34.871)" fill="#2c2c2c"/>
    <path id="Path_5097" data-name="Path 5097" d="M144.6,6.149a12.337,12.337,0,0,0-5.108-1.136,12.8,12.8,0,0,0-5.337,1.214,19.481,19.481,0,0,0-5.68,3.965c-.783.783-1.537,1.615-2.3,2.542a28.471,28.471,0,0,0-1.117-4.427,13.323,13.323,0,0,0-3.063-5.169A9.684,9.684,0,0,0,115.431.007L115.069,0a8.858,8.858,0,0,0-5.539,2.094,16.9,16.9,0,0,0-6.174,10.1,19.856,19.856,0,0,0,4.7,18.426c1.608,1.815,3.379,3.488,5.089,5.1l.776.732a14.815,14.815,0,0,1,2.2,2.586,4.955,4.955,0,0,1,.9,3.479c-.063.477-.112.956-.158,1.435a1.936,1.936,0,0,0,.946,1.875,2.005,2.005,0,0,0,1.007.277,2.123,2.123,0,0,0,1.18-.37,2.343,2.343,0,0,0,.963-1.289,4.933,4.933,0,0,1,1.45-1.924,25.691,25.691,0,0,1,6.626-4.247l1.423-.72c1.63-.817,3.257-1.637,4.853-2.523A31.007,31.007,0,0,0,147.6,23.192a15.748,15.748,0,0,0,1.778-10.837A8.176,8.176,0,0,0,144.6,6.149m-1.968,17.485A28.606,28.606,0,0,1,132.4,32.153c-1.688.9-3.391,1.768-5.094,2.639l-2.6,1.333a21.3,21.3,0,0,0-4.24,2.856,14.514,14.514,0,0,0-3.877-5.4l-1.1-1.051c-1.5-1.423-3.048-2.9-4.444-4.447-4.354-4.831-5.434-10.409-3.3-17.05a11.923,11.923,0,0,1,4.177-5.819,5.314,5.314,0,0,1,3.269-1.309,5.715,5.715,0,0,1,3.875,1.849,10.232,10.232,0,0,1,2.527,4.52,32.79,32.79,0,0,1,.971,4.247c.161.873.321,1.749.521,2.7a2.11,2.11,0,0,0,1.854,2.206l.251.015a2.291,2.291,0,0,0,1.961-1.382,21.772,21.772,0,0,1,6.361-6.972,9.885,9.885,0,0,1,5.751-2.128c.178,0,.36.007.54.019,2.45.173,3.853.8,4.85,2.175a6.983,6.983,0,0,1,1.078,4.113c.124,3.371-1.5,6.123-3.1,8.37" transform="translate(147.226)" fill="#2c2c2c"/>
  </g>
</svg>
