<svg xmlns="http://www.w3.org/2000/svg" xmlns:xlink="http://www.w3.org/1999/xlink" width="225.174" height="158.363" viewBox="0 0 225.174 158.363">
  <defs>
    <clipPath id="clip-path">
      <rect id="Rectangle_2639" data-name="Rectangle 2639" width="211.161" height="79.335" fill="none"/>
    </clipPath>
  </defs>
  <g id="Group_6334" data-name="Group 6334" transform="translate(0 85.887) rotate(-24)">
    <g id="Group_6323" data-name="Group 6323" transform="translate(0 0)" clip-path="url(#clip-path)">
      <path id="Path_5055" data-name="Path 5055" d="M209.181,39.177c0,21.085-36.781,38.177-104.09,38.177S1,60.262,1,39.177,37.781,1,105.09,1s104.09,17.092,104.09,38.177" transform="translate(0.49 0.49)" fill="#f0dcf8"/>
      <path id="Path_5056" data-name="Path 5056" d="M105.582,79.335c-32.1,0-59.015-3.9-77.833-11.285C9.857,61.029,0,50.951,0,39.667S9.857,18.305,27.751,11.285C46.568,3.9,73.481,0,105.582,0S164.6,3.9,183.413,11.285c17.893,7.021,27.749,17.1,27.749,28.383s-9.855,21.362-27.749,28.383c-18.817,7.383-45.731,11.285-77.831,11.285m0-76.354c-70.876,0-102.6,18.426-102.6,36.687s31.726,36.687,102.6,36.687,102.6-18.426,102.6-36.687S176.458,2.981,105.582,2.981" transform="translate(0 -0.001)" fill="#2b2b2b"/>
      <path id="Path_5057" data-name="Path 5057" d="M27.123,32.1h-4.7v8.538H19.262V19.2h8.387c5.529,0,8.577,2.294,8.577,6.468,0,3.161-1.769,5.267-5.079,6.057v.788l5.9,8.125h-3.8Zm.452-10H23.438l-1.016,1.016v6.054h5.153c3.572,0,5.416-1.2,5.416-3.5,0-2.368-1.844-3.572-5.416-3.572" transform="translate(9.444 9.412)" fill="#2b2b2b"/>
      <path id="Path_5058" data-name="Path 5058" d="M38.045,31.044v5.641l.978,1.016h12.45v2.934H34.886V19.2H51.1v2.934H39.023l-.978.978v5h11.4v2.934Z" transform="translate(17.105 9.412)" fill="#2b2b2b"/>
      <path id="Path_5059" data-name="Path 5059" d="M64.557,34.9c0-1.541-.9-2.519-2.972-3.009L56.32,30.615c-4.213-1.016-5.943-2.708-5.943-5.605a5.368,5.368,0,0,1,2.258-4.437,9.488,9.488,0,0,1,5.9-1.73,13.528,13.528,0,0,1,8.839,3.271L65.386,24.6a10.568,10.568,0,0,0-7.071-2.821c-2.973,0-4.778,1.128-4.778,3.046,0,1.356.827,2.145,3.423,2.747l5.267,1.353c3.61.9,5.49,2.858,5.49,5.756a5.8,5.8,0,0,1-2.407,4.814A9.9,9.9,0,0,1,59.1,41.335c-3.951,0-7.711-1.279-10.006-3.422L50.98,35.2A12.062,12.062,0,0,0,59.1,38.363c3.271,0,5.453-1.353,5.453-3.46" transform="translate(24.073 9.238)" fill="#2b2b2b"/>
      <path id="Path_5060" data-name="Path 5060" d="M74.509,32.1H69.168v8.539H66.01V19.2h8.5c5.529,0,8.577,2.294,8.577,6.469S80.038,32.1,74.509,32.1m-5.341-8.988v6.054h5.267c3.574,0,5.379-1.2,5.379-3.5,0-2.37-1.8-3.574-5.379-3.574h-4.25Z" transform="translate(32.365 9.411)" fill="#2b2b2b"/>
      <path id="Path_5061" data-name="Path 5061" d="M84.54,31.044v5.641l.978,1.016h12.45v2.934H81.381V19.2H97.593v2.934H85.518l-.978.978v5h11.4v2.934Z" transform="translate(39.901 9.412)" fill="#2b2b2b"/>
      <path id="Path_5062" data-name="Path 5062" d="M99.358,30.089a9.349,9.349,0,0,0,1.768,5.906,5.825,5.825,0,0,0,4.778,2.219c2.294,0,4.061-1.167,5.866-4.137l2.595,1.993c-2.143,3.611-4.776,5.267-8.425,5.267a9.125,9.125,0,0,1-7.109-3.159,11.941,11.941,0,0,1-2.782-8.088,11.768,11.768,0,0,1,2.782-8.048,9.036,9.036,0,0,1,7.109-3.2c3.648,0,6.282,1.654,8.425,5.265L111.769,26.1c-1.842-2.972-3.572-4.176-5.866-4.176-4.027,0-6.545,3.235-6.545,8.162" transform="translate(47.093 9.238)" fill="#2b2b2b"/>
      <path id="Path_5063" data-name="Path 5063" d="M130.647,22.131h-7.183l-1.016.978V40.636h-3.234V23.108l-.978-.978h-7.221V19.2h19.632Z" transform="translate(54.431 9.411)" fill="#2b2b2b"/>
    </g>
  </g>
</svg>
