<svg xmlns="http://www.w3.org/2000/svg" xmlns:xlink="http://www.w3.org/1999/xlink" width="292.971" height="154.021" viewBox="0 0 292.971 154.021">
  <defs>
    <clipPath id="clip-path">
      <rect id="Rectangle_2629" data-name="Rectangle 2629" width="280.737" height="84.232" fill="none"/>
    </clipPath>
  </defs>
  <g id="Group_6299" data-name="Group 6299" transform="matrix(0.966, -0.259, 0.259, 0.966, 0, 72.66)">
    <g id="Group_6298" data-name="Group 6298" transform="translate(0 0)" clip-path="url(#clip-path)">
      <path id="Path_5007" data-name="Path 5007" d="M139.815,82.126c76.665,0,138.815-18.16,138.815-40.562S216.48,1,139.815,1,1,19.162,1,41.564,63.149,82.126,139.815,82.126" transform="translate(0.553 0.553)" fill="#f0dcf8"/>
      <path id="Path_5008" data-name="Path 5008" d="M140.367,84.232C61.657,84.232,0,65.731,0,42.117S61.657,0,140.367,0,280.735,18.5,280.735,42.117,219.078,84.232,140.367,84.232m0-81.126c-74.4,0-137.262,17.864-137.262,39.011s62.859,39.01,137.262,39.01S277.63,63.263,277.63,42.117,214.771,3.105,140.367,3.105" transform="translate(0 0)" fill="#2c2c2c"/>
      <path id="Path_5009" data-name="Path 5009" d="M34.152,38.515H31.916l1.366-5.281h-4.13l-1.366,5.281H25.579l1.244-4.784-.5-.5h-2.7l.559-1.956h3.262l.807-3.23H24.8l.528-1.989h3.449l1.335-5.248h2.236l-1.365,5.248h4.129l1.368-5.248h2.206l-1.244,4.782.5.466h2.731l-.559,1.989H36.824l-.807,3.23h3.449l-.528,1.956H35.52ZM29.773,30.75l.528.528h3.48l.714-2.7-.528-.528h-3.48Z" transform="translate(13.056 11.502)" fill="#2c2c2c"/>
      <path id="Path_5010" data-name="Path 5010" d="M48.92,36.093a9.761,9.761,0,0,1-6.989,2.422H37.023v-17.7h4.908a9.761,9.761,0,0,1,6.989,2.422,8.362,8.362,0,0,1,2.61,6.43,8.359,8.359,0,0,1-2.61,6.43M40.472,23.171l-.838.809V35.316l.838.838h1.46c4.318,0,6.864-2.484,6.864-6.492s-2.546-6.492-6.864-6.492Z" transform="translate(20.462 11.502)" fill="#2c2c2c"/>
      <path id="Path_5011" data-name="Path 5011" d="M57.225,24.042V35.285l.807.807h4.256v2.424h-12.7V36.092h4.225l.838-.807V24.042l-.838-.84H49.584V20.811h12.7V23.2H58.032Z" transform="translate(27.404 11.502)" fill="#2c2c2c"/>
      <path id="Path_5012" data-name="Path 5012" d="M77.7,38.515H74.87l-1.958-5.188h-7.8l-1.956,5.188h-2.8l7.02-17.7h3.324ZM66.172,30.563l.5.5h4.66l.528-.528-2.422-6.368H68.6Z" transform="translate(33.362 11.502)" fill="#2c2c2c"/>
      <path id="Path_5013" data-name="Path 5013" d="M77.054,20.811V35.254l.807.838H87.21v2.422H74.444v-17.7Z" transform="translate(41.144 11.502)" fill="#2c2c2c"/>
      <path id="Path_5014" data-name="Path 5014" d="M93.424,24.042V35.285l.807.807h4.256v2.424h-12.7V36.092h4.225l.838-.807V24.042l-.838-.84H85.784V20.811h12.7V23.2H94.232Z" transform="translate(47.411 11.502)" fill="#2c2c2c"/>
      <path id="Path_5015" data-name="Path 5015" d="M113.137,23.233H107.2l-.838.809V38.515h-2.671V24.042l-.807-.809H96.924V20.811h16.213Z" transform="translate(53.568 11.502)" fill="#2c2c2c"/>
      <path id="Path_5016" data-name="Path 5016" d="M121.96,36.093a9.761,9.761,0,0,1-6.989,2.422h-4.908v-17.7h4.908a9.761,9.761,0,0,1,6.989,2.422,8.362,8.362,0,0,1,2.61,6.43,8.359,8.359,0,0,1-2.61,6.43m-8.448-12.921-.838.809V35.316l.838.838h1.46c4.318,0,6.864-2.484,6.864-6.492s-2.546-6.492-6.864-6.492Z" transform="translate(60.83 11.502)" fill="#2c2c2c"/>
      <path id="Path_5017" data-name="Path 5017" d="M135.323,23.14a9.919,9.919,0,0,1,2.236,6.678,9.975,9.975,0,0,1-2.236,6.678,7.7,7.7,0,0,1-11.555,0,10.12,10.12,0,0,1-2.2-6.678,10.063,10.063,0,0,1,2.2-6.678,7.7,7.7,0,0,1,11.555,0m-.5,6.678c0-4.1-2.05-6.833-5.281-6.833s-5.248,2.7-5.248,6.833c0,4.1,2.019,6.8,5.248,6.8,3.262,0,5.281-2.7,5.281-6.8" transform="translate(67.186 11.347)" fill="#2c2c2c"/>
      <path id="Path_5018" data-name="Path 5018" d="M145,38.515,142.922,27.3h-.559l-2.082,11.214h-3.633l-3.045-17.7h2.672l2.143,13.977h.59l2.144-11.617h3.074l2.143,11.617h.59L149.1,20.811h2.577l-3.045,17.7Z" transform="translate(73.84 11.502)" fill="#2c2c2c"/>
      <path id="Path_5019" data-name="Path 5019" d="M161.307,20.811v17.7h-3.012l-7.889-13.7H149.6v13.7h-2.453v-17.7h3.6l7.3,12.8h.807v-12.8Z" transform="translate(81.324 11.502)" fill="#2c2c2c"/>
    </g>
  </g>
</svg>
