<?xml version="1.0" encoding="utf-8"?>
<!-- Generator: Adobe Illustrator 22.1.0, SVG Export Plug-In . SVG Version: 6.00 Build 0)  -->
<svg version="1.1" id="Capa_1" xmlns="http://www.w3.org/2000/svg" xmlns:xlink="http://www.w3.org/1999/xlink" x="0px" y="0px"
	 viewBox="0 0 1440 124.8" style="enable-background:new 0 0 1440 124.8;" xml:space="preserve">
<style type="text/css">
	.st0{clip-path:url(#SVGID_2_);fill:#FFFFFF;}
</style>
<g>
	<g>
		<g>
			<g>
				<g>
					<defs>
						<rect id="SVGID_1_" y="-0.5" width="1440" height="126"/>
					</defs>
					<clipPath id="SVGID_2_">
						<use xlink:href="#SVGID_1_"  style="overflow:visible;"/>
					</clipPath>
					<path class="st0" d="M1488.8,987.1c-1.8-3.5-4.3-6.9-6.7-10.4c-87.6-129.2,130.1-843.4-42.1-853.3c-359,6.2-215-49-766-57.9
						c-208.4-1.4-289.4-4.4-404.9-14.9C183.6,40.1,42.4,19.7-36-11.3C-115.1-27.5-742.2,810.6-821.3,842
						c-101.8,40.3,245,193.6,320.3,248.1c194,136.8,281.4,219,461,238.1c313,39.3,244.2,14.7,530,37.7c254,42.5,392,176.4,598,120.3
						C1323.9,1437.7,1598.5,1165.5,1488.8,987.1z"/>
				</g>
			</g>
		</g>
	</g>
</g>
</svg>
