<?xml version="1.0" encoding="utf-8"?>
<!-- Generator: Adobe Illustrator 22.1.0, SVG Export Plug-In . SVG Version: 6.00 Build 0)  -->
<svg version="1.1" id="Capa_1" xmlns="http://www.w3.org/2000/svg" xmlns:xlink="http://www.w3.org/1999/xlink" x="0px" y="0px"
	 viewBox="0 0 1454 118" style="enable-background:new 0 0 1454 118;" xml:space="preserve">
<style type="text/css">
	.st0{clip-path:url(#SVGID_2_);fill:#0062FF;}
</style>
<g>
	<defs>
		<rect id="SVGID_1_" width="1454" height="118"/>
	</defs>
	<clipPath id="SVGID_2_">
		<use xlink:href="#SVGID_1_"  style="overflow:visible;"/>
	</clipPath>
	<path class="st0" d="M-1029.1,595.1c2.9,5.3,6.5,10.4,10.2,15.6c132,195.4-260.9,1537.8-39.1,1532.2
		c260.5-6.9,1151.5-276.2,1366.8-415.6c158.6-103.1,1081.2-115.2,1272-122.5c120.6-4.5,239.2-99.6,358.9-81
		c103.6,16.1-87.6-922.1,8.7-982.1c124-76.8-315.7-301.1-420.5-378.8C1335.2,19.3,1105.9,30.2,873.3,21.8
		C635,12.3,380.4,55,145.4,30.9C-159.9-0.6-462.4-250-770.4-136.5C-1064.8-29.8-1196.9,324-1029.1,595.1z"/>
</g>
</svg>
