<svg id="Group_6331" data-name="Group 6331" xmlns="http://www.w3.org/2000/svg" xmlns:xlink="http://www.w3.org/1999/xlink" width="781.684" height="470.172" viewBox="0 0 781.684 470.172">
  <defs>
    <clipPath id="clip-path">
      <rect id="Rectangle_2644" data-name="Rectangle 2644" width="781.684" height="470.172" fill="none"/>
    </clipPath>
  </defs>
  <g id="Group_6330" data-name="Group 6330" clip-path="url(#clip-path)">
    <path id="Path_5147" data-name="Path 5147" d="M607.174,62.029h-229.6A12.659,12.659,0,0,1,364.916,49.37V25.078a12.659,12.659,0,0,1,12.659-12.659h229.6a12.659,12.659,0,0,1,12.659,12.659V49.37a12.659,12.659,0,0,1-12.659,12.659" transform="translate(141.729 4.823)" fill="#fff"/>
    <path id="Path_5148" data-name="Path 5148" d="M607.653,64.065H377.988a14.233,14.233,0,0,1-14.216-14.216V25.489a14.233,14.233,0,0,1,14.216-14.216H607.653a14.233,14.233,0,0,1,14.216,14.216V49.849a14.233,14.233,0,0,1-14.216,14.216M377.988,14.454a11.047,11.047,0,0,0-11.035,11.035V49.849a11.047,11.047,0,0,0,11.035,11.035H607.653a11.047,11.047,0,0,0,11.035-11.035V25.489a11.047,11.047,0,0,0-11.035-11.035Z" transform="translate(141.284 4.378)" fill="#2c2c2c"/>
    <path id="Path_5149" data-name="Path 5149" d="M397.021,35.115h-5.007V44.4h-3.363V21.08h8.929c5.888,0,9.131,2.494,9.131,7.038,0,3.438-1.884,5.728-5.406,6.588v.859l6.288,8.838h-4.047ZM397.5,24.23H393.1l-1.082,1.1v6.587H397.5c3.8,0,5.766-1.309,5.766-3.8,0-2.578-1.963-3.887-5.766-3.887" transform="translate(150.947 8.187)" fill="#2c2c2c"/>
    <path id="Path_5150" data-name="Path 5150" d="M416.439,25.333V40.146l1.041,1.066h5.484V44.4H406.588v-3.19h5.444l1.082-1.066V25.333l-1.082-1.1h-5.444V21.081h16.376v3.149H417.48Z" transform="translate(157.913 8.187)" fill="#2c2c2c"/>
    <path id="Path_5151" data-name="Path 5151" d="M439.225,41.213q-3.305,3.193-9.011,3.191h-6.328V21.08h6.328q5.706,0,9.011,3.192a11.131,11.131,0,0,1,3.363,8.468,11.143,11.143,0,0,1-3.363,8.473M428.33,24.19l-1.079,1.062V40.187l1.079,1.107h1.884c5.566,0,8.848-3.275,8.848-8.554s-3.282-8.55-8.848-8.55Z" transform="translate(164.632 8.187)" fill="#2c2c2c"/>
    <path id="Path_5152" data-name="Path 5152" d="M451.843,25.333V40.146l1.041,1.066h5.484V44.4H441.992v-3.19h5.444l1.082-1.066V25.333l-1.082-1.1h-5.444V21.081h16.376v3.149h-5.484Z" transform="translate(171.664 8.187)" fill="#2c2c2c"/>
    <path id="Path_5153" data-name="Path 5153" d="M462.181,32.9a10.339,10.339,0,0,0,1.881,6.425,6.144,6.144,0,0,0,5.084,2.416c2.444,0,4.326-1.269,6.248-4.5l2.763,2.169c-2.283,3.929-5.086,5.728-8.969,5.728a9.609,9.609,0,0,1-7.567-3.438,13.158,13.158,0,0,1-2.966-8.8,12.977,12.977,0,0,1,2.966-8.757,9.53,9.53,0,0,1,7.567-3.478c3.883,0,6.686,1.8,8.969,5.728l-2.763,2.169c-1.963-3.232-3.8-4.541-6.248-4.541-4.285,0-6.966,3.52-6.966,8.879" transform="translate(178.136 8.026)" fill="#2c2c2c"/>
    <path id="Path_5154" data-name="Path 5154" d="M491.552,35.647V21.081h3.363V36.1a8.558,8.558,0,0,1-2.6,6.385,8.916,8.916,0,0,1-6.488,2.492,9.009,9.009,0,0,1-6.525-2.492,8.525,8.525,0,0,1-2.563-6.385V21.081H480.1V35.647c0,3.6,2.363,6.1,5.726,6.1s5.729-2.5,5.729-6.1" transform="translate(185.158 8.188)" fill="#2c2c2c"/>
    <path id="Path_5155" data-name="Path 5155" d="M498.9,21.08V40.105l1.041,1.107h12.053V44.4H495.535V21.08Z" transform="translate(192.459 8.187)" fill="#2c2c2c"/>
    <path id="Path_5156" data-name="Path 5156" d="M516.084,33.968v6.138l1.041,1.107h13.254V44.4h-17.66V21.08h17.256V24.27h-12.85l-1.041,1.063v5.444h12.132v3.191Z" transform="translate(199.133 8.187)" fill="#2c2c2c"/>
    <path id="Path_5157" data-name="Path 5157" d="M229.187,41.6c0,22.343-38.975,40.455-110.3,40.455S8.586,63.945,8.586,41.6,47.561,1.147,118.886,1.147s110.3,18.112,110.3,40.455" transform="translate(3.335 0.445)" fill="#f0dcf8"/>
    <path id="Path_5158" data-name="Path 5158" d="M119.33,84.094C51.361,84.094,7.441,67.59,7.441,42.05S51.361,0,119.33,0,231.221,16.508,231.221,42.05,187.3,84.094,119.33,84.094m0-80.912C44.236,3.182,10.622,22.7,10.622,42.05S44.236,80.913,119.33,80.913,228.04,61.394,228.04,42.05,194.426,3.182,119.33,3.182" transform="translate(2.89 0)" fill="#2c2c2c"/>
    <path id="Path_5159" data-name="Path 5159" d="M36.981,35.187H31.869v9.288H28.431V21.152h9.126c6.016,0,9.327,2.494,9.327,7.038,0,3.438-1.922,5.728-5.522,6.588v.859l6.423,8.838H43.653ZM37.475,24.3h-4.5l-1.1,1.1v6.587h5.606c3.887,0,5.891-1.309,5.891-3.8,0-2.578-2-3.887-5.891-3.887" transform="translate(11.042 8.215)" fill="#2c2c2c"/>
    <path id="Path_5160" data-name="Path 5160" d="M50.105,34.04v6.138l1.066,1.107H64.715v3.191H46.668V21.152H64.306v3.191H51.172l-1.066,1.063V30.85h12.4V34.04Z" transform="translate(18.125 8.215)" fill="#2c2c2c"/>
    <path id="Path_5161" data-name="Path 5161" d="M80.071,38.211c0-1.679-.982-2.741-3.231-3.272l-5.728-1.39c-4.584-1.107-6.466-2.948-6.466-6.1A5.843,5.843,0,0,1,67.1,22.622a10.334,10.334,0,0,1,6.425-1.884,14.727,14.727,0,0,1,9.616,3.56L80.971,27a11.472,11.472,0,0,0-7.69-3.068c-3.235,0-5.2,1.225-5.2,3.313,0,1.474.9,2.334,3.721,2.986L77.533,31.7c3.929.984,5.976,3.113,5.976,6.262A6.309,6.309,0,0,1,80.89,43.2a10.769,10.769,0,0,1-6.75,2c-4.3,0-8.391-1.391-10.885-3.722L65.3,38.539a13.139,13.139,0,0,0,8.841,3.438c3.56,0,5.931-1.472,5.931-3.765" transform="translate(24.567 8.054)" fill="#2c2c2c"/>
    <path id="Path_5162" data-name="Path 5162" d="M92.242,35.186H86.433v9.288H82.995V21.152h9.247c6.016,0,9.329,2.494,9.329,7.038s-3.313,7-9.329,7M86.433,25.4v6.588h5.728c3.887,0,5.851-1.309,5.851-3.8,0-2.578-1.963-3.889-5.851-3.889H87.536Z" transform="translate(32.234 8.215)" fill="#2c2c2c"/>
    <path id="Path_5163" data-name="Path 5163" d="M104.375,34.04v6.138l1.066,1.107h13.544v3.191H100.937V21.152h17.638v3.191H105.441l-1.066,1.063V30.85h12.4V34.04Z" transform="translate(39.203 8.215)" fill="#2c2c2c"/>
    <path id="Path_5164" data-name="Path 5164" d="M121.656,32.972a10.177,10.177,0,0,0,1.922,6.425,6.333,6.333,0,0,0,5.2,2.416c2.5,0,4.418-1.269,6.381-4.5l2.825,2.169c-2.331,3.929-5.2,5.728-9.166,5.728a9.921,9.921,0,0,1-7.735-3.438,12.986,12.986,0,0,1-3.028-8.8,12.808,12.808,0,0,1,3.028-8.757,9.837,9.837,0,0,1,7.735-3.478c3.968,0,6.835,1.8,9.166,5.728l-2.825,2.169c-2-3.232-3.885-4.541-6.381-4.541-4.379,0-7.12,3.52-7.12,8.879" transform="translate(45.85 8.054)" fill="#2c2c2c"/>
    <path id="Path_5165" data-name="Path 5165" d="M156.885,24.343h-7.817l-1.1,1.062V44.474h-3.52V25.4l-1.065-1.062h-7.857V21.152h21.36Z" transform="translate(52.636 8.215)" fill="#2c2c2c"/>
    <path id="Path_5166" data-name="Path 5166" d="M520.1,190.037q.408,21.448.85,42.894a2.606,2.606,0,0,0,1.666,2.789q24.864,10.627,49.685,21.356l.419-.44q-25.986-34.084-51.945-68.13c-.986.3-.684,1.016-.675,1.53" transform="translate(201.979 73.214)" fill="#fff"/>
    <path id="Path_5167" data-name="Path 5167" d="M444.576,94.647a12.071,12.071,0,0,0,12.647-4.711,19.635,19.635,0,0,0,4.135-12.758c-.01-1.129-.435-1.6-1.57-1.6-6.149.039-12.3.043-18.449.074a1.6,1.6,0,0,0-.537.229c.943,5.824-1.408,8.422-7.181,7.942.857,4.643,5.924,9.778,10.956,10.82" transform="translate(168.412 29.355)" fill="#fff"/>
    <path id="Path_5168" data-name="Path 5168" d="M468.891,93.677a11.255,11.255,0,0,0,10.8-2.562c4.183-3.553,5.866-8.33,6.166-13.689.067-1.176-.228-1.848-1.6-1.84-5.934.043-11.869.018-18.113.018.1,2.366-.143,4.512-1.931,6.058a6.272,6.272,0,0,1-6.223,1.381c2.12,5.231,5.387,9.1,10.9,10.634" transform="translate(177.876 29.357)" fill="#fff"/>
    <path id="Path_5169" data-name="Path 5169" d="M454.564,277.81a16.771,16.771,0,0,1,.569,2.914q1.591,11.052,3.16,22.106a2.09,2.09,0,0,0,.51,1.381c.757.158.977-.519,1.311-.932q7.568-9.4,15.1-18.824c1.93-2.419,2.866-2.36,4.082.457,3.07,7.1,6.08,14.234,9.137,21.342.419.975.573,2.126,1.735,2.9,2.249-5.451,4.483-10.839,6.695-16.236,1.2-2.936,2.4-5.878,3.535-8.843.3-.784.555-1.492,1.492-1.633,1.037-.155,1.554.461,2.155,1.22,5.122,6.456,10.3,12.866,15.468,19.285a3.255,3.255,0,0,0,1.729,1.409c.85-5.413,1.68-10.675,2.5-15.939.521-3.333,1-6.674,1.562-10,.449-2.637,1.394-2.914,3.472-1.315,6.834,5.254,13.709,10.452,20.512,15.626.926-.478.6-1.119.547-1.636q-1.329-11.987-2.7-23.969c-.379-3.275.8-4.2,3.933-2.97a27.779,27.779,0,0,0,4.561,1.785,6.152,6.152,0,0,0,.3-3.178q-.516-32.624-1.075-65.246c-.051-3.178-.06-6.356-.111-9.534-.092-5.665.611-6.989,6.757-8.765a14.16,14.16,0,0,1,12.546,1.81,7.473,7.473,0,0,1,3.528,6.455c.128,10.527.4,21.052.625,31.577.021.994.049,1.988.122,2.978.149,1.974.162,1.972,2.056,1.7q11.627-1.651,23.257-3.3a1.178,1.178,0,0,0,1.132-.678c-.362-1.052-1.452-1.612-2.31-2.326q-8.243-6.86-16.537-13.66a13.536,13.536,0,0,1-1.354-1.158,1.489,1.489,0,0,1,.262-2.516,11.868,11.868,0,0,1,1.865-.907q9.75-4.421,19.5-8.844a6.942,6.942,0,0,0,2.724-1.561,4.386,4.386,0,0,0-1.879-1.166q-9.551-4.507-19.106-9.005c-.629-.3-1.263-.582-1.873-.914-1.963-1.07-2.135-2.177-.461-3.6,2.117-1.8,4.308-3.514,6.466-5.268q5.548-4.511,11.088-9.029c.519-.426,1.187-.737,1.431-1.688-3.17-1.026-6.493-1.3-9.727-1.938-4.761-.945-9.565-1.679-14.345-2.528-2.536-.451-2.979-1.53-1.4-3.663,4.666-6.3,9.39-12.568,14.081-18.854.64-.858,1.222-1.758,2.091-3.017-2.37.237-4.3.386-6.213.63-7.179.911-14.353,1.858-21.531,2.775-.95.121-2,.529-2.712-.547-.682-1.03,0-1.877.4-2.771q4.715-10.769,9.411-21.548c.307-.7.572-1.423.879-2.188-1.223-.526-2.066.242-2.92.569-7.128,2.728-14.228,5.527-21.337,8.305-.462.18-.914.39-1.386.536-1.892.579-2.888-.172-2.662-2.155.35-3.056.836-6.1,1.25-9.145.784-5.785,1.558-11.574,2.328-17.3-1.061-.483-1.48.264-1.987.619-6.42,4.505-12.809,9.051-19.225,13.562-3.69,2.595-4.68,2.14-5.186-2.271-.553-4.819-1.13-9.634-1.737-14.785-1.207.936-1.361,2.052-1.856,2.934-3.556,6.338-8.678,10-16.21,9.387-4.709-.382-8.373-2.82-11.481-6.232a32.243,32.243,0,0,1-4.208-6.58c-5.777,16.252-21.645,18.359-31.823,5.276-.807,2.417-.825,4.79-1.27,7.064-.285,1.456-.362,2.953-.587,4.422-.258,1.692-1.183,2.135-2.728,1.286a20.684,20.684,0,0,1-1.953-1.362c-5.823-4.143-11.64-8.3-17.483-12.415-.773-.546-1.419-1.42-2.76-1.327.458,5.151.908,10.267,1.372,15.382.251,2.768.562,5.531.787,8.3.344,4.242-.3,4.73-4.168,3.242-6.752-2.6-13.5-5.215-20.258-7.8a5.93,5.93,0,0,0-3.256-.78c2.252,5.591,4.4,10.92,6.546,16.244,1.115,2.76,2.269,5.5,3.357,8.273.805,2.046.323,2.868-1.812,2.763-2.671-.132-5.334-.464-7.992-.789-5.608-.684-11.21-1.433-16.818-2.121a4.328,4.328,0,0,0-2.356.072c-.043,1.118.829,1.748,1.387,2.517q6.287,8.686,12.626,17.335c.41.561.841,1.108,1.218,1.691,1.227,1.9.866,2.946-1.315,3.343-3.607.657-7.236,1.188-10.859,1.762-5.086.805-10.174,1.6-15.228,2.394-.315,1.066.562,1.251,1.027,1.622q9.315,7.429,18.67,14.807c2.9,2.3,2.834,3.1-.465,4.6-6.861,3.116-13.738,6.2-20.6,9.322-.869.4-1.945.51-2.532,1.661l20.933,9.277c1,.442,2.022.834,2.974,1.358,2.042,1.12,2.208,2.4.543,3.947-.58.539-1.229,1.005-1.855,1.494q-8.343,6.5-16.681,13c-.675.529-1.544.905-1.928,2.145L398.8,223.91c.755-.943.525-1.976.55-2.934q.423-16.979.789-33.959c.115-5.559,2.721-8.936,8.272-9.858,3.944-.655,7.887-.426,11.54,1.727a5.227,5.227,0,0,1,2.874,4.208,29.168,29.168,0,0,1,.125,3.268q-.589,38.582-1.2,77.165c-.017,1.083,0,2.167,0,3.4,2.421-.129,4.3-1.294,6.285-2.042,4.125-1.552,4.768-1.057,4.269,3.275-.9,7.79-1.727,15.589-2.578,23.385-.04.368-.153.766.243,1.132a5.676,5.676,0,0,0,2.464-1.47q8.92-6.473,17.814-12.976a16.908,16.908,0,0,1,1.959-1.352,1.5,1.5,0,0,1,2.36.933m27.267-8.454c-.791-.13-1.129-.758-1-1.656a1.2,1.2,0,0,1,1.419-1.143,1.372,1.372,0,0,1,1.2,1.7c-.107.78-.622,1.183-1.626,1.1M455.984,113.9a21.566,21.566,0,0,1,3.188-.686c9.76-1.473,19.589-1.426,29.4-1.04a102.238,102.238,0,0,1,27.718,4.93c2.717.883,5.423,1.806,8.246,2.749a4.1,4.1,0,0,0,.319-2.38c0-.932.032-1.913,1.256-1.973,1.323-.064,1.637.955,1.688,2a18.585,18.585,0,0,1-.489,6.791,11.668,11.668,0,0,1-1.923,3.665,1.649,1.649,0,0,1-2.352.529c-.791-.532-.63-1.388-.231-2.141.372-.7.821-1.358,1.2-2.053.389-.718.387-1.325-.567-1.6-.57-.165-1.127-.375-1.688-.575a112.576,112.576,0,0,0-37.856-6.8c-6.838-.01-13.694-.207-20.508.7-2.259.3-4.525.537-6.789.775a1.362,1.362,0,0,1-1.615-1,1.442,1.442,0,0,1,1-1.891m-7.743,144.818a53.249,53.249,0,0,1-10.1-7.313,4.755,4.755,0,0,1-1.493-1.819,1.468,1.468,0,0,1,.371-1.63,1.3,1.3,0,0,1,1.63-.253,5.776,5.776,0,0,1,1.213.839c4.475,4.328,9.809,7.379,15.224,10.313a60.481,60.481,0,0,0,15.129,6.044c.868.2,1.806.486,1.631,1.717-.146,1.025-.962,1.125-1.859,1.236-.884-.2-1.86-.387-2.811-.654a77.987,77.987,0,0,1-18.932-8.48" transform="translate(143.556 31.814)" fill="#fff"/>
    <path id="Path_5170" data-name="Path 5170" d="M394.4,189.689c-1.6,1.119-11.923,14.579-13.259,17.434,3.907-.489,7.719-1,11.543-1.426,1.209-.135,1.735-.64,1.727-1.87-.029-4.746-.011-9.492-.011-14.138" transform="translate(148.032 73.673)" fill="#f7f4e9"/>
    <path id="Path_5171" data-name="Path 5171" d="M429.235,325.873c1.112,1.281,2.041,1.194,3.078-.047a4.694,4.694,0,0,0-3.078.047" transform="translate(166.709 126.455)" fill="#fff"/>
    <path id="Path_5172" data-name="Path 5172" d="M420.888,325.962c1.556,1.78,1.672,1.781,3.542.121a7.05,7.05,0,0,0-3.542-.121" transform="translate(163.467 126.535)" fill="#fff"/>
    <path id="Path_5173" data-name="Path 5173" d="M436.427,325.688c1.459,1.78,2.491,1.61,3.693.058a10.537,10.537,0,0,0-3.693-.058" transform="translate(169.503 126.441)" fill="#fff"/>
    <path id="Path_5174" data-name="Path 5174" d="M406.429,326.45a1,1,0,0,0,.212.79c.648.809,1.2.117,1.74-.2.218-.129.332-.433.685-.919a6.264,6.264,0,0,0-1.163-.172c-.529.05-1.225-.25-1.473.5" transform="translate(157.843 126.587)" fill="#fff"/>
    <path id="Path_5175" data-name="Path 5175" d="M416.055,326.175a8.323,8.323,0,0,0-3.786-.149c1.506,1.9,1.506,1.9,3.786.149" transform="translate(160.12 126.567)" fill="#fff"/>
    <path id="Path_5176" data-name="Path 5176" d="M408.016,329.117c.2.011.4.006.6,0,16.183-.212,32.37.022,48.551-.483.6-.018,1.193-.061,1.787-.053,1.094.014,1.6-.476,1.658-1.6a146.323,146.323,0,0,0,.33-16.066c-.05-.827-.087-1.613-1.205-1.662a202.92,202.92,0,0,0-20.858.217,31.415,31.415,0,0,1,3.489,4.548,6.657,6.657,0,0,1,.915,2.493,1.445,1.445,0,0,1-1.07,1.59,1.289,1.289,0,0,1-1.561-.55,13.21,13.21,0,0,1-.787-1.6,12.5,12.5,0,0,0-3.1-3.95c-1.674-1.516-3.479-2.178-5.819-1.152.107,1.12,1.17,1.494,1.784,2.167a12.5,12.5,0,0,1,2.675,3.542c.389.955.626,2.017-.565,2.581-1.043.493-1.684-.224-2.113-1.075a11.987,11.987,0,0,0-4.4-4.751c-1.691-1.073-3.5-1.859-5.7-.33a32.872,32.872,0,0,1,4.157,3.542,22.182,22.182,0,0,1,1.667,2.091,1.51,1.51,0,0,1-.337,2.337,1.488,1.488,0,0,1-2.081-.544,18.764,18.764,0,0,0-5.227-4.8,4.728,4.728,0,0,0-5.3-.115c-2.735,1.648-5.447,3.257-7.361,5.919a10.615,10.615,0,0,0-2.033,5.512c-.132,1.773.178,2.091,1.9,2.191" transform="translate(157.721 120.044)" fill="#fff"/>
    <path id="Path_5177" data-name="Path 5177" d="M457.677,310.994c.069.921.683,1.065,1.452,1.065.848,0,1.275-.35,1.27-1.225-.011-2.671,0-5.341,0-8.011h-.412c0-2.668.018-5.337-.01-8.007-.008-.782-.007-1.68-1.154-1.7-1.325-.024-1.284.943-1.279,1.858q.04,7.568.085,15.135c0,.3.029.591.051.887" transform="translate(177.703 113.842)" fill="#fff"/>
    <path id="Path_5178" data-name="Path 5178" d="M465.177,325.722c1.4,2.27,1.855,2.3,3.813.008a10.364,10.364,0,0,0-3.812-.008" transform="translate(180.669 126.439)" fill="#fff"/>
    <path id="Path_5179" data-name="Path 5179" d="M470.906,311.881c.826-.072.78-.765.783-1.336q.015-8.024-.006-16.05c0-.465.035-1.051-.643-1.132-.786-.093-1.04.446-1.044,1.088-.021,2.773-.01,5.547-.01,8.321h-.133c0,2.575-.006,5.151,0,7.728,0,.707.024,1.47,1.048,1.38" transform="translate(182.484 113.935)" fill="#fff"/>
    <path id="Path_5180" data-name="Path 5180" d="M460.647,327.981c1.63.168,1.78-1.062,2.1-2.357h-4.069c.049,1.363.611,2.217,1.965,2.357" transform="translate(178.146 126.468)" fill="#fff"/>
    <path id="Path_5181" data-name="Path 5181" d="M464.169,302.456q0-3.713,0-7.428c0-.912.054-1.837-1.313-1.8-1.18.029-1.18.823-1.159,1.633q.192,7.722.411,15.444c.024.8.042,1.638,1.23,1.581s1.093-.922,1.1-1.7c.013-2.574,0-5.15,0-7.724h-.268" transform="translate(179.315 113.884)" fill="#fff"/>
    <path id="Path_5182" data-name="Path 5182" d="M467.049,311.845c1,0,1.044-.734,1.054-1.441q.1-7.9.174-15.789c.008-.8-.285-1.326-1.2-1.341-.945-.017-1.17.546-1.172,1.326q0,3.874,0,7.746h.13c0,2.682-.007,5.363,0,8.044,0,.7-.017,1.455,1.012,1.455" transform="translate(180.95 113.904)" fill="#fff"/>
    <path id="Path_5183" data-name="Path 5183" d="M460.055,309.2c-2.263.081-2.238.122-2.373,2.355-.305,5.063.126,10.107.323,15.16.056,1.419.658,1.88,2,1.9,3.768.049,7.536.242,11.3.272q19.047.154,38.095.232c3.261.017,3.528-.364,2.9-3.628a11.033,11.033,0,0,0-3.124-5.642,27.288,27.288,0,0,0-8.993-5.685,1.884,1.884,0,0,0-2.531.825A12.763,12.763,0,0,0,495.781,319c-.267.89-.759,1.744-1.891,1.417-1.066-.307-1.157-1.212-1-2.177.318-2.006,1.415-3.665,2.613-5.6-3.98-1.293-4.758-.957-6.348,2.625-.361.812-.573,1.691-.911,2.516a1.488,1.488,0,0,1-1.908.991c-.959-.282-1.045-1.116-.914-1.942.335-2.083,1.562-3.81,2.444-5.672-2.935-1.269-3.949-1.038-5.606,1.187a10.751,10.751,0,0,0-1.78,4.365c-.221,1.066-.832,1.9-2.078,1.524-1.107-.337-.99-1.336-.884-2.241a16.408,16.408,0,0,1,2.412-5.9,2.847,2.847,0,0,0-2.319-.761c-5.849-.262-11.7-.34-17.553-.133" transform="translate(177.717 120.043)" fill="#fff"/>
    <path id="Path_5184" data-name="Path 5184" d="M494.987,325.982c0,.311-.069.53.011.623.882,1.043,1.62.887,2.269-.249-.753-.714-1.523-.311-2.28-.375" transform="translate(192.236 126.585)" fill="#f7f4e9"/>
    <path id="Path_5185" data-name="Path 5185" d="M442.8,325.6c1.817,2.344,1.924,2.346,2.907.229-.916-.566-1.862-.194-2.907-.229" transform="translate(171.976 126.426)" fill="#fff"/>
    <path id="Path_5186" data-name="Path 5186" d="M477.017,325.748H471.8c2.1,2.312,3.317,2.333,5.22,0" transform="translate(183.24 126.516)" fill="#fff"/>
    <path id="Path_5187" data-name="Path 5187" d="M479.5,325.894c1.176,2.2,1.473,2.234,4.118.273a9.239,9.239,0,0,0-4.118-.273" transform="translate(186.23 126.53)" fill="#f7f4e9"/>
    <path id="Path_5188" data-name="Path 5188" d="M491.35,326.142a8.218,8.218,0,0,0-4.173.01c1.227,1.543,2.384,1.268,4.173-.01" transform="translate(189.213 126.567)" fill="#f7f4e9"/>
    <path id="Path_5189" data-name="Path 5189" d="M441.7,312.028c1.107-.01,1.612-.351,1.6-1.538-.042-5.265-.035-10.528-.018-15.793,0-1.066-.322-1.637-1.509-1.7-1.455-.071-1.6.755-1.591,1.867.021,2.682.007,5.363.007,8.046h.036c0,2.484.021,4.966-.01,7.449-.012,1.052.254,1.676,1.483,1.665" transform="translate(170.96 113.796)" fill="#fff"/>
    <path id="Path_5190" data-name="Path 5190" d="M446.112,294.412c-.01-.507-.053-1.113-.63-1.177-.612-.068-.71.528-.759,1.023a5.62,5.62,0,0,0-.018.593q.01,7.864.031,15.726a1.167,1.167,0,0,0,.7,1.3c.759-.647.591-1.376.6-2.033.043-4.847.063-9.692.089-14.539,0-.3,0-.593-.007-.89" transform="translate(172.717 113.886)" fill="#fff"/>
    <path id="Path_5191" data-name="Path 5191" d="M437.477,293.052c-1.012-.107-1.086.633-1.084,1.349q.008,8.149.044,16.3c0,.629.164,1.205.955,1.209.814,0,.926-.605.93-1.213.015-2.667.007-5.334.007-8h-.057c0-2.766.013-5.531-.01-8.3,0-.566.031-1.258-.786-1.345" transform="translate(169.489 113.814)" fill="#fff"/>
    <path id="Path_5192" data-name="Path 5192" d="M433.391,312.13c1.458-.01,1.506-.93,1.5-1.987q-.019-6.514-.018-13.027,0-1.185-.011-2.369c-.006-.95-.11-1.755-1.391-1.788-1.3-.035-1.4.744-1.393,1.713.011,2.664,0,5.33,0,7.994,0,2.467-.026,4.934.008,7.4.013.908-.335,2.073,1.3,2.062" transform="translate(167.81 113.781)" fill="#fff"/>
    <path id="Path_5193" data-name="Path 5193" d="M515.524,305.446c1.27.239,1.633,1.12,2.153,1.734,1.284,1.515,2.471,3.11,3.758,4.622.741.872,1.324,2.191,2.785,1.855,1.494-.343,1.413-1.8,1.6-2.913.712-4.308,1.325-8.633,2-12.948.666-4.292,1.358-8.579,2.073-13.088a7.251,7.251,0,0,1,2.909,1.726c6.108,4.6,12.184,9.24,18.309,13.817.966.723,1.884,2.09,3.357,1.245,1.447-.829.828-2.334.7-3.535-.815-7.9-1.712-15.79-2.568-23.686-.093-.852-.49-1.729.04-2.564a.871.871,0,0,1,.319-.054c4.727,1.281,4.769,1.281,4.866,6.1.172,8.541.229,17.086.469,25.624a4.723,4.723,0,0,1-2.173,4.491,22.487,22.487,0,0,0-3.55,3.163c-4.6,4.943-5.39,10.568-2.307,17.072,1.412,2.978,2.7,5.93,2.677,9.317a8.062,8.062,0,0,0,.579,2.6c1.276,3.678,3.664,4.753,7.2,3.046a2.8,2.8,0,0,1,3.481.319,4.733,4.733,0,0,0,6.3.137,3.3,3.3,0,0,1,3.771-.53c2.344,1.03,4.321-.032,5.769-1.859a9.521,9.521,0,0,1,3.871-3.032,6.7,6.7,0,0,0,4.258-6.291,41.44,41.44,0,0,0-.555-8.6c-1.045-6-3.275-11.629-5.291-17.327a8.12,8.12,0,0,1-.61-2.284c-.14-3.574-.214-7.15-.261-10.725-.039-2.971-.008-5.944-.008-8.994,1.368-.144,2.359.611,3.4,1.061q25.016,10.729,50.01,21.51c.908.392,1.835.751,2.777,1.052a1.656,1.656,0,0,0,1.855-.623,1.576,1.576,0,0,0,.058-1.945c-.475-.754-1.03-1.459-1.572-2.17-12.039-15.8-24.168-31.525-36.083-47.415-5.6-7.465-11.486-14.706-17-22.228a8.63,8.63,0,0,1-1.655-2.628c2.428-.9,4.93-.872,7.343-1.254,6.266-.993,12.55-1.863,18.824-2.806,1.136-.171,2.557-.021,2.889-1.561.3-1.381-.739-2.174-1.658-2.936q-8.834-7.318-17.683-14.616A6.6,6.6,0,0,1,591,205.454c.263-.886,1.151-.95,1.809-1.251q10.278-4.713,20.579-9.372c.632-.287,1.273-.555,1.9-.858.736-.355,1.4-.789,1.39-1.744s-.675-1.352-1.423-1.7q-4.584-2.141-9.156-4.3-7.516-3.557-15.033-7.129c.489-1.147,1.424-1.6,2.177-2.217,5.611-4.59,11.256-9.138,16.857-13.742.939-.773,2.437-1.373,2-2.986-.435-1.584-2.049-1.441-3.235-1.659-7.115-1.309-14.249-2.513-21.374-3.768-.872-.154-1.727-.408-2.631-.625.022-1.177.864-1.813,1.422-2.566q7.2-9.686,14.445-19.329c.119-.16.25-.31.362-.473.6-.877,1.541-1.669.778-2.907-.722-1.172-1.887-.952-2.95-.855-2.27.208-4.536.482-6.8.765-6.974.873-13.945,1.765-21.133,2.675a4.55,4.55,0,0,1,.725-2.537c3.081-7.1,6.2-14.187,9.258-21.3.523-1.211,1.784-2.506.611-3.831-1.35-1.524-2.949-.479-4.394.082-7.115,2.761-14.218,5.554-21.33,8.326-.907.354-1.834.654-2.975,1.057-.4-2.992.418-5.663.744-8.343.765-6.3,1.715-12.588,2.613-18.876.146-1.018.285-2-.673-2.706-1.151-.844-2.067-.093-2.954.532q-10.221,7.21-20.436,14.432a5.162,5.162,0,0,1-2.646,1.441c-.705-1.468-.529-3.093-.733-4.629-.732-5.511-1.347-11.036-2.072-16.548-.182-1.384.107-2.067,1.651-1.978,1.486.086,2.979.025,4.469,0,1.065-.017,2.094-.278,2.141-1.549.055-1.479-1.086-1.7-2.252-1.748-.594-.022-1.193-.012-1.787-.012q-40.975-.04-81.947-.075c-.7,0-1.391.007-2.087.006-1.091,0-2.123.337-2.2,1.52-.09,1.436,1.119,1.709,2.253,1.8.89.071,1.79-.015,2.681.039,1.572.1,3.439-.611,4.636.375,1.105.909.494,2.841.954,4.235,1.992,6.056-.962,11.672-1.036,17.553-1.637-.083-2.366-.989-3.228-1.6-6-4.232-11.983-8.5-17.97-12.761-.325-.23-.643-.469-.975-.686-.819-.533-1.613-1.306-2.687-.614-.976.632-.993,1.627-.894,2.657q.679,7.116,1.334,14.234c.35,3.846.675,7.693,1.011,11.542a3.659,3.659,0,0,1-2.693-.515c-7.313-2.8-14.6-5.654-21.93-8.421-1.209-.457-2.62-1.627-3.832-.243-1.125,1.283-.064,2.653.432,3.894,2.8,7,5.653,13.981,8.469,20.977a7.03,7.03,0,0,1,.909,3.075c-2.761.265-5.437-.487-8.122-.762-6.41-.655-12.805-1.469-19.208-2.212a5.743,5.743,0,0,0-1.476-.064,1.545,1.545,0,0,0-1.388,2.138,8.093,8.093,0,0,0,1.547,2.523q6.931,9.509,13.86,19.02a4.192,4.192,0,0,1,1.044,1.783c-.36.748-1.1.753-1.753.852q-12.2,1.879-24.4,3.722a2.909,2.909,0,0,0-.3.037c-1.018.279-2.321.136-2.749,1.4-.487,1.441.65,2.141,1.584,2.881q9.686,7.683,19.374,15.367c.54.428,1.059.882,1.573,1.309-.315,1.15-1.351,1.194-2.1,1.534-7.221,3.281-14.474,6.495-21.692,9.784-1.108.505-2.735.715-2.728,2.363.007,1.684,1.684,1.755,2.787,2.252,7.324,3.3,14.67,6.548,22.007,9.817.719.321,1.423.676,2.133,1.013-.282,1.054-1.2,1.375-1.87,1.9-6.17,4.844-12.382,9.637-18.54,14.5-1.025.808-2.736,1.413-2.256,3.128.451,1.609,2.115,1.538,3.475,1.749q11.9,1.843,23.8,3.7c.68.108,1.341.346,2.466.644-3.831,5.072-7.413,9.815-10.993,14.559-1.794,2.378-3.579,4.765-5.387,7.132-.672.88-1.473,1.755-.794,2.925.69,1.19,1.915.861,2.968.736,3.939-.461,7.869-.983,11.8-1.474.689-.086,1.384-.125,2.073-.21.969-.119,1.523.2,1.476,1.27-.031.694-.011,1.391-.025,2.085q-.419,21.453-.848,42.905c-.065,3.256-1.544,6.114-2.639,9.076a55.9,55.9,0,0,0-3.94,19.132c-.026,3.94,1.541,6.692,5.324,8.019a4.839,4.839,0,0,1,2.239,1.831c2.292,2.977,3.638,3.425,7.14,2.324a2.366,2.366,0,0,1,2.448.448c2.428,1.91,4.882,2.017,7.286-.044a2.246,2.246,0,0,1,2.714-.2c4.358,1.935,6.668.743,7.858-3.928a5.667,5.667,0,0,0,.283-1.456c-.069-3.382,1.2-6.348,2.628-9.326,3.428-7.161,2.434-13.485-3.754-18.457-3.454-2.774-4.484-5.669-4.25-9.838.4-7.038.394-14.1.4-21.152,0-2.017.616-3.122,2.591-3.639a44.523,44.523,0,0,0,4.451-1.661c.63.936.251,1.812.162,2.639q-1.285,11.842-2.623,23.68a8.963,8.963,0,0,0-.068,1.188c.053,2.124,1.244,2.835,3.121,1.826a15.476,15.476,0,0,0,1.706-1.193q9.026-6.583,18.049-13.166c.855-.622,1.747-1.191,2.882-1.962a52.752,52.752,0,0,1,1.406,10.553q.006,34.879-.047,69.757-.015,14.891-.021,29.78c0,.3,0,.6,0,.894-.062,2.1-.058,2.138-2.3,2.456a83.873,83.873,0,0,0-17.648,4.011,33.17,33.17,0,0,0-10.824,6.1,14.547,14.547,0,0,0-5.233,9.528c-25.191,2.417-41.331,6.126-41.331,10.285,0,7.285,49.446,13.191,110.442,13.191s110.442-5.906,110.442-13.191c0-4.454-18.509-8.391-46.823-10.779a16.37,16.37,0,0,0-7.567-10.917c-5.917-3.9-12.544-5.841-19.4-7.157-2.432-.468-4.888-.841-7.352-1.091-1.294-.132-1.74-.685-1.661-1.885.033-.494,0-.993,0-1.49q-.008-14.87-.015-29.738-.017-28.344-.031-56.689ZM584.8,326.67a25.834,25.834,0,0,1,.144,4.754,3.877,3.877,0,0,1-2.724,3.878,7.494,7.494,0,0,0-4.359,3.336,2.3,2.3,0,0,1-3.525.911c-1.63-.982-3.122-.7-4.646.514-2.073,1.655-2.184,1.62-4.6-.06a4.136,4.136,0,0,0-4.723-.4c-.436.237-.893.439-1.312.7-1,.63-1.641.251-2.187-.665a7.223,7.223,0,0,1-.766-2.551,34.666,34.666,0,0,1-.394-7.125c.083-2.58.249-5.156.3-7.736.021-1.041.26-2.46-1.3-2.55-1.523-.089-1.523,1.245-1.584,2.349a9.1,9.1,0,0,1-.605,3.433c-1.672-4.358-1.183-7.957,1.488-11.253a25.184,25.184,0,0,1,5.07-4.578,5.184,5.184,0,0,0,2.5-5.311,44.066,44.066,0,0,1-.18-5.355q-.854-53.324-1.691-106.648c-.018-1.186.13-2.374.178-3.564a2.146,2.146,0,0,1,1.251-1.86,12.282,12.282,0,0,1,9.74-1.376c4.192,1.125,5.1,2.419,5.188,6.685q.192,8.934.386,17.87c.647,29.985,1.368,59.967,1.859,89.955a30.672,30.672,0,0,0,2.662,12A60.838,60.838,0,0,1,584.8,326.67m48.055-25.23-.418.44q-24.839-10.692-49.686-21.356a2.6,2.6,0,0,1-1.666-2.788q-.415-21.449-.85-42.9c-.01-.514-.311-1.225.676-1.53q25.945,34.029,51.944,68.13M500.245,82.608c1.787-1.545,2.028-3.692,1.93-6.058,6.245,0,12.18.025,18.114-.017,1.374-.01,1.669.662,1.6,1.838-.3,5.359-1.983,10.137-6.166,13.689a11.257,11.257,0,0,1-10.8,2.562c-5.516-1.537-8.783-5.4-10.9-10.634a6.274,6.274,0,0,0,6.224-1.381m-32.871-5.777c.179-.079.357-.228.536-.229,6.151-.031,12.3-.035,18.45-.074,1.134-.007,1.559.466,1.569,1.6a19.635,19.635,0,0,1-4.135,12.758,12.071,12.071,0,0,1-12.647,4.711c-5.032-1.041-10.1-6.177-10.956-10.82,5.773.48,8.124-2.117,7.182-7.942M398.879,250.96c-3.824.426-7.636.937-11.542,1.426,1.334-2.855,11.658-16.315,13.258-17.434,0,4.646-.017,9.392.011,14.138.008,1.23-.518,1.736-1.727,1.87m28.194,61.411c2.684,3.289,3.2,6.889,1.533,11.29-.712-1.676-.5-2.992-.672-4.26-.114-.855-.493-1.57-1.474-1.549-1,.022-1.329.771-1.33,1.638-.006,1.388.031,2.778.1,4.165.193,4.165.535,8.339-.4,12.461-.644,2.856-1.207,3.15-3.749,1.835a4.524,4.524,0,0,0-5.254.4c-2.165,1.587-2.292,1.6-4.35-.043-1.509-1.2-2.991-1.56-4.637-.568a2.309,2.309,0,0,1-3.543-.845,7.466,7.466,0,0,0-4.34-3.363,3.9,3.9,0,0,1-2.777-3.842,23.194,23.194,0,0,1,.026-3.569,63.808,63.808,0,0,1,3.657-15.292c1.022-2.753,2.689-5.34,2.757-8.369q.943-41.548,1.809-83.1c.215-10.027.494-20.055.6-30.084a4.759,4.759,0,0,1,2.685-4.534,11.983,11.983,0,0,1,9.506-.861c3.511.962,4.126,1.81,4.214,5.394.015.6-.018,1.191-.028,1.787q-.414,25.322-.832,50.641c-.34,20.455-.661,40.912-1.068,61.365a5.1,5.1,0,0,0,2.262,4.54,29.018,29.018,0,0,1,5.309,4.759m26.844-32.088a16.989,16.989,0,0,0-1.958,1.351q-8.907,6.489-17.814,12.976a5.678,5.678,0,0,1-2.464,1.472c-.4-.365-.283-.764-.243-1.133.851-7.8,1.68-15.593,2.577-23.383.5-4.332-.144-4.829-4.269-3.277-1.988.748-3.863,1.913-6.284,2.042,0-1.23-.015-2.313,0-3.4q.6-38.582,1.2-77.164a29.207,29.207,0,0,0-.125-3.27,5.227,5.227,0,0,0-2.874-4.208c-3.654-2.153-7.6-2.381-11.542-1.726-5.551.922-8.155,4.3-8.272,9.858q-.356,16.979-.789,33.959c-.024.957.207,1.991-.55,2.932l-25.191-3.993c.383-1.238,1.254-1.615,1.927-2.144q8.326-6.519,16.683-13c.626-.487,1.275-.954,1.855-1.494,1.665-1.549,1.5-2.827-.543-3.946-.952-.523-1.978-.916-2.974-1.358q-10.452-4.636-20.933-9.279c.587-1.15,1.663-1.263,2.532-1.659,6.859-3.124,13.735-6.206,20.6-9.323,3.3-1.5,3.368-2.3.466-4.6q-9.342-7.4-18.671-14.807c-.465-.371-1.341-.555-1.027-1.622,5.055-.793,10.142-1.588,15.229-2.394,3.622-.572,7.251-1.105,10.859-1.762,2.181-.4,2.542-1.437,1.313-3.342-.375-.583-.807-1.13-1.216-1.692q-6.319-8.664-12.627-17.334c-.557-.769-1.429-1.4-1.386-2.519a4.354,4.354,0,0,1,2.356-.072c5.608.689,11.208,1.438,16.816,2.123,2.659.325,5.322.657,7.993.789,2.135.1,2.616-.716,1.812-2.764-1.089-2.77-2.244-5.513-3.357-8.272-2.152-5.326-4.294-10.653-6.548-16.244a5.92,5.92,0,0,1,3.257.78c6.759,2.584,13.5,5.2,20.258,7.8,3.869,1.488,4.512,1,4.167-3.242-.225-2.77-.534-5.533-.786-8.3-.464-5.115-.914-10.231-1.373-15.383,1.343-.093,1.987.782,2.762,1.327q8.763,6.177,17.483,12.415a20.526,20.526,0,0,0,1.953,1.363c1.544.848,2.469.405,2.727-1.286.225-1.47.3-2.966.589-4.422.446-2.276.464-4.647,1.269-7.064,10.18,13.081,26.046,10.975,31.825-5.277a32.194,32.194,0,0,0,4.208,6.581c3.107,3.411,6.771,5.851,11.481,6.231,7.532.609,12.654-3.048,16.209-9.386.494-.882.648-2,1.856-2.935.605,5.152,1.184,9.967,1.737,14.786.5,4.41,1.5,4.866,5.186,2.27,6.414-4.511,12.805-9.056,19.225-13.562.505-.355.925-1.1,1.985-.618-.771,5.731-1.544,11.518-2.328,17.3-.412,3.049-.9,6.088-1.248,9.144-.228,1.984.769,2.735,2.66,2.155.472-.144.925-.355,1.386-.535,7.109-2.778,14.21-5.579,21.338-8.307.854-.326,1.7-1.094,2.92-.568-.307.765-.573,1.486-.879,2.188q-4.7,10.777-9.412,21.548c-.391.894-1.077,1.74-.394,2.771.712,1.076,1.762.668,2.712.547,7.178-.918,14.352-1.866,21.53-2.777,1.916-.243,3.843-.392,6.214-.629-.871,1.259-1.452,2.159-2.091,3.016-4.691,6.287-9.415,12.55-14.081,18.856-1.579,2.131-1.136,3.21,1.4,3.661,4.78.851,9.583,1.583,14.343,2.528,3.234.643,6.559.912,9.727,1.94-.243.951-.911,1.262-1.43,1.687q-5.533,4.53-11.088,9.03c-2.158,1.752-4.348,3.467-6.466,5.266-1.674,1.423-1.5,2.53.461,3.6.61.332,1.244.616,1.872.914q9.553,4.5,19.107,9a4.412,4.412,0,0,1,1.878,1.166,6.934,6.934,0,0,1-2.724,1.561q-9.742,4.444-19.5,8.845a11.624,11.624,0,0,0-1.863.907,1.489,1.489,0,0,0-.264,2.516,13.913,13.913,0,0,0,1.355,1.158q8.272,6.825,16.537,13.659c.858.715,1.948,1.275,2.31,2.327a1.179,1.179,0,0,1-1.132.676q-11.629,1.66-23.258,3.3c-1.892.269-1.906.272-2.055-1.7-.074-.99-.1-1.984-.124-2.977-.223-10.525-.5-21.051-.623-31.577a7.474,7.474,0,0,0-3.528-6.455,14.165,14.165,0,0,0-12.545-1.812c-6.146,1.777-6.849,3.1-6.757,8.765.051,3.178.06,6.357.111,9.535q.539,32.622,1.073,65.246a6.133,6.133,0,0,1-.3,3.177,27.609,27.609,0,0,1-4.561-1.784c-3.134-1.234-4.312-.305-3.933,2.97q1.389,11.979,2.7,23.969c.058.517.38,1.158-.547,1.634-6.8-5.175-13.678-10.371-20.511-15.626-2.08-1.6-3.024-1.32-3.472,1.316-.566,3.325-1.041,6.667-1.563,10-.822,5.262-1.652,10.524-2.5,15.937a3.262,3.262,0,0,1-1.73-1.408c-5.169-6.418-10.345-12.83-15.467-19.286-.6-.758-1.118-1.375-2.155-1.219-.939.14-1.193.848-1.494,1.633-1.134,2.964-2.33,5.9-3.533,8.843-2.212,5.4-4.446,10.784-6.7,16.236-1.162-.776-1.315-1.926-1.734-2.9-3.059-7.11-6.067-14.239-9.137-21.344-1.216-2.817-2.153-2.874-4.082-.455q-7.522,9.432-15.1,18.822c-.332.412-.553,1.091-1.309.932a2.08,2.08,0,0,1-.51-1.381q-1.585-11.052-3.161-22.1a16.686,16.686,0,0,0-.568-2.916,1.5,1.5,0,0,0-2.362-.932m4.14,47.377c0-.6-.006-1.191.021-1.785.022-.511.106-.971.807-.958,1.623.029,2.409-1.169,3.266-2.27q5.939-7.626,11.893-15.243c.951-1.218,1.92-2.424,2.941-3.711.827.919.529,1.749.525,2.488q-.192,33.026-.428,66.05c0,.594-.026,1.188-.037,1.784a1.132,1.132,0,0,1-1.287,1.259c-5.454-.008-10.909-.019-16.362-.006-1.058,0-1.369-.557-1.338-1.491.017-.5-.006-.991-.006-1.487q0-22.315.007-44.63m18.252,69.69a1.167,1.167,0,0,1-.7-1.3q-.027-7.864-.031-15.726a5.612,5.612,0,0,1,.018-.593c.05-.5.147-1.091.759-1.023.578.064.622.671.63,1.177.006.3.008.593.007.89-.026,4.847-.046,9.694-.089,14.539-.006.657.162,1.386-.6,2.033m-7-9.048c0-2.682.015-5.363-.007-8.046-.01-1.112.137-1.938,1.591-1.867,1.189.057,1.512.629,1.509,1.7-.015,5.263-.024,10.528.018,15.793.01,1.187-.5,1.527-1.6,1.538-1.229.011-1.494-.614-1.483-1.665.031-2.482.011-4.966.011-7.449Zm-3.328-.2c0,2.666.008,5.333-.007,8,0,.61-.117,1.219-.929,1.214-.793,0-.955-.58-.957-1.209q-.035-8.149-.044-16.3c0-.716.072-1.456,1.084-1.349.816.087.782.779.786,1.345.022,2.766.01,5.531.01,8.3Zm-7.926-.06c0-2.664.008-5.329,0-7.993-.006-.969.093-1.749,1.394-1.715,1.28.033,1.384.84,1.391,1.788q.006,1.185.01,2.369.008,6.514.018,13.027c0,1.057-.044,1.978-1.5,1.988-1.634.01-1.287-1.155-1.3-2.062-.036-2.467-.013-4.936-.01-7.4m-34.02,25.012c1.913-2.662,4.626-4.272,7.361-5.919a4.725,4.725,0,0,1,5.3.114,18.748,18.748,0,0,1,5.227,4.805,1.488,1.488,0,0,0,2.081.543,1.509,1.509,0,0,0,.337-2.335,21.832,21.832,0,0,0-1.667-2.091,32.878,32.878,0,0,0-4.157-3.543c2.192-1.529,4-.741,5.7.33a12,12,0,0,1,4.4,4.752c.429.85,1.071,1.568,2.113,1.073,1.191-.564.954-1.626.565-2.581a12.523,12.523,0,0,0-2.675-3.542c-.615-.673-1.677-1.047-1.784-2.167,2.339-1.026,4.144-.364,5.819,1.152a12.489,12.489,0,0,1,3.1,3.95,13.221,13.221,0,0,0,.789,1.6,1.291,1.291,0,0,0,1.561.551,1.448,1.448,0,0,0,1.07-1.59,6.664,6.664,0,0,0-.915-2.495,31.417,31.417,0,0,0-3.489-4.548,203.328,203.328,0,0,1,20.858-.217c1.118.049,1.154.834,1.205,1.662a146.35,146.35,0,0,1-.33,16.068c-.056,1.122-.564,1.612-1.658,1.6-.594-.008-1.191.036-1.787.054-16.18.505-32.367.271-48.552.482-.2,0-.4.01-.6,0-1.719-.1-2.028-.418-1.9-2.191a10.62,10.62,0,0,1,2.034-5.51m48.9,10.571c1.046.035,1.991-.337,2.907.229-.983,2.117-1.09,2.113-2.907-.229m-8.843.1a10.5,10.5,0,0,1,3.693.058c-1.2,1.552-2.234,1.72-3.693-.058m-9.985.2a4.685,4.685,0,0,1,3.078-.046c-1.036,1.24-1.965,1.329-3.078.046m-11.589.168a7.05,7.05,0,0,1,3.542.121c-1.87,1.66-1.984,1.659-3.542-.121m-11.965.1a8.3,8.3,0,0,1,3.785.149c-2.28,1.748-2.28,1.748-3.785-.149m-6.166,1.033c-.536.318-1.09,1.009-1.74.2a1,1,0,0,1-.211-.79c.248-.751.944-.45,1.472-.5a6.1,6.1,0,0,1,1.163.171c-.351.486-.466.79-.684.919m55.327-10.327c.047-4.323.081-8.645.182-12.958.292-12.316.353-24.633.425-36.949.05-8.537.1-17.074.25-25.612.218-12.712.137-25.43.208-38.145a9.335,9.335,0,0,1,.215-3.165c.958-.028.9.748,1.109,1.234,2.289,5.28,4.546,10.575,6.836,15.854a10.076,10.076,0,0,1,.784,4.046q.154,22.894.319,45.788c.082,10.367.165,20.733.307,31.1.085,6.256-.114,12.521.079,18.777-.833,0-1.659-.008-2.5-.008-2.768,0-5.5.017-8.219.04m14.971-36.344c1.147.021,1.145.919,1.154,1.7.028,2.668.01,5.337.01,8.007h.412c0,2.67-.007,5.34,0,8.01,0,.875-.422,1.225-1.27,1.225-.769,0-1.383-.143-1.452-1.065-.022-.294-.05-.591-.051-.887q-.046-7.566-.085-15.133c-.006-.916-.046-1.883,1.279-1.858m2.27,47.493c-1.354-.139-1.916-.994-1.965-2.357h4.069c-.325,1.3-.475,2.527-2.1,2.357m7.054-2.287a10.305,10.305,0,0,1,3.813.008c-1.958,2.285-2.419,2.262-3.813-.008m9.19.1h5.22c-1.9,2.332-3.12,2.313-5.22,0m10.691.16a9.245,9.245,0,0,1,4.119.273c-2.646,1.962-2.943,1.924-4.119-.273m10.663.3a8.218,8.218,0,0,1,4.173-.01c-1.79,1.277-2.945,1.552-4.173.01m10.843.472c-.081-.093-.011-.312-.011-.625.757.065,1.527-.337,2.28.375-.648,1.136-1.387,1.291-2.269.25M515.8,401.726a16.405,16.405,0,0,0-2.41,5.9c-.107.907-.224,1.9.883,2.241,1.248.38,1.858-.458,2.078-1.525a10.76,10.76,0,0,1,1.781-4.365c1.658-2.224,2.671-2.456,5.6-1.186-.882,1.862-2.109,3.589-2.444,5.67-.132.826-.046,1.662.914,1.942a1.49,1.49,0,0,0,1.909-.991c.336-.825.548-1.7.909-2.516,1.59-3.582,2.367-3.917,6.348-2.625-1.2,1.933-2.3,3.592-2.613,5.6-.153.965-.064,1.872,1,2.177,1.133.326,1.624-.528,1.892-1.418a12.743,12.743,0,0,1,1.874-4.012,1.883,1.883,0,0,1,2.531-.823,27.248,27.248,0,0,1,8.992,5.684,11.013,11.013,0,0,1,3.124,5.642c.63,3.264.364,3.646-2.9,3.628q-19.047-.1-38.093-.232c-3.769-.031-7.536-.224-11.306-.272-1.344-.017-1.947-.479-2-1.9-.2-5.051-.63-10.1-.325-15.16.136-2.232.111-2.274,2.373-2.355,5.853-.207,11.706-.129,17.555.135a2.838,2.838,0,0,1,2.317.759m-14.993-4.369c-1.188.057-1.207-.782-1.23-1.581q-.223-7.722-.411-15.444c-.019-.809-.021-1.605,1.159-1.633,1.368-.033,1.312.891,1.313,1.8q.006,3.713,0,7.428h.268c0,2.574.008,5.15,0,7.724,0,.782.1,1.648-1.1,1.7m4.2-9.517q0-3.872,0-7.746c0-.78.228-1.343,1.172-1.326.916.017,1.211.544,1.2,1.341q-.079,7.9-.175,15.789c-.008.708-.053,1.441-1.052,1.441-1.029,0-1.011-.754-1.014-1.455-.01-2.681,0-5.362,0-8.044h-.129m5.486.458h.135c0-2.774-.012-5.547.008-8.321,0-.643.258-1.18,1.044-1.089.678.081.641.666.643,1.133q.023,8.024.005,16.05c0,.569.043,1.262-.783,1.334-1.023.09-1.045-.673-1.048-1.38-.01-2.575,0-5.152,0-7.728m1.841-15.2c-.006,2.248-.05,2.288-2.328,2.285-4.865-.006-9.733-.1-14.6-.067-1.5.01-2.241-.439-2.1-2.024.062-.689-.01-1.39-.014-2.084-.05-11.621-.043-23.242-.18-34.861-.042-3.574.279-6.775,2.249-10.063,3.41-5.687,6.088-11.81,9.094-17.739a5.123,5.123,0,0,1,1.76-2.562,57.386,57.386,0,0,1,4.3,3.968,5.976,5.976,0,0,1,1.848,4.747c-.076,11.322-.035,22.645-.032,33.967,0,8.144.014,16.289-.006,24.433" transform="translate(141.841 28.41)" fill="#2c2c2c"/>
    <path id="Path_5194" data-name="Path 5194" d="M432.74,108.391c2.266-.237,4.532-.473,6.789-.775,6.814-.908,13.67-.711,20.509-.7a112.589,112.589,0,0,1,37.856,6.8c.56.2,1.116.41,1.687.575.954.275.955.882.566,1.6-.378.7-.827,1.354-1.2,2.053-.4.753-.561,1.609.23,2.141a1.648,1.648,0,0,0,2.352-.529,11.639,11.639,0,0,0,1.923-3.665,18.554,18.554,0,0,0,.489-6.791c-.05-1.041-.365-2.059-1.687-2-1.225.06-1.258,1.043-1.258,1.973a4.1,4.1,0,0,1-.319,2.38c-2.823-.943-5.527-1.865-8.246-2.749a102.237,102.237,0,0,0-27.718-4.93c-9.814-.386-19.644-.432-29.4,1.04a21.566,21.566,0,0,0-3.188.686,1.442,1.442,0,0,0-1,1.891,1.359,1.359,0,0,0,1.613,1" transform="translate(167.417 40.215)" fill="#2c2c2c"/>
    <path id="Path_5195" data-name="Path 5195" d="M451.263,221.526c.9-.111,1.713-.211,1.859-1.234.175-1.231-.764-1.518-1.631-1.719a60.481,60.481,0,0,1-15.129-6.044c-5.415-2.934-10.749-5.985-15.224-10.312a5.782,5.782,0,0,0-1.213-.84,1.3,1.3,0,0,0-1.63.253,1.468,1.468,0,0,0-.371,1.63,4.758,4.758,0,0,0,1.493,1.82,53.3,53.3,0,0,0,10.1,7.311,77.988,77.988,0,0,0,18.932,8.48c.951.267,1.927.45,2.811.654" transform="translate(162.278 78.141)" fill="#2c2c2c"/>
    <path id="Path_5196" data-name="Path 5196" d="M451.15,214.91a1.194,1.194,0,0,0-1.418,1.144c-.135.9.2,1.524.994,1.655,1,.087,1.52-.315,1.627-1.1a1.372,1.372,0,0,0-1.2-1.7" transform="translate(174.659 83.461)" fill="#2c2c2c"/>
    <path id="Path_5197" data-name="Path 5197" d="M403.237,257.732c-1.354-.147-1.559.912-1.6,1.97-.022,1.223.339,2.233,1.7,2.36a1.163,1.163,0,0,0,1.326-1.509c-.192-1.065.322-2.631-1.426-2.821" transform="translate(155.99 100.094)" fill="#2c2c2c"/>
    <path id="Path_5198" data-name="Path 5198" d="M393.361,256.5c-.943-.1-1.637.941-1.663,2.714a1.234,1.234,0,0,0,1.177,1.381c.99.114,1.809-.851,1.869-2.194.043-1-.271-1.785-1.383-1.9" transform="translate(152.13 99.618)" fill="#2c2c2c"/>
    <path id="Path_5199" data-name="Path 5199" d="M397.74,257.481c-1.27.25-1.509,1.173-1.444,2.233.06.968.394,1.785,1.6,1.661,1.24-.128,1.208-1.108,1.226-2,.018-.969-.242-1.769-1.379-1.894" transform="translate(153.912 100.002)" fill="#2c2c2c"/>
    <path id="Path_5200" data-name="Path 5200" d="M508.7,259.006c-1.59.036-1.34,1.412-1.5,2.439-.149.979-.032,1.849,1.205,1.916,1.075.057,1.758-.861,1.785-2.264.011-1.066-.16-2.121-1.5-2.091" transform="translate(196.973 100.594)" fill="#2c2c2c"/>
    <path id="Path_5201" data-name="Path 5201" d="M514.057,258.8c-1.157-.067-1.379.891-1.4,1.915.057.827,0,1.81,1.24,1.935,1.2.121,1.533-.7,1.591-1.665.063-1.059-.165-2.113-1.431-2.185" transform="translate(199.109 100.514)" fill="#2c2c2c"/>
    <path id="Path_5202" data-name="Path 5202" d="M441,168.863l-1.105-.082a4.814,4.814,0,0,1-3.56,1.391c-3.395,0-5.848-2.249-5.848-5.318s2.453-5.277,5.848-5.277a5.526,5.526,0,0,1,3.274.9l.7-.367c-.164-4.46-2.127-6.709-5.851-6.709-4.212,0-6.545,3.025-6.545,8.262v6.055c0,4.951,2.7,8.06,6.832,8.06a10.718,10.718,0,0,0,6.668-2.414l1.308,2.577a10.962,10.962,0,0,1-3.64,2,13.07,13.07,0,0,1-4.336.818,9.463,9.463,0,0,1-7.322-2.945,11.848,11.848,0,0,1-2.659-8.1v-6.055c0-6.914,3.64-11.127,9.694-11.127,5.769,0,8.8,3.681,8.8,10.595v4.95c0,.941.41,1.433,1.105,1.433.368,0,.655-.042,1.8-1.023l.983,2.209a5.445,5.445,0,0,1-3.478,1.554,3.22,3.22,0,0,1-2.659-1.39m-.819-3.4v-1.186a3.823,3.823,0,0,0-3.395-2.085c-1.923,0-3.231,1.062-3.231,2.659s1.308,2.7,3.231,2.7a3.867,3.867,0,0,0,3.395-2.087" transform="translate(164.971 58.466)" fill="#2c2c2c"/>
    <path id="Path_5203" data-name="Path 5203" d="M456.214,175.3h-2.945l1.8-6.954h-5.441l-1.8,6.954h-2.906l1.637-6.3-.654-.655h-3.558l.736-2.577h4.3l1.064-4.254H443.9l.7-2.619h4.541l1.759-6.914h2.945l-1.8,6.914h5.441l1.8-6.914h2.9l-1.637,6.3.655.615h3.6l-.736,2.619h-4.337l-1.063,4.254h4.54l-.7,2.577h-4.5Zm-5.767-10.227.7.7h4.582l.941-3.56-.7-.694h-4.582Z" transform="translate(171.802 59.027)" fill="#2c2c2c"/>
    <path id="Path_5204" data-name="Path 5204" d="M469.368,175.829a3.126,3.126,0,0,1-3.068-3.109,3.069,3.069,0,1,1,3.068,3.109m2.495-21.067-1.554,12.476h-1.883l-1.555-12.476v-2.782h4.991Z" transform="translate(181.105 59.027)" fill="#2c2c2c"/>
    <path id="Path_5205" data-name="Path 5205" d="M487.559,155.893v-6.3h2.455v6.3l5.4-3.068,1.227,2.085-4.54,2.618v.983l4.54,2.617-1.227,2.085-5.4-3.068v6.3h-2.455v-6.3l-5.4,3.068-1.186-2.085,4.54-2.617v-.983l-4.54-2.618,1.186-2.085Z" transform="translate(186.803 58.1)" fill="#2c2c2c"/>
    <path id="Path_5206" data-name="Path 5206" d="M229.368,332.835c0,7.285-49.447,13.191-110.442,13.191S8.483,340.12,8.483,332.835s49.447-13.191,110.443-13.191,110.442,5.906,110.442,13.191" transform="translate(3.295 124.146)" fill="#2c2c2c"/>
    <path id="Path_5207" data-name="Path 5207" d="M120.765,295.614c-4.361.829-7.3,3.586-10.8,6.559,5.709-.261,9.9-2.877,10.8-6.559" transform="translate(42.707 114.813)" fill="#fff"/>
    <path id="Path_5208" data-name="Path 5208" d="M36.987,266.829a21.076,21.076,0,0,0-4.772-.621c-1.065-.044-1.965-.387-1.894-1.66.057-1.044.829-1.4,1.777-1.48.84-.071,1.72.239,2.675-.348-1.379-2.585-.387-4.929.933-7.231a19.115,19.115,0,0,1,4.378-5.523c2.139-1.723,2.731-3.489,1.563-6.071-1.243-2.755-.337-5.247,1.7-7.349a16.936,16.936,0,0,1,7.357-4.408c2.83-.876,5.724-.423,8.689-.639a3.16,3.16,0,0,0-1.731-2.975c-3.343-1.958-6.36-4.375-9.531-6.575a2.781,2.781,0,0,0-2.391-.6,19.6,19.6,0,0,0-11.66,7.456c-3.168,4.407-4.907,9.494-6.3,14.7-1.468,5.487-2.985,10.961-4.408,16.461-1.533,5.916-3.074,11.826-3.321,17.992-.274,6.834,2.366,12.033,8.2,15.674,3.34,2.085,6.717,1.87,9.519-.983a32.185,32.185,0,0,0,5.966-9.111c.315-.678.682-1.444.029-2.1-1.884-1.881-3.565-4.054-6.346-4.734-1.767-.433-3.538-.854-5.308-1.279a6.625,6.625,0,0,1-1.536-.387,1.6,1.6,0,0,1-.834-1.909,1.268,1.268,0,0,1,1.468-.987c4.325.7,8.758,1.1,12.264,4.2.629.554,1.037,1.391,2.221,1.57.744-2.233,1.917-4.354,2.373-6.907-1.774-.135-3.443-.114-4.711-1.3-1.8-1.686-4.087-2.241-6.362-2.87" transform="translate(7.779 85.938)" fill="#fff"/>
    <path id="Path_5209" data-name="Path 5209" d="M112.65,290.505a21.183,21.183,0,0,0-4.155,9.508q6.546-5.209,4.155-9.508" transform="translate(42.138 112.828)" fill="#fff"/>
    <path id="Path_5210" data-name="Path 5210" d="M39.908,250.172a5.748,5.748,0,0,0-1.6,4.344,1.7,1.7,0,0,0,2.26,1.529c1.212-.329,1.393-1.068.905-2.17-.5-1.127-.589-2.426-1.567-3.7" transform="translate(14.868 97.164)" fill="#fff"/>
    <path id="Path_5211" data-name="Path 5211" d="M35.685,245.875a17.314,17.314,0,0,0-1.809,2.643,9.287,9.287,0,0,0-1.144,2.634,1.57,1.57,0,0,0,2.349,1.784,11.965,11.965,0,0,0,5.22-4.623c.887-1.555-.639-3.379-1.209-5.054-.031-.087-.151-.143-.451-.408a12.109,12.109,0,0,0-2.956,3.024" transform="translate(12.695 94.32)" fill="#fff"/>
    <path id="Path_5212" data-name="Path 5212" d="M102.5,154.3c4.357,1.851,8.333.725,10.982-3.177a17.346,17.346,0,0,0,2.627-6.525c1.873-9.688-.168-18.742-4.568-27.383-.289-.568-.348-1.537-1.437-1.469-.462,1.323-.53,2.743-1.279,3.96a5.3,5.3,0,0,1-5.38,2.774,10.413,10.413,0,0,1-9.227-6.931,12.928,12.928,0,0,1-.221-10.223,2.428,2.428,0,0,0-2.532.823,14.517,14.517,0,0,0-4.955,9.488c-1.885,12.34,1.326,23.378,8.976,33.146A17.662,17.662,0,0,0,102.5,154.3" transform="translate(33.393 40.862)" fill="#fff"/>
    <path id="Path_5213" data-name="Path 5213" d="M111.316,304.935c-8.615,3.782-15.165,2.65-22-3.8a1.69,1.69,0,0,0-.435-.169,5.454,5.454,0,0,0-1.422,3.056c-1.079,4.766-.48,9.619-.786,14.423a32.752,32.752,0,0,0,.072,7.052,2.743,2.743,0,0,0,2.31,2.592,31.942,31.942,0,0,0,8.54,1.358,128.3,128.3,0,0,1,18.9,1.383,39.044,39.044,0,0,1,7.5,1.691c3.744,1.281,7.565,2.341,11.292,3.672a27.178,27.178,0,0,0,12.379,1.036,10.49,10.49,0,0,0,9.031-11.653c-.468-2.931-7.009-8.826-9.835-8.84a5.175,5.175,0,0,0-.926.239c-3.395.646-6.331,1.984-8.055,5.218-.579,1.083-1.28,2.11-2.743,1.519-1.059-.426-1.058-1.636-.046-3.364a12.419,12.419,0,0,1,4.434-4.558c.546-.322,1.6-.292,1.388-1.551-1.883-.346-3.439-1.71-5.737-1.186a10.9,10.9,0,0,0-6.818,4.415,9.611,9.611,0,0,1-2.035,2.463,1.5,1.5,0,0,1-2.048-.057,1.454,1.454,0,0,1-.282-2.019c.219-.366.523-.683.743-1.048a16.841,16.841,0,0,1,6.21-5.909c-4.955-4.126-8.752-1.84-11.629,1.334-.355.393-.572.907-.9,1.331a9.49,9.49,0,0,1-1.066,1.184,1.292,1.292,0,0,1-1.49.251,1.5,1.5,0,0,1-.9-1.562,5.007,5.007,0,0,1,.865-2.051,15.3,15.3,0,0,1,5.065-4.8c-5.2-3.149-5.91-3.265-9.583-1.654" transform="translate(33.603 116.892)" fill="#fff"/>
    <path id="Path_5214" data-name="Path 5214" d="M18.2,218.664c4.6,3.965,10.053,6.548,15.34,9.362a47.647,47.647,0,0,0,8.5,3.779,97.076,97.076,0,0,0,16.327,3.4,58.326,58.326,0,0,0,21.041-1.24c7.646-1.848,14.72-5.2,21.725-8.722a9.688,9.688,0,0,0,5.487-6.573,33.255,33.255,0,0,1,8.333-15.04,8.271,8.271,0,0,1,3.385-2.387c2.334-.689,4.676-1.209,6.331,1.325.486.744,1.137.766,1.928.814a5.119,5.119,0,0,0,3.954-1.787c4.212-4.01,14.982-3.49,18.3,3.078.337.669.811,1.275,1.108,1.958a4.658,4.658,0,0,0,2.712,2.573c5.7,2.255,11.529,4.167,17.684,4.461a88.6,88.6,0,0,0,38.976-6.643,14.56,14.56,0,0,0,5.835-4.41,23.043,23.043,0,0,0,4.611-9.8c2.81-13.223,4.057-26.481,1.137-39.873-1.394-6.394-2.832-12.711-6.366-18.407a108.977,108.977,0,0,0-7.1-9.945,47,47,0,0,0-23.394-16.327c-7.624-2.349-15.454-2.137-23.285-1.248a35.191,35.191,0,0,0-15.456,5.609,3.139,3.139,0,0,0,.694,1.9,48.356,48.356,0,0,1,5.931,21.526,29.824,29.824,0,0,1-2.509,14.131c-3.929,8.257-11.915,10.452-19.544,5.383a30.79,30.79,0,0,1-9.242-10.156,119.922,119.922,0,0,1-5.326-10.959c-.405,1.07-.8,2.146-1.216,3.209-2.406,6.063-5.6,11.6-10.731,15.81-9.026,7.418-18.825,4.618-22.515-6.453a35.9,35.9,0,0,1-1.125-15.926,46.534,46.534,0,0,1,4.217-14.46c.53-1.113.658-1.885-.63-2.617-4.015-2.28-8.032-4.483-12.6-5.554-6.027-1.415-12.11-1.458-18.239-1.188a39.56,39.56,0,0,0-22.343,8.107C15.89,126.054,7.4,140.317,5.3,158.058a99.787,99.787,0,0,0,10.221,57.476,10.124,10.124,0,0,0,2.684,3.129m51.063-45.2a1.56,1.56,0,0,1,1.755-1.094,8.124,8.124,0,0,1,1.252.26c3.164.764,5.172-.189,6.423-3.095a7.657,7.657,0,0,0-.375-7.111c-.612-1.094-1.634-2.249-.2-3.39,1.022-.812,2.382.006,3.454,1.94a9.815,9.815,0,0,1,1.182,6.531,5.173,5.173,0,0,0,1.484,4.629c6.394,7.445,13.985,12.9,23.811,14.838a38.226,38.226,0,0,0,6.045.45c7.975.069,14.9-2.777,21.192-7.392a48.525,48.525,0,0,0,8.784-8.465,2.794,2.794,0,0,0,.629-2.881,10.443,10.443,0,0,1,1.129-8.372,11.217,11.217,0,0,1,1.1-1.584c.741-.876,1.636-1.534,2.75-.658.939.737.734,1.688.174,2.589-.225.364-.493.7-.737,1.055a7.78,7.78,0,0,0-1.1,2.657,5.444,5.444,0,0,0,1.742,5.831c1.73,1.444,3.774,1.368,5.777.587a22.421,22.421,0,0,0,2.231-1.265c.922-.49,1.922-.666,2.575.321a1.782,1.782,0,0,1-.639,2.531c-2.577,1.974-5.411,3.043-8.7,2.242a6.861,6.861,0,0,1-2.087-.79c-1.17-.753-1.888-.376-2.68.61a47.348,47.348,0,0,1-8.069,7.824c-6.892,5.309-14.6,8.555-23.372,8.75-9.745.217-18.228-3.278-25.762-9.287a43.125,43.125,0,0,1-7.115-6.964c-.821-1.044-1.493-1.208-2.581-.222a7.479,7.479,0,0,1-7.489,1.669,6.8,6.8,0,0,1-1.97-1.03,1.5,1.5,0,0,1-.607-1.712M14.729,146.34a46,46,0,0,1,14.025-20.767,59.917,59.917,0,0,1,11.682-7.306,30.29,30.29,0,0,1,9.578-2.492c1.084-.15,1.913.137,2.085,1.362a1.857,1.857,0,0,1-1.059,1.534,8.24,8.24,0,0,1-1.544.372c-14.418,3.295-24.288,12-30.21,25.4-.476,1.076-.841,2.2-1.347,3.264-.436.914-1.118,1.715-2.259,1.279-1.229-.469-1.372-1.449-.952-2.645m-.872,9.941a1.307,1.307,0,0,1-1.491-1.138c.025-1.162.505-1.826,1.5-1.9a1.335,1.335,0,0,1,1.5,1.333,1.5,1.5,0,0,1-1.508,1.7" transform="translate(1.775 41.32)" fill="#fff"/>
    <path id="Path_5215" data-name="Path 5215" d="M63.432,149.355c2.878,5.523,7.768,6.974,13.216,3.96a20.487,20.487,0,0,0,6.027-5.251,41.757,41.757,0,0,0,8.359-18.585c.4-2.08,1.036-4.169.479-6.3-.854-.361-1.5.219-2.224.293a7.981,7.981,0,0,1-7.635-3.182,12.436,12.436,0,0,1-2.37-5.566,16.955,16.955,0,0,1,1.455-10.089,2.012,2.012,0,0,0-1.881-.121,17.961,17.961,0,0,0-8.266,5.916c-6.792,8.34-9.766,18.01-9.581,28.67a22.787,22.787,0,0,0,2.421,10.253" transform="translate(23.692 40.523)" fill="#fff"/>
    <path id="Path_5216" data-name="Path 5216" d="M175.047,204.448a95.452,95.452,0,0,1-26.893-1.509c-3.688-.784-7.185-2.108-10.774-3.168-2.078-.615-3.257.172-3.578,2.2-.807,5.118-3.8,7.227-9.077,6.627-2.864-.326-5.823-.879-8.633.043a19.576,19.576,0,0,1-12.922.076,4.877,4.877,0,0,0-4.639.39c-2.874,2.11-6.255,3.295-9.231,5.191-10.443,6.659-22.114,9.623-34.16,11.493a28.968,28.968,0,0,1-9.279.128,38.085,38.085,0,0,0-5.6-.047c1.433,1.105,2.326,1.813,3.238,2.494,6.027,4.494,12.433,8.427,18.86,12.294A142.688,142.688,0,0,1,84.346,256.3a41.112,41.112,0,0,1,11.561,16.405c1.152,3.109,2.3,6.217,3.633,9.809a31.148,31.148,0,0,0,2.156-5.835c2.595-7.488,6.049-14.432,12.076-19.841A117.3,117.3,0,0,1,132.815,242.6c3.331-1.948,6.595-4.014,9.837-6.11,2.562-1.656,3.325-1.5,3.9,1.38,1.855,9.234,7.068,16.236,14.47,21.7A40.554,40.554,0,0,0,188.2,267.63a18.021,18.021,0,0,0,7.483-1.659,20.655,20.655,0,0,0-1.894-1.316c-4.636-2.41-8.387-5.938-12.075-9.544-10.445-10.212-12.958-22.792-10.934-36.717a6.3,6.3,0,0,1,2.206-4.117,79.631,79.631,0,0,0,8.575-9.156c.421-.5,1.109-.939.84-1.919-2.524.44-4.926,1.069-7.36,1.245" transform="translate(15.637 77.509)" fill="#fff"/>
    <path id="Path_5217" data-name="Path 5217" d="M18.209,250.957a65.506,65.506,0,0,0,24.873,10.092,12.566,12.566,0,0,1,7.39,3.819c-.718.975-1.79.975-2.62,1.443-4.719,2.656-9.252,5.466-11.408,10.843A125.411,125.411,0,0,0,31.151,293c-2.16,8.519-5.015,16.87-6.316,25.6a33.073,33.073,0,0,0,.021,12.168c1.508,6.734,6.135,10.918,12.054,13.8a8.418,8.418,0,0,0,7.182-.215,13.46,13.46,0,0,0,5.033-3.914,41.114,41.114,0,0,0,7.458-13.785,40.574,40.574,0,0,1,2.541-6.71,6.69,6.69,0,0,1,1.654,2.918,99.189,99.189,0,0,0,6.066,11.707c5.08,8.432,12.548,12.043,22.235,11,4.405-.475,8.476-1.98,10.623-6.263A27,27,0,0,0,103.043,327c-.04-6.978,0-13.957.025-20.937a3.984,3.984,0,0,1,.428-2.588,28.889,28.889,0,0,1,4.627,8.25,71.775,71.775,0,0,1,4.464,14.081,2.639,2.639,0,0,0,2.52,2.47c1.581.136,2.314-.88,2.77-2.187a10.218,10.218,0,0,0,.267-1.258,70.963,70.963,0,0,1,4.092-12.854c.26-.622.2-1.559,1.426-1.57,0,.662,0,1.293,0,1.923q-.092,29.637-.187,59.273c0,.537-.028,1.075-.01,1.611a1.512,1.512,0,0,1-1.179,1.647c-2.86,1.025-3.883,3.346-4.528,6.134-1.03,4.453-.553,8.986-1.02,13.465a65.882,65.882,0,0,0-.067,8.046c.053,2.852,1.273,4.934,4.164,5.774,1.334.387,2.653.844,4.007,1.143,4.318.957,8.737.886,13.119,1.17,5.027.328,10.085.557,14.963,1.837,5.274,1.386,10.466,3.1,15.655,4.786a29.6,29.6,0,0,0,12.407,1.086c6.487-.683,10.613-4.516,12.527-10.5,1.016-3.177,1.059-6.73-1.394-9.473-2.789-3.12-5.851-5.985-9.93-7.474q-6.035-2.2-12.01-4.564c-4.3-1.71-8.566-3.52-13.337-5.488a28.4,28.4,0,0,0,6.771-3.533,9.4,9.4,0,0,0,3.553-4.847c.837-2.67-.6-4.657-3.386-4.884-1.509-.122-2.9.485-4.48.683-.207-1.505.211-2.918-.243-4.258-.528-1.563-1.172-3.048-3-3.467a4.165,4.165,0,0,0-4.484,1.824c-.672.886-1.273,1.826-1.937,2.785-.779-.819-.486-1.6-.48-2.312q.271-37.851.579-75.7c.006-.644.031-1.288.032-1.933a1.746,1.746,0,0,1,.84-1.626l8.309-5.045a42.075,42.075,0,0,0,7.032,13.638c8.908,11,20.515,16.666,34.6,17.109a33.877,33.877,0,0,0,14.774-2.652c2.448-1.072,2.555-2.78.367-4.28a16.3,16.3,0,0,0-1.681-.943A54.413,54.413,0,0,1,199.5,290.265a38.661,38.661,0,0,1-8.943-14.727c-1.891-5.892-1.236-11.89-1-17.88.056-1.42,1.009-2.289,1.967-3.184a59.178,59.178,0,0,0,9.277-10.248c2.693-4.075,6.37-6.185,10.656-8.153,12.033-5.524,21.029-13.7,23.593-27.655,1.468-7.99-1.008-13.877-7.174-18.56a2.792,2.792,0,0,1-1.259-3.182,88.134,88.134,0,0,0,.941-21.491c-.322-3.858-.814-7.671-1.391-11.489a50.361,50.361,0,0,0-4.88-15.565,76.342,76.342,0,0,0-9.7-14.385c-8.67-10.312-19.3-17.159-33.027-18.571-11.115-1.141-21.86-.314-31.791,5.341-1.508.858-2.437.744-3.495-.637a21.919,21.919,0,0,0-6.01-5.3c-6.57-4.025-13.59-2.813-17.9,3.854-.615.952-1.144,1.96-1.81,3.11-.789-1.426-1.4-2.681-2.141-3.847-3.772-5.894-9.937-7.65-16.226-4.586a24.3,24.3,0,0,0-7.722,6.209c-1.175,1.363-1.977,3.054-3.582,4.264-9.769-6.95-20.813-8.683-32.456-8.147A45.465,45.465,0,0,0,31.019,113.5,66.3,66.3,0,0,0,6.5,145.791,60.462,60.462,0,0,0,4.09,156.76a96,96,0,0,0-1.25,18.278,103.928,103.928,0,0,0,3.917,25.067c.5,1.8.34,2.941-1.18,4.153A14.61,14.61,0,0,0,.1,215.16c-1.016,15.479,5.545,27.3,18.106,35.8m35.255,73.417c-1.183-.179-1.592-1.016-2.22-1.57-3.507-3.093-7.939-3.5-12.264-4.2a1.268,1.268,0,0,0-1.468.987,1.6,1.6,0,0,0,.834,1.909,6.622,6.622,0,0,0,1.536.387c1.77.425,3.54.846,5.308,1.279,2.781.68,4.462,2.853,6.346,4.734.653.653.286,1.419-.031,2.1a32.152,32.152,0,0,1-5.965,9.111c-2.8,2.853-6.178,3.068-9.519.983-5.833-3.639-8.471-8.838-8.2-15.673.246-6.166,1.788-12.076,3.32-17.992,1.424-5.5,2.942-10.974,4.41-16.461,1.393-5.2,3.131-10.291,6.3-14.7a19.6,19.6,0,0,1,11.66-7.456,2.787,2.787,0,0,1,2.391.6c3.17,2.2,6.188,4.618,9.53,6.575a3.16,3.16,0,0,1,1.733,2.975c-2.966.215-5.859-.237-8.689.639a16.936,16.936,0,0,0-7.357,4.408c-2.033,2.1-2.939,4.594-1.7,7.349,1.166,2.582.576,4.348-1.563,6.071a19.114,19.114,0,0,0-4.378,5.523c-1.322,2.3-2.313,4.646-.933,7.231-.957.587-1.835.278-2.675.348-.948.082-1.72.437-1.777,1.481-.071,1.272.829,1.615,1.894,1.659a21.074,21.074,0,0,1,4.772.621c2.273.629,4.561,1.186,6.362,2.87,1.268,1.186,2.936,1.165,4.711,1.3-.455,2.553-1.629,4.675-2.374,6.907m-1.679-26.263c.572,1.673,2.1,3.5,1.211,5.054a11.95,11.95,0,0,1-5.222,4.622A1.569,1.569,0,0,1,45.425,306a9.338,9.338,0,0,1,1.145-2.635,17.2,17.2,0,0,1,1.809-2.642,12.086,12.086,0,0,1,2.956-3.024c.3.265.421.321.45.408m3.653,15.628a1.7,1.7,0,0,1-2.259-1.529,5.741,5.741,0,0,1,1.6-4.344c.979,1.277,1.072,2.575,1.569,3.7.486,1.1.305,1.841-.907,2.17m43.823,15.778a23.041,23.041,0,0,1-3.059,8.74,6.474,6.474,0,0,1-3.739,2.882c-7.354,2.589-16.705,1.039-22.138-7.635a105.62,105.62,0,0,1-9.735-20.609c-2.709-7.564-5.08-15.246-7.744-22.825a4.4,4.4,0,0,1,1.256-5.188,13.967,13.967,0,0,1,10.946-3.663,2.111,2.111,0,0,1,2.023,1.7c.966,2.728,1.988,5.437,2.978,8.157,1.615,4.432,3.118,8.906,4.866,13.284a21.056,21.056,0,0,1,1.573,8.779,40.812,40.812,0,0,0,.176,4.819,1.454,1.454,0,0,0,1.506,1.393,1.527,1.527,0,0,0,1.709-1.529,25.612,25.612,0,0,0,.062-2.571c-.04-5.366-.1-10.732-.131-16.1a4.762,4.762,0,0,1,.211-2.5,1.6,1.6,0,0,1,1.5.337c6,3.549,11.96,7.152,17.059,12a3.126,3.126,0,0,1,1.048,2.521c-.017,6.006.249,12.022-.372,18.009M70.94,278.8c1.681.508,2.82,1.605,4.132,2.363a2.22,2.22,0,0,1,.934,2.23q-.006,5.925,0,11.85l-.622.153q-2.324-6.421-4.648-12.84c-.435-1.2.226-2.292.205-3.756m92.533,92.161c-.9,3.682-5.094,6.3-10.8,6.56,3.5-2.974,6.444-5.731,10.8-6.56m-8.684-7.093q2.389,4.3-4.155,9.508a21.184,21.184,0,0,1,4.155-9.508m-.287,20.148c-1.981,1.358-3.882,2.716-5.065,4.8a4.989,4.989,0,0,0-.865,2.051,1.5,1.5,0,0,0,.9,1.562,1.29,1.29,0,0,0,1.488-.251,9.307,9.307,0,0,0,1.068-1.186c.326-.423.543-.937.9-1.33,2.877-3.174,6.674-5.461,11.628-1.334a16.845,16.845,0,0,0-6.209,5.908c-.219.367-.523.683-.743,1.05a1.452,1.452,0,0,0,.282,2.019,1.5,1.5,0,0,0,2.048.057,9.611,9.611,0,0,0,2.035-2.463,10.9,10.9,0,0,1,6.818-4.415c2.3-.525,3.854.84,5.737,1.186.212,1.259-.843,1.229-1.388,1.551a12.419,12.419,0,0,0-4.435,4.558c-1.014,1.729-1.014,2.938.046,3.364,1.463.59,2.164-.436,2.742-1.519,1.726-3.233,4.662-4.572,8.057-5.218a5.3,5.3,0,0,1,.926-.24c2.827.014,9.367,5.91,9.835,8.841a10.491,10.491,0,0,1-9.031,11.653,27.187,27.187,0,0,1-12.38-1.036c-3.725-1.331-7.547-2.391-11.29-3.672a39.04,39.04,0,0,0-7.5-1.691,128.3,128.3,0,0,0-18.9-1.383,31.954,31.954,0,0,1-8.541-1.358,2.743,2.743,0,0,1-2.309-2.594,32.736,32.736,0,0,1-.072-7.05c.3-4.8-.293-9.656.786-14.423a5.462,5.462,0,0,1,1.42-3.056,1.682,1.682,0,0,1,.436.169c6.835,6.448,13.385,7.579,22,3.8,3.672-1.612,4.387-1.5,9.583,1.654m-27.589-7.622q.073-31.087.162-62.173a4.948,4.948,0,0,1,1.3-3.449,68.767,68.767,0,0,1,15.843-13.552c.442-.28.932-.483,1.633-.841a7.186,7.186,0,0,1,.357,3.467q-.285,37.53-.608,75.058c-.029,3.492-.16,3.608-3.354,4.94-4.076,1.7-8.254,1.1-12.373.449-2.173-.34-2.966-1.663-2.96-3.9M197.2,243.16a79.522,79.522,0,0,1-8.575,9.156,6.315,6.315,0,0,0-2.208,4.117c-2.024,13.925.489,26.507,10.934,36.719,3.689,3.606,7.44,7.132,12.076,9.544a20.666,20.666,0,0,1,1.892,1.316,18.02,18.02,0,0,1-7.482,1.659,40.567,40.567,0,0,1-27.18-8.054c-7.4-5.467-12.614-12.469-14.468-21.7-.579-2.882-1.344-3.035-3.906-1.379-3.24,2.1-6.506,4.162-9.837,6.11a117.346,117.346,0,0,0-19.04,14.237c-6.027,5.409-9.481,12.354-12.076,19.843a31.151,31.151,0,0,1-2.158,5.834c-1.33-3.59-2.481-6.7-3.633-9.808a41.076,41.076,0,0,0-11.561-16.405A142.747,142.747,0,0,0,78,278.7c-6.427-3.868-12.833-7.8-18.861-12.3-.912-.679-1.8-1.387-3.238-2.492a38.079,38.079,0,0,1,5.6.047,28.976,28.976,0,0,0,9.28-.129c12.046-1.869,23.715-4.834,34.16-11.492,2.975-1.9,6.357-3.082,9.231-5.193a4.877,4.877,0,0,1,4.639-.389,19.584,19.584,0,0,0,12.922-.076c2.81-.922,5.767-.371,8.633-.044,5.274.6,8.269-1.508,9.077-6.625.319-2.03,1.5-2.816,3.576-2.2,3.589,1.062,7.086,2.385,10.775,3.168a95.4,95.4,0,0,0,26.893,1.511c2.434-.176,4.836-.807,7.36-1.247.268.98-.419,1.424-.84,1.919m34.624-36.633c-1.831,12.5-9.474,20.34-20.2,25.638-6.625,3.272-13.517,5.928-20.988,6.767a78.757,78.757,0,0,1-20.817-.485c-5.083-.782-10.121-1.737-14.865-3.882a15.607,15.607,0,0,0-3.572-.658c1.969-3.264,1.935-6.194-1.473-8.448.429-.571.678-.905.93-1.236,2.745-3.607,2.459-5.885-1.094-8.74-1.967-1.58-1.967-1.58-1.066-3.983,4.827,3.98,10.8,5.155,16.62,6.559,9.152,2.2,18.317.95,27.471-.268,6.537-.868,12.675-3.011,18.76-5.415a18.874,18.874,0,0,0,8.543-6.525,26.353,26.353,0,0,0,5.452-13.219c4.925,2.385,7.161,8.046,6.3,13.895M119.9,117.026a14.5,14.5,0,0,1,4.955-9.488,2.425,2.425,0,0,1,2.532-.823,12.929,12.929,0,0,0,.221,10.223,10.413,10.413,0,0,0,9.227,6.931,5.3,5.3,0,0,0,5.38-2.774c.748-1.218.816-2.637,1.279-3.96,1.089-.068,1.148.9,1.437,1.469,4.4,8.641,6.441,17.695,4.568,27.383a17.34,17.34,0,0,1-2.627,6.524c-2.65,3.9-6.625,5.029-10.982,3.178a17.675,17.675,0,0,1-7.014-5.516c-7.65-9.77-10.861-20.808-8.976-33.146m-25.614-5.54a17.951,17.951,0,0,1,8.266-5.916,2.008,2.008,0,0,1,1.881.121,16.951,16.951,0,0,0-1.455,10.088,12.442,12.442,0,0,0,2.369,5.566,7.983,7.983,0,0,0,7.636,3.184c.725-.075,1.37-.655,2.224-.294.557,2.128-.079,4.218-.479,6.3a41.746,41.746,0,0,1-8.361,18.585,20.45,20.45,0,0,1-6.026,5.252c-5.448,3.013-10.338,1.563-13.216-3.96A22.787,22.787,0,0,1,84.7,140.157c-.185-10.66,2.789-20.332,9.581-28.67M7.072,159.908c2.1-17.741,10.593-32,24.84-42.685a39.56,39.56,0,0,1,22.346-8.108c6.128-.269,12.211-.226,18.239,1.188,4.565,1.07,8.58,3.274,12.6,5.554,1.288.732,1.161,1.5.63,2.618a46.564,46.564,0,0,0-4.217,14.459,35.918,35.918,0,0,0,1.126,15.926c3.69,11.071,13.488,13.871,22.515,6.453,5.125-4.212,8.322-9.745,10.728-15.808.422-1.064.812-2.139,1.216-3.21a120.288,120.288,0,0,0,5.327,10.959,30.8,30.8,0,0,0,9.242,10.156c7.629,5.069,15.615,2.875,19.544-5.383a29.789,29.789,0,0,0,2.507-14.131,48.337,48.337,0,0,0-5.93-21.526,3.156,3.156,0,0,1-.694-1.9,35.183,35.183,0,0,1,15.456-5.61c7.829-.889,15.661-1.1,23.286,1.248a47,47,0,0,1,23.392,16.327,108.632,108.632,0,0,1,7.1,9.945c3.535,5.7,4.972,12.014,6.366,18.407,2.921,13.392,1.674,26.651-1.136,39.873a23.043,23.043,0,0,1-4.611,9.8,14.552,14.552,0,0,1-5.837,4.411,88.615,88.615,0,0,1-38.973,6.642c-6.156-.294-11.98-2.2-17.687-4.459a4.655,4.655,0,0,1-2.709-2.574c-.3-.683-.772-1.288-1.109-1.958-3.317-6.567-14.085-7.086-18.3-3.078a5.105,5.105,0,0,1-3.953,1.787c-.793-.047-1.443-.068-1.93-.814-1.655-2.534-3.994-2.013-6.328-1.325a8.253,8.253,0,0,0-3.385,2.387,33.28,33.28,0,0,0-8.336,15.04,9.684,9.684,0,0,1-5.486,6.574c-7.006,3.524-14.078,6.874-21.724,8.72a58.326,58.326,0,0,1-21.041,1.24,97.063,97.063,0,0,1-16.329-3.4,47.568,47.568,0,0,1-8.5-3.781c-5.286-2.813-10.738-5.4-15.34-9.362a10.161,10.161,0,0,1-2.684-3.129,99.8,99.8,0,0,1-10.22-57.476m132.7,44.644c-2.327,1.076-2.327,1.076-4.3.937,1.183-1.287,2.618-1.168,4.3-.937m-9.231,4.111-4.511,4.078c.78-4.047,1.1-4.335,4.511-4.078M8.427,206.279c1.182,3.067,2.267,5.831,3.311,8.611a15.472,15.472,0,0,0,4.8,7.064c11,8.705,23,15.263,36.957,17.824a67.409,67.409,0,0,0,41.424-5c4.289-1.977,8.518-4.039,12.666-6.284a5.211,5.211,0,0,0,2.691-3.35,51.1,51.1,0,0,1,5-12.171,27.144,27.144,0,0,1,4.192-5.28,5.763,5.763,0,0,1,2.457-1.458c1.186-.343,1.656.164,1.6,1.238a11.768,11.768,0,0,1-1.361,3.928c-.733,1.708-1.473,3.475.194,5.051,1.158,1.094,3.315.826,5.337-.641a34.539,34.539,0,0,0,3.185-2.709,19.384,19.384,0,0,1,8.462-4.429,8.781,8.781,0,0,1,3.831-.182,2.076,2.076,0,0,1,1.76,2.021,1.869,1.869,0,0,1-1.343,1.953,19.675,19.675,0,0,1-4.354,1.083,18.643,18.643,0,0,0-8.215,4.2,4.593,4.593,0,0,0-1.68,2.307,1.734,1.734,0,0,0,.619,2,1.454,1.454,0,0,0,2.026-.235c.475-.432.866-.955,1.34-1.388a14.288,14.288,0,0,1,11.926-3.546,5.062,5.062,0,0,1,2.556,1.281c1.934,1.588,1.726,3.315-.532,4.48a7.038,7.038,0,0,1-3.45.591c-1.716-.029-3.432-.026-5.148-.024-2.971.006-4.894,1.953-6.864,3.771a1.6,1.6,0,0,0,1.781,2.6,8.229,8.229,0,0,0,1.892-1.187c3.794-2.966,7.8-2.356,11.814-.634,1.045.45,2.3,1.14,1.97,2.58a3.224,3.224,0,0,1-3.007,2.523,33.186,33.186,0,0,1-6.431-.086,9.293,9.293,0,0,0-6.159,1.344c-1.663,1.08-2.2,2.03-1.5,3.013.959,1.333,2.077.708,3.113.1,2.884-1.7,5.726-1.355,8.593.05,1.361.668,2.353,1.531,2.076,3.211a3.4,3.4,0,0,1-3.421,2.824,18.012,18.012,0,0,1-4.168-.271,14.379,14.379,0,0,0-8.55.529c-4.007,1.634-7.922.826-11.535-.755a4.134,4.134,0,0,0-4.657.478c-4.4,3.092-9.334,5.244-13.951,7.961-7.2,4.24-15.2,6.2-23.274,8.058-9.015,2.07-17.812,1.123-26.764-.512-9.916-1.813-19.426-4.551-28.02-9.863-11.83-7.313-18.3-17.828-18.2-31.975.028-4.1,1.025-7.871,5-10.689" transform="translate(0 39.47)" fill="#2c2c2c"/>
    <path id="Path_5218" data-name="Path 5218" d="M59.99,94c.929.682,1.67.185,2.163-.582C64.818,89.268,69,87.36,73.428,85.968c4.341-1.366,8.768-2.2,13.009.493a2.757,2.757,0,0,0,.887.357c.862.183,1.776.285,2.259-.655a1.725,1.725,0,0,0-.873-2.432,15.434,15.434,0,0,0-8.972-2.542A30.656,30.656,0,0,0,62.33,88.206a10.133,10.133,0,0,0-2.789,3.486A1.733,1.733,0,0,0,59.99,94" transform="translate(23.03 31.53)" fill="#2c2c2c"/>
    <path id="Path_5219" data-name="Path 5219" d="M89.744,86.947a8.027,8.027,0,0,0,1.781-.673,20.867,20.867,0,0,1,8.991-1.977,11.4,11.4,0,0,1,10.084,4.59c.8,1,1.441,2.123,2.213,3.145.678.9,1.5,1.656,2.685.818.989-.7.819-1.676.314-2.575-2.5-4.464-5.884-7.849-11.067-9.044a22.409,22.409,0,0,0-8.287.118,19.261,19.261,0,0,0-7.774,2.839,1.479,1.479,0,0,0,1.059,2.76" transform="translate(34.091 31.413)" fill="#2c2c2c"/>
    <path id="Path_5220" data-name="Path 5220" d="M51.795,160.837a6.82,6.82,0,0,0,1.97,1.03,7.476,7.476,0,0,0,7.489-1.67c1.088-.984,1.762-.821,2.582.224a43.009,43.009,0,0,0,7.115,6.963c7.532,6.01,16.015,9.5,25.76,9.288,8.776-.2,16.48-3.44,23.372-8.75a47.254,47.254,0,0,0,8.069-7.825c.791-.984,1.509-1.361,2.678-.608a6.844,6.844,0,0,0,2.088.789c3.289.8,6.123-.267,8.7-2.241a1.784,1.784,0,0,0,.639-2.532c-.654-.986-1.654-.809-2.575-.319a22.7,22.7,0,0,1-2.231,1.265c-2,.78-4.047.857-5.776-.587a5.442,5.442,0,0,1-1.744-5.831,7.8,7.8,0,0,1,1.1-2.659c.244-.353.512-.69.739-1.054.56-.9.764-1.853-.174-2.589-1.116-.877-2.01-.219-2.752.658a11.249,11.249,0,0,0-1.1,1.584,10.436,10.436,0,0,0-1.127,8.372,2.8,2.8,0,0,1-.63,2.881,48.564,48.564,0,0,1-8.783,8.465c-6.294,4.614-13.219,7.46-21.194,7.39a38.393,38.393,0,0,1-6.045-.448c-9.826-1.934-17.417-7.393-23.811-14.838a5.176,5.176,0,0,1-1.484-4.629,9.811,9.811,0,0,0-1.18-6.531c-1.072-1.934-2.432-2.752-3.454-1.94-1.433,1.141-.411,2.3.2,3.389a7.652,7.652,0,0,1,.375,7.113c-1.25,2.906-3.259,3.858-6.423,3.095a8.3,8.3,0,0,0-1.252-.261,1.563,1.563,0,0,0-1.755,1.1,1.5,1.5,0,0,0,.607,1.712" transform="translate(19.852 55.662)" fill="#2c2c2c"/>
    <path id="Path_5221" data-name="Path 5221" d="M12.9,146.369c1.141.436,1.823-.367,2.259-1.28.505-1.061.871-2.187,1.347-3.263,5.921-13.4,15.792-22.1,30.209-25.4a8.257,8.257,0,0,0,1.542-.372,1.853,1.853,0,0,0,1.061-1.534c-.172-1.225-1-1.512-2.085-1.362a30.246,30.246,0,0,0-9.577,2.492,59.918,59.918,0,0,0-11.682,7.306,46,46,0,0,0-14.025,20.766c-.419,1.2-.278,2.176.952,2.646" transform="translate(4.558 43.935)" fill="#2c2c2c"/>
    <path id="Path_5222" data-name="Path 5222" d="M11.685,140.137c-.994.074-1.476.736-1.5,1.9a1.307,1.307,0,0,0,1.491,1.138,1.5,1.5,0,0,0,1.506-1.7,1.332,1.332,0,0,0-1.5-1.333" transform="translate(3.956 54.426)" fill="#2c2c2c"/>
    <path id="Path_5223" data-name="Path 5223" d="M248.775,207.17V194.506a5.16,5.16,0,0,0-7.739-4.468l-69.633,40.2a5.16,5.16,0,0,0,0,8.937l69.633,40.2a5.16,5.16,0,0,0,7.739-4.468V263.39a5.187,5.187,0,0,1,5.5-5.161A132.523,132.523,0,0,1,379.2,385.618a5.129,5.129,0,0,0,5.147,4.9h35.514a5.185,5.185,0,0,0,5.156-5.383C422.234,291.62,347.1,215.969,253.8,212.325a5.184,5.184,0,0,1-5.027-5.155" transform="translate(65.569 73.537)" fill="#f0dcf8"/>
    <path id="Path_5224" data-name="Path 5224" d="M420.36,392.792H384.846a6.874,6.874,0,0,1-6.92-6.613A130.044,130.044,0,0,0,254.671,260.5a3.312,3.312,0,0,0-2.567.934,3.346,3.346,0,0,0-1.058,2.453v11.522a6.935,6.935,0,0,1-10.4,6l-69.632-40.2a6.937,6.937,0,0,1,0-12.014L240.648,189a6.933,6.933,0,0,1,10.4,6v12.662a3.412,3.412,0,0,0,3.322,3.385c94.16,3.674,170.119,80.34,172.924,174.533a6.971,6.971,0,0,1-1.978,5.112,6.84,6.84,0,0,1-4.954,2.1M254.479,256.943c.129,0,.258,0,.39.011a133.567,133.567,0,0,1,126.6,129.1,3.337,3.337,0,0,0,3.375,3.189H420.36a3.322,3.322,0,0,0,2.407-1.019,3.447,3.447,0,0,0,.973-2.532c-2.749-92.336-77.207-167.488-169.512-171.092a6.948,6.948,0,0,1-6.734-6.931V195a3.381,3.381,0,0,0-5.07-2.928l-69.639,40.2a3.383,3.383,0,0,0,0,5.859l69.632,40.2a3.384,3.384,0,0,0,5.075-2.927V263.887a6.863,6.863,0,0,1,2.17-5.034,7.038,7.038,0,0,1,4.815-1.909" transform="translate(65.072 73.04)" fill="#2c2c2c"/>
  </g>
</svg>
