<svg xmlns="http://www.w3.org/2000/svg" xmlns:xlink="http://www.w3.org/1999/xlink" width="583.347" height="336.13" viewBox="0 0 583.347 336.13">
  <defs>
    <clipPath id="clip-path">
      <path id="Path_5255" data-name="Path 5255" d="M0-176.255H583.347v-336.13H0Z" transform="translate(0 512.385)" fill="none"/>
    </clipPath>
  </defs>
  <g id="Group_6335" data-name="Group 6335" transform="translate(0 512.385)">
    <g id="Group_6366" data-name="Group 6366" transform="translate(0 -512.385)" clip-path="url(#clip-path)">
      <g id="Group_6336" data-name="Group 6336" transform="translate(462.931 83.292)">
        <path id="Path_5225" data-name="Path 5225" d="M-2.257-39.852c.861.615,1.795,1.156,2.7,1.7A24.485,24.485,0,0,1,11.784-23.745c1.328,4.278,2.41,8.434,1.279,12.91a11.352,11.352,0,0,0-.173,1.574c-.148,1.648.565,2.434,2.262,2.533a12.626,12.626,0,0,0,5.78-1.328c5.262-2.263,10.328-4.967,15.37-7.672,4.647-2.509,4.475-1.427,2.558-6.443Q26.282-54.816,13.679-87.461c-3.419-8.829-6.788-17.681-10.207-26.485-.909-2.311-1.18-2.361-3.073-1.008C-4.814-111.241-7.5-106.4-6.266-99.83A182.683,182.683,0,0,1-2.823-73.271,2.86,2.86,0,0,0-1.47-70.985,7.878,7.878,0,0,0,2.858-69.14a26.537,26.537,0,0,1,2.8.2c1.107.173,2.114.59,2.114,1.942C7.8-65.354,6.5-65.132,5.292-65.009A18.465,18.465,0,0,1,3.3-65.132c-2.116.049-4.01-.958-5.854-1.549a4.805,4.805,0,0,0-.762,2.976c-.3,3.319.492,4.5,3.566,5.73a9.738,9.738,0,0,0,3.91.689,15.723,15.723,0,0,1,2.41.049,1.719,1.719,0,0,1,1.771,1.771,1.881,1.881,0,0,1-1.672,1.943,13.325,13.325,0,0,1-1.992.148c-3.148.271-6-.811-8.828-2.262-1.525,2.68-1.107,5.557-1.574,8.287-.565,3.3.836,5.68,3.468,7.5" transform="translate(6.561 115.853)" fill="#fff"/>
      </g>
      <g id="Group_6337" data-name="Group 6337" transform="translate(448.163 177.114)">
        <path id="Path_5226" data-name="Path 5226" d="M-1-8.476C-.312-8.8.548-9.14,1.385-9.534q9.959-4.685,19.87-9.344c1.549-.738,3.123-1.5,4.673-2.214,1.572-.737,1.254-1.918.54-2.975-.712-1.082-1.624-.369-2.459,0Q11.43-18.534-1.2-12.976a4.756,4.756,0,0,0-1.082.491c-1.082.861-.493,1.943-.247,2.927A1.2,1.2,0,0,0-1-8.476" transform="translate(2.908 24.641)" fill="#fff"/>
      </g>
      <g id="Group_6338" data-name="Group 6338" transform="translate(476.104 80.011)">
        <path id="Path_5227" data-name="Path 5227" d="M-19.012-50.045c.344.861.639,1.746,1.008,2.606.295.664.762,1.107,1.574.738a1.317,1.317,0,0,0,.861-1.6c-.271-1.033-.665-2.017-1.033-3.024l-30.542-77.832c-1.845-4.721-3.689-9.443-5.583-14.164-.319-.787-.417-1.845-1.574-2.164-.394.221-1.131.2-.935.934a22.086,22.086,0,0,0,.985,3.049q17.594,45.74,35.239,91.456" transform="translate(55.268 145.484)" fill="#fff"/>
      </g>
      <g id="Group_6339" data-name="Group 6339" transform="translate(445.292 170.789)">
        <path id="Path_5228" data-name="Path 5228" d="M-15.645-.407c-.466-.861-1.13-.934-1.992-.565C-21.768.8-25.949,2.544-30.08,4.339c-4.746,2.066-9.468,4.18-14.189,6.271-.787.344-1.549.639-1.057,1.7.27.59.664,1.155,1.5.983.245-.073.516-.1.762-.2Q-29.786,7.23-16.481,1.364C-15.67,1-15.08.6-15.645-.407" transform="translate(45.482 1.182)" fill="#fff"/>
      </g>
      <g id="Group_6340" data-name="Group 6340" transform="translate(441.472 165.895)">
        <path id="Path_5229" data-name="Path 5229" d="M-1-7.164A9.917,9.917,0,0,0,.843-7.9Q12.536-13.1,24.23-18.279a3.591,3.591,0,0,0,1.967-1.4,1.8,1.8,0,0,0-2.607-.909Q10.938-15.131-1.739-9.672c-.64.3-1.353.64-1.131,1.377A1.551,1.551,0,0,0-1-7.164" transform="translate(2.911 20.825)" fill="#fff"/>
      </g>
      <g id="Group_6341" data-name="Group 6341" transform="translate(442.56 156.842)">
        <path id="Path_5230" data-name="Path 5230" d="M-2.61-.125C-5.365.293-7.923,2.383-7.553,3.686c.368,1.426,4.082,2.853,6.319,2.434a5.406,5.406,0,0,0,.762-.246A18.3,18.3,0,0,0,8.062.121C3.931-.3.66-.593-2.61-.125" transform="translate(7.589 0.363)" fill="#fff"/>
      </g>
      <g id="Group_6342" data-name="Group 6342" transform="translate(443.476 144.303)">
        <path id="Path_5231" data-name="Path 5231" d="M-7.7-4.443a20.414,20.414,0,0,0-8.853-7.623A6.989,6.989,0,0,0-20-12.9c-.959.05-1.942.172-2.312,1.156-.319.861.419,1.475.984,2.017,3.64,3.59,8.189,4.894,13.624,5.287" transform="translate(22.385 12.917)" fill="#fff"/>
      </g>
      <g id="Group_6343" data-name="Group 6343" transform="translate(449.937 184.795)">
        <path id="Path_5232" data-name="Path 5232" d="M-11.34-1.65Q-21.447,3.071-31.554,7.817c-.64.319-1.673.565-1.353,1.647.369,1.23,1.327.615,1.942.345,8.385-3.664,16.771-7.4,25.132-11.091,1.427-.639,2.091-1.549,1.28-3.516C-6.866-3.716-9.1-2.708-11.34-1.65" transform="translate(32.967 4.798)" fill="#fff"/>
      </g>
      <g id="Group_6344" data-name="Group 6344" transform="translate(500.778 206.992)">
        <path id="Path_5233" data-name="Path 5233" d="M-2.489-7.432A15.272,15.272,0,0,0-4.383-20.688a1.533,1.533,0,0,0-1.622-.885c-.64.123-.737.713-.811,1.205-.885,5.361-.516,10.5,2.582,15.444A3.173,3.173,0,0,0-2.489-7.432" transform="translate(7.235 21.606)" fill="#fff"/>
      </g>
      <g id="Group_6345" data-name="Group 6345" transform="translate(486.328 211.794)">
        <path id="Path_5234" data-name="Path 5234" d="M-1.349-.117c-1.8-.663-2.854.2-2.509,2.042a4.449,4.449,0,0,0,.787,1.82c2.508,3.344,5.853,5.484,10.377,7.2A30.6,30.6,0,0,0,3.323,3.5,9.853,9.853,0,0,0-1.349-.117" transform="translate(3.923 0.339)" fill="#fff"/>
      </g>
      <g id="Group_6346" data-name="Group 6346" transform="translate(462.932 237.518)">
        <path id="Path_5235" data-name="Path 5235" d="M-7.982-4.384c-4.18-2.8-8.36-5.607-12.492-8.362A6.614,6.614,0,0,0-23.2-9.5C-15.605-5.073-8.843.362-1.219,4.493A19.142,19.142,0,0,0,.92,5.55c1.279.492,2.042-.393,2.558-1.328.541-1.057-.591-1.3-1.156-1.721Q-2.806-.967-7.982-4.384" transform="translate(23.204 12.746)" fill="#fff"/>
      </g>
      <g id="Group_6347" data-name="Group 6347" transform="translate(471.397 224.551)">
        <path id="Path_5236" data-name="Path 5236" d="M-.887-2.2C6.048,2.5,13.007,7.149,19.966,11.821a1.8,1.8,0,0,0,1.647.369c.1-1.918.566-3.91-1.574-5.263Q9.934.546-.149-5.861c-.541-.369-1.205-.86-1.746-.2a2.287,2.287,0,0,0-.443,2.582A4.075,4.075,0,0,0-.887-2.2" transform="translate(2.578 6.384)" fill="#fff"/>
      </g>
      <g id="Group_6348" data-name="Group 6348" transform="translate(468.278 231.789)">
        <path id="Path_5237" data-name="Path 5237" d="M-.537-1.779Q10.347,5.3,21.2,12.409c.859.566,1.6.959,2.36-.172.789-1.181,0-1.672-.787-2.213Q12.006,2.795,1.209-4.461C.791-4.731.3-4.952-.118-5.173A2.207,2.207,0,0,0-1.446-3.722c-.369.958.222,1.5.91,1.942" transform="translate(1.56 5.173)" fill="#fff"/>
      </g>
      <g id="Group_6349" data-name="Group 6349" transform="translate(206.781 26.823)">
        <path id="Path_5238" data-name="Path 5238" d="M-1.113-11.423A27.165,27.165,0,0,0,10.544-9.185c1.475-.1,2.951-.074,4.4-.3,6.222-.91,11.729-3.319,16.083-8.016.958-1.008,1.647-1.894.687-3.443-2.852-4.624-6.3-8.656-11.385-10.845C14.4-34.317,8.846-33.506,4.05-29.055-.032-25.293-1.925-20.4-3.1-15.087c-.468,2.065.343,2.926,1.992,3.664" transform="translate(3.236 33.208)" fill="#fff"/>
      </g>
      <g id="Group_6350" data-name="Group 6350" transform="translate(51.4 255.569)">
        <path id="Path_5239" data-name="Path 5239" d="M-90.055-.013V.061q-66.286,0-132.572-.049a34.929,34.929,0,0,0-20.386,6.05c-14.558,10.033-20.83,24.173-18.2,41.56,1.5,10.009,5.9,18.148,13.255,23.829,2.386-2.557,5.337-5.73,11.017-5.73,5.7,0,8.655,3.172,11.041,5.73,2.164,2.312,3.886,4.156,7.427,4.156s5.263-1.844,7.426-4.156c2.386-2.557,5.337-5.73,11.017-5.73,5.705,0,8.657,3.172,11.042,5.73,2.164,2.312,3.885,4.156,7.427,4.156s5.262-1.844,7.426-4.156c2.386-2.557,5.337-5.73,11.042-5.73,5.68,0,8.63,3.172,11.017,5.73,2.164,2.312,3.885,4.156,7.426,4.156s5.263-1.844,7.428-4.156c2.383-2.557,5.36-5.73,11.041-5.73s8.656,3.172,11.017,5.73c2.188,2.312,3.885,4.156,7.426,4.156,3.566,0,5.263-1.844,7.451-4.156,2.385-2.557,5.337-5.73,11.017-5.73,5.705,0,8.657,3.172,11.041,5.73,2.165,2.312,3.886,4.156,7.427,4.156s5.263-1.844,7.426-4.156c2.387-2.557,5.362-5.73,11.042-5.73s8.656,3.172,11.041,5.73c2.165,2.312,3.886,4.156,7.427,4.156s5.263-1.844,7.427-4.156c2.385-2.557,5.36-5.73,11.041-5.73s8.656,3.172,11.017,5.73c2.189,2.312,3.91,4.156,7.451,4.156S8.334,73.761,10.5,71.45c2.385-2.557,5.336-5.73,11.017-5.73s8.657,3.172,11.041,5.73c2.164,2.312,3.886,4.156,7.427,4.156s5.263-1.844,7.426-4.156c2.385-2.557,5.362-5.73,11.041-5.73a12.377,12.377,0,0,1,8.337,3.074C82.035,53.965,84.445,27.8,68.584,11.152,62.165,4.438,54.3.11,44.927.086c-45-.2-90-.1-134.982-.1M-251.639,31.305c-1.065-.052-1.765-.591-1.64-1.71a1.522,1.522,0,0,1,1.594-1.4c1.171-.026,1.55.732,1.626,1.708-.15.941-.648,1.452-1.58,1.406M-150.16,9.529a23.537,23.537,0,0,1-3.193.121q-17.61.012-35.217.005V9.469c-10.671,0-21.358.344-32.011-.109-8.447-.359-14.912,3.178-20.816,8.493a46.821,46.821,0,0,0-3.764,4.138c-.967,1.109-1.932,2.63-3.569,1.382-1.769-1.348-.633-2.844.331-4.155a36.5,36.5,0,0,1,10.08-9.021A32.61,32.61,0,0,1-220.161,5q33.414.321,66.83.575a29.958,29.958,0,0,1,3.195.114A1.771,1.771,0,0,1-148.472,7.6a1.853,1.853,0,0,1-1.688,1.924" transform="translate(261.797 0.038)" fill="#a3f7f7"/>
      </g>
      <g id="Group_6351" data-name="Group 6351" transform="translate(479.91 192.971)">
        <path id="Path_5240" data-name="Path 5240" d="M-48.7-2.005c-5.017-3.3-9.985-4.845-15.616-3.1-3.811,1.18-6.738,3.737-9.639,6.3-5.509,4.845-10.673,10.058-16.992,13.943-3.272,2.017-4.157,5.435-3.443,9.124a20.8,20.8,0,0,0,1.426,4.156c.615,1.377,1.5,2.877-.319,3.811-1.795.934-2.631-.713-3.3-1.992A19.965,19.965,0,0,1-97.956,26.5c-.418-1.623-.689-3.3-1.008-4.943-5.533.983-7.476,7.278-5.509,11.705.369.861.738,1.721,1.131,2.558a1.947,1.947,0,0,1-.59,2.8c-1.378.885-2.312,0-2.95-1.057a14.287,14.287,0,0,1-2.264-6.763c-.073-1.427.395-2.9-.441-4.648a33.428,33.428,0,0,0-10.181,5.9,4.775,4.775,0,0,0-1.55,3.983c.024,1.328.074,2.68.074,4.008.049,12.37-7.059,21.3-18.789,23.509-1.5.3-1.77.959-1.376,2.188a17.737,17.737,0,0,0,4.895,7.673c5.261,5.017,11.631,8.459,17.533,12.591,1.008.738,1.7.369,2.337-.492.467-.639.984-1.279,1.475-1.893Q-84.961,44.742-54.75,5.888c1.967-2.532,3.886-5.065,6.05-7.893" transform="translate(141.572 5.83)" fill="#fff"/>
      </g>
      <g id="Group_6352" data-name="Group 6352" transform="translate(457.67 243.642)">
        <path id="Path_5241" data-name="Path 5241" d="M-12.186-7.272c-4.525-3.074-9.025-6.172-13.55-9.222-2.091-1.4-4.279-2.705-6.369-4.132-1.4-.934-2.337-.59-3.32.959,7.723,4.451,15.247,8.8,22.8,13.156.148-.245.3-.516.443-.762" transform="translate(35.425 21.141)" fill="#fff"/>
      </g>
      <g id="Group_6353" data-name="Group 6353" transform="translate(206.454 51.977)">
        <path id="Path_5242" data-name="Path 5242" d="M-8.4-16.376c6.05,2.951,12.074,2.041,16.943-2.631,4.452-4.254,6.468-9.664,7.3-16.034-5.164.836-7.2-.3-9.025-4.721A18.913,18.913,0,0,1,5.688-44.41c-.172-1.008.2-2.14-.86-3.2C.155-46.009-4.64-44.484-9.73-44.362c-5.066.148-9.837-1.229-14.657-2.729-.517,9.91,4.131,21.247,11.017,27.369A21.726,21.726,0,0,0-8.4-16.376" transform="translate(24.426 47.607)" fill="#fff"/>
      </g>
      <g id="Group_6354" data-name="Group 6354" transform="translate(508.003 198.869)">
        <path id="Path_5243" data-name="Path 5243" d="M-36.07-.047a12.117,12.117,0,0,0-1.6,1.771q-32.939,42.383-65.856,84.741c-.319.418-.64.861-.958,1.279a1.185,1.185,0,0,0,.368,1.967,1.1,1.1,0,0,0,1.7-.2c.615-.737,1.181-1.475,1.746-2.213Q-82.19,63.4-63.71,39.447-50.026,21.7-36.316,3.937c.738-.934,1.4-1.918,2.115-2.9-.32-.394-.492-.811-.787-.984s-.885-.27-1.082-.1" transform="translate(104.856 0.137)" fill="#fff"/>
      </g>
      <g id="Group_6355" data-name="Group 6355" transform="translate(21.787 63.28)">
        <path id="Path_5244" data-name="Path 5244" d="M-54.61-98.792c18.567-.173,37.108-.073,55.675-.123q38.031-.074,76.06-.172a3.831,3.831,0,0,0,2.8-1.254A151.058,151.058,0,0,1,92.668-110.7c21.665-16.673,42.1-34.969,64.652-50.511a5.193,5.193,0,0,0,2.31-4.721c.861-33.764-9.96-63.225-32.952-87.989a117.664,117.664,0,0,0-52.724-32.779c-2.9-.886-2.951-.836-3.493,2.139-.983,5.312-2.631,10.329-5.9,14.731-6.837,9.123-17.779,11.066-27.272,4.8a32.788,32.788,0,0,1-9.763-10.452c-.688-1.106-.983-2.483-2.311-3.368-1.279,3.541-2.361,7.107-4.4,10.254-7.279,11.214-19.943,13.279-30.37,4.943a34.571,34.571,0,0,1-8.754-10.82c-1.353-2.459-1.427-2.509-3.812-1.082q-36.813,21.8-52.306,61.675c-1.057,2.68-.984,2.9,1.721,3.517a112.845,112.845,0,0,0,17.731,2.8c10.869.712,18.1,10.795,15.05,20.779C-42.363-178.936-50.921-173.8-59.6-175.3c-6.025-1.057-12.123-1.771-18.027-3.492-1.376-.393-2.852-.516-4.45-.811a89.078,89.078,0,0,0,.27,19.353,9.54,9.54,0,0,1-3.148,8.952,49.47,49.47,0,0,1-15.763,10.033,93.72,93.72,0,0,1-50.216,5.8c-2.337-.369-4.7-1.426-7.82-.91a58.842,58.842,0,0,0,11.312,7.869,142.353,142.353,0,0,0,38.461,14.263c7.28,1.6,14.681,2.877,22.182,2.41,5.435-.344,10.967-.2,16.132-2.385,1.622-.664,2.41-.049,3.148,1.328,1.942,3.664,4.255,7.107,6.443,10.6a6.649,6.649,0,0,0,6.467,3.492m202.024-73.936a1.492,1.492,0,0,1-1.358-1.616c0-1.193.79-1.581,1.809-1.5a1.4,1.4,0,0,1,1.363,1.6c-.14,1.033-.719,1.661-1.815,1.518M120.29-244.112c1.185-.81,2,.028,2.7.863,9.51,11.3,17.886,23.233,21.633,37.854,1.323,5.16,3.064,10.213,4.059,15.461.224,1.174.363,2.364.5,3.279a19.627,19.627,0,0,1-.164,2.27,1.7,1.7,0,0,1-1.694,1.414,1.789,1.789,0,0,1-1.931-1.109,9.414,9.414,0,0,1-.454-1.933,135.754,135.754,0,0,0-9.843-32.413c-3.188-7.042-7.993-12.885-12.523-18.969-.876-1.176-1.85-2.29-2.621-3.531-.664-1.067-.951-2.308.335-3.188m-145.979,11.8a11.487,11.487,0,0,1,.855-2.227A33.53,33.53,0,0,1-12.4-247.77a17.1,17.1,0,0,1,2.909-1.3c1.265-.469,2.486-.265,3.067,1.023.607,1.345-.159,2.241-1.4,2.846-1.431.7-2.852,1.426-4.215,2.244A3.962,3.962,0,0,0-14-240.77c9.736,9.58,21.047,16.537,34.629,19.309C32-219.141,42.9-220.209,52.759-227a5.165,5.165,0,0,1,1.8-.79,1.833,1.833,0,0,1,2.049.9,1.692,1.692,0,0,1-.209,2.2,12.52,12.52,0,0,1-2.136,1.777c-8.337,5.5-17.56,7.421-27.406,6.615-16.074-1.316-29.475-8.491-41.327-19.015-3.152-2.8-3.186-2.81-5.425.762-.775,1.236-1.366,2.586-2.047,3.881-.55,1.046-1.359,1.714-2.581,1.307-1.476-.491-1.525-1.685-1.161-2.938" transform="translate(158.754 287.196)" fill="#fff"/>
      </g>
      <g id="Group_6356" data-name="Group 6356" transform="translate(161.375 29.639)">
        <path id="Path_5245" data-name="Path 5245" d="M-1.221-13.88a25.288,25.288,0,0,0,9.64,1.7A43.022,43.022,0,0,0,27.5-16.29a17.166,17.166,0,0,0,5.95-4.574,2.915,2.915,0,0,0,.467-3.319c-2.606-5.68-6.073-10.673-11.607-13.869C15.206-42.16,7.385-40.684,2.345-34.217c-3.788,4.893-5.386,10.623-5.878,16.722A3.17,3.17,0,0,0-1.221-13.88" transform="translate(3.551 40.349)" fill="#fff"/>
      </g>
      <g id="Group_6357" data-name="Group 6357" transform="translate(161.737 58.862)">
        <path id="Path_5246" data-name="Path 5246" d="M-15.719,0c-9.836,3.418-19.7,4.279-29.977,1.378A38.153,38.153,0,0,0-37.63,20.829a22.838,22.838,0,0,0,7.7,6.247A14.561,14.561,0,0,0-12.62,24.322,22.33,22.33,0,0,0-6.865,14.312C-14.243,12.369-15.153,6.419-15.719,0" transform="translate(45.696)" fill="#fff"/>
      </g>
      <g id="Group_6358" data-name="Group 6358" transform="translate(-0.001 22.554)">
        <path id="Path_5247" data-name="Path 5247" d="M-303.688-90.49a67.984,67.984,0,0,1-6.321-3.394c-8.312-4.353-16.353-4.328-23.927,1.647a100.261,100.261,0,0,0-8.459,7.353c-5.853,5.754-12.886,9.91-19.3,14.9a30.869,30.869,0,0,1-8.091,4.328c-.836.3-1.647.984-2.729.1a21.06,21.06,0,0,0-1.3-11.262,10.838,10.838,0,0,0-3.64-5.164c-3.419-2.459-6.985-1.279-8.14,2.73-.443,1.623-.689,3.32-1.082,5.263-2.09-1.5-3.811-3.025-6-3.738-4.991-1.623-9.074,1.943-7.968,6.985a10.812,10.812,0,0,0,2.977,5.114,32.993,32.993,0,0,0,8.139,5.755c1.525.811,3.688,1.279,4.378,2.533.787,1.4-1.229,3.025-1.5,4.722-.025.148-.394.246-.886.541-14.8-9.418-29.731-18.911-45.124-28.7,9.787-4.328,18.885-8.361,28.23-12.493,1.5,3.886,4.673,4.132,8.016,4.009a14.014,14.014,0,0,0,4.992-1.3,232.532,232.532,0,0,0,25.7-12.959c4.084-2.336,4.157-3,2.436-7.427q-18.555-47.326-37.109-94.627a16.944,16.944,0,0,0-.762-1.844c-1.5-2.705-3.024-3.271-5.926-2.115a39.352,39.352,0,0,0-8.385,4.648c-7.255,5.238-10.009,12.148-8.091,20.977a142.513,142.513,0,0,1,3.074,22.574,75.8,75.8,0,0,1-2.656,22.9c-1.525-1.205-2.705-2.213-3.96-3.123-3.024-2.263-6.247-4.033-10.254-3.836-2.73.123-4.968.983-6.2,3.59-1.229,2.68.345,4.549,1.918,6.418.935,1.107,2.41,1.672,3,3.1-1.353.983-2.729,1.8-3.91,2.852-3.294,3-3.073,6.468.542,9.025a11.542,11.542,0,0,0,12.147,1.008,34.643,34.643,0,0,0,8.632-6.123c.836,1.033,2.385,1.3,2.36,3.123q-20.545,8.854-41.092,17.755a3.639,3.639,0,0,1-3.763-.221c-1.894-1.254-3.836-2.434-5.8-3.516-6.763-3.763-12.886-8.583-19.968-11.8a22.035,22.035,0,0,0-19.624.3,157.459,157.459,0,0,0-25.182,15.517c-1.131.811-2.065,1.992-3.591,2.213-.762-1.3-.417-2.533-.467-3.689-.22-4.279-.147-8.583-.663-12.788-.3-2.336.344-3.27,2.41-4.132a106.4,106.4,0,0,0,22.82-13.181c10.7-8.165,11.927-18.665,4.919-30.026a29.02,29.02,0,0,0-4.894-5.8,86.419,86.419,0,0,0-18.345-13.476,323.983,323.983,0,0,0-54.125-22.648c-3.418-1.058-6.96-1.8-10.058-3.763a126.122,126.122,0,0,0-31.919-14.558c-3.172-.934-3.148-.958-3.468-4.3a41.863,41.863,0,0,0-7.746-21.148,28.236,28.236,0,0,0-10.8-9.32c-7.721-3.664-15.688-2.385-21.787,3.541a27.2,27.2,0,0,0-6.861,11.139c-.368,1.157-.762,2.312-1.205,3.616-1.425-1.181-1.795-2.509-2.483-3.64a30.764,30.764,0,0,0-11.583-11.36,18.829,18.829,0,0,0-23.14,3.442,26.637,26.637,0,0,0-6.369,10.525c-2.705,8.091-2.533,16.28-.713,24.493.688,3.123.738,3.148-1.87,4.648a121.314,121.314,0,0,0-24.247,18.271,16.241,16.241,0,0,1-8.557,4.746,12.5,12.5,0,0,0-2.312.664c-12.492,5.041-24.788,10.5-36.371,17.485-6.983,4.205-13.623,8.9-19.205,14.927a33.075,33.075,0,0,0-5.73,8.164c-3.344,6.985-2.36,13.55,2.828,19.255a35.571,35.571,0,0,0,9.96,7.3,101.434,101.434,0,0,0,18.3,6.91c3,.885,3.05.885,2.853,4.082a114.094,114.094,0,0,0,.419,18.787,4.815,4.815,0,0,1-1.648,4.23,40.87,40.87,0,0,1-12.517,8.484c-16.846,7.574-34.4,9.074-52.453,6.1a54.722,54.722,0,0,1-12.984-3.861,2.384,2.384,0,0,0-2.631.123c-1.058.811-.811,1.844-.639,2.926a3.724,3.724,0,0,0,1.426,2.312c5.386,4.6,10.5,9.492,16.722,13.009a133.947,133.947,0,0,0,25.944,11.411c17.214,5.336,34.6,8.9,52.7,4.8a1.753,1.753,0,0,1,2.042.836c1.843,3.025,3.712,6.049,5.95,9.664-7.574-.123-14.484.393-21.345-.319a38.619,38.619,0,0,0-12.714.738c-24.148,5.36-39.862,29.73-34.305,53.83,2.459,10.672,7.23,18.665,13.722,24.272a7.311,7.311,0,0,1-3.983,1.057c-3.541,0-5.263-1.844-7.427-4.156-2.385-2.557-5.337-5.73-11.041-5.73-5.681,0-8.632,3.172-11.017,5.73-2.164,2.312-3.886,4.156-7.427,4.156s-5.263-1.844-7.427-4.156c-2.386-2.557-5.337-5.73-11.017-5.73a2.436,2.436,0,0,0-2.459,2.459,2.451,2.451,0,0,0,2.459,2.459c3.541,0,5.263,1.845,7.427,4.156,2.385,2.558,5.336,5.73,11.017,5.73s8.656-3.172,11.041-5.73c2.164-2.311,3.861-4.156,7.4-4.156,3.565,0,5.262,1.845,7.426,4.156,2.386,2.558,5.362,5.73,11.042,5.73a12.269,12.269,0,0,0,8.115-2.9,31.894,31.894,0,0,0,2.9-2.829c.2-.2.368-.393.541-.565,1.943-2.042,3.64-3.591,6.885-3.591,3.566,0,5.263,1.845,7.427,4.156,2.386,2.558,5.361,5.73,11.042,5.73s8.631-3.172,11.017-5.73c2.164-2.311,3.884-4.156,7.426-4.156,3.565,0,5.262,1.845,7.451,4.156,2.361,2.558,5.337,5.73,11.017,5.73s8.656-3.172,11.017-5.73c2.188-2.311,3.886-4.156,7.452-4.156,3.541,0,5.238,1.845,7.426,4.156,2.165,2.362,4.87,5.238,9.739,5.681.417.025.834.049,1.278.049a12.528,12.528,0,0,0,1.4-.074c4.8-.467,7.451-3.32,9.64-5.656,2.164-2.311,3.885-4.156,7.426-4.156s5.263,1.845,7.426,4.156c1.993,2.139,4.378,4.7,8.387,5.484a14.486,14.486,0,0,0,2.63.246,13.862,13.862,0,0,0,2.78-.27c3.959-.836,6.294-3.345,8.262-5.46,2.164-2.311,3.885-4.156,7.427-4.156s5.262,1.845,7.451,4.156c1.893,2.041,4.156,4.476,7.894,5.386a13.466,13.466,0,0,0,3.123.344,12.814,12.814,0,0,0,3.2-.369c3.689-.91,5.952-3.32,7.845-5.362,2.163-2.311,3.886-4.156,7.426-4.156s5.263,1.845,7.427,4.156c1.82,1.943,3.985,4.255,7.4,5.238a12.756,12.756,0,0,0,3.64.492,12.672,12.672,0,0,0,3.787-.541h.024c3.32-1.008,5.435-3.27,7.206-5.189,2.188-2.311,3.885-4.156,7.45-4.156,3.542,0,5.263,1.845,7.427,4.156a18.2,18.2,0,0,0,6.049,4.746,12.2,12.2,0,0,0,4.993.984,12.3,12.3,0,0,0,5.411-1.157,18.5,18.5,0,0,0,5.606-4.574c2.165-2.311,3.886-4.156,7.427-4.156s5.262,1.845,7.451,4.156a20.4,20.4,0,0,0,4.771,4.132,12.217,12.217,0,0,0,6.246,1.6,12.478,12.478,0,0,0,6.664-1.82,22.847,22.847,0,0,0,4.378-3.91c2.165-2.311,3.886-4.156,7.426-4.156a7.331,7.331,0,0,1,4.5,1.4,20.273,20.273,0,0,1,2.926,2.754c.073.1.172.173.246.27,2.336,2.509,5.312,5.46,10.8,5.46,5.681,0,8.656-3.172,11.041-5.73,2.165-2.311,3.886-4.156,7.427-4.156s5.263,1.845,7.426,4.156c2.386,2.558,5.362,5.73,11.043,5.73s8.656-3.172,11.042-5.73c2.163-2.311,3.885-4.156,7.426-4.156,3.565,0,5.287,1.845,7.45,4.156,2.386,2.558,5.362,5.73,11.043,5.73s8.656-3.172,11.041-5.73c2.164-2.311,3.886-4.156,7.427-4.156a2.45,2.45,0,0,0,2.459-2.459,2.435,2.435,0,0,0-2.459-2.459c-5.682,0-8.656,3.172-11.041,5.73-2.165,2.312-3.886,4.156-7.427,4.156-3.565,0-5.263-1.844-7.452-4.156-2.385-2.557-5.336-5.73-11.041-5.73-5.681,0-8.656,3.172-11.017,5.73-2.188,2.312-3.91,4.156-7.451,4.156s-5.263-1.844-7.427-4.156c-2.385-2.557-5.36-5.73-11.041-5.73s-8.655,3.172-11.041,5.73c-2.164,2.312-3.886,4.156-7.427,4.156-3.344,0-5.066-1.647-7.057-3.786,16.7-16.353,19.353-45.347,1.868-63.544-8.189-8.558-18.345-12.517-30.075-12.861-2.312-.073-4.648.369-7.255-.172.935-1.451,2.189-1.623,3.221-2.091,18.641-8.262,37.331-16.427,55.922-24.812a6.442,6.442,0,0,1,6.615.418c19.476,11.361,39.027,22.6,58.552,33.887.911.516,1.82,1.082,2.73,1.648a2.342,2.342,0,0,1,1.376,2.581c-.443,2.656.738,4.943,1.943,7.206,2.262,4.254,5.779,7.279,9.566,10.058C-388.651-1-381.643,3.4-374.66,7.778c1.967,1.205,2.853,1.082,4.477-.738.442-.491.836-1.033,1.254-1.574q32.424-41.977,64.847-84c1.3-1.7,2.558-3.418,3.861-5.115a2.823,2.823,0,0,0-.173-3.959,8.83,8.83,0,0,0-3.294-2.877M-395.66-69.735a4.449,4.449,0,0,1-.787-1.82c-.345-1.844.712-2.7,2.509-2.042a9.853,9.853,0,0,1,4.672,3.615,30.582,30.582,0,0,1,3.983,7.451c-4.524-1.721-7.869-3.861-10.377-7.2m-43.625-70.4c.369-.984,1.353-1.106,2.312-1.156a6.994,6.994,0,0,1,3.443.836,20.416,20.416,0,0,1,8.853,7.624c-5.435-.394-9.984-1.7-13.623-5.288-.565-.541-1.3-1.155-.984-2.016m6.123,17.607a5.4,5.4,0,0,1-.762.246c-2.238.418-5.951-1.008-6.319-2.434-.37-1.3,2.188-3.394,4.942-3.811,3.27-.468,6.542-.173,10.673.245a18.3,18.3,0,0,1-8.533,5.755m51.519,45.15c.073-.492.172-1.082.811-1.205a1.534,1.534,0,0,1,1.623.885,15.274,15.274,0,0,1,1.895,13.255,3.173,3.173,0,0,1-1.746,2.509c-3.1-4.943-3.468-10.083-2.582-15.444m-29.116,16.648c.541-.664,1.205-.172,1.746.2q10.107,6.381,20.189,12.788c2.139,1.352,1.672,3.345,1.573,5.263a1.8,1.8,0,0,1-1.647-.369c-6.959-4.672-13.918-9.32-20.853-14.017a4.069,4.069,0,0,1-1.451-1.279,2.287,2.287,0,0,1,.443-2.582m-3.689,8.362a2.2,2.2,0,0,1,1.328-1.451c.417.221.909.442,1.327.712q10.808,7.231,21.566,14.485c.787.541,1.575,1.033.787,2.213-.762,1.131-1.5.738-2.36.172q-10.846-7.082-21.74-14.189c-.688-.443-1.279-.984-.91-1.942m21.223,21.247c-.516.934-1.279,1.819-2.558,1.328a19.139,19.139,0,0,1-2.139-1.057c-7.624-4.132-14.386-9.566-21.985-13.993a6.611,6.611,0,0,1,2.73-3.246c4.132,2.754,8.312,5.558,12.492,8.362q5.164,3.429,10.3,6.885c.565.419,1.7.665,1.156,1.722M-405.767-97.3c-8.362,3.689-16.747,7.427-25.132,11.091-.615.271-1.574.886-1.942-.344-.32-1.082.712-1.328,1.353-1.647q10.1-4.759,20.214-9.468c2.238-1.057,4.475-2.066,6.788-3.148.811,1.968.147,2.877-1.279,3.517m-28.28.958a4.748,4.748,0,0,1,1.082-.491q12.615-5.571,25.205-11.091c.836-.369,1.747-1.082,2.459,0,.714,1.057,1.033,2.238-.54,2.975-1.55.714-3.123,1.476-4.673,2.214q-9.923,4.647-19.87,9.344c-.836.394-1.7.737-2.385,1.057a1.2,1.2,0,0,1-1.525-1.082c-.246-.984-.835-2.066.247-2.927m-1.082-4.205c-.246.1-.517.124-.762.2-.837.172-1.23-.394-1.5-.983-.492-1.058.27-1.353,1.058-1.7,4.721-2.091,9.443-4.205,14.189-6.271,4.132-1.8,8.312-3.541,12.443-5.312.861-.369,1.525-.3,1.992.565.565,1.008-.024,1.4-.836,1.771q-13.316,5.865-26.583,11.729M-405.767-205.6c1.156.32,1.255,1.377,1.574,2.164,1.894,4.721,3.737,9.443,5.583,14.164q15.27,38.916,30.541,77.832c.369,1.008.762,1.992,1.034,3.024a1.318,1.318,0,0,1-.861,1.6c-.811.369-1.279-.074-1.573-.738-.37-.861-.665-1.746-1.008-2.606q-17.633-45.74-35.239-91.456a22,22,0,0,1-.985-3.049c-.2-.738.541-.713.935-.934m-13.3,71.781c.467-2.729.049-5.606,1.574-8.287,2.827,1.451,5.68,2.533,8.828,2.263a13.426,13.426,0,0,0,1.992-.148A1.881,1.881,0,0,0-405-141.935a1.719,1.719,0,0,0-1.771-1.771,15.715,15.715,0,0,0-2.409-.049,9.736,9.736,0,0,1-3.91-.689c-3.075-1.23-3.861-2.41-3.567-5.73a4.805,4.805,0,0,1,.762-2.976c1.845.59,3.738,1.6,5.854,1.549a18.484,18.484,0,0,0,1.991.123c1.206-.123,2.509-.345,2.483-1.992,0-1.352-1.007-1.771-2.114-1.942a26.567,26.567,0,0,0-2.8-.2,7.874,7.874,0,0,1-4.328-1.844,2.859,2.859,0,0,1-1.353-2.288,182.5,182.5,0,0,0-3.443-26.558c-1.229-6.567,1.452-11.411,6.665-15.124,1.893-1.353,2.164-1.3,3.073,1.008,3.419,8.8,6.787,17.657,10.206,26.485q12.578,32.645,25.182,65.29c1.918,5.017,2.089,3.935-2.557,6.443-5.042,2.7-10.108,5.409-15.37,7.672a12.624,12.624,0,0,1-5.78,1.328c-1.7-.1-2.41-.885-2.262-2.533a11.261,11.261,0,0,1,.173-1.574c1.131-4.476.049-8.632-1.279-12.91A24.484,24.484,0,0,0-412.9-124.622c-.909-.541-1.844-1.082-2.7-1.7-2.631-1.82-4.033-4.205-3.468-7.5M-440.2-108.565q12.689-5.458,25.329-10.918a1.8,1.8,0,0,1,2.607.909,3.591,3.591,0,0,1-1.967,1.4q-11.694,5.2-23.387,10.377a9.917,9.917,0,0,1-1.845.738,1.551,1.551,0,0,1-1.868-1.132c-.221-.737.491-1.082,1.131-1.377m-80.119-.245a122.939,122.939,0,0,1,12.936-7.181,17.671,17.671,0,0,1,16.476-.148c6.591,3.05,12.271,7.55,18.566,11.017,1.624.91,3.124,1.992,5.362,3.443C-514.24-81.341-560.939-61.2-607.663-41.085l-.442-.738c7.328-5.755,14.73-11.459,22.034-17.287,9.394-7.477,18.492-15.32,28.107-22.5,12.419-9.271,24.714-18.69,37.649-27.2m-51.223-89.513a300.2,300.2,0,0,1,36.1,16.108,77.141,77.141,0,0,1,20.116,15,21.048,21.048,0,0,1,6.419,14.657,12.826,12.826,0,0,1-2.436,7.869,19.071,19.071,0,0,1-3.934,4.476,122.5,122.5,0,0,1-24.592,14.262,128.981,128.981,0,0,0-8.409-28.87c-.665-1.574-.222-2.41,1.18-3.172a41.706,41.706,0,0,0,7.673-5.041,17.579,17.579,0,0,0,2.263-2.238,1.82,1.82,0,0,0-.073-2.558c-.762-.811-1.894-.959-2.459-.148-2.632,3.615-5.165,1.623-7.82.124a18.9,18.9,0,0,0-4.7-2.19c-3.714-.811-5.779-3.246-7.747-6.246a115.41,115.41,0,0,0-19.894-22.895c-.934-.836-2.164-1.475-2.8-3.344,3.984,1.5,7.526,2.926,11.115,4.2m18.616,32.436c2.139.516,3.763,1.721,5.95,2.9-4.057,3.024-4.351,2.852-5.95-2.9m-123.006-74.783c1.18-5.312,3.073-10.2,7.156-13.968,4.8-4.451,10.354-5.263,16.28-2.73,5.091,2.19,8.533,6.222,11.385,10.845.96,1.549.272,2.435-.687,3.443-4.353,4.7-9.862,7.107-16.083,8.017-1.451.221-2.926.2-4.4.3a27.149,27.149,0,0,1-11.657-2.238c-1.648-.738-2.459-1.6-1.992-3.664m14.238,10.279c5.091-.123,9.886-1.647,14.559-3.246,1.057,1.057.688,2.188.86,3.2a18.881,18.881,0,0,0,1.132,4.647c1.819,4.427,3.861,5.558,9.025,4.722-.836,6.369-2.852,11.779-7.3,16.033-4.869,4.673-10.893,5.583-16.943,2.632a21.733,21.733,0,0,1-4.967-3.345c-6.887-6.123-11.534-17.459-11.017-27.369,4.82,1.5,9.59,2.877,14.656,2.729m-20.582,17.952a22.33,22.33,0,0,1-5.754,10.009,14.562,14.562,0,0,1-17.313,2.754,22.844,22.844,0,0,1-7.7-6.247,38.161,38.161,0,0,1-8.066-19.452c10.279,2.9,20.141,2.041,29.977-1.377.566,6.419,1.476,12.369,8.853,14.312m-33.3-37.4c5.039-6.468,12.86-7.943,19.967-3.836,5.533,3.2,9,8.189,11.607,13.869a2.916,2.916,0,0,1-.466,3.319,17.166,17.166,0,0,1-5.951,4.574,43.022,43.022,0,0,1-19.083,4.107,25.287,25.287,0,0,1-9.64-1.7,3.17,3.17,0,0,1-2.311-3.615c.491-6.1,2.09-11.829,5.878-16.722m-83.981,125.932A46.592,46.592,0,0,1-814.623-132c-6.419-5.435-7.378-11.681-2.927-18.812,3.1-4.943,7.4-8.73,12.026-12.2,10.623-7.968,22.427-13.87,34.5-19.231a61.814,61.814,0,0,1,10.353-4.033,4.639,4.639,0,0,1-1.476,2.779,117.72,117.72,0,0,0-14.656,23.78,8.9,8.9,0,0,1-4.549,4.721,29.4,29.4,0,0,0-5.411,3.394c-1.622,1.279-3.048,1.82-5.065.811-1.328-.664-3.3-1.721-4.033.59-.713,2.188,1.5,2.582,2.878,3.074,4.771,1.721,9.517,3.467,14.385,4.844a98.847,98.847,0,0,0,23.952,4.082,7.124,7.124,0,0,1,5.459,2.951c2.9,3.763,4.4,7.968,2.657,12.69s-5.41,7.107-10.28,7.77a25.064,25.064,0,0,1-7.181-.221,199.118,199.118,0,0,1-35.559-8.9m18.2-26.116c0,1.18.049,2.237-1.5,2.213-.368,0-.91-.173-.811-.615.245-1.156,1.155-1.475,2.311-1.6m11.533,102c-.737-1.378-1.525-1.992-3.148-1.328-5.165,2.188-10.7,2.04-16.132,2.385-7.5.467-14.9-.811-22.182-2.41A142.354,142.354,0,0,1-849.74-63.636a58.856,58.856,0,0,1-11.312-7.87c3.124-.516,5.484.541,7.82.91a93.714,93.714,0,0,0,50.216-5.8,49.459,49.459,0,0,0,15.763-10.033,9.539,9.539,0,0,0,3.148-8.951,89.083,89.083,0,0,1-.27-19.354c1.6.3,3.073.419,4.45.811,5.9,1.722,12,2.434,18.027,3.492,8.68,1.5,17.239-3.639,19.673-11.483,3.048-9.984-4.18-20.067-15.05-20.78a112.844,112.844,0,0,1-17.731-2.8c-2.7-.615-2.778-.836-1.721-3.517q15.417-39.912,52.305-61.675c2.385-1.426,2.46-1.377,3.813,1.082a34.564,34.564,0,0,0,8.754,10.82c10.427,8.337,23.091,6.271,30.37-4.942,2.041-3.148,3.123-6.714,4.4-10.255,1.328.885,1.623,2.263,2.311,3.369a32.792,32.792,0,0,0,9.763,10.452c9.492,6.271,20.435,4.328,27.272-4.8,3.27-4.4,4.918-9.419,5.9-14.73.542-2.976.591-3.025,3.492-2.139a117.664,117.664,0,0,1,52.724,32.78c22.992,24.763,33.813,54.224,32.952,87.988a5.193,5.193,0,0,1-2.31,4.721C-567.529-80.8-587.965-62.5-609.63-45.832a151.056,151.056,0,0,0-12.738,10.353,3.831,3.831,0,0,1-2.8,1.254q-38.029.036-76.06.172c-18.567.05-37.108-.049-55.675.123a6.648,6.648,0,0,1-6.467-3.492c-2.188-3.492-4.5-6.935-6.443-10.6m245.1,18.1c9.37.024,17.239,4.353,23.658,11.066,15.861,16.648,13.452,42.814-1.8,57.642a12.379,12.379,0,0,0-8.337-3.074c-5.68,0-8.656,3.172-11.041,5.73-2.163,2.312-3.884,4.156-7.426,4.156s-5.263-1.844-7.427-4.156c-2.385-2.557-5.361-5.73-11.041-5.73s-8.632,3.172-11.017,5.73c-2.164,2.312-3.886,4.156-7.427,4.156s-5.262-1.844-7.452-4.156c-2.361-2.557-5.336-5.73-11.017-5.73s-8.655,3.172-11.041,5.73c-2.164,2.312-3.886,4.156-7.426,4.156s-5.263-1.844-7.427-4.156c-2.385-2.557-5.361-5.73-11.042-5.73s-8.655,3.172-11.042,5.73c-2.163,2.312-3.884,4.156-7.426,4.156s-5.262-1.844-7.427-4.156c-2.385-2.557-5.336-5.73-11.041-5.73-5.68,0-8.632,3.172-11.017,5.73-2.188,2.312-3.885,4.156-7.452,4.156-3.541,0-5.238-1.844-7.426-4.156-2.361-2.557-5.337-5.73-11.017-5.73s-8.657,3.172-11.041,5.73c-2.165,2.312-3.886,4.156-7.427,4.156s-5.263-1.844-7.426-4.156c-2.387-2.557-5.337-5.73-11.017-5.73-5.706,0-8.657,3.172-11.042,5.73-2.164,2.312-3.885,4.156-7.427,4.156s-5.263-1.844-7.426-4.156c-2.385-2.557-5.337-5.73-11.042-5.73-5.68,0-8.631,3.172-11.017,5.73-2.164,2.312-3.885,4.156-7.426,4.156s-5.263-1.844-7.427-4.156c-2.385-2.557-5.336-5.73-11.041-5.73-5.68,0-8.631,3.172-11.017,5.73-7.353-5.68-11.754-13.82-13.255-23.829-2.631-17.386,3.64-31.527,18.2-41.559a34.92,34.92,0,0,1,20.387-6.05q66.284.147,132.572.049v-.073c44.977,0,89.98-.1,134.981.1M-544.561-35.9a20.779,20.779,0,0,1-8.878,1.868c-17.729-.123-35.485-.1-53.215-.123h-3.861c-.049-.319-.073-.639-.123-.958,5.213-2.263,10.451-4.55,15.689-6.812q71.523-30.838,143.1-61.651c6.245-2.68,6.836-2.459,10.353,3.467,2.509,4.205,3.615,8.829,4.574,13.55.394,1.967.05,3.1-2.041,3.959-6.393,2.657-12.665,5.583-19.009,8.386Q-501.281-55.066-544.561-35.9m112.85-8.337c-11.731-6.885-23.534-13.623-35.363-20.46a1.876,1.876,0,0,1,1.3-1.451c8.655-3.836,17.311-7.623,25.943-11.509a4.172,4.172,0,0,1,4.452.3q9.406,6.123,18.91,12.05a2.73,2.73,0,0,1,1.378,3.615,31.9,31.9,0,0,1-11.558,16.87c-1.5,1.18-3,1.819-5.066.59m6.541,3.738c.983-1.549,1.918-1.893,3.32-.959,2.09,1.426,4.279,2.73,6.369,4.132,4.524,3.05,9.025,6.147,13.55,9.222-.147.246-.3.517-.443.762-7.549-4.353-15.074-8.705-22.8-13.156M-378-1.3c-.64.861-1.328,1.23-2.337.492-5.9-4.131-12.271-7.574-17.533-12.59a17.739,17.739,0,0,1-4.894-7.673c-.394-1.229-.123-1.893,1.376-2.188,11.73-2.214,18.837-11.14,18.789-23.51,0-1.328-.05-2.68-.074-4.008a4.775,4.775,0,0,1,1.55-3.983,33.436,33.436,0,0,1,10.181-5.9c.836,1.746.369,3.222.441,4.648a14.287,14.287,0,0,0,2.264,6.763c.638,1.057,1.572,1.942,2.95,1.057a1.947,1.947,0,0,0,.59-2.8c-.393-.836-.762-1.7-1.131-2.558-1.967-4.427-.024-10.722,5.509-11.705.319,1.647.59,3.32,1.008,4.943a19.948,19.948,0,0,0,1.378,3.738c.664,1.279,1.5,2.926,3.3,1.992,1.82-.935.934-2.434.319-3.811a20.771,20.771,0,0,1-1.426-4.156c-.714-3.689.172-7.107,3.443-9.123,6.319-3.886,11.484-9.1,16.992-13.943,2.9-2.558,5.829-5.115,9.639-6.3,5.631-1.746,10.6-.2,15.616,3.1-2.164,2.828-4.083,5.361-6.05,7.894Q-346.317-42.082-376.528-3.19c-.491.615-1.008,1.254-1.475,1.893M-306.3-82.67q-13.685,17.78-27.394,35.51Q-352.172-23.22-370.651.695c-.565.738-1.132,1.476-1.746,2.213a1.1,1.1,0,0,1-1.7.2,1.185,1.185,0,0,1-.369-1.967c.319-.418.64-.861.958-1.279q32.941-42.346,65.856-84.741a12.147,12.147,0,0,1,1.6-1.771c.2-.172.787-.073,1.082.1s.467.59.787.984c-.712.983-1.377,1.967-2.115,2.9" transform="translate(882.84 263.059)" fill="#2b2b2b"/>
      </g>
      <g id="Group_6359" data-name="Group 6359" transform="translate(204.524 0)">
        <path id="Path_5248" data-name="Path 5248" d="M-2.057-4.107c.35-.19.691-.4,1.054-.56,9.647-4.149,19.26-4.66,28.792.344,1.414.743,2.939,2,4.109,0,1.148-1.965-.663-2.795-1.98-3.659a10.386,10.386,0,0,0-2.082-1.163c-4.381-1.581-8.78-3.115-13.267-2.735A37.15,37.15,0,0,0-3.751-7.62C-5.8-6.546-6.5-4.947-5.587-3.873c1.216,1.431,2.385.382,3.53-.235" transform="translate(5.981 11.94)" fill="#2b2b2b"/>
      </g>
      <g id="Group_6360" data-name="Group 6360" transform="translate(151.165 5.638)">
        <path id="Path_5249" data-name="Path 5249" d="M-1.719-6.248A30.094,30.094,0,0,1,1.4-8.735c8.226-4.854,16.917-6.916,26.355-4.154a5.5,5.5,0,0,0,1.149.3,1.825,1.825,0,0,0,1.973-1.028,1.972,1.972,0,0,0-.333-2.224A6.571,6.571,0,0,0,27.467-17.6c-2.2-.76-4.48-.5-6.731-.562A37.715,37.715,0,0,0-.142-12.444a16.377,16.377,0,0,0-4.267,3.58,1.827,1.827,0,0,0-.13,2.54c.885,1.019,1.869.826,2.82.076" transform="translate(4.998 18.165)" fill="#2b2b2b"/>
      </g>
      <g id="Group_6361" data-name="Group 6361" transform="translate(154.663 101.175)">
        <path id="Path_5250" data-name="Path 5250" d="M-.708-10.449c1.221.407,2.031-.261,2.581-1.307.681-1.3,1.273-2.646,2.047-3.882,2.24-3.571,2.273-3.56,5.425-.761C21.2-5.875,34.6,1.3,50.671,2.616,60.517,3.422,69.741,1.5,78.078-4a12.48,12.48,0,0,0,2.135-1.776,1.691,1.691,0,0,0,.21-2.2,1.832,1.832,0,0,0-2.049-.9,5.166,5.166,0,0,0-1.8.79C66.717-1.285,55.817-.217,44.448-2.536,30.866-5.309,19.555-12.265,9.82-21.846a3.962,3.962,0,0,1,1.96-2.187c1.363-.818,2.784-1.548,4.216-2.244,1.242-.6,2.009-1.5,1.4-2.846-.581-1.289-1.8-1.492-3.067-1.023a17.138,17.138,0,0,0-2.91,1.3A33.535,33.535,0,0,0-1.015-15.615a11.551,11.551,0,0,0-.855,2.228c-.363,1.253-.314,2.447,1.162,2.938" transform="translate(2.059 30.376)" fill="#2b2b2b"/>
      </g>
      <g id="Group_6362" data-name="Group 6362" transform="translate(299.933 106.034)">
        <path id="Path_5251" data-name="Path 5251" d="M-1.67-3.7C2.86,2.388,7.666,8.232,10.853,15.273A135.726,135.726,0,0,1,20.7,47.685a9.375,9.375,0,0,0,.453,1.933,1.789,1.789,0,0,0,1.931,1.109,1.7,1.7,0,0,0,1.694-1.414,19.363,19.363,0,0,0,.164-2.27c-.137-.915-.276-2.105-.5-3.279-1-5.247-2.738-10.3-4.06-15.46C16.633,13.683,8.257,1.752-1.253-9.55c-.7-.835-1.519-1.673-2.7-.863-1.286.88-1,2.12-.336,3.187C-3.519-5.986-2.546-4.872-1.67-3.7" transform="translate(4.855 10.742)" fill="#2b2b2b"/>
      </g>
      <g id="Group_6363" data-name="Group 6363" transform="translate(326.597 174.619)">
        <path id="Path_5252" data-name="Path 5252" d="M-.949-.005c-1.019-.079-1.8.31-1.809,1.5A1.492,1.492,0,0,0-1.4,3.113C-.3,3.256.274,2.628.414,1.595A1.4,1.4,0,0,0-.949-.005" transform="translate(2.758 0.015)" fill="#2b2b2b"/>
      </g>
      <g id="Group_6364" data-name="Group 6364" transform="translate(63.54 260.608)">
        <path id="Path_5253" data-name="Path 5253" d="M-52.185-.363A29.958,29.958,0,0,0-55.38-.477Q-88.8-.764-122.21-1.053a32.61,32.61,0,0,0-18.158,5.195,36.505,36.505,0,0,0-10.08,9.021c-.964,1.31-2.1,2.806-.331,4.155,1.637,1.248,2.6-.274,3.569-1.382a46.821,46.821,0,0,1,3.764-4.138c5.9-5.316,12.368-8.853,20.816-8.494,10.652.453,21.339.11,32.011.11V3.6q17.609,0,35.217-.005a23.644,23.644,0,0,0,3.193-.121,1.853,1.853,0,0,0,1.688-1.924A1.771,1.771,0,0,0-52.185-.363" transform="translate(151.706 1.055)" fill="#2b2b2b"/>
      </g>
      <g id="Group_6365" data-name="Group 6365" transform="translate(59.903 283.797)">
        <path id="Path_5254" data-name="Path 5254" d="M-.844,0A1.522,1.522,0,0,0-2.439,1.4c-.125,1.118.575,1.658,1.64,1.71C.134,3.16.633,2.649.782,1.708.706.731.327-.027-.844,0" transform="translate(2.453 0.001)" fill="#2b2b2b"/>
      </g>
    </g>
  </g>
</svg>
